<svg width="73" height="18" viewBox="0 0 73 18" fill="none" xmlns="http://www.w3.org/2000/svg">
<path d="M10.252 17L9.13 13.524H3.454L2.332 17H0.462L5.434 2.04H7.238L12.232 17H10.252ZM4.84 9.212L4.004 11.786H8.558L7.722 9.212L6.292 4.592L4.84 9.212ZM14.6113 14.36V0.72H16.4153V14.272C16.4153 14.668 16.4739 14.9687 16.5913 15.174C16.7233 15.3647 16.9799 15.46 17.3613 15.46H17.7133V17.11H17.2073C16.2393 17.11 15.5646 16.8533 15.1833 16.34C14.8019 15.8267 14.6113 15.1667 14.6113 14.36ZM27.144 17V15.46C26.3814 16.12 25.6994 16.582 25.098 16.846C24.4967 17.0953 23.8954 17.22 23.294 17.22C22.326 17.22 21.5854 16.9047 21.072 16.274C20.5587 15.6287 20.302 14.7267 20.302 13.568V6.11H22.106V13.304C22.106 14.0667 22.238 14.6313 22.502 14.998C22.7807 15.35 23.1914 15.526 23.734 15.526C24.1447 15.526 24.6067 15.4233 25.12 15.218C25.6334 15.0127 26.2714 14.602 27.034 13.986V6.11H28.838V17H27.144ZM37.8491 7.584C37.4384 7.584 36.9764 7.694 36.4631 7.914C35.9498 8.11933 35.3044 8.53 34.5271 9.146V17H32.7231V6.11H34.4391V7.628C35.2164 6.98267 35.9058 6.53533 36.5071 6.286C37.1084 6.022 37.7024 5.89 38.2891 5.89C38.9784 5.89 39.5504 6.05133 40.0051 6.374C40.4598 6.682 40.7971 7.12933 41.0171 7.716C41.8238 7.02667 42.5424 6.55 43.1731 6.286C43.8184 6.022 44.4491 5.89 45.0651 5.89C46.0331 5.89 46.7738 6.21267 47.2871 6.858C47.8004 7.48867 48.0571 8.39067 48.0571 9.564V17H46.2531V9.828C46.2531 8.332 45.7104 7.584 44.6251 7.584C44.2144 7.584 43.7451 7.694 43.2171 7.914C42.7038 8.11933 42.0584 8.53 41.2811 9.146C41.2958 9.20467 41.3031 9.27067 41.3031 9.344C41.3031 9.41733 41.3031 9.49067 41.3031 9.564V17H39.4991V9.828C39.4991 8.332 38.9491 7.584 37.8491 7.584ZM53.7582 3.448H51.7342V1.424H53.7582V3.448ZM53.6482 17H51.8442V6.11H53.6482V17ZM62.7736 7.584C62.3629 7.584 61.8789 7.68667 61.3216 7.892C60.7789 8.09733 60.1189 8.51533 59.3416 9.146V17H57.5376V6.11H59.2536V7.628C60.0309 6.968 60.7349 6.51333 61.3656 6.264C62.0109 6.01467 62.6269 5.89 63.2136 5.89C64.2256 5.89 64.9956 6.21267 65.5236 6.858C66.0662 7.48867 66.3376 8.39067 66.3376 9.564V17H64.5336V9.828C64.5336 8.332 63.9469 7.584 62.7736 7.584ZM72.0199 3.448H69.9959V1.424H72.0199V3.448ZM71.9099 17H70.1059V6.11H71.9099V17Z" fill="#1A3C6C"/>
</svg>
