<svg width="112" height="17" viewBox="0 0 112 17" fill="none" xmlns="http://www.w3.org/2000/svg">
<g id="Committee">
<path id="Vector" d="M111.131 15.4523C110.485 15.7682 109.838 15.9835 109.192 16.0984C108.546 16.2276 107.95 16.2923 107.405 16.2923C105.868 16.2923 104.719 15.8543 103.958 14.9784C103.212 14.1025 102.838 12.9035 102.838 11.3815V10.0892C102.838 8.61021 103.212 7.42559 103.958 6.53534C104.719 5.64508 105.789 5.19995 107.168 5.19995C107.9 5.19995 108.568 5.35072 109.171 5.65226C109.788 5.93944 110.276 6.38457 110.635 6.98764C111.009 7.57636 111.195 8.33739 111.195 9.27072C111.195 9.8738 111.109 10.563 110.937 11.3384H104.583V11.3815C104.583 12.4728 104.806 13.2984 105.251 13.8584C105.71 14.4184 106.442 14.6984 107.448 14.6984C107.907 14.6984 108.41 14.641 108.955 14.5261C109.515 14.4112 110.061 14.2317 110.592 13.9876L111.131 15.4523ZM107.168 6.75072C106.335 6.75072 105.703 7.02354 105.272 7.56918C104.856 8.10046 104.626 8.85431 104.583 9.83072H109.408C109.451 9.57226 109.472 9.32816 109.472 9.09841C109.472 8.29431 109.242 7.70559 108.783 7.33226C108.338 6.94457 107.799 6.75072 107.168 6.75072Z" fill="#1A3C6C"/>
<path id="Vector_2" d="M98.9847 15.4523C98.3385 15.7682 97.6924 15.9835 97.0462 16.0984C96.4001 16.2276 95.8042 16.2923 95.2585 16.2923C93.7221 16.2923 92.5734 15.8543 91.8124 14.9784C91.0657 14.1025 90.6924 12.9035 90.6924 11.3815V10.0892C90.6924 8.61021 91.0657 7.42559 91.8124 6.53534C92.5734 5.64508 93.6432 5.19995 95.0216 5.19995C95.7539 5.19995 96.4216 5.35072 97.0247 5.65226C97.6421 5.93944 98.1303 6.38457 98.4893 6.98764C98.8626 7.57636 99.0493 8.33739 99.0493 9.27072C99.0493 9.8738 98.9632 10.563 98.7908 11.3384H92.437V11.3815C92.437 12.4728 92.6596 13.2984 93.1047 13.8584C93.5642 14.4184 94.2965 14.6984 95.3016 14.6984C95.7611 14.6984 96.2637 14.641 96.8093 14.5261C97.3693 14.4112 97.915 14.2317 98.4462 13.9876L98.9847 15.4523ZM95.0216 6.75072C94.1888 6.75072 93.557 7.02354 93.1262 7.56918C92.7098 8.10046 92.4801 8.85431 92.437 9.83072H97.2616C97.3047 9.57226 97.3262 9.32816 97.3262 9.09841C97.3262 8.29431 97.0965 7.70559 96.637 7.33226C96.1919 6.94457 95.6534 6.75072 95.0216 6.75072Z" fill="#1A3C6C"/>
<path id="Vector_3" d="M87.6363 15.6893C86.8322 16.0913 85.9779 16.2923 85.0733 16.2923C84.2979 16.2923 83.6876 16.1344 83.2425 15.8185C82.8117 15.5026 82.503 15.079 82.3163 14.5477C82.144 14.0164 82.0579 13.4277 82.0579 12.7816V6.96619H80.2056V5.41542H82.0579V2.44312H83.824V5.41542H87.3133V6.96619H83.824V12.717C83.824 13.4636 83.9461 13.9805 84.1902 14.2677C84.4486 14.5405 84.8435 14.677 85.3748 14.677C85.6333 14.677 85.8989 14.6482 86.1717 14.5908C86.4589 14.519 86.7676 14.4041 87.0979 14.2462L87.6363 15.6893Z" fill="#1A3C6C"/>
<path id="Vector_4" d="M78.1622 15.6893C77.3581 16.0913 76.5037 16.2923 75.5991 16.2923C74.8237 16.2923 74.2135 16.1344 73.7684 15.8185C73.3376 15.5026 73.0289 15.079 72.8422 14.5477C72.6699 14.0164 72.5837 13.4277 72.5837 12.7816V6.96619H70.7314V5.41542H72.5837V2.44312H74.3499V5.41542H77.8391V6.96619H74.3499V12.717C74.3499 13.4636 74.472 13.9805 74.7161 14.2677C74.9745 14.5405 75.3694 14.677 75.9007 14.677C76.1591 14.677 76.4248 14.6482 76.6976 14.5908C76.9848 14.519 77.2935 14.4041 77.6237 14.2462L78.1622 15.6893Z" fill="#1A3C6C"/>
<path id="Vector_5" d="M67.3111 2.80917H65.3296V0.827637H67.3111V2.80917ZM67.2034 16.0769H65.4373V5.41533H67.2034V16.0769Z" fill="#1A3C6C"/>
<path id="Vector_6" d="M50.4438 6.85841C50.0417 6.85841 49.5894 6.9661 49.0868 7.18149C48.5843 7.38251 47.9525 7.78457 47.1915 8.38764V16.0769H45.4253V5.41534H47.1053V6.90149C47.8663 6.26969 48.5412 5.83175 49.1299 5.58764C49.7186 5.32918 50.3002 5.19995 50.8745 5.19995C51.5494 5.19995 52.1094 5.3579 52.5545 5.6738C52.9997 5.97534 53.3299 6.41328 53.5453 6.98764C54.335 6.31277 55.0386 5.8461 55.6561 5.58764C56.2879 5.32918 56.9053 5.19995 57.5084 5.19995C58.4561 5.19995 59.1812 5.51585 59.6838 6.14764C60.1863 6.76508 60.4376 7.64816 60.4376 8.79687V16.0769H58.6714V9.05534C58.6714 7.59072 58.1402 6.85841 57.0776 6.85841C56.6756 6.85841 56.2161 6.9661 55.6991 7.18149C55.1966 7.38251 54.5648 7.78457 53.8038 8.38764C53.8181 8.44508 53.8253 8.50969 53.8253 8.58149C53.8253 8.65328 53.8253 8.72508 53.8253 8.79687V16.0769H52.0591V9.05534C52.0591 7.59072 51.5207 6.85841 50.4438 6.85841Z" fill="#1A3C6C"/>
<path id="Vector_7" d="M30.4311 6.85841C30.029 6.85841 29.5767 6.9661 29.0741 7.18149C28.5716 7.38251 27.9398 7.78457 27.1788 8.38764V16.0769H25.4126V5.41534H27.0926V6.90149C27.8536 6.26969 28.5285 5.83175 29.1172 5.58764C29.7059 5.32918 30.2875 5.19995 30.8618 5.19995C31.5367 5.19995 32.0967 5.3579 32.5418 5.6738C32.987 5.97534 33.3172 6.41328 33.5326 6.98764C34.3223 6.31277 35.0259 5.8461 35.6434 5.58764C36.2752 5.32918 36.8926 5.19995 37.4957 5.19995C38.4434 5.19995 39.1685 5.51585 39.6711 6.14764C40.1736 6.76508 40.4249 7.64816 40.4249 8.79687V16.0769H38.6588V9.05534C38.6588 7.59072 38.1275 6.85841 37.0649 6.85841C36.6629 6.85841 36.2034 6.9661 35.6864 7.18149C35.1839 7.38251 34.5521 7.78457 33.7911 8.38764C33.8054 8.44508 33.8126 8.50969 33.8126 8.58149C33.8126 8.65328 33.8126 8.72508 33.8126 8.79687V16.0769H32.0464V9.05534C32.0464 7.59072 31.508 6.85841 30.4311 6.85841Z" fill="#1A3C6C"/>
<path id="Vector_8" d="M20.9109 10.0892V11.3815C20.9109 12.9035 20.516 14.1025 19.7263 14.9784C18.9509 15.8543 17.8381 16.2923 16.3878 16.2923C14.9519 16.2923 13.8391 15.8543 13.0494 14.9784C12.2596 14.1025 11.8647 12.9035 11.8647 11.3815V10.0892C11.8647 8.59585 12.2524 7.41123 13.0278 6.53534C13.8176 5.64508 14.9376 5.19995 16.3878 5.19995C17.8381 5.19995 18.9509 5.64508 19.7263 6.53534C20.516 7.41123 20.9109 8.59585 20.9109 10.0892ZM19.0801 10.0892C19.0801 9.06969 18.8504 8.27277 18.3909 7.69841C17.9314 7.10969 17.2637 6.81534 16.3878 6.81534C15.5263 6.81534 14.8586 7.10969 14.3847 7.69841C13.9253 8.27277 13.6955 9.06969 13.6955 10.0892V11.3815C13.6955 12.4441 13.9253 13.2625 14.3847 13.8369C14.8586 14.4112 15.5263 14.6984 16.3878 14.6984C17.2637 14.6984 17.9314 14.4112 18.3909 13.8369C18.8504 13.2625 19.0801 12.4441 19.0801 11.3815V10.0892Z" fill="#1A3C6C"/>
<path id="Vector_9" d="M1.93846 10.3694C1.93846 11.7192 2.2041 12.7602 2.73538 13.4925C3.28103 14.2104 4.11385 14.5694 5.23385 14.5694C5.72205 14.5694 6.20308 14.512 6.67692 14.3971C7.15077 14.2822 7.71795 14.0812 8.37846 13.794L9.00308 15.3879C8.29949 15.7038 7.63179 15.9335 7 16.0771C6.3682 16.2207 5.75795 16.2925 5.16923 16.2925C3.47487 16.2925 2.18974 15.7612 1.31385 14.6987C0.437949 13.6361 0 12.193 0 10.3694V7.13865C0 5.31506 0.437949 3.87199 1.31385 2.80942C2.18974 1.74686 3.47487 1.21558 5.16923 1.21558C5.75795 1.21558 6.3682 1.28737 7 1.43096C7.64615 1.57455 8.29949 1.8043 8.96 2.12019L8.35692 3.73558C7.19385 3.21865 6.15282 2.96019 5.23385 2.96019C4.11385 2.96019 3.28103 3.31917 2.73538 4.03712C2.2041 4.75506 1.93846 5.78891 1.93846 7.13865V10.3694Z" fill="#1A3C6C"/>
</g>
</svg>
