<svg width="131" height="41" viewBox="0 0 131 41" fill="none" xmlns="http://www.w3.org/2000/svg">
<rect x="0.958681" y="0.920595" width="129.034" height="39.1122" rx="10.6846" fill="white" stroke="#1A3C6C" stroke-width="1.03162"/>
<path d="M37.4956 27.8718H32.6885V13.0227H37.6479C39.1028 13.0227 40.3523 13.32 41.3964 13.9146C42.4405 14.5043 43.2404 15.3526 43.7963 16.4595C44.357 17.5616 44.6374 18.8836 44.6374 20.4255C44.6374 21.9723 44.3546 23.3016 43.7891 24.4133C43.2284 25.5251 42.4163 26.3806 41.3529 26.98C40.2895 27.5746 39.0037 27.8718 37.4956 27.8718ZM34.9289 25.9142H37.3723C38.5034 25.9142 39.4436 25.7015 40.1928 25.2761C40.942 24.8459 41.5027 24.2248 41.8749 23.4127C42.2471 22.5959 42.4332 21.6001 42.4332 20.4255C42.4332 19.2606 42.2471 18.2721 41.8749 17.4601C41.5076 16.648 40.9589 16.0317 40.229 15.6112C39.4992 15.1906 38.5928 14.9804 37.5101 14.9804H34.9289V25.9142ZM52.0492 28.0966C50.952 28.0966 50.007 27.8622 49.2143 27.3933C48.4264 26.9196 47.8173 26.255 47.3871 25.3994C46.9618 24.539 46.7491 23.5312 46.7491 22.3759C46.7491 21.2352 46.9618 20.2298 47.3871 19.3597C47.8173 18.4896 48.4167 17.8105 49.1853 17.3223C49.9587 16.8341 50.8626 16.59 51.897 16.59C52.5253 16.59 53.1344 16.6939 53.7241 16.9018C54.3138 17.1096 54.8431 17.4359 55.312 17.8806C55.7808 18.3253 56.1506 18.9029 56.4213 19.6135C56.692 20.3192 56.8273 21.1772 56.8273 22.1874V22.956H47.9744V21.3318H54.7029C54.7029 20.7615 54.5869 20.2564 54.3549 19.8165C54.1229 19.3718 53.7966 19.0213 53.3761 18.7652C52.9604 18.509 52.4722 18.3809 51.9115 18.3809C51.3024 18.3809 50.7707 18.5307 50.3164 18.8304C49.8668 19.1253 49.5188 19.512 49.2723 19.9905C49.0306 20.4642 48.9097 20.979 48.9097 21.5349V22.8037C48.9097 23.5481 49.0403 24.1813 49.3013 24.7033C49.5671 25.2254 49.9369 25.6242 50.4106 25.8997C50.8843 26.1704 51.4378 26.3057 52.071 26.3057C52.4818 26.3057 52.8565 26.2477 53.1948 26.1317C53.5332 26.0109 53.8256 25.832 54.0721 25.5952C54.3186 25.3583 54.5072 25.0659 54.6377 24.7178L56.6896 25.0876C56.5252 25.6918 56.2304 26.2211 55.805 26.6755C55.3845 27.125 54.8552 27.4755 54.2171 27.7268C53.5839 27.9733 52.8613 28.0966 52.0492 28.0966ZM64.4313 16.735V18.4751H58.3481V16.735H64.4313ZM59.9795 14.0668H62.1474V24.6018C62.1474 25.0224 62.2102 25.339 62.3359 25.5517C62.4616 25.7595 62.6235 25.9021 62.8217 25.9794C63.0247 26.0519 63.2447 26.0882 63.4815 26.0882C63.6555 26.0882 63.8078 26.0761 63.9383 26.0519C64.0688 26.0278 64.1703 26.0084 64.2428 25.9939L64.6343 27.7848C64.5087 27.8332 64.3298 27.8815 64.0978 27.9298C63.8658 27.983 63.5758 28.012 63.2277 28.0168C62.6574 28.0265 62.1257 27.925 61.6326 27.7123C61.1396 27.4996 60.7408 27.1709 60.4363 26.7262C60.1318 26.2815 59.9795 25.7233 59.9795 25.0514V14.0668ZM70.0704 28.1183C69.3647 28.1183 68.7267 27.9878 68.1563 27.7268C67.5859 27.461 67.134 27.0767 66.8004 26.574C66.4717 26.0713 66.3074 25.455 66.3074 24.7251C66.3074 24.0967 66.4282 23.5795 66.6699 23.1735C66.9116 22.7675 67.2379 22.446 67.6487 22.2092C68.0596 21.9723 68.5188 21.7935 69.0263 21.6726C69.5339 21.5518 70.0511 21.4599 70.578 21.3971C71.245 21.3198 71.7864 21.2569 72.2021 21.2086C72.6178 21.1554 72.9199 21.0708 73.1084 20.9548C73.2969 20.8388 73.3912 20.6503 73.3912 20.3893V20.3385C73.3912 19.7053 73.2123 19.2147 72.8546 18.8667C72.5018 18.5186 71.9749 18.3446 71.274 18.3446C70.5441 18.3446 69.9689 18.5066 69.5484 18.8304C69.1327 19.1494 68.8451 19.5047 68.6856 19.8962L66.6482 19.4322C66.8899 18.7555 67.2427 18.2093 67.7067 17.7936C68.1756 17.3731 68.7146 17.0685 69.3236 16.88C69.9327 16.6867 70.5731 16.59 71.245 16.59C71.6897 16.59 72.161 16.6432 72.6589 16.7495C73.1616 16.851 73.6304 17.0395 74.0655 17.3151C74.5053 17.5906 74.8654 17.9845 75.1458 18.4969C75.4261 19.0044 75.5663 19.6642 75.5663 20.4763V27.8718H73.4492V26.3492H73.3622C73.222 26.6296 73.0117 26.9051 72.7314 27.1758C72.451 27.4465 72.0909 27.6712 71.651 27.8501C71.2112 28.0289 70.6843 28.1183 70.0704 28.1183ZM70.5417 26.3782C71.1411 26.3782 71.6535 26.2598 72.0788 26.0229C72.509 25.7861 72.8353 25.4767 73.0576 25.0949C73.2848 24.7082 73.3984 24.2949 73.3984 23.855V22.4194C73.3211 22.4968 73.1712 22.5693 72.9489 22.6369C72.7314 22.6998 72.4824 22.7554 72.2021 22.8037C71.9217 22.8472 71.6486 22.8883 71.3828 22.927C71.1169 22.9608 70.8946 22.9898 70.7157 23.014C70.2952 23.0671 69.9109 23.1566 69.5629 23.2822C69.2197 23.4079 68.9442 23.5892 68.7363 23.826C68.5333 24.058 68.4318 24.3674 68.4318 24.7541C68.4318 25.2906 68.63 25.6967 69.0263 25.9722C69.4227 26.2429 69.9278 26.3782 70.5417 26.3782ZM78.4538 27.8718V16.735H80.6218V27.8718H78.4538ZM79.5487 15.0166C79.1716 15.0166 78.8478 14.891 78.5771 14.6396C78.3113 14.3834 78.1783 14.0789 78.1783 13.726C78.1783 13.3683 78.3113 13.0638 78.5771 12.8125C78.8478 12.5563 79.1716 12.4282 79.5487 12.4282C79.9257 12.4282 80.2471 12.5563 80.513 12.8125C80.7837 13.0638 80.919 13.3683 80.919 13.726C80.919 14.0789 80.7837 14.3834 80.513 14.6396C80.2471 14.891 79.9257 15.0166 79.5487 15.0166ZM85.7062 13.0227V27.8718H83.5383V13.0227H85.7062ZM96.9681 19.454L95.0032 19.802C94.921 19.5506 94.7905 19.3114 94.6117 19.0842C94.4376 18.857 94.2008 18.6709 93.9011 18.5259C93.6014 18.3809 93.2268 18.3084 92.7773 18.3084C92.1634 18.3084 91.651 18.4461 91.2402 18.7217C90.8293 18.9923 90.6239 19.3428 90.6239 19.773C90.6239 20.1452 90.7616 20.4449 91.0371 20.672C91.3127 20.8992 91.7574 21.0853 92.3712 21.2303L94.1404 21.6364C95.1651 21.8732 95.9288 22.2382 96.4315 22.7312C96.9342 23.2242 97.1856 23.8647 97.1856 24.6526C97.1856 25.3196 96.9922 25.9142 96.6056 26.4362C96.2237 26.9534 95.6896 27.3595 95.0032 27.6543C94.3216 27.9492 93.5313 28.0966 92.6323 28.0966C91.3852 28.0966 90.3677 27.8307 89.5798 27.299C88.7919 26.7625 88.3085 26.0012 88.1297 25.0151L90.2251 24.6961C90.3556 25.2423 90.6239 25.6556 91.0299 25.9359C91.4359 26.2115 91.9652 26.3492 92.6178 26.3492C93.3283 26.3492 93.8963 26.2018 94.3216 25.9069C94.747 25.6072 94.9597 25.2423 94.9597 24.8121C94.9597 24.4641 94.8292 24.1716 94.5682 23.9348C94.312 23.6979 93.918 23.5191 93.3863 23.3982L91.5012 22.985C90.4619 22.7481 89.6934 22.3711 89.1955 21.8539C88.7025 21.3367 88.456 20.6817 88.456 19.889C88.456 19.2316 88.6396 18.6564 89.007 18.1634C89.3744 17.6703 89.8819 17.2861 90.5296 17.0105C91.1773 16.7302 91.9193 16.59 92.7555 16.59C93.9591 16.59 94.9065 16.851 95.5977 17.3731C96.2889 17.8903 96.7457 18.5839 96.9681 19.454Z" fill="#1A3C6C"/>
</svg>
