<svg width="70" height="21" viewBox="0 0 70 21" fill="none" xmlns="http://www.w3.org/2000/svg">
<g id="Gallery">
<path id="Vector" d="M65.3936 17.2309C64.9341 18.5232 64.367 19.4637 63.6921 20.0524C63.0316 20.6555 62.1054 20.957 60.9136 20.957V19.2124C61.4018 19.1981 61.8182 19.1335 62.1629 19.0186C62.5218 18.9037 62.8377 18.6668 63.1105 18.3078C63.3977 17.9632 63.6705 17.4463 63.929 16.757L64.1444 16.2186L60.3105 5.49243H62.1198L63.9075 10.6832L65.0059 14.0001L66.0613 10.6832L67.8059 5.49243H69.5506L65.3936 17.2309Z" fill="#1A3C6C"/>
<path id="Vector_2" d="M58.1527 7.04301C57.5066 7.04301 56.8748 7.15788 56.2574 7.38762C55.6543 7.61737 55.0081 8.05532 54.3189 8.70147V16.1538H52.5527V5.49224H54.2327V7.21532C54.965 6.49737 55.6327 5.9948 56.2358 5.70762C56.8532 5.42045 57.4922 5.27686 58.1527 5.27686V7.04301Z" fill="#1A3C6C"/>
<path id="Vector_3" d="M48.139 15.5292C47.4928 15.8451 46.8467 16.0604 46.2005 16.1753C45.5544 16.3045 44.9585 16.3692 44.4128 16.3692C42.8764 16.3692 41.7277 15.9312 40.9667 15.0553C40.22 14.1794 39.8467 12.9804 39.8467 11.4584V10.1661C39.8467 8.68711 40.22 7.5025 40.9667 6.61224C41.7277 5.72198 42.7974 5.27686 44.1759 5.27686C44.9082 5.27686 45.5759 5.42762 46.179 5.72916C46.7964 6.01634 47.2846 6.46147 47.6436 7.06455C48.0169 7.65327 48.2036 8.41429 48.2036 9.34762C48.2036 9.9507 48.1174 10.6399 47.9451 11.4153H41.5913V11.4584C41.5913 12.5497 41.8139 13.3753 42.259 13.9353C42.7185 14.4953 43.4508 14.7753 44.4559 14.7753C44.9154 14.7753 45.418 14.7179 45.9636 14.603C46.5236 14.4881 47.0692 14.3087 47.6005 14.0645L48.139 15.5292ZM44.1759 6.82762C43.3431 6.82762 42.7113 7.10044 42.2805 7.64609C41.8641 8.17737 41.6344 8.93121 41.5913 9.90762H46.4159C46.459 9.64916 46.4805 9.40506 46.4805 9.17532C46.4805 8.37121 46.2508 7.7825 45.7913 7.40916C45.3462 7.02147 44.8077 6.82762 44.1759 6.82762Z" fill="#1A3C6C"/>
<path id="Vector_4" d="M33.4146 13.5692V0.215332H35.1807V13.483C35.1807 13.8707 35.2381 14.1651 35.353 14.3661C35.4822 14.5528 35.7335 14.6461 36.1069 14.6461H36.4515V16.2615H35.9561C35.0084 16.2615 34.3479 16.0102 33.9746 15.5076C33.6012 15.0051 33.4146 14.3589 33.4146 13.5692Z" fill="#1A3C6C"/>
<path id="Vector_5" d="M26.4429 13.5692V0.215332H28.209V13.483C28.209 13.8707 28.2665 14.1651 28.3813 14.3661C28.5106 14.5528 28.7618 14.6461 29.1352 14.6461H29.4798V16.2615H28.9844C28.0367 16.2615 27.3762 16.0102 27.0029 15.5076C26.6295 15.0051 26.4429 14.3589 26.4429 13.5692Z" fill="#1A3C6C"/>
<path id="Vector_6" d="M22.3468 16.2615C21.6863 16.2615 21.155 16.1107 20.7529 15.8092C20.3652 15.5076 20.0924 15.1343 19.9345 14.6892C19.2309 15.3066 18.5919 15.7445 18.0175 16.003C17.4432 16.2471 16.8688 16.3692 16.2945 16.3692C15.3611 16.3692 14.6719 16.0676 14.2268 15.4645C13.7816 14.8615 13.5591 14.122 13.5591 13.2461C13.5591 12.6574 13.6668 12.1333 13.8822 11.6738C14.0975 11.2143 14.4637 10.8553 14.9806 10.5969C15.4975 10.324 16.194 10.1876 17.0699 10.1876C17.4575 10.1876 17.8811 10.2163 18.3406 10.2738C18.8001 10.3169 19.2668 10.3743 19.7406 10.4461V9.00301C19.7406 8.19891 19.5611 7.65327 19.2022 7.36609C18.8575 7.06455 18.3478 6.91378 17.6729 6.91378C16.754 6.91378 15.7273 7.16506 14.5929 7.66762L14.0329 6.20301C14.6934 5.90147 15.3252 5.67173 15.9283 5.51378C16.5314 5.35583 17.1416 5.27686 17.7591 5.27686C18.7642 5.27686 19.5324 5.44198 20.0637 5.77224C20.595 6.1025 20.9611 6.54044 21.1622 7.08609C21.3632 7.63173 21.4637 8.22762 21.4637 8.87378V13.483C21.4637 13.8133 21.5283 14.0933 21.6575 14.323C21.7868 14.5384 22.0452 14.6461 22.4329 14.6461H22.6699V16.2615H22.3468ZM15.3037 13.2245C15.3037 13.7128 15.4186 14.1076 15.6483 14.4092C15.8781 14.7107 16.2083 14.8615 16.6391 14.8615C17.0124 14.8615 17.4432 14.7538 17.9314 14.5384C18.4196 14.3087 19.0227 13.8563 19.7406 13.1815V11.8245C18.7642 11.6666 17.9027 11.5876 17.156 11.5876C16.4955 11.5876 16.0216 11.724 15.7345 11.9969C15.4473 12.2697 15.3037 12.6789 15.3037 13.2245Z" fill="#1A3C6C"/>
<path id="Vector_7" d="M9.90769 15.1415C9.49128 15.4143 8.89538 15.6871 8.12 15.9599C7.35897 16.2327 6.44 16.3692 5.36308 16.3692C4.2 16.3692 3.21641 16.1251 2.41231 15.6369C1.62256 15.1343 1.01949 14.4379 0.603077 13.5476C0.201025 12.643 0 11.602 0 10.4245V7.21531C0 5.37737 0.459487 3.93429 1.37846 2.88608C2.31179 1.82352 3.66154 1.29224 5.42769 1.29224C6.07385 1.29224 6.74872 1.36403 7.45231 1.50762C8.17026 1.65121 8.88102 1.88813 9.58461 2.21839L8.98154 3.83378C7.68923 3.30249 6.5118 3.03685 5.44923 3.03685C4.27179 3.03685 3.38872 3.39583 2.8 4.11378C2.22564 4.81736 1.93846 5.85121 1.93846 7.21531V10.4245C1.93846 11.7169 2.23282 12.7435 2.82154 13.5045C3.41026 14.2656 4.30051 14.6461 5.49231 14.6461C5.9518 14.6461 6.41846 14.5958 6.89231 14.4953C7.38051 14.3948 7.81128 14.2584 8.18462 14.0861V10.1445H5.44923V8.48608H9.90769V15.1415Z" fill="#1A3C6C"/>
</g>
</svg>
