<svg width="131" height="41" viewBox="0 0 131 41" fill="none" xmlns="http://www.w3.org/2000/svg">
<rect x="0.51581" y="0.51581" width="129.034" height="39.1122" rx="10.6846" fill="white" stroke="#1A3C6C" stroke-width="1.03162"/>
<path d="M42.2954 17.309C42.1552 16.8692 41.9667 16.4752 41.7298 16.1272C41.4978 15.7744 41.2199 15.4747 40.896 15.2281C40.5721 14.9768 40.2024 14.7859 39.7867 14.6554C39.3758 14.5248 38.9239 14.4596 38.4308 14.4596C37.5946 14.4596 36.8405 14.6747 36.1687 15.1049C35.4968 15.5351 34.9651 16.1659 34.5735 16.9973C34.1868 17.8238 33.9935 18.8365 33.9935 20.0352C33.9935 21.2388 34.1893 22.2563 34.5808 23.0877C34.9723 23.9191 35.5089 24.5499 36.1904 24.9801C36.872 25.4103 37.6478 25.6254 38.5178 25.6254C39.3251 25.6254 40.0284 25.4611 40.6277 25.1324C41.2319 24.8037 41.6984 24.3396 42.0271 23.7403C42.3606 23.1361 42.5274 22.4255 42.5274 21.6086L43.1074 21.7174H38.8586V19.8685H44.6953V21.5579C44.6953 22.8049 44.4294 23.8877 43.8977 24.8061C43.3708 25.7197 42.641 26.4254 41.7081 26.9233C40.78 27.4211 39.7166 27.6701 38.5178 27.6701C37.1741 27.6701 35.9946 27.3607 34.9796 26.742C33.9693 26.1233 33.1814 25.246 32.6159 24.11C32.0504 22.9693 31.7676 21.6159 31.7676 20.0497C31.7676 18.8655 31.9319 17.8021 32.2606 16.8595C32.5893 15.9169 33.0509 15.117 33.6455 14.4596C34.2448 13.7974 34.9481 13.2923 35.7554 12.9442C36.5674 12.5914 37.4544 12.4149 38.4163 12.4149C39.2187 12.4149 39.9655 12.5334 40.6567 12.7702C41.3528 13.0071 41.9715 13.343 42.5129 13.778C43.0591 14.2131 43.511 14.7303 43.8687 15.3297C44.2264 15.9242 44.4681 16.584 44.5938 17.309H42.2954ZM50.6063 27.7136C49.9006 27.7136 49.2625 27.583 48.6921 27.322C48.1218 27.0562 47.6698 26.6719 47.3363 26.1692C47.0076 25.6665 46.8432 25.0502 46.8432 24.3203C46.8432 23.6919 46.9641 23.1747 47.2058 22.7687C47.4475 22.3627 47.7737 22.0412 48.1846 21.8044C48.5955 21.5675 49.0547 21.3887 49.5622 21.2678C50.0697 21.147 50.5869 21.0552 51.1138 20.9923C51.7809 20.915 52.3222 20.8521 52.7379 20.8038C53.1536 20.7506 53.4557 20.666 53.6442 20.55C53.8328 20.434 53.927 20.2455 53.927 19.9845V19.9337C53.927 19.3005 53.7482 18.8099 53.3905 18.4619C53.0376 18.1139 52.5107 17.9398 51.8099 17.9398C51.08 17.9398 50.5048 18.1018 50.0842 18.4256C49.6685 18.7447 49.3809 19.0999 49.2214 19.4915L47.184 19.0274C47.4257 18.3507 47.7786 17.8045 48.2426 17.3888C48.7115 16.9683 49.2504 16.6637 49.8595 16.4752C50.4685 16.2819 51.109 16.1852 51.7809 16.1852C52.2256 16.1852 52.6968 16.2384 53.1947 16.3447C53.6974 16.4462 54.1663 16.6347 54.6013 16.9103C55.0412 17.1858 55.4013 17.5797 55.6816 18.0921C55.962 18.5996 56.1022 19.2594 56.1022 20.0715V27.467H53.985V25.9444H53.898C53.7578 26.2248 53.5476 26.5003 53.2672 26.771C52.9869 27.0417 52.6268 27.2664 52.1869 27.4453C51.747 27.6241 51.2201 27.7136 50.6063 27.7136ZM51.0776 25.9734C51.6769 25.9734 52.1893 25.855 52.6147 25.6182C53.0449 25.3813 53.3711 25.0719 53.5935 24.6901C53.8207 24.3034 53.9343 23.8901 53.9343 23.4502V22.0146C53.8569 22.092 53.7071 22.1645 53.4847 22.2322C53.2672 22.295 53.0183 22.3506 52.7379 22.3989C52.4576 22.4424 52.1845 22.4835 51.9186 22.5222C51.6528 22.556 51.4304 22.585 51.2516 22.6092C50.831 22.6624 50.4468 22.7518 50.0987 22.8775C49.7555 23.0031 49.48 23.1844 49.2722 23.4212C49.0692 23.6533 48.9677 23.9626 48.9677 24.3493C48.9677 24.8859 49.1658 25.2919 49.5622 25.5674C49.9586 25.8381 50.4637 25.9734 51.0776 25.9734ZM61.1576 12.618V27.467H58.9897V12.618H61.1576ZM66.242 12.618V27.467H64.0741V12.618H66.242ZM73.9584 27.6918C72.8612 27.6918 71.9162 27.4574 71.1235 26.9885C70.3356 26.5148 69.7265 25.8502 69.2963 24.9946C68.871 24.1342 68.6583 23.1264 68.6583 21.9711C68.6583 20.8304 68.871 19.825 69.2963 18.9549C69.7265 18.0849 70.3259 17.4057 71.0945 16.9175C71.8678 16.4293 72.7717 16.1852 73.8062 16.1852C74.4345 16.1852 75.0436 16.2891 75.6333 16.497C76.223 16.7048 76.7523 17.0311 77.2212 17.4758C77.69 17.9205 78.0598 18.4981 78.3305 19.2087C78.6012 19.9144 78.7365 20.7724 78.7365 21.7826V22.5512H69.8836V20.9271H76.6121C76.6121 20.3567 76.4961 19.8516 76.2641 19.4117C76.0321 18.967 75.7058 18.6166 75.2853 18.3604C74.8696 18.1042 74.3814 17.9761 73.8207 17.9761C73.2116 17.9761 72.6799 18.1259 72.2255 18.4256C71.776 18.7205 71.428 19.1072 71.1815 19.5857C70.9398 20.0594 70.8189 20.5742 70.8189 21.1301V22.3989C70.8189 23.1433 70.9494 23.7765 71.2105 24.2986C71.4763 24.8206 71.8461 25.2194 72.3198 25.4949C72.7935 25.7656 73.347 25.9009 73.9802 25.9009C74.391 25.9009 74.7656 25.8429 75.104 25.7269C75.4424 25.6061 75.7348 25.4272 75.9813 25.1904C76.2278 24.9535 76.4163 24.6611 76.5469 24.3131L78.5988 24.6828C78.4344 25.287 78.1396 25.8163 77.7142 26.2707C77.2937 26.7202 76.7644 27.0707 76.1263 27.322C75.4931 27.5685 74.7705 27.6918 73.9584 27.6918ZM81.1419 27.467V16.3302H83.2373V18.0994H83.3533C83.5563 17.5 83.914 17.0287 84.4264 16.6855C84.9436 16.3375 85.5285 16.1635 86.181 16.1635C86.3163 16.1635 86.4759 16.1683 86.6595 16.178C86.848 16.1876 86.9955 16.1997 87.1018 16.2142V18.2879C87.0148 18.2637 86.8601 18.2371 86.6378 18.2081C86.4154 18.1743 86.1931 18.1574 85.9707 18.1574C85.4584 18.1574 85.0016 18.2661 84.6004 18.4836C84.204 18.6963 83.8898 18.9936 83.6578 19.3754C83.4258 19.7525 83.3098 20.1827 83.3098 20.666V27.467H81.1419ZM90.6872 31.6433C90.3633 31.6433 90.0685 31.6168 89.8026 31.5636C89.5368 31.5153 89.3386 31.4621 89.2081 31.4041L89.7301 29.6277C90.1265 29.734 90.4794 29.78 90.7887 29.7655C91.0981 29.751 91.3712 29.6349 91.608 29.4174C91.8497 29.1999 92.0624 28.8446 92.2461 28.3516L92.5143 27.6121L88.4395 16.3302H90.7597L93.5802 24.9729H93.6962L96.5166 16.3302H98.8441L94.2545 28.9534C94.0418 29.5334 93.7711 30.0241 93.4424 30.4253C93.1137 30.8313 92.7222 31.1358 92.2678 31.3388C91.8135 31.5418 91.2866 31.6433 90.6872 31.6433Z" fill="#1A3C6C"/>
</svg>
