<svg width="105" height="23" viewBox="0 0 105 23" fill="none" xmlns="http://www.w3.org/2000/svg">
<g id="Join Us">
<path id="Vector" d="M99.1118 20.531C101.195 20.531 102.237 19.8227 102.237 18.406C102.237 17.8018 102.049 17.3227 101.674 16.9685C101.299 16.6143 100.612 16.3123 99.6118 16.0623L97.8931 15.6248C96.6222 15.3123 95.6743 14.7706 95.0493 13.9998C94.4243 13.2081 94.1118 12.2706 94.1118 11.1873C94.1118 10.3956 94.2889 9.66642 94.6431 8.99976C94.9972 8.31225 95.5597 7.76017 96.3306 7.34351C97.1014 6.92684 98.1014 6.71851 99.3306 6.71851C100.122 6.71851 100.924 6.81226 101.737 6.99975C102.57 7.16642 103.414 7.45809 104.268 7.87475L103.456 10.031C101.935 9.34351 100.56 8.99976 99.3306 8.99976C97.5181 8.99976 96.6118 9.67684 96.6118 11.031C96.6118 11.5518 96.7785 11.9998 97.1118 12.3748C97.4452 12.7498 98.0701 13.0518 98.9868 13.281L100.706 13.7185C102.081 14.0518 103.091 14.5935 103.737 15.3435C104.383 16.0935 104.706 17.0623 104.706 18.2498C104.706 19.1039 104.518 19.8852 104.143 20.5935C103.789 21.281 103.206 21.8227 102.393 22.2185C101.601 22.6143 100.528 22.8123 99.1743 22.8123C98.2785 22.8123 97.3827 22.7185 96.4868 22.531C95.6118 22.3435 94.7056 22.0414 93.7681 21.6248L94.4556 19.4998C95.3514 19.8539 96.1639 20.1143 96.8931 20.281C97.6222 20.4477 98.3618 20.531 99.1118 20.531Z" fill="#1A3C6C"/>
<path id="Vector_2" d="M73.3179 1.24976H76.1304V14.8748C76.1304 16.5831 76.4845 17.9164 77.1929 18.8748C77.922 19.8331 79.047 20.3123 80.5679 20.3123C82.1095 20.3123 83.2345 19.8331 83.9429 18.8748C84.6512 17.9164 85.0054 16.5831 85.0054 14.8748V1.24976H87.8179V14.8748C87.8179 17.3539 87.2137 19.3018 86.0054 20.7185C84.797 22.1143 82.9845 22.8123 80.5679 22.8123C78.1304 22.8123 76.3075 22.1143 75.0991 20.7185C73.9116 19.3018 73.3179 17.3539 73.3179 14.8748V1.24976Z" fill="#1A3C6C"/>
<path id="Vector_3" d="M52.2217 9.12476C51.6383 9.12476 50.9508 9.27059 50.1592 9.56225C49.3883 9.85392 48.4508 10.4477 47.3467 11.3435V22.4998H44.7842V7.031H47.2217V9.18725C48.3258 8.24976 49.3258 7.60392 50.2217 7.24975C51.1383 6.89559 52.0133 6.71851 52.8467 6.71851C54.2842 6.71851 55.3779 7.17684 56.1279 8.09351C56.8988 8.98934 57.2842 10.2706 57.2842 11.9373V22.4998H54.7217V12.3123C54.7217 10.1873 53.8883 9.12476 52.2217 9.12476Z" fill="#1A3C6C"/>
<path id="Vector_4" d="M37.5415 3.24975H34.6665V0.374756H37.5415V3.24975ZM37.3853 22.4998H34.8228V7.031H37.3853V22.4998Z" fill="#1A3C6C"/>
<path id="Vector_5" d="M28.29 13.8123V15.6873C28.29 17.8956 27.7171 19.6352 26.5713 20.906C25.4463 22.1768 23.8317 22.8123 21.7275 22.8123C19.6442 22.8123 18.0296 22.1768 16.8838 20.906C15.738 19.6352 15.165 17.8956 15.165 15.6873V13.8123C15.165 11.6456 15.7275 9.92684 16.8525 8.656C17.9984 7.36434 19.6234 6.71851 21.7275 6.71851C23.8317 6.71851 25.4463 7.36434 26.5713 8.656C27.7171 9.92684 28.29 11.6456 28.29 13.8123ZM25.6338 13.8123C25.6338 12.3331 25.3005 11.1768 24.6338 10.3435C23.9671 9.48934 22.9984 9.06226 21.7275 9.06226C20.4775 9.06226 19.5088 9.48934 18.8213 10.3435C18.1546 11.1768 17.8213 12.3331 17.8213 13.8123V15.6873C17.8213 17.2289 18.1546 18.4164 18.8213 19.2498C19.5088 20.0831 20.4775 20.4998 21.7275 20.4998C22.9984 20.4998 23.9671 20.0831 24.6338 19.2498C25.3005 18.4164 25.6338 17.2289 25.6338 15.6873V13.8123Z" fill="#1A3C6C"/>
<path id="Vector_6" d="M0.906738 22.7185V20.1248C2.59424 20.1248 3.82341 19.781 4.59424 19.0935C5.38591 18.406 5.78174 17.2081 5.78174 15.4998V1.24976H8.50049V15.4998C8.50049 16.9164 8.27132 18.1768 7.81299 19.281C7.37549 20.3643 6.60466 21.2081 5.50049 21.8123C4.41716 22.4164 2.88591 22.7185 0.906738 22.7185Z" fill="#1A3C6C"/>
</g>
</svg>
