<svg width="123" height="16" viewBox="0 0 123 16" fill="none" xmlns="http://www.w3.org/2000/svg">
<path d="M118.943 13.7197C120.379 13.7197 121.097 13.2315 121.097 12.2551C121.097 11.8387 120.968 11.5084 120.709 11.2643C120.451 11.0202 119.977 10.812 119.288 10.6397L118.103 10.3382C117.227 10.1228 116.574 9.74945 116.143 9.21817C115.713 8.67253 115.497 8.02637 115.497 7.27971C115.497 6.73407 115.619 6.2315 115.863 5.77201C116.107 5.29817 116.495 4.91766 117.026 4.63048C117.558 4.3433 118.247 4.19971 119.094 4.19971C119.64 4.19971 120.193 4.26432 120.753 4.39355C121.327 4.50842 121.908 4.70945 122.497 4.99663L121.937 6.48278C120.889 6.00894 119.941 5.77201 119.094 5.77201C117.845 5.77201 117.22 6.23868 117.22 7.17201C117.22 7.53099 117.335 7.83971 117.565 8.09817C117.795 8.35663 118.225 8.56483 118.857 8.72278L120.042 9.02432C120.989 9.25407 121.686 9.6274 122.131 10.1443C122.576 10.6612 122.799 11.3289 122.799 12.1474C122.799 12.7361 122.669 13.2746 122.411 13.7628C122.167 14.2366 121.765 14.61 121.205 14.8828C120.659 15.1556 119.92 15.292 118.986 15.292C118.369 15.292 117.752 15.2274 117.134 15.0982C116.531 14.9689 115.906 14.7607 115.26 14.4736L115.734 13.0089C116.352 13.253 116.912 13.4325 117.414 13.5474C117.917 13.6623 118.426 13.7197 118.943 13.7197Z" fill="#1A3C6C"/>
<path d="M112.486 4.41553L109.75 15.0771H107.704L105.464 6.33245L103.159 15.0771H101.113L98.3994 4.41553H100.209L101.286 8.87399L102.255 13.2894L104.559 4.41553H106.433L108.738 13.3325L109.686 8.89553L110.741 4.41553H112.486Z" fill="#1A3C6C"/>
<path d="M95.2557 14.452C94.6095 14.7679 93.9634 14.9833 93.3172 15.0982C92.6711 15.2274 92.0752 15.292 91.5295 15.292C89.9931 15.292 88.8444 14.8541 88.0834 13.9782C87.3367 13.1023 86.9634 11.9033 86.9634 10.3812V9.08894C86.9634 7.60996 87.3367 6.42535 88.0834 5.53509C88.8444 4.64483 89.9142 4.19971 91.2926 4.19971C92.0249 4.19971 92.6926 4.35048 93.2957 4.65201C93.9131 4.93919 94.4013 5.38432 94.7603 5.9874C95.1336 6.57612 95.3203 7.33714 95.3203 8.27048C95.3203 8.87355 95.2342 9.56278 95.0618 10.3382H88.708V10.3812C88.708 11.4725 88.9306 12.2982 89.3757 12.8582C89.8352 13.4182 90.5675 13.6982 91.5726 13.6982C92.0321 13.6982 92.5347 13.6407 93.0803 13.5259C93.6403 13.411 94.1859 13.2315 94.7172 12.9874L95.2557 14.452ZM91.2926 5.75048C90.4598 5.75048 89.828 6.0233 89.3972 6.56894C88.9808 7.10022 88.7511 7.85407 88.708 8.83048H93.5326C93.5757 8.57201 93.5972 8.32791 93.5972 8.09817C93.5972 7.29407 93.3675 6.70535 92.908 6.33201C92.4629 5.94432 91.9244 5.75048 91.2926 5.75048Z" fill="#1A3C6C"/>
<path d="M71.7476 15.0768V0.430664H73.7076C75.0142 2.29733 76.2132 4.17836 77.3045 6.07374C78.4101 7.95477 79.444 9.92195 80.406 11.9753L80.1906 6.37528V0.430664H82.0214V15.0768H80.0614C79.0563 12.9804 78.0153 10.9414 76.9383 8.95989C75.8758 6.964 74.7127 5.01836 73.4491 3.12297L73.5783 9.08912V15.0768H71.7476Z" fill="#1A3C6C"/>
<path d="M61.7613 14.6893C60.9572 15.0913 60.1029 15.2923 59.1983 15.2923C58.4229 15.2923 57.8126 15.1344 57.3675 14.8185C56.9367 14.5026 56.628 14.079 56.4413 13.5477C56.269 13.0164 56.1829 12.4277 56.1829 11.7816V5.96619H54.3306V4.41542H56.1829V1.44312H57.949V4.41542H61.4383V5.96619H57.949V11.717C57.949 12.4636 58.0711 12.9805 58.3152 13.2677C58.5736 13.5405 58.9685 13.677 59.4998 13.677C59.7583 13.677 60.0239 13.6482 60.2967 13.5908C60.5839 13.519 60.8926 13.4041 61.2229 13.2462L61.7613 14.6893Z" fill="#1A3C6C"/>
<path d="M47.9409 13.7197C49.3768 13.7197 50.0947 13.2315 50.0947 12.2551C50.0947 11.8387 49.9655 11.5084 49.707 11.2643C49.4486 11.0202 48.9747 10.812 48.2855 10.6397L47.1009 10.3382C46.225 10.1228 45.5717 9.74945 45.1409 9.21817C44.7101 8.67253 44.4947 8.02637 44.4947 7.27971C44.4947 6.73407 44.6168 6.2315 44.8609 5.77201C45.105 5.29817 45.4927 4.91766 46.024 4.63048C46.5553 4.3433 47.2445 4.19971 48.0917 4.19971C48.6373 4.19971 49.1901 4.26432 49.7501 4.39355C50.3245 4.50842 50.906 4.70945 51.4947 4.99663L50.9347 6.48278C49.8865 6.00894 48.9388 5.77201 48.0917 5.77201C46.8424 5.77201 46.2178 6.23868 46.2178 7.17201C46.2178 7.53099 46.3327 7.83971 46.5624 8.09817C46.7922 8.35663 47.2229 8.56483 47.8547 8.72278L49.0394 9.02432C49.987 9.25407 50.6835 9.6274 51.1286 10.1443C51.5737 10.6612 51.7963 11.3289 51.7963 12.1474C51.7963 12.7361 51.667 13.2746 51.4086 13.7628C51.1645 14.2366 50.7624 14.61 50.2024 14.8828C49.6568 15.1556 48.9173 15.292 47.984 15.292C47.3665 15.292 46.7491 15.2274 46.1317 15.0982C45.5286 14.9689 44.904 14.7607 44.2578 14.4736L44.7317 13.0089C45.3491 13.253 45.9091 13.4325 46.4117 13.5474C46.9142 13.6623 47.424 13.7197 47.9409 13.7197Z" fill="#1A3C6C"/>
<path d="M40.9217 14.452C40.2755 14.7679 39.6294 14.9833 38.9832 15.0982C38.3371 15.2274 37.7412 15.292 37.1955 15.292C35.6591 15.292 34.5104 14.8541 33.7494 13.9782C33.0027 13.1023 32.6294 11.9033 32.6294 10.3812V9.08894C32.6294 7.60996 33.0027 6.42535 33.7494 5.53509C34.5104 4.64483 35.5802 4.19971 36.9586 4.19971C37.6909 4.19971 38.3586 4.35048 38.9617 4.65201C39.5791 4.93919 40.0673 5.38432 40.4263 5.9874C40.7997 6.57612 40.9863 7.33714 40.9863 8.27048C40.9863 8.87355 40.9002 9.56278 40.7279 10.3382H34.374V10.3812C34.374 11.4725 34.5966 12.2982 35.0417 12.8582C35.5012 13.4182 36.2335 13.6982 37.2386 13.6982C37.6981 13.6982 38.2007 13.6407 38.7463 13.5259C39.3063 13.411 39.852 13.2315 40.3832 12.9874L40.9217 14.452ZM36.9586 5.75048C36.1258 5.75048 35.494 6.0233 35.0632 6.56894C34.6468 7.10022 34.4171 7.85407 34.374 8.83048H39.1986C39.2417 8.57201 39.2632 8.32791 39.2632 8.09817C39.2632 7.29407 39.0335 6.70535 38.574 6.33201C38.1289 5.94432 37.5904 5.75048 36.9586 5.75048Z" fill="#1A3C6C"/>
<path d="M29.5738 14.6893C28.7697 15.0913 27.9154 15.2923 27.0108 15.2923C26.2354 15.2923 25.6251 15.1344 25.18 14.8185C24.7492 14.5026 24.4405 14.079 24.2538 13.5477C24.0815 13.0164 23.9954 12.4277 23.9954 11.7816V5.96619H22.1431V4.41542H23.9954V1.44312H25.7615V4.41542H29.2508V5.96619H25.7615V11.717C25.7615 12.4636 25.8836 12.9805 26.1277 13.2677C26.3861 13.5405 26.781 13.677 27.3123 13.677C27.5708 13.677 27.8364 13.6482 28.1092 13.5908C28.3964 13.519 28.7051 13.4041 29.0354 13.2462L29.5738 14.6893Z" fill="#1A3C6C"/>
<path d="M19.5978 15.1843C18.9372 15.1843 18.406 15.0336 18.0039 14.732C17.6162 14.4305 17.3434 14.0571 17.1854 13.612C16.4819 14.2295 15.8429 14.6674 15.2685 14.9259C14.6942 15.17 14.1198 15.292 13.5454 15.292C12.6121 15.292 11.9229 14.9905 11.4778 14.3874C11.0326 13.7843 10.8101 13.0448 10.8101 12.1689C10.8101 11.5802 10.9178 11.0561 11.1331 10.5966C11.3485 10.1371 11.7147 9.77817 12.2316 9.51971C12.7485 9.24689 13.4449 9.11048 14.3208 9.11048C14.7085 9.11048 15.1321 9.13919 15.5916 9.19663C16.0511 9.23971 16.5178 9.29714 16.9916 9.36894V7.92586C16.9916 7.12176 16.8121 6.57612 16.4531 6.28894C16.1085 5.9874 15.5988 5.83663 14.9239 5.83663C14.0049 5.83663 12.9783 6.08791 11.8439 6.59048L11.2839 5.12586C11.9444 4.82432 12.5762 4.59458 13.1793 4.43663C13.7824 4.27868 14.3926 4.19971 15.0101 4.19971C16.0152 4.19971 16.7834 4.36484 17.3147 4.69509C17.846 5.02535 18.2121 5.4633 18.4131 6.00894C18.6142 6.55458 18.7147 7.15048 18.7147 7.79663V12.4059C18.7147 12.7361 18.7793 13.0161 18.9085 13.2459C19.0378 13.4612 19.2962 13.5689 19.6839 13.5689H19.9208V15.1843H19.5978ZM12.5547 12.1474C12.5547 12.6356 12.6695 13.0305 12.8993 13.332C13.129 13.6336 13.4593 13.7843 13.8901 13.7843C14.2634 13.7843 14.6942 13.6766 15.1824 13.4612C15.6706 13.2315 16.2736 12.7792 16.9916 12.1043V10.7474C16.0152 10.5895 15.1536 10.5105 14.407 10.5105C13.7465 10.5105 13.2726 10.6469 12.9854 10.9197C12.6983 11.1925 12.5547 11.6018 12.5547 12.1474Z" fill="#1A3C6C"/>
<path d="M8.01231 13.3322V15.0768H0V0.430664H1.87385V13.3322H8.01231Z" fill="#1A3C6C"/>
</svg>
