<svg width="96" height="44" viewBox="0 0 96 44" fill="none" xmlns="http://www.w3.org/2000/svg">
<path fill-rule="evenodd" clip-rule="evenodd" d="M77 1.61538H18.8462C9.32986 1.61538 1.61538 9.32986 1.61538 18.8462V24.2308C1.61538 33.7471 9.32986 41.4615 18.8462 41.4615H77C86.5163 41.4615 94.2308 33.7471 94.2308 24.2308V18.8462C94.2308 9.32986 86.5163 1.61538 77 1.61538ZM18.8462 0C8.43771 0 0 8.43771 0 18.8462V24.2308C0 34.6392 8.43771 43.0769 18.8462 43.0769H77C87.4084 43.0769 95.8462 34.6392 95.8462 24.2308V18.8462C95.8462 8.43771 87.4084 0 77 0H18.8462Z" fill="#1A3C6C"/>
<path d="M68.27 20.8115C67.9559 20.8115 67.5979 20.8868 67.1958 21.0376C66.7938 21.1884 66.3163 21.4836 65.7635 21.9234V28.5384H63.5962V18.9834H65.6504V20.2649C66.2409 19.7498 66.8 19.3792 67.3277 19.153C67.8554 18.9143 68.3894 18.7949 68.9297 18.7949C69.8468 18.7949 70.5441 19.0902 71.0216 19.6807C71.499 20.2586 71.7377 21.0753 71.7377 22.1307V28.5384H69.5704V22.3945C69.5704 21.3392 69.137 20.8115 68.27 20.8115Z" fill="#1A3C6C"/>
<path d="M59.5362 17.1741H57.2559V14.9314H59.5362V17.1741ZM59.4797 28.5383H57.3124V18.9833H59.4797V28.5383Z" fill="#1A3C6C"/>
<path d="M54.1031 29.4995C54.1031 30.5172 53.7011 31.3088 52.897 31.8742C52.1054 32.4521 50.9998 32.7411 49.58 32.7411C48.9141 32.7411 48.2106 32.6657 47.4693 32.5149C46.728 32.3642 46.0432 32.1129 45.415 31.7611L46.037 30.0461C46.64 30.3476 47.2368 30.5612 47.8273 30.6868C48.4179 30.825 48.9958 30.8942 49.5612 30.8942C50.3527 30.8942 50.9558 30.7874 51.3704 30.5738C51.785 30.3602 51.9923 30.0775 51.9923 29.7257C51.9923 29.1854 51.672 28.9153 51.0312 28.9153H48.7697C48.154 28.9153 47.6577 28.8148 47.2808 28.6138C46.9039 28.4127 46.6275 28.1552 46.4516 27.8411C46.2757 27.5144 46.1877 27.1752 46.1877 26.8234C46.1877 26.459 46.2631 26.1198 46.4139 25.8057C46.5772 25.479 46.7971 25.1775 47.0735 24.9011C46.6212 24.6247 46.2568 24.254 45.9804 23.7892C45.7166 23.3243 45.5847 22.7652 45.5847 22.1118C45.5847 21.3706 45.7417 20.7549 46.0558 20.2649C46.3699 19.7749 46.7971 19.4106 47.3373 19.1718C47.8902 18.9206 48.4995 18.7949 49.1654 18.7949H49.4858C49.7371 18.7949 49.9821 18.8138 50.2208 18.8515C50.4595 18.8766 50.6857 18.9206 50.8993 18.9834H54.3104V20.8303L52.4258 20.5288C52.6143 20.7298 52.7588 20.9811 52.8593 21.2826C52.9723 21.5716 53.0289 21.9297 53.0289 22.3568C53.0289 22.9976 52.8656 23.5504 52.5389 24.0153C52.2248 24.4676 51.7976 24.8194 51.2573 25.0707C50.7297 25.3094 50.1391 25.4288 49.4858 25.4288H49.1654C48.9141 25.4288 48.6754 25.4099 48.4493 25.3722C48.3111 25.523 48.2106 25.68 48.1477 25.8434C48.0849 25.9942 48.0535 26.1386 48.0535 26.2768C48.0535 26.7166 48.3362 26.9365 48.9016 26.9365H51.2008C52.0677 26.9365 52.765 27.1626 53.2927 27.6149C53.833 28.0547 54.1031 28.6829 54.1031 29.4995ZM49.4858 23.6572C49.8753 23.6572 50.2145 23.5253 50.5035 23.2615C50.805 22.9976 50.9558 22.6144 50.9558 22.1118C50.9558 21.6093 50.805 21.2261 50.5035 20.9622C50.2145 20.6984 49.8753 20.5665 49.4858 20.5665H49.1654C48.7634 20.5665 48.4116 20.6984 48.11 20.9622C47.8211 21.2261 47.6766 21.6093 47.6766 22.1118C47.6766 22.6144 47.8211 22.9976 48.11 23.2615C48.4116 23.5253 48.7634 23.6572 49.1654 23.6572H49.4858Z" fill="#1A3C6C"/>
<path d="M42.6084 23.1861V24.3168C42.6084 25.6486 42.2441 26.7166 41.5153 27.5207C40.7866 28.3248 39.7564 28.7268 38.4246 28.7268C37.0928 28.7268 36.0625 28.3248 35.3338 27.5207C34.6051 26.7166 34.2407 25.6486 34.2407 24.3168V23.1861C34.2407 21.8543 34.5988 20.7926 35.315 20.0011C36.0437 19.197 37.0802 18.7949 38.4246 18.7949C39.7689 18.7949 40.7992 19.197 41.5153 20.0011C42.2441 20.7926 42.6084 21.8543 42.6084 23.1861ZM40.3846 23.1861C40.3846 22.4197 40.215 21.8229 39.8757 21.3957C39.5365 20.9559 39.0528 20.7361 38.4246 20.7361C37.7964 20.7361 37.3126 20.9559 36.9734 21.3957C36.6342 21.8229 36.4646 22.4197 36.4646 23.1861V24.3168C36.4646 25.0833 36.6342 25.6863 36.9734 26.1261C37.3126 26.5658 37.7964 26.7857 38.4246 26.7857C39.0528 26.7857 39.5365 26.5658 39.8757 26.1261C40.215 25.6863 40.3846 25.0833 40.3846 24.3168V23.1861Z" fill="#1A3C6C"/>
<path d="M31.7749 26.371V28.5383H24.3872V15.7229H26.6487V26.371H31.7749Z" fill="#1A3C6C"/>
</svg>
