<svg width="131" height="42" viewBox="0 0 131 42" fill="none" xmlns="http://www.w3.org/2000/svg">
<rect x="0.442871" y="0.869629" width="130.066" height="40.1438" rx="11.2005" fill="#1A3C6C"/>
<path d="M33.4356 28.3364V13.4873H38.7285C39.8789 13.4873 40.8335 13.6855 41.5924 14.0819C42.3561 14.4782 42.9265 15.0269 43.3035 15.7278C43.6806 16.4238 43.8691 17.2286 43.8691 18.1422C43.8691 19.0509 43.6782 19.8509 43.2963 20.5421C42.9193 21.2285 42.3489 21.7626 41.5852 22.1445C40.8263 22.5263 39.8716 22.7173 38.7212 22.7173H34.7117V20.7886H38.5182C39.2432 20.7886 39.833 20.6847 40.2873 20.4769C40.7465 20.269 41.0825 19.9669 41.2951 19.5705C41.5078 19.1742 41.6142 18.6981 41.6142 18.1422C41.6142 17.5815 41.5054 17.0957 41.2879 16.6848C41.0752 16.274 40.7393 15.9598 40.2801 15.7423C39.8257 15.5199 39.2287 15.4087 38.4892 15.4087H35.676V28.3364H33.4356ZM40.7659 21.6369L44.4346 28.3364H41.8824L38.2862 21.6369H40.7659ZM51.0815 28.5612C49.9843 28.5612 49.0393 28.3268 48.2466 27.8579C47.4587 27.3842 46.8497 26.7196 46.4195 25.864C45.9941 25.0036 45.7814 23.9958 45.7814 22.8405C45.7814 21.6998 45.9941 20.6944 46.4195 19.8243C46.8497 18.9542 47.449 18.2751 48.2176 17.7869C48.991 17.2987 49.8949 17.0546 50.9293 17.0546C51.5577 17.0546 52.1667 17.1585 52.7564 17.3664C53.3461 17.5742 53.8754 17.9005 54.3443 18.3452C54.8132 18.7899 55.1829 19.3675 55.4536 20.0781C55.7243 20.7838 55.8596 21.6418 55.8596 22.652V23.4206H47.0067V21.7964H53.7352C53.7352 21.2261 53.6192 20.721 53.3872 20.2811C53.1552 19.8364 52.8289 19.4859 52.4084 19.2298C51.9927 18.9736 51.5045 18.8455 50.9438 18.8455C50.3347 18.8455 49.803 18.9953 49.3487 19.295C48.8991 19.5899 48.5511 19.9766 48.3046 20.4551C48.0629 20.9288 47.9421 21.4436 47.9421 21.9995V23.2683C47.9421 24.0127 48.0726 24.6459 48.3336 25.1679C48.5994 25.69 48.9692 26.0888 49.4429 26.3643C49.9166 26.635 50.4701 26.7703 51.1033 26.7703C51.5142 26.7703 51.8888 26.7123 52.2271 26.5963C52.5655 26.4755 52.8579 26.2966 53.1044 26.0598C53.351 25.8229 53.5395 25.5305 53.67 25.1824L55.7219 25.5522C55.5575 26.1564 55.2627 26.6857 54.8373 27.1401C54.4168 27.5896 53.8875 27.9401 53.2495 28.1914C52.6162 28.4379 51.8936 28.5612 51.0815 28.5612ZM58.265 32.5127V17.1996H60.3822V19.005H60.5634C60.6891 18.773 60.8704 18.5047 61.1072 18.2002C61.3441 17.8957 61.6728 17.6298 62.0933 17.4026C62.5138 17.1706 63.0697 17.0546 63.7609 17.0546C64.66 17.0546 65.4624 17.2818 66.1681 17.7362C66.8738 18.1905 67.4273 18.8455 67.8285 19.701C68.2345 20.5566 68.4375 21.5862 68.4375 22.7898C68.4375 23.9934 68.2369 25.0254 67.8357 25.8857C67.4345 26.7413 66.8835 27.4011 66.1826 27.8651C65.4817 28.3243 64.6817 28.5539 63.7827 28.5539C63.1059 28.5539 62.5525 28.4404 62.1223 28.2132C61.6969 27.986 61.3634 27.7201 61.1217 27.4156C60.88 27.1111 60.6939 26.8404 60.5634 26.6035H60.4329V32.5127H58.265ZM60.3894 22.768C60.3894 23.5511 60.503 24.2375 60.7302 24.8272C60.9574 25.4169 61.2861 25.8785 61.7163 26.212C62.1465 26.5407 62.6733 26.7051 63.2969 26.7051C63.9446 26.7051 64.486 26.5335 64.921 26.1903C65.356 25.8422 65.6847 25.371 65.9071 24.7764C66.1343 24.1819 66.2478 23.5124 66.2478 22.768C66.2478 22.0333 66.1367 21.3735 65.9143 20.7886C65.6968 20.2037 65.3681 19.7421 64.9282 19.4038C64.4932 19.0654 63.9494 18.8962 63.2969 18.8962C62.6685 18.8962 62.1368 19.0582 61.7018 19.382C61.2716 19.7059 60.9453 20.1578 60.7229 20.7379C60.5006 21.3179 60.3894 21.9946 60.3894 22.768ZM75.5575 28.5612C74.5135 28.5612 73.6023 28.3219 72.8241 27.8434C72.0459 27.3649 71.4416 26.6954 71.0114 25.835C70.5812 24.9746 70.3661 23.9692 70.3661 22.8188C70.3661 21.6635 70.5812 20.6533 71.0114 19.788C71.4416 18.9228 72.0459 18.2509 72.8241 17.7724C73.6023 17.2939 74.5135 17.0546 75.5575 17.0546C76.6016 17.0546 77.5128 17.2939 78.291 17.7724C79.0692 18.2509 79.6734 18.9228 80.1036 19.788C80.5338 20.6533 80.7489 21.6635 80.7489 22.8188C80.7489 23.9692 80.5338 24.9746 80.1036 25.835C79.6734 26.6954 79.0692 27.3649 78.291 27.8434C77.5128 28.3219 76.6016 28.5612 75.5575 28.5612ZM75.5648 26.7413C76.2415 26.7413 76.8022 26.5625 77.2469 26.2048C77.6916 25.8471 78.0203 25.371 78.233 24.7764C78.4505 24.1819 78.5592 23.5269 78.5592 22.8115C78.5592 22.101 78.4505 21.4484 78.233 20.8539C78.0203 20.2545 77.6916 19.7735 77.2469 19.411C76.8022 19.0485 76.2415 18.8672 75.5648 18.8672C74.8832 18.8672 74.3177 19.0485 73.8682 19.411C73.4235 19.7735 73.0923 20.2545 72.8748 20.8539C72.6621 21.4484 72.5558 22.101 72.5558 22.8115C72.5558 23.5269 72.6621 24.1819 72.8748 24.7764C73.0923 25.371 73.4235 25.8471 73.8682 26.2048C74.3177 26.5625 74.8832 26.7413 75.5648 26.7413ZM83.1688 28.3364V17.1996H85.2642V18.9687H85.3802C85.5832 18.3694 85.9409 17.8981 86.4533 17.5549C86.9705 17.2069 87.5553 17.0328 88.2079 17.0328C88.3432 17.0328 88.5027 17.0377 88.6864 17.0473C88.8749 17.057 89.0224 17.0691 89.1287 17.0836V19.1573C89.0417 19.1331 88.887 19.1065 88.6647 19.0775C88.4423 19.0437 88.22 19.0267 87.9976 19.0267C87.4853 19.0267 87.0285 19.1355 86.6273 19.353C86.2309 19.5657 85.9167 19.863 85.6847 20.2448C85.4527 20.6219 85.3367 21.0521 85.3367 21.5354V28.3364H83.1688ZM96.8614 17.1996V18.9397H90.7782V17.1996H96.8614ZM92.4096 14.5314H94.5775V25.0664C94.5775 25.487 94.6403 25.8036 94.766 26.0163C94.8917 26.2241 95.0536 26.3667 95.2518 26.444C95.4548 26.5165 95.6747 26.5528 95.9116 26.5528C96.0856 26.5528 96.2379 26.5407 96.3684 26.5165C96.4989 26.4924 96.6004 26.473 96.6729 26.4585L97.0644 28.2494C96.9387 28.2978 96.7599 28.3461 96.5279 28.3944C96.2959 28.4476 96.0058 28.4766 95.6578 28.4814C95.0874 28.4911 94.5557 28.3896 94.0627 28.1769C93.5697 27.9642 93.1709 27.6355 92.8664 27.1908C92.5618 26.7461 92.4096 26.1879 92.4096 25.516V14.5314Z" fill="white"/>
</svg>
