<svg width="97" height="44" viewBox="0 0 97 44" fill="none" xmlns="http://www.w3.org/2000/svg">
<path d="M0.461426 18.8462C0.461426 8.43771 8.89914 0 19.3076 0H77.4614C87.8699 0 96.3076 8.43771 96.3076 18.8462V24.2308C96.3076 34.6392 87.8699 43.0769 77.4614 43.0769H19.3076C8.89914 43.0769 0.461426 34.6392 0.461426 24.2308V18.8462Z" fill="#1A3C6C"/>
<path d="M77.0916 28.7268C76.7775 28.7268 76.4571 28.6954 76.1304 28.6326C75.8163 28.5698 75.4959 28.4818 75.1693 28.3688V32.5526H73.002V18.9834H75.0562V20.2838C75.6467 19.6933 76.1493 19.2975 76.5639 19.0965C76.9785 18.8954 77.412 18.7949 77.8643 18.7949C78.9071 18.7949 79.7112 19.1844 80.2766 19.9634C80.842 20.7424 81.1246 21.8354 81.1246 23.2426V24.2603C81.1246 25.6298 80.7791 26.7166 80.0881 27.5207C79.3971 28.3248 78.3982 28.7268 77.0916 28.7268ZM77.28 20.8115C76.9911 20.8115 76.6832 20.8994 76.3566 21.0753C76.0425 21.2386 75.6467 21.559 75.1693 22.0365V26.4088C75.7849 26.66 76.3503 26.7857 76.8654 26.7857C77.5941 26.7857 78.1155 26.5595 78.4296 26.1072C78.7437 25.6549 78.9008 25.0393 78.9008 24.2603V23.2426C78.9008 22.4008 78.7563 21.7852 78.4673 21.3957C78.1909 21.0062 77.7952 20.8115 77.28 20.8115Z" fill="#EDF6FF"/>
<path d="M59.6685 15.7229H61.9865V23.9398C61.9865 24.7691 62.1687 25.4224 62.5331 25.8998C62.8974 26.3647 63.4817 26.5971 64.2858 26.5971C65.0899 26.5971 65.6741 26.3647 66.0385 25.8998C66.4028 25.4224 66.585 24.7691 66.585 23.9398V15.7229H68.9031V23.9398C68.9031 25.3847 68.5199 26.5469 67.7535 27.4264C66.987 28.2933 65.8311 28.7267 64.2858 28.7267C62.7278 28.7267 61.5656 28.2933 60.7992 27.4264C60.0454 26.5469 59.6685 25.3847 59.6685 23.9398V15.7229Z" fill="#EDF6FF"/>
<path d="M47.3208 20.8115C47.0067 20.8115 46.6486 20.8868 46.2466 21.0376C45.8445 21.1884 45.3671 21.4836 44.8143 21.9234V28.5384H42.647V18.9834H44.7012V20.2649C45.2917 19.7498 45.8508 19.3792 46.3785 19.153C46.9062 18.9143 47.4402 18.7949 47.9804 18.7949C48.8976 18.7949 49.5949 19.0902 50.0724 19.6807C50.5498 20.2586 50.7885 21.0753 50.7885 22.1307V28.5384H48.6212V22.3945C48.6212 21.3392 48.1877 20.8115 47.3208 20.8115Z" fill="#EDF6FF"/>
<path d="M39.4386 29.4995C39.4386 30.5172 39.0365 31.3088 38.2324 31.8742C37.4409 32.4521 36.3352 32.7411 34.9155 32.7411C34.2496 32.7411 33.546 32.6657 32.8047 32.5149C32.0634 32.3642 31.3787 32.1129 30.7505 31.7611L31.3724 30.0461C31.9755 30.3476 32.5723 30.5612 33.1628 30.6868C33.7533 30.825 34.3313 30.8942 34.8966 30.8942C35.6882 30.8942 36.2913 30.7874 36.7059 30.5738C37.1205 30.3602 37.3278 30.0775 37.3278 29.7257C37.3278 29.1854 37.0074 28.9153 36.3666 28.9153H34.1051C33.4895 28.9153 32.9932 28.8148 32.6163 28.6138C32.2393 28.4127 31.9629 28.1552 31.787 27.8411C31.6111 27.5144 31.5232 27.1752 31.5232 26.8234C31.5232 26.459 31.5986 26.1198 31.7493 25.8057C31.9127 25.479 32.1325 25.1775 32.4089 24.9011C31.9566 24.6247 31.5923 24.254 31.3159 23.7892C31.052 23.3243 30.9201 22.7652 30.9201 22.1118C30.9201 21.3706 31.0772 20.7549 31.3913 20.2649C31.7054 19.7749 32.1325 19.4106 32.6728 19.1718C33.2256 18.9206 33.835 18.7949 34.5009 18.7949H34.8213C35.0725 18.7949 35.3175 18.8138 35.5563 18.8515C35.795 18.8766 36.0211 18.9206 36.2347 18.9834H39.6459V20.8303L37.7613 20.5288C37.9497 20.7298 38.0942 20.9811 38.1947 21.2826C38.3078 21.5716 38.3643 21.9297 38.3643 22.3568C38.3643 22.9976 38.201 23.5504 37.8743 24.0153C37.5602 24.4676 37.1331 24.8194 36.5928 25.0707C36.0651 25.3094 35.4746 25.4288 34.8213 25.4288H34.5009C34.2496 25.4288 34.0109 25.4099 33.7847 25.3722C33.6465 25.523 33.546 25.68 33.4832 25.8434C33.4204 25.9942 33.3889 26.1386 33.3889 26.2768C33.3889 26.7166 33.6716 26.9365 34.237 26.9365H36.5363C37.4032 26.9365 38.1005 27.1626 38.6282 27.6149C39.1684 28.0547 39.4386 28.6829 39.4386 29.4995ZM34.8213 23.6572C35.2107 23.6572 35.55 23.5253 35.8389 23.2615C36.1405 22.9976 36.2913 22.6144 36.2913 22.1118C36.2913 21.6093 36.1405 21.2261 35.8389 20.9622C35.55 20.6984 35.2107 20.5665 34.8213 20.5665H34.5009C34.0988 20.5665 33.747 20.6984 33.4455 20.9622C33.1565 21.2261 33.012 21.6093 33.012 22.1118C33.012 22.6144 33.1565 22.9976 33.4455 23.2615C33.747 23.5253 34.0988 23.6572 34.5009 23.6572H34.8213Z" fill="#EDF6FF"/>
<path d="M27.444 17.1741H25.1636V14.9314H27.444V17.1741ZM27.3874 28.5383H25.2201V18.9833H27.3874V28.5383Z" fill="#EDF6FF"/>
<path d="M17.4074 26.6348C18.8648 26.6348 19.5936 26.0946 19.5936 25.014C19.5936 24.5743 19.4805 24.2288 19.2543 23.9775C19.0407 23.7262 18.6387 23.5063 18.0482 23.3179L16.5028 22.809C14.6559 22.206 13.7324 20.9935 13.7324 19.1717C13.7324 18.1163 14.0591 17.2494 14.7124 16.571C15.3783 15.8799 16.4148 15.5344 17.822 15.5344C18.4125 15.5344 18.9968 15.6035 19.5747 15.7417C20.1527 15.8674 20.7683 16.0747 21.4216 16.3637L20.7243 18.3048C20.1212 18.0661 19.6061 17.8965 19.1789 17.796C18.7643 17.6829 18.3371 17.6263 17.8974 17.6263C17.3195 17.6263 16.8609 17.7331 16.5216 17.9467C16.195 18.1478 16.0316 18.5184 16.0316 19.0587C16.0316 19.4607 16.1447 19.7937 16.3709 20.0575C16.6096 20.3088 16.9991 20.5224 17.5393 20.6983L19.0847 21.2071C20.0145 21.5212 20.7118 21.9798 21.1766 22.5829C21.6541 23.1734 21.8928 23.9587 21.8928 24.9387C21.8928 26.0694 21.5347 26.9866 20.8186 27.6902C20.1024 28.3812 18.9779 28.7267 17.4451 28.7267C16.842 28.7267 16.2138 28.6576 15.5605 28.5194C14.9197 28.3687 14.2161 28.1174 13.4497 27.7656L14.147 25.8244C14.8506 26.126 15.4474 26.3396 15.9374 26.4652C16.44 26.5783 16.93 26.6348 17.4074 26.6348Z" fill="#EDF6FF"/>
</svg>
