<svg width="197" height="42" viewBox="0 0 197 42" fill="none" xmlns="http://www.w3.org/2000/svg">
<rect width="197" height="42" rx="10" fill="#D5EAFF"/>
<path d="M31.0959 14.153H33.136V25.3075C33.136 26.4592 32.8645 27.4875 32.3216 28.3923C31.7842 29.2917 31.0246 30.0019 30.043 30.5229C29.0613 31.0384 27.9097 31.2961 26.588 31.2961C25.2664 31.2961 24.1147 31.0384 23.1331 30.5229C22.1514 30.0019 21.3891 29.2917 20.8462 28.3923C20.3088 27.4875 20.0401 26.4592 20.0401 25.3075V14.153H22.0801V25.143C22.0801 25.9656 22.2611 26.6978 22.6231 27.3394C22.985 27.9755 23.5005 28.4773 24.1696 28.8448C24.8441 29.2067 25.6503 29.3877 26.588 29.3877C27.5258 29.3877 28.332 29.2067 29.0065 28.8448C29.681 28.4773 30.1965 27.9755 30.553 27.3394C30.915 26.6978 31.0959 25.9656 31.0959 25.143V14.153ZM36.9467 35.7382V18.3647H38.8223V20.3719H39.0526C39.1952 20.1525 39.3926 19.8728 39.6449 19.5328C39.9026 19.1873 40.2701 18.8802 40.7472 18.6115C41.2298 18.3373 41.8824 18.2002 42.705 18.2002C43.7689 18.2002 44.7067 18.4662 45.5183 18.9981C46.33 19.5301 46.9634 20.2842 47.4185 21.2603C47.8737 22.2365 48.1013 23.3881 48.1013 24.7153C48.1013 26.0534 47.8737 27.2133 47.4185 28.1949C46.9634 29.1711 46.3327 29.9279 45.5265 30.4653C44.7204 30.9973 43.7908 31.2632 42.7379 31.2632C41.9263 31.2632 41.2764 31.1289 40.7883 30.8602C40.3002 30.586 39.9246 30.2761 39.6613 29.9306C39.3981 29.5796 39.1952 29.289 39.0526 29.0586H38.8881V35.7382H36.9467ZM38.8552 24.6824C38.8552 25.6366 38.995 26.4784 39.2747 27.2078C39.5544 27.9317 39.963 28.4993 40.5004 28.9106C41.0378 29.3164 41.6959 29.5193 42.4747 29.5193C43.2863 29.5193 43.9636 29.3054 44.5065 28.8777C45.0549 28.4444 45.4662 27.8631 45.7404 27.1337C46.0201 26.3989 46.1599 25.5818 46.1599 24.6824C46.1599 23.7939 46.0228 22.9933 45.7486 22.2803C45.4799 21.5619 45.0714 20.9943 44.523 20.5775C43.98 20.1553 43.2973 19.9441 42.4747 19.9441C41.685 19.9441 41.0214 20.1443 40.4839 20.5446C39.9465 20.9395 39.5407 21.4934 39.2665 22.2063C38.9923 22.9138 38.8552 23.7391 38.8552 24.6824ZM53.0041 14.153V31H51.0627V14.153H53.0041ZM61.6929 31.2632C60.5522 31.2632 59.5513 30.9918 58.6903 30.4489C57.8348 29.9059 57.1658 29.1464 56.6832 28.1702C56.2061 27.1941 55.9675 26.0534 55.9675 24.7482C55.9675 23.432 56.2061 22.2831 56.6832 21.3014C57.1658 20.3198 57.8348 19.5575 58.6903 19.0146C59.5513 18.4717 60.5522 18.2002 61.6929 18.2002C62.8335 18.2002 63.8316 18.4717 64.6872 19.0146C65.5481 19.5575 66.2172 20.3198 66.6943 21.3014C67.1769 22.2831 67.4182 23.432 67.4182 24.7482C67.4182 26.0534 67.1769 27.1941 66.6943 28.1702C66.2172 29.1464 65.5481 29.9059 64.6872 30.4489C63.8316 30.9918 62.8335 31.2632 61.6929 31.2632ZM61.6929 29.5193C62.5593 29.5193 63.2723 29.2972 63.8316 28.853C64.391 28.4088 64.8051 27.8247 65.0738 27.1008C65.3425 26.3769 65.4769 25.5927 65.4769 24.7482C65.4769 23.9036 65.3425 23.1167 65.0738 22.3873C64.8051 21.6579 64.391 21.0684 63.8316 20.6187C63.2723 20.169 62.5593 19.9441 61.6929 19.9441C60.8264 19.9441 60.1134 20.169 59.5541 20.6187C58.9947 21.0684 58.5807 21.6579 58.3119 22.3873C58.0432 23.1167 57.9089 23.9036 57.9089 24.7482C57.9089 25.5927 58.0432 26.3769 58.3119 27.1008C58.5807 27.8247 58.9947 28.4088 59.5541 28.853C60.1134 29.2972 60.8264 29.5193 61.6929 29.5193ZM74.0998 31.2961C73.2992 31.2961 72.5725 31.1453 71.9199 30.8437C71.2673 30.5366 70.7491 30.0951 70.3652 29.5193C69.9813 28.938 69.7894 28.236 69.7894 27.4134C69.7894 26.6895 69.932 26.1027 70.2171 25.653C70.5023 25.1979 70.8834 24.8414 71.3606 24.5837C71.8377 24.3259 72.3641 24.134 72.94 24.0078C73.5213 23.8762 74.1053 23.772 74.6921 23.6952C75.4599 23.5965 76.0823 23.5225 76.5594 23.4731C77.042 23.4183 77.393 23.3278 77.6124 23.2017C77.8372 23.0755 77.9497 22.8562 77.9497 22.5436V22.4778C77.9497 21.6661 77.7275 21.0355 77.2833 20.5858C76.8446 20.1361 76.1783 19.9112 75.2844 19.9112C74.3576 19.9112 73.631 20.1141 73.1045 20.52C72.578 20.9258 72.2078 21.359 71.994 21.8197L70.1513 21.1616C70.4804 20.3938 70.9191 19.7961 71.4675 19.3683C72.0214 18.9351 72.6246 18.6335 73.2772 18.4634C73.9353 18.288 74.5824 18.2002 75.2186 18.2002C75.6244 18.2002 76.0906 18.2496 76.617 18.3483C77.149 18.4415 77.6617 18.6362 78.1553 18.9323C78.6544 19.2285 79.0684 19.6754 79.3974 20.2732C79.7265 20.8709 79.891 21.6716 79.891 22.6752V31H77.9497V29.289H77.8509C77.7193 29.5632 77.5 29.8566 77.1929 30.1692C76.8857 30.4818 76.4772 30.7477 75.9672 30.9671C75.4572 31.1865 74.8347 31.2961 74.0998 31.2961ZM74.396 29.5522C75.1638 29.5522 75.8109 29.4014 76.3373 29.0998C76.8693 28.7982 77.2696 28.4088 77.5383 27.9317C77.8126 27.4546 77.9497 26.9528 77.9497 26.4263V24.6495C77.8674 24.7482 77.6864 24.8387 77.4067 24.9209C77.1325 24.9977 76.8145 25.0662 76.4525 25.1266C76.096 25.1814 75.7478 25.2308 75.4078 25.2746C75.0733 25.313 74.8018 25.3459 74.5934 25.3734C74.0889 25.4392 73.6172 25.5461 73.1785 25.6942C72.7453 25.8368 72.3943 26.0534 72.1256 26.344C71.8624 26.6292 71.7307 27.0186 71.7307 27.5121C71.7307 28.1867 71.9803 28.6967 72.4793 29.0422C72.9838 29.3822 73.6227 29.5522 74.396 29.5522ZM88.2055 31.2632C87.1526 31.2632 86.223 30.9973 85.4169 30.4653C84.6107 29.9279 83.9801 29.1711 83.5249 28.1949C83.0697 27.2133 82.8421 26.0534 82.8421 24.7153C82.8421 23.3881 83.0697 22.2365 83.5249 21.2603C83.9801 20.2842 84.6135 19.5301 85.4251 18.9981C86.2368 18.4662 87.1745 18.2002 88.2384 18.2002C89.061 18.2002 89.7109 18.3373 90.188 18.6115C90.6706 18.8802 91.038 19.1873 91.2903 19.5328C91.5481 19.8728 91.7482 20.1525 91.8908 20.3719H92.0553V14.153H93.9967V31H92.1211V29.0586H91.8908C91.7482 29.289 91.5453 29.5796 91.2821 29.9306C91.0188 30.2761 90.6432 30.586 90.1551 30.8602C89.667 31.1289 89.0172 31.2632 88.2055 31.2632ZM88.4688 29.5193C89.2475 29.5193 89.9056 29.3164 90.443 28.9106C90.9805 28.4993 91.389 27.9317 91.6687 27.2078C91.9484 26.4784 92.0882 25.6366 92.0882 24.6824C92.0882 23.7391 91.9511 22.9138 91.6769 22.2063C91.4027 21.4934 90.9969 20.9395 90.4595 20.5446C89.922 20.1443 89.2585 19.9441 88.4688 19.9441C87.6462 19.9441 86.9606 20.1553 86.4122 20.5775C85.8693 20.9943 85.4608 21.5619 85.1866 22.2803C84.9178 22.9933 84.7835 23.7939 84.7835 24.6824C84.7835 25.5818 84.9206 26.3989 85.1948 27.1337C85.4745 27.8631 85.8858 28.4444 86.4287 28.8777C86.9771 29.3054 87.6571 29.5193 88.4688 29.5193ZM104.6 31V14.153H110.293C111.614 14.153 112.695 14.3915 113.534 14.8686C114.378 15.3403 115.003 15.9792 115.409 16.7853C115.815 17.5915 116.018 18.4909 116.018 19.4835C116.018 20.4761 115.815 21.3782 115.409 22.1899C115.009 23.0015 114.389 23.6486 113.55 24.1312C112.711 24.6083 111.636 24.8469 110.325 24.8469H106.245V23.0371H110.26C111.165 23.0371 111.891 22.8809 112.44 22.5683C112.988 22.2557 113.386 21.8334 113.632 21.3014C113.885 20.764 114.011 20.158 114.011 19.4835C114.011 18.8089 113.885 18.2057 113.632 17.6737C113.386 17.1418 112.985 16.725 112.431 16.4234C111.877 16.1163 111.143 15.9627 110.227 15.9627H106.64V31H104.6ZM120.982 23.3991V31H119.041V14.153H120.982V20.339H121.147C121.443 19.6864 121.887 19.1681 122.48 18.7843C123.077 18.3949 123.872 18.2002 124.865 18.2002C125.726 18.2002 126.48 18.373 127.127 18.7185C127.774 19.0585 128.276 19.5822 128.633 20.2896C128.995 20.9916 129.176 21.8855 129.176 22.9713V31H127.234V23.103C127.234 22.0994 126.974 21.3234 126.453 20.775C125.937 20.2211 125.222 19.9441 124.306 19.9441C123.67 19.9441 123.099 20.0785 122.595 20.3472C122.096 20.6159 121.701 21.008 121.41 21.5235C121.125 22.039 120.982 22.6642 120.982 23.3991ZM137.86 31.2632C136.72 31.2632 135.719 30.9918 134.858 30.4489C134.002 29.9059 133.333 29.1464 132.851 28.1702C132.373 27.1941 132.135 26.0534 132.135 24.7482C132.135 23.432 132.373 22.2831 132.851 21.3014C133.333 20.3198 134.002 19.5575 134.858 19.0146C135.719 18.4717 136.72 18.2002 137.86 18.2002C139.001 18.2002 139.999 18.4717 140.855 19.0146C141.716 19.5575 142.385 20.3198 142.862 21.3014C143.344 22.2831 143.586 23.432 143.586 24.7482C143.586 26.0534 143.344 27.1941 142.862 28.1702C142.385 29.1464 141.716 29.9059 140.855 30.4489C139.999 30.9918 139.001 31.2632 137.86 31.2632ZM137.86 29.5193C138.727 29.5193 139.44 29.2972 139.999 28.853C140.558 28.4088 140.972 27.8247 141.241 27.1008C141.51 26.3769 141.644 25.5927 141.644 24.7482C141.644 23.9036 141.51 23.1167 141.241 22.3873C140.972 21.6579 140.558 21.0684 139.999 20.6187C139.44 20.169 138.727 19.9441 137.86 19.9441C136.994 19.9441 136.281 20.169 135.721 20.6187C135.162 21.0684 134.748 21.6579 134.479 22.3873C134.211 23.1167 134.076 23.9036 134.076 24.7482C134.076 25.5927 134.211 26.3769 134.479 27.1008C134.748 27.8247 135.162 28.4088 135.721 28.853C136.281 29.2972 136.994 29.5193 137.86 29.5193ZM152.044 18.3647V20.0099H145.496V18.3647H152.044ZM147.405 15.3375H149.346V27.3805C149.346 27.9289 149.425 28.3402 149.584 28.6144C149.749 28.8832 149.957 29.0641 150.21 29.1574C150.467 29.2451 150.739 29.289 151.024 29.289C151.238 29.289 151.413 29.278 151.551 29.2561C151.688 29.2286 151.797 29.2067 151.88 29.1903L152.274 30.9342C152.143 30.9835 151.959 31.0329 151.723 31.0823C151.487 31.1371 151.189 31.1645 150.827 31.1645C150.278 31.1645 149.741 31.0466 149.214 30.8108C148.693 30.575 148.26 30.2158 147.915 29.7332C147.575 29.2506 147.405 28.6419 147.405 27.907V15.3375ZM159.962 31.2632C158.821 31.2632 157.82 30.9918 156.959 30.4489C156.104 29.9059 155.435 29.1464 154.952 28.1702C154.475 27.1941 154.236 26.0534 154.236 24.7482C154.236 23.432 154.475 22.2831 154.952 21.3014C155.435 20.3198 156.104 19.5575 156.959 19.0146C157.82 18.4717 158.821 18.2002 159.962 18.2002C161.102 18.2002 162.1 18.4717 162.956 19.0146C163.817 19.5575 164.486 20.3198 164.963 21.3014C165.446 22.2831 165.687 23.432 165.687 24.7482C165.687 26.0534 165.446 27.1941 164.963 28.1702C164.486 29.1464 163.817 29.9059 162.956 30.4489C162.1 30.9918 161.102 31.2632 159.962 31.2632ZM159.962 29.5193C160.828 29.5193 161.541 29.2972 162.1 28.853C162.66 28.4088 163.074 27.8247 163.343 27.1008C163.611 26.3769 163.746 25.5927 163.746 24.7482C163.746 23.9036 163.611 23.1167 163.343 22.3873C163.074 21.6579 162.66 21.0684 162.1 20.6187C161.541 20.169 160.828 19.9441 159.962 19.9441C159.095 19.9441 158.382 20.169 157.823 20.6187C157.264 21.0684 156.849 21.6579 156.581 22.3873C156.312 23.1167 156.178 23.9036 156.178 24.7482C156.178 25.5927 156.312 26.3769 156.581 27.1008C156.849 27.8247 157.264 28.4088 157.823 28.853C158.382 29.2972 159.095 29.5193 159.962 29.5193ZM177.6 21.1945L175.857 21.6881C175.747 21.3974 175.585 21.115 175.371 20.8408C175.163 20.5611 174.878 20.3308 174.516 20.1498C174.154 19.9688 173.69 19.8783 173.125 19.8783C172.352 19.8783 171.708 20.0566 171.192 20.413C170.682 20.764 170.427 21.211 170.427 21.7539C170.427 22.2365 170.603 22.6176 170.954 22.8973C171.305 23.177 171.853 23.4101 172.599 23.5965L174.475 24.0572C175.604 24.3314 176.446 24.7509 177 25.3158C177.554 25.8751 177.831 26.5963 177.831 27.4792C177.831 28.2031 177.622 28.8502 177.206 29.4206C176.794 29.9909 176.218 30.4406 175.478 30.7697C174.738 31.0987 173.877 31.2632 172.895 31.2632C171.606 31.2632 170.54 30.9835 169.695 30.4242C168.851 29.8648 168.316 29.0477 168.091 27.9728L169.934 27.5121C170.109 28.1922 170.441 28.7022 170.929 29.0422C171.423 29.3822 172.067 29.5522 172.862 29.5522C173.767 29.5522 174.486 29.3603 175.017 28.9764C175.555 28.587 175.824 28.1209 175.824 27.5779C175.824 27.1392 175.67 26.7718 175.363 26.4757C175.056 26.174 174.584 25.9492 173.948 25.8011L171.842 25.3075C170.685 25.0333 169.835 24.6083 169.292 24.0325C168.755 23.4512 168.486 22.7246 168.486 21.8526C168.486 21.1397 168.686 20.509 169.086 19.9606C169.492 19.4122 170.043 18.9817 170.74 18.6691C171.442 18.3565 172.237 18.2002 173.125 18.2002C174.376 18.2002 175.357 18.4744 176.07 19.0228C176.789 19.5712 177.299 20.2951 177.6 21.1945Z" fill="#1A3C6C"/>
</svg>
