<svg width="819" height="36" viewBox="0 0 819 36" fill="none" xmlns="http://www.w3.org/2000/svg">
<path d="M7.488 12.204L8.856 21.276L13.752 2.52H17.64L22.5 21.132L24.012 12.204L25.884 2.52H30.276L24.768 27H20.34L15.624 8.784L10.872 27H6.444L0.936 2.52H5.616L7.488 12.204ZM47.0087 25.956C45.7607 26.46 44.5847 26.82 43.4807 27.036C42.3767 27.252 41.3327 27.36 40.3487 27.36C37.6367 27.36 35.5847 26.592 34.1927 25.056C32.8007 23.52 32.1047 21.48 32.1047 18.936V16.776C32.1047 15.072 32.4167 13.596 33.0407 12.348C33.6647 11.1 34.5527 10.128 35.7047 9.432C36.8567 8.736 38.2127 8.388 39.7727 8.388C41.0447 8.388 42.2327 8.652 43.3367 9.18C44.4647 9.684 45.3767 10.488 46.0727 11.592C46.7927 12.672 47.1527 14.064 47.1527 15.768C47.1527 16.272 47.1167 16.812 47.0447 17.388C46.9727 17.94 46.8527 18.528 46.6847 19.152H36.1007C36.1487 20.64 36.5207 21.756 37.2167 22.5C37.9127 23.244 39.0287 23.616 40.5647 23.616C41.3807 23.616 42.2207 23.52 43.0847 23.328C43.9727 23.136 44.8847 22.848 45.8207 22.464L47.0087 25.956ZM39.7727 11.88C38.6687 11.88 37.8047 12.24 37.1807 12.96C36.5807 13.656 36.2327 14.664 36.1367 15.984H43.0487C43.0727 15.864 43.0847 15.756 43.0847 15.66C43.0847 15.54 43.0847 15.432 43.0847 15.336C43.0847 14.184 42.7607 13.32 42.1127 12.744C41.4647 12.168 40.6847 11.88 39.7727 11.88ZM51.8141 21.852V0.36H55.9541V21.852C55.9541 22.212 56.0381 22.56 56.2061 22.896C56.3981 23.208 56.7581 23.364 57.2861 23.364H57.8621V27.18H56.8541C55.4861 27.18 54.4421 26.916 53.7221 26.388C53.0021 25.86 52.4981 25.188 52.2101 24.372C51.9461 23.556 51.8141 22.716 51.8141 21.852ZM65.0393 16.812V18.936C65.0393 20.472 65.3153 21.624 65.8673 22.392C66.4193 23.16 67.3073 23.544 68.5313 23.544C69.1313 23.544 69.8033 23.472 70.5473 23.328C71.3153 23.16 72.1433 22.908 73.0313 22.572L74.2193 26.064C73.1393 26.496 72.1193 26.82 71.1593 27.036C70.1993 27.252 69.2513 27.36 68.3153 27.36C65.9153 27.36 64.0793 26.592 62.8073 25.056C61.5353 23.52 60.8993 21.48 60.8993 18.936V16.812C60.8993 14.244 61.5353 12.204 62.8073 10.692C64.0793 9.156 65.9153 8.388 68.3153 8.388C69.2273 8.388 70.1513 8.496 71.0873 8.712C72.0233 8.928 73.0073 9.24 74.0393 9.648L72.8513 13.212C71.1233 12.54 69.6833 12.204 68.5313 12.204C67.3073 12.204 66.4193 12.588 65.8673 13.356C65.3153 14.1 65.0393 15.252 65.0393 16.812ZM92.9481 16.776V18.936C92.9481 21.48 92.2521 23.52 90.8601 25.056C89.4681 26.592 87.5001 27.36 84.9561 27.36C82.4121 27.36 80.4441 26.592 79.0521 25.056C77.6601 23.52 76.9641 21.48 76.9641 18.936V16.776C76.9641 14.232 77.6481 12.204 79.0161 10.692C80.4081 9.156 82.3881 8.388 84.9561 8.388C87.5241 8.388 89.4921 9.156 90.8601 10.692C92.2521 12.204 92.9481 14.232 92.9481 16.776ZM88.7001 16.776C88.7001 15.312 88.3761 14.172 87.7281 13.356C87.0801 12.516 86.1561 12.096 84.9561 12.096C83.7561 12.096 82.8321 12.516 82.1841 13.356C81.5361 14.172 81.2121 15.312 81.2121 16.776V18.936C81.2121 20.4 81.5361 21.552 82.1841 22.392C82.8321 23.232 83.7561 23.652 84.9561 23.652C86.1561 23.652 87.0801 23.232 87.7281 22.392C88.3761 21.552 88.7001 20.4 88.7001 18.936V16.776ZM101.73 14.364V27H97.5901V8.748H101.514V11.16C102.642 10.176 103.686 9.468 104.646 9.036C105.606 8.604 106.59 8.388 107.598 8.388C109.83 8.388 111.354 9.372 112.17 11.34C113.37 10.284 114.486 9.528 115.518 9.072C116.55 8.616 117.594 8.388 118.65 8.388C120.33 8.388 121.614 8.952 122.502 10.08C123.39 11.184 123.834 12.744 123.834 14.76V27H119.694V15.264C119.694 13.248 118.926 12.24 117.39 12.24C116.79 12.24 116.13 12.384 115.41 12.672C114.69 12.96 113.814 13.524 112.782 14.364V27H108.642V15.264C108.642 13.248 107.874 12.24 106.338 12.24C105.738 12.24 105.078 12.384 104.358 12.672C103.638 12.96 102.762 13.524 101.73 14.364ZM143.161 25.956C141.913 26.46 140.737 26.82 139.633 27.036C138.529 27.252 137.485 27.36 136.501 27.36C133.789 27.36 131.737 26.592 130.345 25.056C128.953 23.52 128.257 21.48 128.257 18.936V16.776C128.257 15.072 128.569 13.596 129.193 12.348C129.817 11.1 130.705 10.128 131.857 9.432C133.009 8.736 134.365 8.388 135.925 8.388C137.197 8.388 138.385 8.652 139.489 9.18C140.617 9.684 141.529 10.488 142.225 11.592C142.945 12.672 143.305 14.064 143.305 15.768C143.305 16.272 143.269 16.812 143.197 17.388C143.125 17.94 143.005 18.528 142.837 19.152H132.253C132.301 20.64 132.673 21.756 133.369 22.5C134.065 23.244 135.181 23.616 136.717 23.616C137.533 23.616 138.373 23.52 139.237 23.328C140.125 23.136 141.037 22.848 141.973 22.464L143.161 25.956ZM135.925 11.88C134.821 11.88 133.957 12.24 133.333 12.96C132.733 13.656 132.385 14.664 132.289 15.984H139.201C139.225 15.864 139.237 15.756 139.237 15.66C139.237 15.54 139.237 15.432 139.237 15.336C139.237 14.184 138.913 13.32 138.265 12.744C137.617 12.168 136.837 11.88 135.925 11.88ZM166.262 26.388C165.638 26.676 164.918 26.904 164.102 27.072C163.286 27.264 162.458 27.36 161.618 27.36C160.226 27.36 159.11 27.072 158.27 26.496C157.43 25.92 156.818 25.116 156.434 24.084C156.074 23.052 155.894 21.876 155.894 20.556V12.348H152.942V8.748H155.894V3.996H160.034V8.748H165.722V12.348H160.034V20.556C160.034 21.66 160.238 22.428 160.646 22.86C161.078 23.268 161.69 23.472 162.482 23.472C162.866 23.472 163.274 23.436 163.706 23.364C164.162 23.268 164.666 23.112 165.218 22.896L166.262 26.388ZM184.53 16.776V18.936C184.53 21.48 183.834 23.52 182.442 25.056C181.05 26.592 179.082 27.36 176.538 27.36C173.994 27.36 172.026 26.592 170.634 25.056C169.242 23.52 168.546 21.48 168.546 18.936V16.776C168.546 14.232 169.23 12.204 170.598 10.692C171.99 9.156 173.97 8.388 176.538 8.388C179.106 8.388 181.074 9.156 182.442 10.692C183.834 12.204 184.53 14.232 184.53 16.776ZM180.282 16.776C180.282 15.312 179.958 14.172 179.31 13.356C178.662 12.516 177.738 12.096 176.538 12.096C175.338 12.096 174.414 12.516 173.766 13.356C173.118 14.172 172.794 15.312 172.794 16.776V18.936C172.794 20.4 173.118 21.552 173.766 22.392C174.414 23.232 175.338 23.652 176.538 23.652C177.738 23.652 178.662 23.232 179.31 22.392C179.958 21.552 180.282 20.4 180.282 18.936V16.776ZM610.706 17.46V13.86H621.65V17.46H610.706ZM647.048 27L640.928 16.308C640.52 16.764 640.1 17.22 639.668 17.676C639.26 18.132 638.828 18.6 638.372 19.08V27H634.052V2.52H638.372V14.148C640.196 12.06 641.756 10.08 643.052 8.208C644.348 6.312 645.464 4.416 646.4 2.52H651.116C650.084 4.584 648.98 6.54 647.804 8.388C646.652 10.212 645.428 11.904 644.132 13.464L652.268 27H647.048ZM658.828 27H654.472V22.716H658.828V27ZM676.825 27L670.705 16.308C670.297 16.764 669.877 17.22 669.445 17.676C669.037 18.132 668.605 18.6 668.149 19.08V27H663.829V2.52H668.149V14.148C669.973 12.06 671.533 10.08 672.829 8.208C674.125 6.312 675.241 4.416 676.177 2.52H680.893C679.861 4.584 678.757 6.54 677.581 8.388C676.429 10.212 675.205 11.904 673.909 13.464L682.045 27H676.825ZM688.605 27H684.249V22.716H688.605V27ZM695.742 12.204L697.11 21.276L702.006 2.52H705.894L710.754 21.132L712.266 12.204L714.138 2.52H718.53L713.022 27H708.594L703.878 8.784L699.126 27H694.698L689.19 2.52H693.87L695.742 12.204ZM723.48 27H719.124V22.716H723.48V27ZM732.802 27H728.482V2.52H732.802V27ZM742.148 27H737.792V22.716H742.148V27ZM761.334 22.86V27H747.15V2.52H760.974V6.66H751.47V12.528H759.894V16.668H751.47V22.86H761.334ZM769.042 27H764.686V22.716H769.042V27ZM788.228 22.86V27H774.044V2.52H787.868V6.66H778.364V12.528H786.788V16.668H778.364V22.86H788.228ZM795.937 27H791.581V22.716H795.937V27ZM805.259 18V27H800.939V2.52H809.111C811.583 2.52 813.479 3.156 814.799 4.428C816.143 5.676 816.815 7.356 816.815 9.468V11.016C816.815 12.408 816.515 13.632 815.915 14.688C815.315 15.744 814.451 16.548 813.323 17.1C815.291 20.46 816.971 23.76 818.363 27H813.431C812.231 24 810.803 21 809.147 18H805.259ZM809.111 6.48H805.259V14.04H809.111C810.167 14.04 810.971 13.776 811.523 13.248C812.099 12.696 812.387 11.952 812.387 11.016V9.468C812.387 8.556 812.099 7.836 811.523 7.308C810.971 6.756 810.167 6.48 809.111 6.48Z" fill="#1A3C6C"/>
<path d="M200.231 17.316C200.231 19.068 200.615 20.508 201.383 21.636C202.151 22.74 203.411 23.292 205.163 23.292C205.883 23.292 206.627 23.196 207.395 23.004C208.187 22.812 209.159 22.488 210.311 22.032L211.643 25.776C210.347 26.352 209.147 26.76 208.043 27C206.963 27.24 205.919 27.36 204.911 27.36C202.895 27.36 201.203 26.928 199.835 26.064C198.491 25.2 197.483 24.012 196.811 22.5C196.139 20.988 195.803 19.26 195.803 17.316V12.168C195.803 10.224 196.139 8.496 196.811 6.984C197.483 5.472 198.491 4.296 199.835 3.456C201.203 2.592 202.895 2.16 204.911 2.16C205.895 2.16 206.915 2.28 207.971 2.52C209.027 2.736 210.179 3.12 211.427 3.672L210.095 7.488C208.991 7.032 208.067 6.708 207.323 6.516C206.579 6.324 205.859 6.228 205.163 6.228C203.411 6.228 202.151 6.78 201.383 7.884C200.615 8.988 200.231 10.416 200.231 12.168V17.316ZM229.847 16.776V18.936C229.847 21.48 229.151 23.52 227.759 25.056C226.367 26.592 224.399 27.36 221.855 27.36C219.311 27.36 217.343 26.592 215.951 25.056C214.559 23.52 213.863 21.48 213.863 18.936V16.776C213.863 14.232 214.547 12.204 215.915 10.692C217.307 9.156 219.287 8.388 221.855 8.388C224.423 8.388 226.391 9.156 227.759 10.692C229.151 12.204 229.847 14.232 229.847 16.776ZM225.599 16.776C225.599 15.312 225.275 14.172 224.627 13.356C223.979 12.516 223.055 12.096 221.855 12.096C220.655 12.096 219.731 12.516 219.083 13.356C218.435 14.172 218.111 15.312 218.111 16.776V18.936C218.111 20.4 218.435 21.552 219.083 22.392C219.731 23.232 220.655 23.652 221.855 23.652C223.055 23.652 223.979 23.232 224.627 22.392C225.275 21.552 225.599 20.4 225.599 18.936V16.776ZM238.629 14.364V27H234.489V8.748H238.413V11.16C239.541 10.176 240.585 9.468 241.545 9.036C242.505 8.604 243.489 8.388 244.497 8.388C246.729 8.388 248.253 9.372 249.069 11.34C250.269 10.284 251.385 9.528 252.417 9.072C253.449 8.616 254.493 8.388 255.549 8.388C257.229 8.388 258.513 8.952 259.401 10.08C260.289 11.184 260.733 12.744 260.733 14.76V27H256.593V15.264C256.593 13.248 255.825 12.24 254.289 12.24C253.689 12.24 253.029 12.384 252.309 12.672C251.589 12.96 250.713 13.524 249.681 14.364V27H245.541V15.264C245.541 13.248 244.773 12.24 243.237 12.24C242.637 12.24 241.977 12.384 241.257 12.672C240.537 12.96 239.661 13.524 238.629 14.364ZM274.011 27.36C273.411 27.36 272.799 27.3 272.175 27.18C271.575 27.06 270.963 26.892 270.339 26.676V34.668H266.199V8.748H270.123V11.232C271.251 10.104 272.211 9.348 273.003 8.964C273.795 8.58 274.623 8.388 275.487 8.388C277.479 8.388 279.015 9.132 280.095 10.62C281.175 12.108 281.715 14.196 281.715 16.884V18.828C281.715 21.444 281.055 23.52 279.735 25.056C278.415 26.592 276.507 27.36 274.011 27.36ZM274.371 12.24C273.819 12.24 273.231 12.408 272.607 12.744C272.007 13.056 271.251 13.668 270.339 14.58V22.932C271.515 23.412 272.595 23.652 273.579 23.652C274.971 23.652 275.967 23.22 276.567 22.356C277.167 21.492 277.467 20.316 277.467 18.828V16.884C277.467 15.276 277.191 14.1 276.639 13.356C276.111 12.612 275.355 12.24 274.371 12.24ZM297.392 27V24.588C296.288 25.548 295.256 26.256 294.296 26.712C293.336 27.144 292.364 27.36 291.38 27.36C289.748 27.36 288.488 26.808 287.6 25.704C286.712 24.576 286.268 23.004 286.268 20.988V8.748H290.408V20.484C290.408 22.5 291.152 23.508 292.64 23.508C293.24 23.508 293.888 23.364 294.584 23.076C295.304 22.788 296.168 22.236 297.176 21.42V8.748H301.316V27H297.392ZM317.996 26.388C317.372 26.676 316.652 26.904 315.836 27.072C315.02 27.264 314.192 27.36 313.352 27.36C311.96 27.36 310.844 27.072 310.004 26.496C309.164 25.92 308.552 25.116 308.168 24.084C307.808 23.052 307.628 21.876 307.628 20.556V12.348H304.676V8.748H307.628V3.996H311.768V8.748H317.456V12.348H311.768V20.556C311.768 21.66 311.972 22.428 312.38 22.86C312.812 23.268 313.424 23.472 314.216 23.472C314.6 23.472 315.008 23.436 315.44 23.364C315.896 23.268 316.4 23.112 316.952 22.896L317.996 26.388ZM335.184 25.956C333.936 26.46 332.76 26.82 331.656 27.036C330.552 27.252 329.508 27.36 328.524 27.36C325.812 27.36 323.76 26.592 322.368 25.056C320.976 23.52 320.28 21.48 320.28 18.936V16.776C320.28 15.072 320.592 13.596 321.216 12.348C321.84 11.1 322.728 10.128 323.88 9.432C325.032 8.736 326.388 8.388 327.948 8.388C329.22 8.388 330.408 8.652 331.512 9.18C332.64 9.684 333.552 10.488 334.248 11.592C334.968 12.672 335.328 14.064 335.328 15.768C335.328 16.272 335.292 16.812 335.22 17.388C335.148 17.94 335.028 18.528 334.86 19.152H324.276C324.324 20.64 324.696 21.756 325.392 22.5C326.088 23.244 327.204 23.616 328.74 23.616C329.556 23.616 330.396 23.52 331.26 23.328C332.148 23.136 333.06 22.848 333.996 22.464L335.184 25.956ZM327.948 11.88C326.844 11.88 325.98 12.24 325.356 12.96C324.756 13.656 324.408 14.664 324.312 15.984H331.224C331.248 15.864 331.26 15.756 331.26 15.66C331.26 15.54 331.26 15.432 331.26 15.336C331.26 14.184 330.936 13.32 330.288 12.744C329.64 12.168 328.86 11.88 327.948 11.88ZM350.394 12.528C349.266 12.528 348.186 12.708 347.154 13.068C346.146 13.404 345.174 13.956 344.238 14.724V27H340.098V8.748H344.022V11.556C345.246 10.404 346.338 9.588 347.298 9.108C348.258 8.628 349.29 8.388 350.394 8.388V12.528ZM367.095 23.364C369.879 23.364 371.271 22.332 371.271 20.268C371.271 19.428 371.055 18.768 370.623 18.288C370.215 17.808 369.447 17.388 368.319 17.028L365.367 16.056C361.839 14.904 360.075 12.588 360.075 9.108C360.075 7.092 360.699 5.436 361.947 4.14C363.219 2.82 365.199 2.16 367.887 2.16C369.015 2.16 370.131 2.292 371.235 2.556C372.339 2.796 373.515 3.192 374.763 3.744L373.431 7.452C372.279 6.996 371.295 6.672 370.479 6.48C369.687 6.264 368.871 6.156 368.031 6.156C366.927 6.156 366.051 6.36 365.403 6.768C364.779 7.152 364.467 7.86 364.467 8.892C364.467 9.66 364.683 10.296 365.115 10.8C365.571 11.28 366.315 11.688 367.347 12.024L370.299 12.996C372.075 13.596 373.407 14.472 374.295 15.624C375.207 16.752 375.663 18.252 375.663 20.124C375.663 22.284 374.979 24.036 373.611 25.38C372.243 26.7 370.095 27.36 367.167 27.36C366.015 27.36 364.815 27.228 363.567 26.964C362.343 26.676 360.999 26.196 359.535 25.524L360.867 21.816C362.211 22.392 363.351 22.8 364.287 23.04C365.247 23.256 366.183 23.364 367.095 23.364ZM394.8 16.776V18.936C394.8 21.48 394.104 23.52 392.712 25.056C391.32 26.592 389.352 27.36 386.808 27.36C384.264 27.36 382.296 26.592 380.904 25.056C379.512 23.52 378.816 21.48 378.816 18.936V16.776C378.816 14.232 379.5 12.204 380.868 10.692C382.26 9.156 384.24 8.388 386.808 8.388C389.376 8.388 391.344 9.156 392.712 10.692C394.104 12.204 394.8 14.232 394.8 16.776ZM390.552 16.776C390.552 15.312 390.228 14.172 389.58 13.356C388.932 12.516 388.008 12.096 386.808 12.096C385.608 12.096 384.684 12.516 384.036 13.356C383.388 14.172 383.064 15.312 383.064 16.776V18.936C383.064 20.4 383.388 21.552 384.036 22.392C384.684 23.232 385.608 23.652 386.808 23.652C388.008 23.652 388.932 23.232 389.58 22.392C390.228 21.552 390.552 20.4 390.552 18.936V16.776ZM402.61 16.812V18.936C402.61 20.472 402.886 21.624 403.438 22.392C403.99 23.16 404.878 23.544 406.102 23.544C406.702 23.544 407.374 23.472 408.118 23.328C408.886 23.16 409.714 22.908 410.602 22.572L411.79 26.064C410.71 26.496 409.69 26.82 408.73 27.036C407.77 27.252 406.822 27.36 405.886 27.36C403.486 27.36 401.65 26.592 400.378 25.056C399.106 23.52 398.47 21.48 398.47 18.936V16.812C398.47 14.244 399.106 12.204 400.378 10.692C401.65 9.156 403.486 8.388 405.886 8.388C406.798 8.388 407.722 8.496 408.658 8.712C409.594 8.928 410.578 9.24 411.61 9.648L410.422 13.212C408.694 12.54 407.254 12.204 406.102 12.204C404.878 12.204 403.99 12.588 403.438 13.356C402.886 14.1 402.61 15.252 402.61 16.812ZM419.826 5.292H415.47V1.008H419.826V5.292ZM419.718 27H415.578V8.748H419.718V27ZM439.282 25.956C438.034 26.46 436.858 26.82 435.754 27.036C434.65 27.252 433.606 27.36 432.622 27.36C429.91 27.36 427.858 26.592 426.466 25.056C425.074 23.52 424.378 21.48 424.378 18.936V16.776C424.378 15.072 424.69 13.596 425.314 12.348C425.938 11.1 426.826 10.128 427.978 9.432C429.13 8.736 430.486 8.388 432.046 8.388C433.318 8.388 434.506 8.652 435.61 9.18C436.738 9.684 437.65 10.488 438.346 11.592C439.066 12.672 439.426 14.064 439.426 15.768C439.426 16.272 439.39 16.812 439.318 17.388C439.246 17.94 439.126 18.528 438.958 19.152H428.374C428.422 20.64 428.794 21.756 429.49 22.5C430.186 23.244 431.302 23.616 432.838 23.616C433.654 23.616 434.494 23.52 435.358 23.328C436.246 23.136 437.158 22.848 438.094 22.464L439.282 25.956ZM432.046 11.88C430.942 11.88 430.078 12.24 429.454 12.96C428.854 13.656 428.506 14.664 428.41 15.984H435.322C435.346 15.864 435.358 15.756 435.358 15.66C435.358 15.54 435.358 15.432 435.358 15.336C435.358 14.184 435.034 13.32 434.386 12.744C433.738 12.168 432.958 11.88 432.046 11.88ZM455.176 26.388C454.552 26.676 453.832 26.904 453.016 27.072C452.2 27.264 451.372 27.36 450.532 27.36C449.14 27.36 448.024 27.072 447.184 26.496C446.344 25.92 445.732 25.116 445.348 24.084C444.988 23.052 444.808 21.876 444.808 20.556V12.348H441.856V8.748H444.808V3.996H448.948V8.748H454.636V12.348H448.948V20.556C448.948 21.66 449.152 22.428 449.56 22.86C449.992 23.268 450.604 23.472 451.396 23.472C451.78 23.472 452.188 23.436 452.62 23.364C453.076 23.268 453.58 23.112 454.132 22.896L455.176 26.388ZM465.884 28.8C465.092 31.008 464.084 32.592 462.86 33.552C461.636 34.536 459.956 35.028 457.82 35.028V30.888C459.092 30.84 460.088 30.552 460.808 30.024C461.552 29.52 462.104 28.812 462.464 27.9L462.788 27.072L456.272 8.748H460.376L463.508 17.856L464.732 21.708L465.92 17.856L468.908 8.748H473.012L465.884 28.8ZM498.616 16.776V18.936C498.616 21.48 497.92 23.52 496.528 25.056C495.136 26.592 493.168 27.36 490.624 27.36C488.08 27.36 486.112 26.592 484.72 25.056C483.328 23.52 482.632 21.48 482.632 18.936V16.776C482.632 14.232 483.316 12.204 484.684 10.692C486.076 9.156 488.056 8.388 490.624 8.388C493.192 8.388 495.16 9.156 496.528 10.692C497.92 12.204 498.616 14.232 498.616 16.776ZM494.368 16.776C494.368 15.312 494.044 14.172 493.396 13.356C492.748 12.516 491.824 12.096 490.624 12.096C489.424 12.096 488.5 12.516 487.852 13.356C487.204 14.172 486.88 15.312 486.88 16.776V18.936C486.88 20.4 487.204 21.552 487.852 22.392C488.5 23.232 489.424 23.652 490.624 23.652C491.824 23.652 492.748 23.232 493.396 22.392C494.044 21.552 494.368 20.4 494.368 18.936V16.776ZM513.806 12.348H508.118V27H503.978V12.348H501.026V8.748H503.978V6.84C503.978 4.848 504.482 3.216 505.49 1.944C506.498 0.647998 508.118 -2.14577e-06 510.35 -2.14577e-06C511.166 -2.14577e-06 512.006 0.0839982 512.87 0.251999C513.734 0.419998 514.514 0.635998 515.21 0.899999L514.202 4.464C513.05 4.08 512.018 3.888 511.106 3.888C510.146 3.888 509.402 4.104 508.874 4.536C508.37 4.944 508.118 5.712 508.118 6.84V8.748H513.806V12.348ZM528.895 27H524.575V2.52H528.895V27ZM544.038 12.24C543.438 12.24 542.754 12.384 541.986 12.672C541.218 12.96 540.306 13.524 539.25 14.364V27H535.11V8.748H539.034V11.196C540.162 10.212 541.23 9.504 542.238 9.072C543.246 8.616 544.266 8.388 545.298 8.388C547.05 8.388 548.382 8.952 549.294 10.08C550.206 11.184 550.662 12.744 550.662 14.76V27H546.522V15.264C546.522 13.248 545.694 12.24 544.038 12.24ZM566.825 27V24.516C565.721 25.62 564.761 26.376 563.945 26.784C563.153 27.168 562.325 27.36 561.461 27.36C559.493 27.36 557.957 26.616 556.853 25.128C555.773 23.64 555.233 21.552 555.233 18.864V16.92C555.233 14.304 555.893 12.228 557.213 10.692C558.533 9.156 560.441 8.388 562.937 8.388C563.561 8.388 564.173 8.448 564.773 8.568C565.397 8.688 566.009 8.856 566.609 9.072V0.36H570.749V27H566.825ZM559.481 18.864C559.481 20.472 559.745 21.648 560.273 22.392C560.825 23.136 561.593 23.508 562.577 23.508C563.129 23.508 563.717 23.352 564.341 23.04C564.965 22.704 565.721 22.08 566.609 21.168V12.816C565.433 12.336 564.353 12.096 563.369 12.096C561.977 12.096 560.981 12.528 560.381 13.392C559.781 14.256 559.481 15.432 559.481 16.92V18.864ZM580.701 5.292H576.345V1.008H580.701V5.292ZM580.593 27H576.453V8.748H580.593V27ZM600.121 27.18C598.897 27.18 597.913 26.928 597.169 26.424C596.449 25.92 595.921 25.296 595.585 24.552C594.553 25.512 593.557 26.22 592.597 26.676C591.637 27.132 590.605 27.36 589.501 27.36C587.893 27.36 586.705 26.844 585.937 25.812C585.193 24.78 584.821 23.472 584.821 21.888C584.821 20.832 585.013 19.908 585.397 19.116C585.805 18.3 586.465 17.664 587.377 17.208C588.289 16.752 589.537 16.524 591.121 16.524C591.745 16.524 592.393 16.572 593.065 16.668C593.737 16.74 594.409 16.836 595.081 16.956V14.832C595.081 13.824 594.805 13.14 594.253 12.78C593.701 12.396 592.957 12.204 592.021 12.204C591.301 12.204 590.509 12.3 589.645 12.492C588.805 12.684 587.893 12.984 586.909 13.392L585.721 9.864C588.145 8.88 590.341 8.388 592.309 8.388C594.085 8.388 595.453 8.688 596.413 9.288C597.397 9.888 598.081 10.68 598.465 11.664C598.849 12.648 599.041 13.704 599.041 14.832V21.852C599.041 22.212 599.137 22.56 599.329 22.896C599.545 23.208 599.953 23.364 600.553 23.364H600.949V27.18H600.121ZM588.817 21.816C588.817 22.464 588.961 22.98 589.249 23.364C589.537 23.724 589.957 23.904 590.509 23.904C591.061 23.904 591.685 23.76 592.381 23.472C593.077 23.184 593.977 22.512 595.081 21.456V19.908C593.833 19.692 592.609 19.584 591.409 19.584C590.473 19.584 589.801 19.776 589.393 20.16C589.009 20.544 588.817 21.096 588.817 21.816Z" fill="#437FC7"/>
</svg>
