<svg width="1500" height="128" viewBox="0 0 1500 128" fill="none" xmlns="http://www.w3.org/2000/svg">
<g filter="url(#filter0_d_395_318)">
<path d="M0 0H1500V101.562H0V0Z" fill="#1A3C6C"/>
</g>
<g filter="url(#filter1_d_395_318)">
<path d="M1082.96 61.7969H1080.03L1079.74 47.8516V32.0312H1083.26V47.8516L1082.96 61.7969ZM1083.61 71.875H1079.39V67.5977H1083.61V71.875Z" fill="#EDF6FF"/>
</g>
<g filter="url(#filter2_d_395_318)">
<path d="M1066.54 61.7969H1063.61L1063.32 47.8516V32.0312H1066.83V47.8516L1066.54 61.7969ZM1067.19 71.875H1062.97V67.5977H1067.19V71.875Z" fill="#EDF6FF"/>
</g>
<g filter="url(#filter3_d_395_318)">
<path d="M1040.08 70.1757C1038.48 70.996 1036.8 71.582 1035.04 71.9335C1033.32 72.2851 1031.76 72.4609 1030.35 72.4609C1026.37 72.4609 1023.4 71.3085 1021.45 69.0038C1019.53 66.6992 1018.57 63.4765 1018.57 59.3359V55.8203C1018.57 51.8749 1019.55 48.7109 1021.5 46.3281C1023.46 43.9453 1026.27 42.7538 1029.94 42.7538C1032.83 42.7538 1035.25 43.6132 1037.21 45.332C1039.2 47.0507 1040.2 49.6484 1040.2 53.1249C1040.2 54.7265 1039.96 56.5624 1039.49 58.6328H1022.15V59.3359C1022.15 62.539 1022.79 64.9999 1024.08 66.7187C1025.37 68.3984 1027.46 69.2382 1030.35 69.2382C1031.52 69.2382 1032.87 69.082 1034.4 68.7695C1035.96 68.457 1037.46 67.9687 1038.91 67.3046L1040.08 70.1757ZM1029.94 45.9765C1027.32 45.9765 1025.37 46.8359 1024.08 48.5546C1022.79 50.2343 1022.15 52.5585 1022.15 55.5273H1036.5C1036.58 55.0195 1036.64 54.5507 1036.68 54.121C1036.72 53.6523 1036.74 53.2226 1036.74 52.832C1036.74 50.4101 1036.06 48.6718 1034.69 47.6171C1033.36 46.5234 1031.78 45.9765 1029.94 45.9765Z" fill="#EDF6FF"/>
</g>
<g filter="url(#filter4_d_395_318)">
<path d="M1001.93 69.2383C1004.31 69.2383 1005.97 68.8477 1006.91 68.0665C1007.89 67.2462 1008.38 66.0743 1008.38 64.5508C1008.38 63.2618 1007.99 62.2071 1007.21 61.3868C1006.46 60.5665 1005.06 59.9024 1002.99 59.3946L999.822 58.6329C997.596 58.086 995.896 57.129 994.725 55.7618C993.592 54.3555 993.025 52.6563 993.025 50.6641C993.025 49.2969 993.318 48.0274 993.904 46.8555C994.529 45.6446 995.506 44.668 996.834 43.9258C998.201 43.1446 999.998 42.754 1002.22 42.754C1003.67 42.754 1005.13 42.9297 1006.62 43.2813C1008.1 43.5938 1009.57 44.1016 1011.01 44.8047L1009.84 47.793C1007.11 46.5821 1004.57 45.9766 1002.22 45.9766C1000.39 45.9766 998.963 46.3477 997.947 47.0899C996.971 47.8321 996.482 48.9454 996.482 50.4297C996.482 51.5626 996.834 52.5782 997.537 53.4766C998.279 54.3751 999.627 55.0587 1001.58 55.5274L1004.8 56.2891C1009.49 57.3829 1011.83 60.0782 1011.83 64.3751C1011.83 65.8594 1011.54 67.2266 1010.96 68.4766C1010.37 69.6876 1009.37 70.6641 1007.97 71.4063C1006.56 72.1094 1004.65 72.461 1002.22 72.461C1000.58 72.461 998.963 72.2852 997.361 71.9337C995.76 71.5821 994.119 71.0352 992.439 70.293L993.377 67.3048C994.939 67.9298 996.365 68.418 997.654 68.7696C998.982 69.0821 1000.41 69.2383 1001.93 69.2383Z" fill="#EDF6FF"/>
</g>
<g filter="url(#filter5_d_395_318)">
<path d="M984.939 35.1953H980.721V30.9179H984.939V35.1953ZM984.588 71.8749H981.072V43.3398H984.588V71.8749Z" fill="#EDF6FF"/>
</g>
<g filter="url(#filter6_d_395_318)">
<path d="M974.033 70.7617C971.884 71.8945 969.716 72.4609 967.529 72.4609C965.576 72.4609 964.052 72.0703 962.958 71.289C961.865 70.4687 961.103 69.3945 960.673 68.0663C960.244 66.7382 960.029 65.332 960.029 63.8476V46.4453H954.814V43.3398H960.029V35.0195H963.544V43.3398H973.212V46.4453H963.544V63.5546C963.544 65.7421 963.876 67.2656 964.541 68.1249C965.244 68.9453 966.376 69.3554 967.939 69.3554C969.423 69.3554 971.044 68.8867 972.802 67.9492L974.033 70.7617Z" fill="#EDF6FF"/>
</g>
<g filter="url(#filter7_d_395_318)">
<path d="M952.909 46.2695C951.268 46.2695 949.627 46.582 947.987 47.207C946.346 47.832 944.432 49.2187 942.245 51.3671V71.8749H938.729V43.3398H942.069V48.0859C944.061 46.0156 945.917 44.6093 947.635 43.8671C949.354 43.1249 951.112 42.7538 952.909 42.7538V46.2695Z" fill="#EDF6FF"/>
</g>
<g filter="url(#filter8_d_395_318)">
<path d="M929.872 70.1757C928.271 70.996 926.591 71.582 924.833 71.9335C923.114 72.2851 921.552 72.4609 920.146 72.4609C916.161 72.4609 913.192 71.3085 911.239 69.0038C909.325 66.6992 908.368 63.4765 908.368 59.3359V55.8203C908.368 51.8749 909.345 48.7109 911.298 46.3281C913.251 43.9453 916.063 42.7538 919.735 42.7538C922.626 42.7538 925.048 43.6132 927.001 45.332C928.993 47.0507 929.989 49.6484 929.989 53.1249C929.989 54.7265 929.755 56.5624 929.286 58.6328H911.942V59.3359C911.942 62.539 912.587 64.9999 913.876 66.7187C915.165 68.3984 917.255 69.2382 920.146 69.2382C921.317 69.2382 922.665 69.082 924.188 68.7695C925.751 68.457 927.255 67.9687 928.7 67.3046L929.872 70.1757ZM919.735 45.9765C917.118 45.9765 915.165 46.8359 913.876 48.5546C912.587 50.2343 911.942 52.5585 911.942 55.5273H926.298C926.376 55.0195 926.435 54.5507 926.474 54.121C926.513 53.6523 926.532 53.2226 926.532 52.832C926.532 50.4101 925.849 48.6718 924.481 47.6171C923.153 46.5234 921.571 45.9765 919.735 45.9765Z" fill="#EDF6FF"/>
</g>
<g filter="url(#filter9_d_395_318)">
<path d="M888.4 72.4609C887.189 72.4609 885.959 72.3242 884.709 72.0507C883.498 71.8163 882.287 71.4648 881.076 70.996V84.3554H877.561V43.3398H880.9V47.3828C882.658 45.7812 884.338 44.6093 885.939 43.8671C887.541 43.1249 889.182 42.7538 890.861 42.7538C893.869 42.7538 896.154 43.9062 897.717 46.2109C899.318 48.4765 900.119 51.6992 900.119 55.8788V59.3945C900.119 63.3788 899.123 66.5624 897.131 68.9453C895.139 71.289 892.229 72.4609 888.4 72.4609ZM890.158 46.0937C888.908 46.0937 887.6 46.4062 886.232 47.0312C884.904 47.6171 883.186 48.8867 881.076 50.8398V67.5976C883.498 68.6913 885.881 69.2382 888.225 69.2382C891.154 69.2382 893.244 68.3593 894.494 66.6015C895.783 64.8437 896.428 62.4413 896.428 59.3945V55.8788C896.428 52.5195 895.92 50.0585 894.904 48.496C893.889 46.8945 892.307 46.0937 890.158 46.0937Z" fill="#EDF6FF"/>
</g>
<g filter="url(#filter10_d_395_318)">
<path d="M866.526 71.8749L858.733 59.6874L851.116 71.8749H847.366L856.917 56.9921L848.128 43.3398H852.112L859.144 54.2968L865.999 43.3398H869.749L860.96 56.9921L870.511 71.8749H866.526Z" fill="#EDF6FF"/>
</g>
<g filter="url(#filter11_d_395_318)">
<path d="M843.363 68.418V71.875H821.684V32.0312H842.777V35.4883H825.492V49.9609H841.02V53.418H825.492V68.418H843.363Z" fill="#EDF6FF"/>
</g>
<g filter="url(#filter12_d_395_318)">
<path d="M800.474 46.2695C798.833 46.2695 797.192 46.582 795.552 47.207C793.911 47.832 791.997 49.2187 789.81 51.3671V71.8749H786.294V43.3398H789.634V48.0859C791.626 46.0156 793.481 44.6093 795.2 43.8671C796.919 43.1249 798.677 42.7538 800.474 42.7538V46.2695Z" fill="#EDF6FF"/>
</g>
<g filter="url(#filter13_d_395_318)">
<path d="M771.837 71.8749V67.7734C769.649 69.6093 767.716 70.8593 766.036 71.5234C764.396 72.1484 762.833 72.4609 761.349 72.4609C758.849 72.4609 756.935 71.6601 755.606 70.0585C754.278 68.4179 753.614 66.1132 753.614 63.1445V43.3398H757.13V62.4999C757.13 64.7656 757.521 66.4452 758.302 67.539C759.083 68.5937 760.294 69.121 761.935 69.121C763.106 69.121 764.435 68.8281 765.919 68.2421C767.442 67.6171 769.356 66.3671 771.661 64.4921V43.3398H775.177V71.8749H771.837Z" fill="#EDF6FF"/>
</g>
<g filter="url(#filter14_d_395_318)">
<path d="M743.281 47.4414V56.4063C743.281 59.6484 742.734 62.4805 741.641 64.9023C740.547 67.2852 738.945 69.1406 736.836 70.4688C734.766 71.7969 732.227 72.4609 729.219 72.4609C724.727 72.4609 721.25 70.9961 718.789 68.0664C716.367 65.1367 715.156 61.25 715.156 56.4063V47.4414C715.156 44.1992 715.703 41.3867 716.797 39.0039C717.891 36.6211 719.492 34.7656 721.602 33.4375C723.711 32.1094 726.25 31.4453 729.219 31.4453C732.188 31.4453 734.707 32.1094 736.777 33.4375C738.887 34.7656 740.488 36.6211 741.582 39.0039C742.715 41.3867 743.281 44.1992 743.281 47.4414ZM739.297 47.4414C739.297 43.4961 738.418 40.4297 736.66 38.2422C734.941 36.0156 732.461 34.9023 729.219 34.9023C726.016 34.9023 723.535 36.0156 721.777 38.2422C720.02 40.4297 719.141 43.4961 719.141 47.4414V56.4063C719.141 60.3125 720.02 63.3984 721.777 65.6641C723.535 67.8906 726.016 69.0039 729.219 69.0039C732.461 69.0039 734.941 67.8906 736.66 65.6641C738.418 63.3984 739.297 60.3125 739.297 56.4063V47.4414Z" fill="#EDF6FF"/>
</g>
<g filter="url(#filter15_d_395_318)">
<path d="M693.175 67.5977V68.7109C693.175 71.2891 692.823 73.7305 692.12 76.0352C691.456 78.3789 690.304 80.8789 688.663 83.5352L686.202 82.1289C687.101 80.4102 687.784 78.8281 688.253 77.3828C688.722 75.9766 689.054 74.5117 689.249 72.9883C689.444 71.4648 689.542 69.668 689.542 67.5977H693.175Z" fill="#EDF6FF"/>
</g>
<g filter="url(#filter16_d_395_318)">
<path d="M672.17 46.0937C670.959 46.0937 669.573 46.3867 668.01 46.9726C666.448 47.5585 664.495 48.8085 662.151 50.7226V71.8749H658.635V43.3398H661.975V47.4413C664.241 45.5663 666.233 44.3163 667.952 43.6913C669.67 43.0663 671.272 42.7538 672.756 42.7538C675.374 42.7538 677.366 43.5546 678.733 45.1562C680.1 46.7578 680.784 49.0624 680.784 52.0703V71.8749H677.268V52.7148C677.268 50.4101 676.838 48.7304 675.979 47.6757C675.159 46.621 673.889 46.0937 672.17 46.0937Z" fill="#EDF6FF"/>
</g>
<g filter="url(#filter17_d_395_318)">
<path d="M649.082 55.8203V59.3359C649.082 63.4765 648.047 66.6992 645.977 69.0038C643.906 71.3085 640.996 72.4609 637.246 72.4609C633.457 72.4609 630.527 71.3085 628.457 69.0038C626.426 66.6992 625.41 63.4765 625.41 59.3359V55.8203C625.41 51.8359 626.426 48.6718 628.457 46.3281C630.527 43.9453 633.457 42.7538 637.246 42.7538C641.035 42.7538 643.945 43.9453 645.977 46.3281C648.047 48.6718 649.082 51.8359 649.082 55.8203ZM645.391 55.8203C645.391 52.6953 644.688 50.2734 643.281 48.5546C641.875 46.8359 639.863 45.9765 637.246 45.9765C634.629 45.9765 632.617 46.8359 631.211 48.5546C629.805 50.2734 629.102 52.6953 629.102 55.8203V59.3359C629.102 62.5781 629.805 65.039 631.211 66.7187C632.617 68.3984 634.629 69.2382 637.246 69.2382C639.863 69.2382 641.875 68.3984 643.281 66.7187C644.688 65.039 645.391 62.5781 645.391 59.3359V55.8203Z" fill="#EDF6FF"/>
</g>
<g filter="url(#filter18_d_395_318)">
<path d="M616.211 35.1953H611.992V30.9179H616.211V35.1953ZM615.859 71.8749H612.344V43.3398H615.859V71.8749Z" fill="#EDF6FF"/>
</g>
<g filter="url(#filter19_d_395_318)">
<path d="M594.236 69.2382C596.619 69.2382 598.279 68.8476 599.216 68.0663C600.193 67.246 600.681 66.0742 600.681 64.5507C600.681 63.2617 600.291 62.207 599.509 61.3867C598.767 60.5663 597.361 59.9023 595.291 59.3945L592.126 58.6328C589.9 58.0859 588.201 57.1288 587.029 55.7617C585.896 54.3554 585.33 52.6562 585.33 50.664C585.33 49.2968 585.623 48.0273 586.208 46.8554C586.833 45.6445 587.81 44.6679 589.138 43.9257C590.505 43.1445 592.302 42.7538 594.529 42.7538C595.974 42.7538 597.439 42.9296 598.923 43.2812C600.408 43.5937 601.873 44.1015 603.318 44.8046L602.146 47.7929C599.412 46.582 596.873 45.9765 594.529 45.9765C592.693 45.9765 591.267 46.3476 590.251 47.0898C589.275 47.832 588.787 48.9453 588.787 50.4296C588.787 51.5624 589.138 52.5781 589.841 53.4765C590.583 54.3749 591.931 55.0585 593.884 55.5273L597.107 56.289C601.794 57.3828 604.138 60.0781 604.138 64.3749C604.138 65.8593 603.845 67.2265 603.259 68.4765C602.673 69.6874 601.677 70.664 600.271 71.4062C598.865 72.1093 596.951 72.4609 594.529 72.4609C592.888 72.4609 591.267 72.2851 589.666 71.9335C588.064 71.582 586.423 71.0351 584.744 70.2929L585.681 67.3046C587.244 67.9296 588.669 68.4179 589.958 68.7695C591.287 69.082 592.712 69.2382 594.236 69.2382Z" fill="#EDF6FF"/>
</g>
<g filter="url(#filter20_d_395_318)">
<path d="M577.244 35.1953H573.025V30.9179H577.244V35.1953ZM576.892 71.8749H573.376V43.3398H576.892V71.8749Z" fill="#EDF6FF"/>
</g>
<g filter="url(#filter21_d_395_318)">
<path d="M566.416 32.0312L553.642 71.875H549.833L537.001 32.0312H540.869L547.373 52.3047L551.884 66.6016L556.396 52.3047L562.783 32.0312H566.416Z" fill="#EDF6FF"/>
</g>
<g filter="url(#filter22_d_395_318)">
<path d="M521.123 46.2695C519.482 46.2695 517.842 46.582 516.201 47.207C514.561 47.832 512.646 49.2187 510.459 51.3671V71.8749H506.943V43.3398H510.283V48.0859C512.275 46.0156 514.131 44.6093 515.85 43.8671C517.568 43.1249 519.326 42.7538 521.123 42.7538V46.2695Z" fill="#EDF6FF"/>
</g>
<g filter="url(#filter23_d_395_318)">
<path d="M492.486 71.8749V67.7734C490.299 69.6093 488.365 70.8593 486.686 71.5234C485.045 72.1484 483.482 72.4609 481.998 72.4609C479.498 72.4609 477.584 71.6601 476.256 70.0585C474.928 68.4179 474.264 66.1132 474.264 63.1445V43.3398H477.779V62.4999C477.779 64.7656 478.17 66.4452 478.951 67.539C479.732 68.5937 480.943 69.121 482.584 69.121C483.756 69.121 485.084 68.8281 486.568 68.2421C488.092 67.6171 490.006 66.3671 492.311 64.4921V43.3398H495.826V71.8749H492.486Z" fill="#EDF6FF"/>
</g>
<g filter="url(#filter24_d_395_318)">
<path d="M465.004 55.8203V59.3359C465.004 63.4765 463.969 66.6992 461.898 69.0038C459.828 71.3085 456.918 72.4609 453.168 72.4609C449.379 72.4609 446.449 71.3085 444.379 69.0038C442.348 66.6992 441.332 63.4765 441.332 59.3359V55.8203C441.332 51.8359 442.348 48.6718 444.379 46.3281C446.449 43.9453 449.379 42.7538 453.168 42.7538C456.957 42.7538 459.867 43.9453 461.898 46.3281C463.969 48.6718 465.004 51.8359 465.004 55.8203ZM461.313 55.8203C461.313 52.6953 460.609 50.2734 459.203 48.5546C457.797 46.8359 455.785 45.9765 453.168 45.9765C450.551 45.9765 448.539 46.8359 447.133 48.5546C445.727 50.2734 445.023 52.6953 445.023 55.8203V59.3359C445.023 62.5781 445.727 65.039 447.133 66.7187C448.539 68.3984 450.551 69.2382 453.168 69.2382C455.785 69.2382 457.797 68.3984 459.203 66.7187C460.609 65.039 461.313 62.5781 461.313 59.3359V55.8203Z" fill="#EDF6FF"/>
</g>
<g filter="url(#filter25_d_395_318)">
<path d="M427.216 56.0547V71.875H423.407V56.0547L411.22 32.0312H415.321L425.458 52.1289L435.419 32.0312H439.345L427.216 56.0547Z" fill="#EDF6FF"/>
</g>
<defs>
<filter id="filter0_d_395_318" x="-14.1406" y="-2.42188" width="1528.28" height="129.844" filterUnits="userSpaceOnUse" color-interpolation-filters="sRGB">
<feFlood flood-opacity="0" result="BackgroundImageFix"/>
<feColorMatrix in="SourceAlpha" type="matrix" values="0 0 0 0 0 0 0 0 0 0 0 0 0 0 0 0 0 0 127 0" result="hardAlpha"/>
<feOffset dy="11.7188"/>
<feGaussianBlur stdDeviation="7.07031"/>
<feComposite in2="hardAlpha" operator="out"/>
<feColorMatrix type="matrix" values="0 0 0 0 0 0 0 0 0 0 0 0 0 0 0 0 0 0 0.5 0"/>
<feBlend mode="normal" in2="BackgroundImageFix" result="effect1_dropShadow_395_318"/>
<feBlend mode="normal" in="SourceGraphic" in2="effect1_dropShadow_395_318" result="shape"/>
</filter>
<filter id="filter1_d_395_318" x="1079.39" y="32.0312" width="5.78125" height="40.625" filterUnits="userSpaceOnUse" color-interpolation-filters="sRGB">
<feFlood flood-opacity="0" result="BackgroundImageFix"/>
<feColorMatrix in="SourceAlpha" type="matrix" values="0 0 0 0 0 0 0 0 0 0 0 0 0 0 0 0 0 0 127 0" result="hardAlpha"/>
<feOffset dx="1.5625" dy="0.78125"/>
<feComposite in2="hardAlpha" operator="out"/>
<feColorMatrix type="matrix" values="0 0 0 0 0 0 0 0 0 0 0 0 0 0 0 0 0 0 0.25 0"/>
<feBlend mode="normal" in2="BackgroundImageFix" result="effect1_dropShadow_395_318"/>
<feBlend mode="normal" in="SourceGraphic" in2="effect1_dropShadow_395_318" result="shape"/>
</filter>
<filter id="filter2_d_395_318" x="1062.97" y="32.0312" width="5.78125" height="40.625" filterUnits="userSpaceOnUse" color-interpolation-filters="sRGB">
<feFlood flood-opacity="0" result="BackgroundImageFix"/>
<feColorMatrix in="SourceAlpha" type="matrix" values="0 0 0 0 0 0 0 0 0 0 0 0 0 0 0 0 0 0 127 0" result="hardAlpha"/>
<feOffset dx="1.5625" dy="0.78125"/>
<feComposite in2="hardAlpha" operator="out"/>
<feColorMatrix type="matrix" values="0 0 0 0 0 0 0 0 0 0 0 0 0 0 0 0 0 0 0.25 0"/>
<feBlend mode="normal" in2="BackgroundImageFix" result="effect1_dropShadow_395_318"/>
<feBlend mode="normal" in="SourceGraphic" in2="effect1_dropShadow_395_318" result="shape"/>
</filter>
<filter id="filter3_d_395_318" x="1018.57" y="42.7538" width="23.1836" height="30.4883" filterUnits="userSpaceOnUse" color-interpolation-filters="sRGB">
<feFlood flood-opacity="0" result="BackgroundImageFix"/>
<feColorMatrix in="SourceAlpha" type="matrix" values="0 0 0 0 0 0 0 0 0 0 0 0 0 0 0 0 0 0 127 0" result="hardAlpha"/>
<feOffset dx="1.5625" dy="0.78125"/>
<feComposite in2="hardAlpha" operator="out"/>
<feColorMatrix type="matrix" values="0 0 0 0 0 0 0 0 0 0 0 0 0 0 0 0 0 0 0.25 0"/>
<feBlend mode="normal" in2="BackgroundImageFix" result="effect1_dropShadow_395_318"/>
<feBlend mode="normal" in="SourceGraphic" in2="effect1_dropShadow_395_318" result="shape"/>
</filter>
<filter id="filter4_d_395_318" x="992.439" y="42.754" width="20.957" height="30.4883" filterUnits="userSpaceOnUse" color-interpolation-filters="sRGB">
<feFlood flood-opacity="0" result="BackgroundImageFix"/>
<feColorMatrix in="SourceAlpha" type="matrix" values="0 0 0 0 0 0 0 0 0 0 0 0 0 0 0 0 0 0 127 0" result="hardAlpha"/>
<feOffset dx="1.5625" dy="0.78125"/>
<feComposite in2="hardAlpha" operator="out"/>
<feColorMatrix type="matrix" values="0 0 0 0 0 0 0 0 0 0 0 0 0 0 0 0 0 0 0.25 0"/>
<feBlend mode="normal" in2="BackgroundImageFix" result="effect1_dropShadow_395_318"/>
<feBlend mode="normal" in="SourceGraphic" in2="effect1_dropShadow_395_318" result="shape"/>
</filter>
<filter id="filter5_d_395_318" x="980.721" y="30.9179" width="5.78125" height="41.7383" filterUnits="userSpaceOnUse" color-interpolation-filters="sRGB">
<feFlood flood-opacity="0" result="BackgroundImageFix"/>
<feColorMatrix in="SourceAlpha" type="matrix" values="0 0 0 0 0 0 0 0 0 0 0 0 0 0 0 0 0 0 127 0" result="hardAlpha"/>
<feOffset dx="1.5625" dy="0.78125"/>
<feComposite in2="hardAlpha" operator="out"/>
<feColorMatrix type="matrix" values="0 0 0 0 0 0 0 0 0 0 0 0 0 0 0 0 0 0 0.25 0"/>
<feBlend mode="normal" in2="BackgroundImageFix" result="effect1_dropShadow_395_318"/>
<feBlend mode="normal" in="SourceGraphic" in2="effect1_dropShadow_395_318" result="shape"/>
</filter>
<filter id="filter6_d_395_318" x="954.814" y="35.0195" width="20.7812" height="38.2227" filterUnits="userSpaceOnUse" color-interpolation-filters="sRGB">
<feFlood flood-opacity="0" result="BackgroundImageFix"/>
<feColorMatrix in="SourceAlpha" type="matrix" values="0 0 0 0 0 0 0 0 0 0 0 0 0 0 0 0 0 0 127 0" result="hardAlpha"/>
<feOffset dx="1.5625" dy="0.78125"/>
<feComposite in2="hardAlpha" operator="out"/>
<feColorMatrix type="matrix" values="0 0 0 0 0 0 0 0 0 0 0 0 0 0 0 0 0 0 0.25 0"/>
<feBlend mode="normal" in2="BackgroundImageFix" result="effect1_dropShadow_395_318"/>
<feBlend mode="normal" in="SourceGraphic" in2="effect1_dropShadow_395_318" result="shape"/>
</filter>
<filter id="filter7_d_395_318" x="938.729" y="42.7538" width="15.7422" height="29.9023" filterUnits="userSpaceOnUse" color-interpolation-filters="sRGB">
<feFlood flood-opacity="0" result="BackgroundImageFix"/>
<feColorMatrix in="SourceAlpha" type="matrix" values="0 0 0 0 0 0 0 0 0 0 0 0 0 0 0 0 0 0 127 0" result="hardAlpha"/>
<feOffset dx="1.5625" dy="0.78125"/>
<feComposite in2="hardAlpha" operator="out"/>
<feColorMatrix type="matrix" values="0 0 0 0 0 0 0 0 0 0 0 0 0 0 0 0 0 0 0.25 0"/>
<feBlend mode="normal" in2="BackgroundImageFix" result="effect1_dropShadow_395_318"/>
<feBlend mode="normal" in="SourceGraphic" in2="effect1_dropShadow_395_318" result="shape"/>
</filter>
<filter id="filter8_d_395_318" x="908.368" y="42.7538" width="23.1836" height="30.4883" filterUnits="userSpaceOnUse" color-interpolation-filters="sRGB">
<feFlood flood-opacity="0" result="BackgroundImageFix"/>
<feColorMatrix in="SourceAlpha" type="matrix" values="0 0 0 0 0 0 0 0 0 0 0 0 0 0 0 0 0 0 127 0" result="hardAlpha"/>
<feOffset dx="1.5625" dy="0.78125"/>
<feComposite in2="hardAlpha" operator="out"/>
<feColorMatrix type="matrix" values="0 0 0 0 0 0 0 0 0 0 0 0 0 0 0 0 0 0 0.25 0"/>
<feBlend mode="normal" in2="BackgroundImageFix" result="effect1_dropShadow_395_318"/>
<feBlend mode="normal" in="SourceGraphic" in2="effect1_dropShadow_395_318" result="shape"/>
</filter>
<filter id="filter9_d_395_318" x="877.561" y="42.7538" width="24.1211" height="42.3828" filterUnits="userSpaceOnUse" color-interpolation-filters="sRGB">
<feFlood flood-opacity="0" result="BackgroundImageFix"/>
<feColorMatrix in="SourceAlpha" type="matrix" values="0 0 0 0 0 0 0 0 0 0 0 0 0 0 0 0 0 0 127 0" result="hardAlpha"/>
<feOffset dx="1.5625" dy="0.78125"/>
<feComposite in2="hardAlpha" operator="out"/>
<feColorMatrix type="matrix" values="0 0 0 0 0 0 0 0 0 0 0 0 0 0 0 0 0 0 0.25 0"/>
<feBlend mode="normal" in2="BackgroundImageFix" result="effect1_dropShadow_395_318"/>
<feBlend mode="normal" in="SourceGraphic" in2="effect1_dropShadow_395_318" result="shape"/>
</filter>
<filter id="filter10_d_395_318" x="847.366" y="43.3398" width="24.707" height="29.3164" filterUnits="userSpaceOnUse" color-interpolation-filters="sRGB">
<feFlood flood-opacity="0" result="BackgroundImageFix"/>
<feColorMatrix in="SourceAlpha" type="matrix" values="0 0 0 0 0 0 0 0 0 0 0 0 0 0 0 0 0 0 127 0" result="hardAlpha"/>
<feOffset dx="1.5625" dy="0.78125"/>
<feComposite in2="hardAlpha" operator="out"/>
<feColorMatrix type="matrix" values="0 0 0 0 0 0 0 0 0 0 0 0 0 0 0 0 0 0 0.25 0"/>
<feBlend mode="normal" in2="BackgroundImageFix" result="effect1_dropShadow_395_318"/>
<feBlend mode="normal" in="SourceGraphic" in2="effect1_dropShadow_395_318" result="shape"/>
</filter>
<filter id="filter11_d_395_318" x="821.684" y="32.0312" width="23.2422" height="40.625" filterUnits="userSpaceOnUse" color-interpolation-filters="sRGB">
<feFlood flood-opacity="0" result="BackgroundImageFix"/>
<feColorMatrix in="SourceAlpha" type="matrix" values="0 0 0 0 0 0 0 0 0 0 0 0 0 0 0 0 0 0 127 0" result="hardAlpha"/>
<feOffset dx="1.5625" dy="0.78125"/>
<feComposite in2="hardAlpha" operator="out"/>
<feColorMatrix type="matrix" values="0 0 0 0 0 0 0 0 0 0 0 0 0 0 0 0 0 0 0.25 0"/>
<feBlend mode="normal" in2="BackgroundImageFix" result="effect1_dropShadow_395_318"/>
<feBlend mode="normal" in="SourceGraphic" in2="effect1_dropShadow_395_318" result="shape"/>
</filter>
<filter id="filter12_d_395_318" x="786.294" y="42.7538" width="15.7422" height="29.9023" filterUnits="userSpaceOnUse" color-interpolation-filters="sRGB">
<feFlood flood-opacity="0" result="BackgroundImageFix"/>
<feColorMatrix in="SourceAlpha" type="matrix" values="0 0 0 0 0 0 0 0 0 0 0 0 0 0 0 0 0 0 127 0" result="hardAlpha"/>
<feOffset dx="1.5625" dy="0.78125"/>
<feComposite in2="hardAlpha" operator="out"/>
<feColorMatrix type="matrix" values="0 0 0 0 0 0 0 0 0 0 0 0 0 0 0 0 0 0 0.25 0"/>
<feBlend mode="normal" in2="BackgroundImageFix" result="effect1_dropShadow_395_318"/>
<feBlend mode="normal" in="SourceGraphic" in2="effect1_dropShadow_395_318" result="shape"/>
</filter>
<filter id="filter13_d_395_318" x="753.614" y="43.3398" width="23.125" height="29.9023" filterUnits="userSpaceOnUse" color-interpolation-filters="sRGB">
<feFlood flood-opacity="0" result="BackgroundImageFix"/>
<feColorMatrix in="SourceAlpha" type="matrix" values="0 0 0 0 0 0 0 0 0 0 0 0 0 0 0 0 0 0 127 0" result="hardAlpha"/>
<feOffset dx="1.5625" dy="0.78125"/>
<feComposite in2="hardAlpha" operator="out"/>
<feColorMatrix type="matrix" values="0 0 0 0 0 0 0 0 0 0 0 0 0 0 0 0 0 0 0.25 0"/>
<feBlend mode="normal" in2="BackgroundImageFix" result="effect1_dropShadow_395_318"/>
<feBlend mode="normal" in="SourceGraphic" in2="effect1_dropShadow_395_318" result="shape"/>
</filter>
<filter id="filter14_d_395_318" x="715.156" y="31.4453" width="29.6875" height="41.7969" filterUnits="userSpaceOnUse" color-interpolation-filters="sRGB">
<feFlood flood-opacity="0" result="BackgroundImageFix"/>
<feColorMatrix in="SourceAlpha" type="matrix" values="0 0 0 0 0 0 0 0 0 0 0 0 0 0 0 0 0 0 127 0" result="hardAlpha"/>
<feOffset dx="1.5625" dy="0.78125"/>
<feComposite in2="hardAlpha" operator="out"/>
<feColorMatrix type="matrix" values="0 0 0 0 0 0 0 0 0 0 0 0 0 0 0 0 0 0 0.25 0"/>
<feBlend mode="normal" in2="BackgroundImageFix" result="effect1_dropShadow_395_318"/>
<feBlend mode="normal" in="SourceGraphic" in2="effect1_dropShadow_395_318" result="shape"/>
</filter>
<filter id="filter15_d_395_318" x="686.202" y="67.5977" width="8.53516" height="16.7188" filterUnits="userSpaceOnUse" color-interpolation-filters="sRGB">
<feFlood flood-opacity="0" result="BackgroundImageFix"/>
<feColorMatrix in="SourceAlpha" type="matrix" values="0 0 0 0 0 0 0 0 0 0 0 0 0 0 0 0 0 0 127 0" result="hardAlpha"/>
<feOffset dx="1.5625" dy="0.78125"/>
<feComposite in2="hardAlpha" operator="out"/>
<feColorMatrix type="matrix" values="0 0 0 0 0 0 0 0 0 0 0 0 0 0 0 0 0 0 0.25 0"/>
<feBlend mode="normal" in2="BackgroundImageFix" result="effect1_dropShadow_395_318"/>
<feBlend mode="normal" in="SourceGraphic" in2="effect1_dropShadow_395_318" result="shape"/>
</filter>
<filter id="filter16_d_395_318" x="658.635" y="42.7538" width="23.7109" height="29.9023" filterUnits="userSpaceOnUse" color-interpolation-filters="sRGB">
<feFlood flood-opacity="0" result="BackgroundImageFix"/>
<feColorMatrix in="SourceAlpha" type="matrix" values="0 0 0 0 0 0 0 0 0 0 0 0 0 0 0 0 0 0 127 0" result="hardAlpha"/>
<feOffset dx="1.5625" dy="0.78125"/>
<feComposite in2="hardAlpha" operator="out"/>
<feColorMatrix type="matrix" values="0 0 0 0 0 0 0 0 0 0 0 0 0 0 0 0 0 0 0.25 0"/>
<feBlend mode="normal" in2="BackgroundImageFix" result="effect1_dropShadow_395_318"/>
<feBlend mode="normal" in="SourceGraphic" in2="effect1_dropShadow_395_318" result="shape"/>
</filter>
<filter id="filter17_d_395_318" x="625.41" y="42.7538" width="25.2344" height="30.4883" filterUnits="userSpaceOnUse" color-interpolation-filters="sRGB">
<feFlood flood-opacity="0" result="BackgroundImageFix"/>
<feColorMatrix in="SourceAlpha" type="matrix" values="0 0 0 0 0 0 0 0 0 0 0 0 0 0 0 0 0 0 127 0" result="hardAlpha"/>
<feOffset dx="1.5625" dy="0.78125"/>
<feComposite in2="hardAlpha" operator="out"/>
<feColorMatrix type="matrix" values="0 0 0 0 0 0 0 0 0 0 0 0 0 0 0 0 0 0 0.25 0"/>
<feBlend mode="normal" in2="BackgroundImageFix" result="effect1_dropShadow_395_318"/>
<feBlend mode="normal" in="SourceGraphic" in2="effect1_dropShadow_395_318" result="shape"/>
</filter>
<filter id="filter18_d_395_318" x="611.992" y="30.9179" width="5.78125" height="41.7383" filterUnits="userSpaceOnUse" color-interpolation-filters="sRGB">
<feFlood flood-opacity="0" result="BackgroundImageFix"/>
<feColorMatrix in="SourceAlpha" type="matrix" values="0 0 0 0 0 0 0 0 0 0 0 0 0 0 0 0 0 0 127 0" result="hardAlpha"/>
<feOffset dx="1.5625" dy="0.78125"/>
<feComposite in2="hardAlpha" operator="out"/>
<feColorMatrix type="matrix" values="0 0 0 0 0 0 0 0 0 0 0 0 0 0 0 0 0 0 0.25 0"/>
<feBlend mode="normal" in2="BackgroundImageFix" result="effect1_dropShadow_395_318"/>
<feBlend mode="normal" in="SourceGraphic" in2="effect1_dropShadow_395_318" result="shape"/>
</filter>
<filter id="filter19_d_395_318" x="584.744" y="42.7538" width="20.957" height="30.4883" filterUnits="userSpaceOnUse" color-interpolation-filters="sRGB">
<feFlood flood-opacity="0" result="BackgroundImageFix"/>
<feColorMatrix in="SourceAlpha" type="matrix" values="0 0 0 0 0 0 0 0 0 0 0 0 0 0 0 0 0 0 127 0" result="hardAlpha"/>
<feOffset dx="1.5625" dy="0.78125"/>
<feComposite in2="hardAlpha" operator="out"/>
<feColorMatrix type="matrix" values="0 0 0 0 0 0 0 0 0 0 0 0 0 0 0 0 0 0 0.25 0"/>
<feBlend mode="normal" in2="BackgroundImageFix" result="effect1_dropShadow_395_318"/>
<feBlend mode="normal" in="SourceGraphic" in2="effect1_dropShadow_395_318" result="shape"/>
</filter>
<filter id="filter20_d_395_318" x="573.025" y="30.9179" width="5.78125" height="41.7383" filterUnits="userSpaceOnUse" color-interpolation-filters="sRGB">
<feFlood flood-opacity="0" result="BackgroundImageFix"/>
<feColorMatrix in="SourceAlpha" type="matrix" values="0 0 0 0 0 0 0 0 0 0 0 0 0 0 0 0 0 0 127 0" result="hardAlpha"/>
<feOffset dx="1.5625" dy="0.78125"/>
<feComposite in2="hardAlpha" operator="out"/>
<feColorMatrix type="matrix" values="0 0 0 0 0 0 0 0 0 0 0 0 0 0 0 0 0 0 0.25 0"/>
<feBlend mode="normal" in2="BackgroundImageFix" result="effect1_dropShadow_395_318"/>
<feBlend mode="normal" in="SourceGraphic" in2="effect1_dropShadow_395_318" result="shape"/>
</filter>
<filter id="filter21_d_395_318" x="537.001" y="32.0312" width="30.9766" height="40.625" filterUnits="userSpaceOnUse" color-interpolation-filters="sRGB">
<feFlood flood-opacity="0" result="BackgroundImageFix"/>
<feColorMatrix in="SourceAlpha" type="matrix" values="0 0 0 0 0 0 0 0 0 0 0 0 0 0 0 0 0 0 127 0" result="hardAlpha"/>
<feOffset dx="1.5625" dy="0.78125"/>
<feComposite in2="hardAlpha" operator="out"/>
<feColorMatrix type="matrix" values="0 0 0 0 0 0 0 0 0 0 0 0 0 0 0 0 0 0 0.25 0"/>
<feBlend mode="normal" in2="BackgroundImageFix" result="effect1_dropShadow_395_318"/>
<feBlend mode="normal" in="SourceGraphic" in2="effect1_dropShadow_395_318" result="shape"/>
</filter>
<filter id="filter22_d_395_318" x="506.943" y="42.7538" width="15.7422" height="29.9023" filterUnits="userSpaceOnUse" color-interpolation-filters="sRGB">
<feFlood flood-opacity="0" result="BackgroundImageFix"/>
<feColorMatrix in="SourceAlpha" type="matrix" values="0 0 0 0 0 0 0 0 0 0 0 0 0 0 0 0 0 0 127 0" result="hardAlpha"/>
<feOffset dx="1.5625" dy="0.78125"/>
<feComposite in2="hardAlpha" operator="out"/>
<feColorMatrix type="matrix" values="0 0 0 0 0 0 0 0 0 0 0 0 0 0 0 0 0 0 0.25 0"/>
<feBlend mode="normal" in2="BackgroundImageFix" result="effect1_dropShadow_395_318"/>
<feBlend mode="normal" in="SourceGraphic" in2="effect1_dropShadow_395_318" result="shape"/>
</filter>
<filter id="filter23_d_395_318" x="474.264" y="43.3398" width="23.125" height="29.9023" filterUnits="userSpaceOnUse" color-interpolation-filters="sRGB">
<feFlood flood-opacity="0" result="BackgroundImageFix"/>
<feColorMatrix in="SourceAlpha" type="matrix" values="0 0 0 0 0 0 0 0 0 0 0 0 0 0 0 0 0 0 127 0" result="hardAlpha"/>
<feOffset dx="1.5625" dy="0.78125"/>
<feComposite in2="hardAlpha" operator="out"/>
<feColorMatrix type="matrix" values="0 0 0 0 0 0 0 0 0 0 0 0 0 0 0 0 0 0 0.25 0"/>
<feBlend mode="normal" in2="BackgroundImageFix" result="effect1_dropShadow_395_318"/>
<feBlend mode="normal" in="SourceGraphic" in2="effect1_dropShadow_395_318" result="shape"/>
</filter>
<filter id="filter24_d_395_318" x="441.332" y="42.7538" width="25.2344" height="30.4883" filterUnits="userSpaceOnUse" color-interpolation-filters="sRGB">
<feFlood flood-opacity="0" result="BackgroundImageFix"/>
<feColorMatrix in="SourceAlpha" type="matrix" values="0 0 0 0 0 0 0 0 0 0 0 0 0 0 0 0 0 0 127 0" result="hardAlpha"/>
<feOffset dx="1.5625" dy="0.78125"/>
<feComposite in2="hardAlpha" operator="out"/>
<feColorMatrix type="matrix" values="0 0 0 0 0 0 0 0 0 0 0 0 0 0 0 0 0 0 0.25 0"/>
<feBlend mode="normal" in2="BackgroundImageFix" result="effect1_dropShadow_395_318"/>
<feBlend mode="normal" in="SourceGraphic" in2="effect1_dropShadow_395_318" result="shape"/>
</filter>
<filter id="filter25_d_395_318" x="411.22" y="32.0312" width="29.6875" height="40.625" filterUnits="userSpaceOnUse" color-interpolation-filters="sRGB">
<feFlood flood-opacity="0" result="BackgroundImageFix"/>
<feColorMatrix in="SourceAlpha" type="matrix" values="0 0 0 0 0 0 0 0 0 0 0 0 0 0 0 0 0 0 127 0" result="hardAlpha"/>
<feOffset dx="1.5625" dy="0.78125"/>
<feComposite in2="hardAlpha" operator="out"/>
<feColorMatrix type="matrix" values="0 0 0 0 0 0 0 0 0 0 0 0 0 0 0 0 0 0 0.25 0"/>
<feBlend mode="normal" in2="BackgroundImageFix" result="effect1_dropShadow_395_318"/>
<feBlend mode="normal" in="SourceGraphic" in2="effect1_dropShadow_395_318" result="shape"/>
</filter>
</defs>
</svg>
