<svg width="155" height="87" viewBox="0 0 155 87" fill="none" xmlns="http://www.w3.org/2000/svg">
<rect width="155" height="87" fill="#F1F8FF"/>
<path d="M32.44 53H23.128V51.416C23.128 50.216 23.272 49.208 23.56 48.392C23.864 47.576 24.264 46.904 24.76 46.376C25.272 45.832 25.84 45.4 26.464 45.08L28.024 44.288C28.76 43.904 29.344 43.504 29.776 43.088C30.224 42.672 30.448 42.072 30.448 41.288V40.88C30.448 39.984 30.192 39.336 29.68 38.936C29.184 38.536 28.448 38.336 27.472 38.336C26.928 38.336 26.352 38.408 25.744 38.552C25.136 38.68 24.464 38.904 23.728 39.224L23.056 37.472C23.856 37.104 24.624 36.84 25.36 36.68C26.112 36.52 26.832 36.44 27.52 36.44C29.296 36.44 30.568 36.856 31.336 37.688C32.104 38.504 32.488 39.568 32.488 40.88V41.288C32.488 42.152 32.32 42.872 31.984 43.448C31.664 44.024 31.232 44.512 30.688 44.912C30.16 45.296 29.592 45.64 28.984 45.944L27.424 46.76C26.672 47.16 26.112 47.712 25.744 48.416C25.392 49.12 25.2 50.016 25.168 51.104H32.44V53ZM46.7239 43.04V46.616C46.7239 48.792 46.2359 50.44 45.2599 51.56C44.2839 52.68 42.9239 53.24 41.1799 53.24C39.4359 53.24 38.0759 52.68 37.0999 51.56C36.1399 50.44 35.6599 48.792 35.6599 46.616V43.04C35.6599 40.88 36.1479 39.24 37.1239 38.12C38.0999 37 39.4519 36.44 41.1799 36.44C42.9239 36.44 44.2839 37 45.2599 38.12C46.2359 39.24 46.7239 40.88 46.7239 43.04ZM44.6119 43.04C44.6119 41.376 44.3079 40.176 43.6999 39.44C43.1079 38.704 42.2679 38.336 41.1799 38.336C40.1079 38.336 39.2679 38.704 38.6599 39.44C38.0679 40.176 37.7719 41.376 37.7719 43.04V46.616C37.7719 48.264 38.0679 49.472 38.6599 50.24C39.2679 50.992 40.1079 51.368 41.1799 51.368C42.2679 51.368 43.1079 50.992 43.6999 50.24C44.3079 49.472 44.6119 48.264 44.6119 46.616V43.04ZM58.9947 53H49.6827V51.416C49.6827 50.216 49.8267 49.208 50.1147 48.392C50.4187 47.576 50.8187 46.904 51.3147 46.376C51.8267 45.832 52.3947 45.4 53.0187 45.08L54.5787 44.288C55.3147 43.904 55.8987 43.504 56.3307 43.088C56.7787 42.672 57.0027 42.072 57.0027 41.288V40.88C57.0027 39.984 56.7467 39.336 56.2347 38.936C55.7387 38.536 55.0027 38.336 54.0267 38.336C53.4827 38.336 52.9067 38.408 52.2987 38.552C51.6907 38.68 51.0187 38.904 50.2827 39.224L49.6107 37.472C50.4107 37.104 51.1787 36.84 51.9147 36.68C52.6667 36.52 53.3867 36.44 54.0747 36.44C55.8507 36.44 57.1227 36.856 57.8907 37.688C58.6587 38.504 59.0427 39.568 59.0427 40.88V41.288C59.0427 42.152 58.8747 42.872 58.5387 43.448C58.2187 44.024 57.7867 44.512 57.2427 44.912C56.7147 45.296 56.1467 45.64 55.5387 45.944L53.9787 46.76C53.2267 47.16 52.6667 47.712 52.2987 48.416C51.9467 49.12 51.7547 50.016 51.7227 51.104H58.9947V53ZM71.794 49.088H69.994V53H68.026V49.088H61.018V47.48C62.25 45.608 63.362 43.784 64.354 42.008C65.362 40.232 66.194 38.456 66.85 36.68H69.058C68.386 38.424 67.57 40.16 66.61 41.888C65.666 43.616 64.578 45.4 63.346 47.24H68.026V44.264H69.994V47.24H71.794V49.088ZM73.7815 46.592V44.864H80.5015V46.592H73.7815ZM92.1822 53H82.8702V51.416C82.8702 50.216 83.0142 49.208 83.3022 48.392C83.6062 47.576 84.0062 46.904 84.5022 46.376C85.0142 45.832 85.5822 45.4 86.2062 45.08L87.7662 44.288C88.5022 43.904 89.0862 43.504 89.5182 43.088C89.9662 42.672 90.1902 42.072 90.1902 41.288V40.88C90.1902 39.984 89.9342 39.336 89.4222 38.936C88.9262 38.536 88.1902 38.336 87.2142 38.336C86.6702 38.336 86.0942 38.408 85.4862 38.552C84.8782 38.68 84.2062 38.904 83.4702 39.224L82.7982 37.472C83.5982 37.104 84.3662 36.84 85.1022 36.68C85.8542 36.52 86.5742 36.44 87.2622 36.44C89.0382 36.44 90.3102 36.856 91.0782 37.688C91.8462 38.504 92.2302 39.568 92.2302 40.88V41.288C92.2302 42.152 92.0622 42.872 91.7262 43.448C91.4062 44.024 90.9742 44.512 90.4302 44.912C89.9022 45.296 89.3342 45.64 88.7262 45.944L87.1662 46.76C86.4142 47.16 85.8542 47.712 85.4862 48.416C85.1342 49.12 84.9422 50.016 84.9102 51.104H92.1822V53ZM106.466 43.04V46.616C106.466 48.792 105.978 50.44 105.002 51.56C104.026 52.68 102.666 53.24 100.922 53.24C99.1781 53.24 97.8181 52.68 96.8421 51.56C95.8821 50.44 95.4021 48.792 95.4021 46.616V43.04C95.4021 40.88 95.8901 39.24 96.8661 38.12C97.8421 37 99.1941 36.44 100.922 36.44C102.666 36.44 104.026 37 105.002 38.12C105.978 39.24 106.466 40.88 106.466 43.04ZM104.354 43.04C104.354 41.376 104.05 40.176 103.442 39.44C102.85 38.704 102.01 38.336 100.922 38.336C99.8501 38.336 99.0101 38.704 98.4021 39.44C97.8101 40.176 97.5141 41.376 97.5141 43.04V46.616C97.5141 48.264 97.8101 49.472 98.4021 50.24C99.0101 50.992 99.8501 51.368 100.922 51.368C102.01 51.368 102.85 50.992 103.442 50.24C104.05 49.472 104.354 48.264 104.354 46.616V43.04ZM118.737 53H109.425V51.416C109.425 50.216 109.569 49.208 109.857 48.392C110.161 47.576 110.561 46.904 111.057 46.376C111.569 45.832 112.137 45.4 112.761 45.08L114.321 44.288C115.057 43.904 115.641 43.504 116.073 43.088C116.521 42.672 116.745 42.072 116.745 41.288V40.88C116.745 39.984 116.489 39.336 115.977 38.936C115.481 38.536 114.745 38.336 113.769 38.336C113.225 38.336 112.649 38.408 112.041 38.552C111.433 38.68 110.761 38.904 110.025 39.224L109.353 37.472C110.153 37.104 110.921 36.84 111.657 36.68C112.409 36.52 113.129 36.44 113.817 36.44C115.593 36.44 116.865 36.856 117.633 37.688C118.401 38.504 118.785 39.568 118.785 40.88V41.288C118.785 42.152 118.617 42.872 118.281 43.448C117.961 44.024 117.529 44.512 116.985 44.912C116.457 45.296 115.889 45.64 115.281 45.944L113.721 46.76C112.969 47.16 112.409 47.712 112.041 48.416C111.689 49.12 111.497 50.016 111.465 51.104H118.737V53ZM121.765 44.504L122.245 36.68H130.357V38.6H124.093L123.805 43.28C124.509 43.04 125.269 42.92 126.085 42.92C127.589 42.92 128.789 43.32 129.685 44.12C130.581 44.92 131.029 46.104 131.029 47.672V48.392C131.029 49.816 130.613 50.984 129.781 51.896C128.949 52.792 127.613 53.24 125.773 53.24C125.053 53.24 124.301 53.16 123.517 53C122.749 52.824 121.949 52.552 121.117 52.184L121.765 50.456C122.549 50.792 123.261 51.032 123.901 51.176C124.541 51.304 125.157 51.368 125.749 51.368C126.741 51.368 127.517 51.144 128.077 50.696C128.637 50.232 128.917 49.464 128.917 48.392V47.672C128.917 46.792 128.661 46.088 128.149 45.56C127.653 45.032 126.893 44.768 125.869 44.768C125.389 44.768 124.917 44.832 124.453 44.96C123.989 45.072 123.501 45.24 122.989 45.464L121.765 44.504Z" fill="black"/>
</svg>
