<svg width="193" height="30" viewBox="0 0 193 30" fill="none" xmlns="http://www.w3.org/2000/svg">
<path d="M4.93003 18.1569C4.93003 20.1076 5.35757 21.7108 6.21265 22.9667C7.06773 24.1959 8.47059 24.8105 10.4212 24.8105C11.2229 24.8105 12.0512 24.7036 12.9063 24.4898C13.7881 24.2761 14.8703 23.9153 16.1529 23.4076L17.6359 27.5761C16.193 28.2174 14.8569 28.6717 13.6278 28.9389C12.4253 29.2061 11.2629 29.3397 10.1407 29.3397C7.89608 29.3397 6.01224 28.8587 4.48913 27.8968C2.99275 26.9348 1.87046 25.6121 1.12227 23.9287C0.374077 22.2452 -1.95305e-05 20.3213 -1.95305e-05 18.1569V12.4252C-1.95305e-05 10.2608 0.374077 8.33688 1.12227 6.65345C1.87046 4.97002 2.99275 3.66068 4.48913 2.72544C6.01224 1.76348 7.89608 1.2825 10.1407 1.2825C11.2362 1.2825 12.3719 1.4161 13.5476 1.68332C14.7233 1.92381 16.006 2.35134 17.3955 2.96593L15.9124 7.21459C14.6833 6.70689 13.6545 6.34616 12.8261 6.13239C11.9978 5.91862 11.1961 5.81173 10.4212 5.81173C8.47059 5.81173 7.06773 6.42632 6.21265 7.65549C5.35757 8.88467 4.93003 10.4746 4.93003 12.4252V18.1569ZM37.9032 17.5557V19.9606C37.9032 22.793 37.1283 25.0643 35.5785 26.7745C34.0286 28.4846 31.8375 29.3397 29.0051 29.3397C26.1726 29.3397 23.9815 28.4846 22.4317 26.7745C20.8818 25.0643 20.1069 22.793 20.1069 19.9606V17.5557C20.1069 14.7232 20.8685 12.4653 22.3916 10.7819C23.9414 9.07171 26.1459 8.21664 29.0051 8.21664C31.8642 8.21664 34.0554 9.07171 35.5785 10.7819C37.1283 12.4653 37.9032 14.7232 37.9032 17.5557ZM33.1736 17.5557C33.1736 15.9257 32.8128 14.6564 32.0914 13.7479C31.3699 12.8127 30.3411 12.3451 29.0051 12.3451C27.669 12.3451 26.6402 12.8127 25.9188 13.7479C25.1973 14.6564 24.8366 15.9257 24.8366 17.5557V19.9606C24.8366 21.5906 25.1973 22.8732 25.9188 23.8084C26.6402 24.7437 27.669 25.2113 29.0051 25.2113C30.3411 25.2113 31.3699 24.7437 32.0914 23.8084C32.8128 22.8732 33.1736 21.5906 33.1736 19.9606V17.5557ZM47.681 14.8702V28.9389H43.0716V8.61745H47.4405V11.3029C48.6964 10.2074 49.8587 9.41909 50.9276 8.93811C51.9964 8.45713 53.092 8.21664 54.2143 8.21664C56.6993 8.21664 58.3961 9.3122 59.3047 11.5033C60.6407 10.3276 61.8833 9.48589 63.0323 8.97819C64.1813 8.47049 65.3436 8.21664 66.5194 8.21664C68.3899 8.21664 69.8194 8.84458 70.8081 10.1005C71.7968 11.3297 72.2911 13.0665 72.2911 15.3111V28.9389H67.6817V15.8722C67.6817 13.6277 66.8267 12.5054 65.1165 12.5054C64.4485 12.5054 63.7137 12.6657 62.912 12.9864C62.1104 13.307 61.1351 13.935 59.9861 14.8702V28.9389H55.3767V15.8722C55.3767 13.6277 54.5216 12.5054 52.8114 12.5054C52.1434 12.5054 51.4086 12.6657 50.6069 12.9864C49.8053 13.307 48.83 13.935 47.681 14.8702ZM82.9873 14.8702V28.9389H78.3779V8.61745H82.7468V11.3029C84.0027 10.2074 85.1651 9.41909 86.2339 8.93811C87.3028 8.45713 88.3984 8.21664 89.5207 8.21664C92.0057 8.21664 93.7025 9.3122 94.611 11.5033C95.9471 10.3276 97.1896 9.48589 98.3386 8.97819C99.4876 8.47049 100.65 8.21664 101.826 8.21664C103.696 8.21664 105.126 8.84458 106.114 10.1005C107.103 11.3297 107.598 13.0665 107.598 15.3111V28.9389H102.988V15.8722C102.988 13.6277 102.133 12.5054 100.423 12.5054C99.7549 12.5054 99.02 12.6657 98.2184 12.9864C97.4168 13.307 96.4414 13.935 95.2924 14.8702V28.9389H90.683V15.8722C90.683 13.6277 89.8279 12.5054 88.1178 12.5054C87.4498 12.5054 86.7149 12.6657 85.9133 12.9864C85.1117 13.307 84.1363 13.935 82.9873 14.8702ZM118.414 4.76961H113.564V-0.000119931H118.414V4.76961ZM118.294 28.9389H113.684V8.61745H118.294V28.9389ZM136.869 28.2575C136.174 28.5782 135.373 28.832 134.464 29.0191C133.556 29.2328 132.634 29.3397 131.699 29.3397C130.149 29.3397 128.906 29.0191 127.971 28.3777C127.036 27.7364 126.354 26.8413 125.927 25.6923C125.526 24.5433 125.326 23.2339 125.326 21.7643V12.6256H122.039V8.61745H125.326V3.32666H129.935V8.61745H136.268V12.6256H129.935V21.7643C129.935 22.9934 130.162 23.8485 130.616 24.3295C131.097 24.7838 131.779 25.0109 132.66 25.0109C133.088 25.0109 133.542 24.9708 134.023 24.8906C134.531 24.7838 135.092 24.6101 135.707 24.3696L136.869 28.2575ZM152.8 28.2575C152.105 28.5782 151.304 28.832 150.395 29.0191C149.487 29.2328 148.565 29.3397 147.629 29.3397C146.08 29.3397 144.837 29.0191 143.902 28.3777C142.967 27.7364 142.285 26.8413 141.858 25.6923C141.457 24.5433 141.256 23.2339 141.256 21.7643V12.6256H137.97V8.61745H141.256V3.32666H145.866V8.61745H152.199V12.6256H145.866V21.7643C145.866 22.9934 146.093 23.8485 146.547 24.3295C147.028 24.7838 147.71 25.0109 148.591 25.0109C149.019 25.0109 149.473 24.9708 149.954 24.8906C150.462 24.7838 151.023 24.6101 151.638 24.3696L152.8 28.2575ZM171.937 27.7765C170.548 28.3377 169.239 28.7385 168.009 28.979C166.78 29.2195 165.618 29.3397 164.522 29.3397C161.503 29.3397 159.218 28.4846 157.668 26.7745C156.119 25.0643 155.344 22.793 155.344 19.9606V17.5557C155.344 15.6585 155.691 14.0151 156.386 12.6256C157.08 11.2361 158.069 10.1539 159.352 9.37901C160.634 8.60409 162.144 8.21664 163.881 8.21664C165.297 8.21664 166.62 8.51057 167.849 9.09843C169.105 9.65958 170.12 10.5547 170.895 11.7839C171.697 12.9864 172.098 14.5362 172.098 16.4334C172.098 16.9945 172.058 17.5958 171.978 18.2371C171.897 18.8517 171.764 19.5063 171.577 20.2011H159.793C159.846 21.8578 160.26 23.1003 161.035 23.9287C161.81 24.757 163.053 25.1712 164.763 25.1712C165.671 25.1712 166.607 25.0643 167.569 24.8506C168.557 24.6368 169.573 24.3161 170.615 23.8886L171.937 27.7765ZM163.881 12.1046C162.652 12.1046 161.69 12.5054 160.995 13.307C160.327 14.0819 159.94 15.2042 159.833 16.6739H167.528C167.555 16.5403 167.569 16.42 167.569 16.3131C167.569 16.1795 167.569 16.0593 167.569 15.9524C167.569 14.6698 167.208 13.7078 166.486 13.0665C165.765 12.4252 164.896 12.1046 163.881 12.1046ZM192.839 27.7765C191.45 28.3377 190.141 28.7385 188.911 28.979C187.682 29.2195 186.52 29.3397 185.424 29.3397C182.405 29.3397 180.12 28.4846 178.57 26.7745C177.021 25.0643 176.246 22.793 176.246 19.9606V17.5557C176.246 15.6585 176.593 14.0151 177.288 12.6256C177.982 11.2361 178.971 10.1539 180.254 9.37901C181.536 8.60409 183.046 8.21664 184.783 8.21664C186.199 8.21664 187.522 8.51057 188.751 9.09843C190.007 9.65958 191.022 10.5547 191.797 11.7839C192.599 12.9864 193 14.5362 193 16.4334C193 16.9945 192.96 17.5958 192.88 18.2371C192.799 18.8517 192.666 19.5063 192.479 20.2011H180.695C180.748 21.8578 181.162 23.1003 181.937 23.9287C182.712 24.757 183.955 25.1712 185.665 25.1712C186.573 25.1712 187.509 25.0643 188.471 24.8506C189.459 24.6368 190.475 24.3161 191.517 23.8886L192.839 27.7765ZM184.783 12.1046C183.554 12.1046 182.592 12.5054 181.897 13.307C181.229 14.0819 180.842 15.2042 180.735 16.6739H188.43C188.457 16.5403 188.471 16.42 188.471 16.3131C188.471 16.1795 188.471 16.0593 188.471 15.9524C188.471 14.6698 188.11 13.7078 187.388 13.0665C186.667 12.4252 185.798 12.1046 184.783 12.1046Z" fill="#D5EAFF"/>
</svg>
