<svg width="182" height="18" viewBox="0 0 182 18" fill="none" xmlns="http://www.w3.org/2000/svg">
<path d="M14.2733 5.81455H12.2249C12.1037 5.22534 11.8917 4.70772 11.5889 4.26168C11.2915 3.81565 10.9281 3.4412 10.4985 3.13833C10.0745 2.82996 9.60371 2.59868 9.08609 2.4445C8.56847 2.29031 8.02882 2.21322 7.46714 2.21322C6.44291 2.21322 5.51504 2.47203 4.68354 2.98965C3.85754 3.50728 3.1995 4.26994 2.70941 5.27766C2.22483 6.28537 1.98253 7.52161 1.98253 8.98637C1.98253 10.4511 2.22483 11.6874 2.70941 12.6951C3.1995 13.7028 3.85754 14.4655 4.68354 14.9831C5.51504 15.5007 6.44291 15.7595 7.46714 15.7595C8.02882 15.7595 8.56847 15.6824 9.08609 15.5283C9.60371 15.3741 10.0745 15.1455 10.4985 14.8427C10.9281 14.5343 11.2915 14.1571 11.5889 13.7111C11.8917 13.2595 12.1037 12.7419 12.2249 12.1582H14.2733C14.1192 13.0227 13.8383 13.7964 13.4308 14.4792C13.0233 15.1621 12.5167 15.743 11.911 16.2221C11.3053 16.6957 10.6252 17.0563 9.87078 17.3041C9.12188 17.5519 8.32067 17.6758 7.46714 17.6758C6.0244 17.6758 4.74136 17.3234 3.618 16.6186C2.49465 15.9137 1.61084 14.9115 0.966561 13.6119C0.322285 12.3124 0.000147142 10.7705 0.000147142 8.98637C0.000147142 7.20223 0.322285 5.66037 0.966561 4.3608C1.61084 3.06124 2.49465 2.05903 3.618 1.35418C4.74136 0.649334 6.0244 0.296909 7.46714 0.296909C8.32067 0.296909 9.12188 0.420809 9.87078 0.668607C10.6252 0.916406 11.3053 1.27984 11.911 1.75892C12.5167 2.23249 13.0233 2.81069 13.4308 3.49351C13.8383 4.17082 14.1192 4.94451 14.2733 5.81455ZM22.4734 17.7089C21.328 17.7089 20.3231 17.4363 19.4585 16.8911C18.5995 16.346 17.9277 15.5833 17.4431 14.6031C16.964 13.623 16.7245 12.4776 16.7245 11.167C16.7245 9.84541 16.964 8.69177 17.4431 7.70608C17.9277 6.72039 18.5995 5.95497 19.4585 5.40982C20.3231 4.86466 21.328 4.59208 22.4734 4.59208C23.6188 4.59208 24.621 4.86466 25.48 5.40982C26.3446 5.95497 27.0164 6.72039 27.4954 7.70608C27.98 8.69177 28.2223 9.84541 28.2223 11.167C28.2223 12.4776 27.98 13.623 27.4954 14.6031C27.0164 15.5833 26.3446 16.346 25.48 16.8911C24.621 17.4363 23.6188 17.7089 22.4734 17.7089ZM22.4734 15.9578C23.3434 15.9578 24.0593 15.7348 24.621 15.2887C25.1827 14.8427 25.5984 14.2562 25.8682 13.5293C26.1381 12.8025 26.273 12.015 26.273 11.167C26.273 10.319 26.1381 9.52878 25.8682 8.79639C25.5984 8.06401 25.1827 7.47205 24.621 7.02051C24.0593 6.56896 23.3434 6.34319 22.4734 6.34319C21.6033 6.34319 20.8875 6.56896 20.3258 7.02051C19.7641 7.47205 19.3484 8.06401 19.0786 8.79639C18.8087 9.52878 18.6738 10.319 18.6738 11.167C18.6738 12.015 18.8087 12.8025 19.0786 13.5293C19.3484 14.2562 19.7641 14.8427 20.3258 15.2887C20.8875 15.7348 21.6033 15.9578 22.4734 15.9578ZM31.198 17.4446V4.75728H33.0812V6.73967H33.2464C33.5108 6.06235 33.9375 5.53647 34.5267 5.16202C35.1159 4.78206 35.8235 4.59208 36.6495 4.59208C37.4865 4.59208 38.1831 4.78206 38.7393 5.16202C39.301 5.53647 39.7388 6.06235 40.0526 6.73967H40.1848C40.5097 6.08438 40.997 5.564 41.6468 5.17854C42.2966 4.78757 43.0758 4.59208 43.9844 4.59208C45.1187 4.59208 46.0466 4.94726 46.768 5.65761C47.4893 6.36246 47.85 7.46104 47.85 8.95333V17.4446H45.9007V8.95333C45.9007 8.01721 45.6446 7.34815 45.1325 6.94617C44.6204 6.54418 44.0174 6.34319 43.3236 6.34319C42.4315 6.34319 41.7404 6.61302 41.2503 7.15267C40.7602 7.68681 40.5152 8.36412 40.5152 9.18461V17.4446H38.5328V8.7551C38.5328 8.03373 38.2988 7.45278 37.8307 7.01225C37.3626 6.56621 36.7597 6.34319 36.0218 6.34319C35.5152 6.34319 35.0416 6.4781 34.6011 6.74793C34.166 7.01775 33.8136 7.3922 33.5438 7.87128C33.2795 8.34485 33.1473 8.89276 33.1473 9.51501V17.4446H31.198ZM51.4142 17.4446V4.75728H53.2975V6.73967H53.4627C53.727 6.06235 54.1537 5.53647 54.7429 5.16202C55.3322 4.78206 56.0398 4.59208 56.8658 4.59208C57.7028 4.59208 58.3993 4.78206 58.9555 5.16202C59.5172 5.53647 59.955 6.06235 60.2688 6.73967H60.401C60.7259 6.08438 61.2132 5.564 61.863 5.17854C62.5128 4.78757 63.292 4.59208 64.2006 4.59208C65.3349 4.59208 66.2628 4.94726 66.9842 5.65761C67.7056 6.36246 68.0662 7.46104 68.0662 8.95333V17.4446H66.1169V8.95333C66.1169 8.01721 65.8608 7.34815 65.3487 6.94617C64.8366 6.54418 64.2336 6.34319 63.5398 6.34319C62.6477 6.34319 61.9566 6.61302 61.4665 7.15267C60.9765 7.68681 60.7314 8.36412 60.7314 9.18461V17.4446H58.749V8.7551C58.749 8.03373 58.515 7.45278 58.0469 7.01225C57.5789 6.56621 56.9759 6.34319 56.238 6.34319C55.7314 6.34319 55.2578 6.4781 54.8173 6.74793C54.3823 7.01775 54.0298 7.3922 53.76 7.87128C53.4957 8.34485 53.3635 8.89276 53.3635 9.51501V17.4446H51.4142ZM71.6304 17.4446V4.75728H73.5798V17.4446H71.6304ZM72.6216 2.64274C72.2416 2.64274 71.914 2.51333 71.6387 2.25452C71.3688 1.99571 71.2339 1.68458 71.2339 1.32114C71.2339 0.957706 71.3688 0.646581 71.6387 0.387769C71.914 0.128957 72.2416 -0.000448157 72.6216 -0.000448157C73.0016 -0.000448157 73.3264 0.128957 73.5963 0.387769C73.8716 0.646581 74.0093 0.957706 74.0093 1.32114C74.0093 1.68458 73.8716 1.99571 73.5963 2.25452C73.3264 2.51333 73.0016 2.64274 72.6216 2.64274ZM82.6678 4.75728V6.40927H76.0928V4.75728H82.6678ZM78.0091 1.71762H79.9585V13.8102C79.9585 14.3608 80.0383 14.7738 80.198 15.0492C80.3632 15.319 80.5725 15.5007 80.8258 15.5943C81.0846 15.6824 81.3572 15.7265 81.6435 15.7265C81.8583 15.7265 82.0345 15.7155 82.1722 15.6935C82.3098 15.6659 82.42 15.6439 82.5026 15.6274L82.899 17.3785C82.7669 17.428 82.5824 17.4776 82.3456 17.5272C82.1088 17.5822 81.8087 17.6098 81.4453 17.6098C80.8946 17.6098 80.355 17.4914 79.8263 17.2546C79.3032 17.0178 78.8682 16.6571 78.5213 16.1725C78.1799 15.6879 78.0091 15.0767 78.0091 14.3388V1.71762ZM91.1177 4.75728V6.40927H84.5428V4.75728H91.1177ZM86.4591 1.71762H88.4084V13.8102C88.4084 14.3608 88.4883 14.7738 88.648 15.0492C88.8132 15.319 89.0224 15.5007 89.2757 15.5943C89.5345 15.6824 89.8071 15.7265 90.0935 15.7265C90.3082 15.7265 90.4844 15.7155 90.6221 15.6935C90.7598 15.6659 90.8699 15.6439 90.9525 15.6274L91.349 17.3785C91.2168 17.428 91.0323 17.4776 90.7955 17.5272C90.5588 17.5822 90.2587 17.6098 89.8952 17.6098C89.3446 17.6098 88.8049 17.4914 88.2763 17.2546C87.7531 17.0178 87.3181 16.6571 86.9712 16.1725C86.6298 15.6879 86.4591 15.0767 86.4591 14.3388V1.71762ZM99.2331 17.7089C98.0106 17.7089 96.9561 17.4391 96.0695 16.8994C95.1885 16.3542 94.5084 15.5943 94.0293 14.6197C93.5557 13.6395 93.319 12.4996 93.319 11.2C93.319 9.90047 93.5557 8.7551 94.0293 7.7639C94.5084 6.7672 95.1747 5.99077 96.0282 5.4346C96.8873 4.87292 97.8895 4.59208 99.0348 4.59208C99.6956 4.59208 100.348 4.70221 100.992 4.92248C101.637 5.14274 102.223 5.50068 102.752 5.99627C103.28 6.48636 103.702 7.13615 104.016 7.94562C104.329 8.7551 104.486 9.7518 104.486 10.9357V11.7617H94.7066V10.0767H102.504C102.504 9.36082 102.361 8.72206 102.075 8.16038C101.794 7.5987 101.392 7.15542 100.869 6.83053C100.351 6.50564 99.7397 6.34319 99.0348 6.34319C98.2584 6.34319 97.5866 6.53592 97.0194 6.92139C96.4577 7.30134 96.0255 7.79694 95.7226 8.40818C95.4197 9.01941 95.2683 9.6747 95.2683 10.374V11.4974C95.2683 12.4556 95.4335 13.2678 95.7639 13.9341C96.0998 14.5949 96.5651 15.0987 97.1598 15.4457C97.7545 15.7871 98.4456 15.9578 99.2331 15.9578C99.7452 15.9578 100.208 15.8862 100.621 15.743C101.039 15.5943 101.4 15.3741 101.703 15.0822C102.006 14.7849 102.24 14.4159 102.405 13.9754L104.288 14.504C104.09 15.1428 103.757 15.7045 103.289 16.189C102.821 16.6681 102.242 17.0426 101.554 17.3124C100.866 17.5767 100.092 17.7089 99.2331 17.7089ZM112.771 17.7089C111.549 17.7089 110.494 17.4391 109.608 16.8994C108.727 16.3542 108.046 15.5943 107.567 14.6197C107.094 13.6395 106.857 12.4996 106.857 11.2C106.857 9.90047 107.094 8.7551 107.567 7.7639C108.046 6.7672 108.713 5.99077 109.566 5.4346C110.425 4.87292 111.428 4.59208 112.573 4.59208C113.234 4.59208 113.886 4.70221 114.531 4.92248C115.175 5.14274 115.761 5.50068 116.29 5.99627C116.819 6.48636 117.24 7.13615 117.554 7.94562C117.868 8.7551 118.024 9.7518 118.024 10.9357V11.7617H108.245V10.0767H116.042C116.042 9.36082 115.899 8.72206 115.613 8.16038C115.332 7.5987 114.93 7.15542 114.407 6.83053C113.889 6.50564 113.278 6.34319 112.573 6.34319C111.796 6.34319 111.125 6.53592 110.557 6.92139C109.996 7.30134 109.564 7.79694 109.261 8.40818C108.958 9.01941 108.806 9.6747 108.806 10.374V11.4974C108.806 12.4556 108.972 13.2678 109.302 13.9341C109.638 14.5949 110.103 15.0987 110.698 15.4457C111.293 15.7871 111.984 15.9578 112.771 15.9578C113.283 15.9578 113.746 15.8862 114.159 15.743C114.577 15.5943 114.938 15.3741 115.241 15.0822C115.544 14.7849 115.778 14.4159 115.943 13.9754L117.826 14.504C117.628 15.1428 117.295 15.7045 116.827 16.189C116.359 16.6681 115.781 17.0426 115.092 17.3124C114.404 17.5767 113.63 17.7089 112.771 17.7089ZM127.796 17.4446V0.528188H129.844V8.06126H138.864V0.528188H140.913V17.4446H138.864V9.87845H129.844V17.4446H127.796ZM150.069 17.7089C148.846 17.7089 147.792 17.4391 146.905 16.8994C146.024 16.3542 145.344 15.5943 144.865 14.6197C144.392 13.6395 144.155 12.4996 144.155 11.2C144.155 9.90047 144.392 8.7551 144.865 7.7639C145.344 6.7672 146.011 5.99077 146.864 5.4346C147.723 4.87292 148.725 4.59208 149.871 4.59208C150.531 4.59208 151.184 4.70221 151.828 4.92248C152.473 5.14274 153.059 5.50068 153.588 5.99627C154.116 6.48636 154.538 7.13615 154.851 7.94562C155.165 8.7551 155.322 9.7518 155.322 10.9357V11.7617H145.542V10.0767H153.34C153.34 9.36082 153.197 8.72206 152.91 8.16038C152.63 7.5987 152.228 7.15542 151.704 6.83053C151.187 6.50564 150.576 6.34319 149.871 6.34319C149.094 6.34319 148.422 6.53592 147.855 6.92139C147.294 7.30134 146.861 7.79694 146.558 8.40818C146.256 9.01941 146.104 9.6747 146.104 10.374V11.4974C146.104 12.4556 146.269 13.2678 146.6 13.9341C146.936 14.5949 147.401 15.0987 147.996 15.4457C148.59 15.7871 149.281 15.9578 150.069 15.9578C150.581 15.9578 151.044 15.8862 151.457 15.743C151.875 15.5943 152.236 15.3741 152.539 15.0822C152.842 14.7849 153.076 14.4159 153.241 13.9754L155.124 14.504C154.926 15.1428 154.593 15.7045 154.125 16.189C153.656 16.6681 153.078 17.0426 152.39 17.3124C151.702 17.5767 150.928 17.7089 150.069 17.7089ZM162.021 17.7419C161.217 17.7419 160.487 17.5905 159.832 17.2876C159.177 16.9792 158.657 16.536 158.271 15.9578C157.886 15.3741 157.693 14.6692 157.693 13.8432C157.693 13.1163 157.836 12.5271 158.122 12.0756C158.409 11.6185 158.791 11.2606 159.271 11.0018C159.75 10.743 160.278 10.5503 160.856 10.4236C161.44 10.2914 162.027 10.1868 162.616 10.1097C163.387 10.0106 164.012 9.93627 164.491 9.88671C164.975 9.83164 165.328 9.74078 165.548 9.61413C165.774 9.48748 165.887 9.26721 165.887 8.95333V8.88725C165.887 8.07227 165.664 7.43901 165.218 6.98747C164.777 6.53592 164.108 6.31015 163.21 6.31015C162.28 6.31015 161.55 6.5139 161.022 6.92139C160.493 7.32888 160.121 7.7639 159.907 8.22646L158.056 7.56566C158.387 6.79473 158.827 6.19451 159.378 5.76499C159.934 5.32997 160.54 5.02711 161.195 4.8564C161.856 4.68019 162.506 4.59208 163.144 4.59208C163.552 4.59208 164.02 4.64164 164.549 4.74076C165.083 4.83437 165.598 5.02986 166.093 5.32722C166.594 5.62458 167.01 6.07337 167.34 6.67359C167.671 7.27381 167.836 8.07778 167.836 9.08549V17.4446H165.887V15.7265H165.788C165.655 16.0018 165.435 16.2964 165.127 16.6103C164.818 16.9242 164.408 17.1913 163.896 17.4115C163.384 17.6318 162.759 17.7419 162.021 17.7419ZM162.318 15.9908C163.089 15.9908 163.739 15.8394 164.268 15.5365C164.802 15.2336 165.204 14.8427 165.474 14.3636C165.749 13.8845 165.887 13.3807 165.887 12.852V11.0679C165.804 11.167 165.622 11.2579 165.342 11.3405C165.066 11.4176 164.747 11.4864 164.383 11.547C164.025 11.602 163.676 11.6516 163.334 11.6956C162.998 11.7342 162.726 11.7672 162.517 11.7948C162.01 11.8608 161.536 11.9682 161.096 12.1169C160.661 12.2601 160.309 12.4776 160.039 12.7694C159.774 13.0558 159.642 13.4467 159.642 13.9423C159.642 14.6197 159.893 15.1318 160.394 15.4787C160.9 15.8201 161.542 15.9908 162.318 15.9908ZM176.185 17.7089C175.128 17.7089 174.194 17.4418 173.385 16.9077C172.575 16.368 171.942 15.6081 171.485 14.6279C171.028 13.6422 170.799 12.4776 170.799 11.134C170.799 9.80135 171.028 8.64496 171.485 7.66478C171.942 6.6846 172.578 5.92744 173.393 5.3933C174.208 4.85915 175.15 4.59208 176.218 4.59208C177.044 4.59208 177.696 4.72975 178.175 5.00508C178.66 5.2749 179.029 5.58328 179.282 5.93019C179.541 6.2716 179.742 6.55244 179.885 6.77271H180.05V0.528188H182V17.4446H180.117V15.4952H179.885C179.742 15.7265 179.538 16.0183 179.274 16.3708C179.01 16.7177 178.633 17.0288 178.142 17.3041C177.652 17.574 177 17.7089 176.185 17.7089ZM176.449 15.9578C177.231 15.9578 177.892 15.754 178.432 15.3465C178.971 14.9335 179.381 14.3636 179.662 13.6367C179.943 12.9043 180.084 12.0591 180.084 11.1009C180.084 10.1538 179.946 9.32503 179.671 8.61468C179.395 7.89881 178.988 7.34264 178.448 6.94617C177.908 6.54418 177.242 6.34319 176.449 6.34319C175.623 6.34319 174.935 6.5552 174.384 6.97921C173.839 7.39771 173.429 7.96765 173.153 8.68902C172.884 9.40488 172.749 10.2088 172.749 11.1009C172.749 12.004 172.886 12.8245 173.162 13.5624C173.443 14.2948 173.856 14.8785 174.401 15.3135C174.951 15.743 175.634 15.9578 176.449 15.9578Z" fill="black"/>
</svg>
