<svg width="49" height="13" viewBox="0 0 49 13" fill="none" xmlns="http://www.w3.org/2000/svg">
<path d="M3.91148 12H0.384143V0.569656H4.06775C5.17655 0.569656 6.12536 0.798486 6.91417 1.25615C7.70299 1.71009 8.30762 2.36309 8.72807 3.21516C9.14852 4.0635 9.35875 5.07928 9.35875 6.2625C9.35875 7.45316 9.14666 8.47825 8.72249 9.33776C8.29832 10.1935 7.68066 10.8521 6.86952 11.3135C6.05839 11.7712 5.07237 12 3.91148 12ZM1.76829 10.7721H3.82218C4.76726 10.7721 5.55049 10.5898 6.17187 10.2252C6.79325 9.86053 7.25649 9.34148 7.5616 8.66801C7.8667 7.99454 8.01926 7.19271 8.01926 6.2625C8.01926 5.33974 7.86856 4.54535 7.56718 3.87932C7.26579 3.20957 6.81557 2.6961 6.21652 2.3389C5.61747 1.97798 4.87145 1.79752 3.97845 1.79752H1.76829V10.7721ZM15.0962 12.1786C14.2702 12.1786 13.5577 11.9963 12.9586 11.6316C12.3633 11.2633 11.9038 10.7498 11.5801 10.0912C11.2601 9.42892 11.1001 8.65871 11.1001 7.7806C11.1001 6.90248 11.2601 6.12855 11.5801 5.45881C11.9038 4.78534 12.354 4.2607 12.9307 3.8849C13.5112 3.50538 14.1884 3.31562 14.9623 3.31562C15.4088 3.31562 15.8497 3.39003 16.285 3.53887C16.7204 3.6877 17.1166 3.92955 17.4738 4.26443C17.831 4.59558 18.1157 5.03463 18.3278 5.58159C18.5399 6.12855 18.6459 6.80202 18.6459 7.602V8.16012H12.0377V7.02155H17.3064C17.3064 6.53784 17.2097 6.10623 17.0162 5.72671C16.8264 5.34718 16.5548 5.04766 16.2013 4.82813C15.8516 4.6086 15.4386 4.49884 14.9623 4.49884C14.4377 4.49884 13.9837 4.62907 13.6005 4.88952C13.221 5.14626 12.9289 5.48113 12.7242 5.89414C12.5196 6.30715 12.4173 6.74993 12.4173 7.22247V7.98152C12.4173 8.62894 12.5289 9.17776 12.7521 9.62798C12.9791 10.0745 13.2935 10.4149 13.6954 10.6493C14.0972 10.88 14.5642 10.9954 15.0962 10.9954C15.4423 10.9954 15.7548 10.947 16.0339 10.8503C16.3167 10.7498 16.5604 10.601 16.765 10.4038C16.9697 10.2028 17.1278 9.95355 17.2394 9.65589L18.512 10.0131C18.378 10.4447 18.1529 10.8242 17.8366 11.1517C17.5204 11.4754 17.1297 11.7284 16.6646 11.9107C16.1995 12.0893 15.6767 12.1786 15.0962 12.1786ZM24.3778 3.42724V4.54349H19.9352V3.42724H24.3778ZM21.23 1.37335H22.5472V9.54426C22.5472 9.91634 22.6011 10.1954 22.709 10.3814C22.8207 10.5638 22.962 10.6866 23.1332 10.7498C23.3081 10.8093 23.4923 10.8391 23.6857 10.8391C23.8309 10.8391 23.9499 10.8317 24.0429 10.8168C24.136 10.7982 24.2104 10.7833 24.2662 10.7721L24.5341 11.9554C24.4448 11.9888 24.3201 12.0223 24.1602 12.0558C24.0002 12.093 23.7974 12.1116 23.5518 12.1116C23.1797 12.1116 22.8151 12.0316 22.4579 11.8716C22.1044 11.7116 21.8105 11.4679 21.576 11.1405C21.3454 10.8131 21.23 10.4 21.23 9.90146V1.37335ZM28.8819 12.2009C28.3386 12.2009 27.8456 12.0986 27.4028 11.894C26.9601 11.6856 26.6084 11.3861 26.348 10.9954C26.0875 10.601 25.9573 10.1247 25.9573 9.56659C25.9573 9.07544 26.054 8.67731 26.2475 8.37221C26.441 8.06338 26.6996 7.82152 27.0233 7.64665C27.347 7.47177 27.7042 7.34154 28.0949 7.25596C28.4893 7.16666 28.8856 7.09597 29.2837 7.04387C29.8046 6.9769 30.2269 6.92667 30.5507 6.89318C30.8781 6.85597 31.1162 6.79458 31.265 6.709C31.4176 6.62342 31.4939 6.47459 31.4939 6.2625V6.21785C31.4939 5.66717 31.3432 5.23928 31.0418 4.93417C30.7441 4.62907 30.2921 4.47651 29.6856 4.47651C29.0567 4.47651 28.5637 4.61418 28.2065 4.88952C27.8493 5.16486 27.5982 5.45881 27.4531 5.77136L26.2029 5.32486C26.4261 4.80394 26.7238 4.39837 27.0959 4.10815C27.4717 3.81421 27.881 3.60956 28.3237 3.49422C28.7702 3.37515 29.2093 3.31562 29.6409 3.31562C29.9163 3.31562 30.2325 3.34911 30.5897 3.41608C30.9506 3.47933 31.2985 3.61142 31.6334 3.81235C31.972 4.01327 32.2529 4.31652 32.4762 4.72209C32.6994 5.12765 32.811 5.67089 32.811 6.3518V12H31.4939V10.8391H31.4269C31.3376 11.0251 31.1888 11.2242 30.9804 11.4363C30.772 11.6484 30.4948 11.8288 30.1488 11.9777C29.8028 12.1265 29.3805 12.2009 28.8819 12.2009ZM29.0828 11.0177C29.6037 11.0177 30.0428 10.9154 30.4 10.7107C30.7609 10.5061 31.0325 10.2419 31.2148 9.9182C31.4009 9.59449 31.4939 9.25404 31.4939 8.89684V7.6913C31.4381 7.75827 31.3153 7.81966 31.1255 7.87548C30.9395 7.92757 30.7237 7.97408 30.4781 8.01501C30.2362 8.05222 30 8.0857 29.7693 8.11547C29.5423 8.14151 29.3581 8.16384 29.2167 8.18244C28.8744 8.22709 28.5544 8.29965 28.2568 8.40011C27.9628 8.49685 27.7247 8.64382 27.5424 8.84103C27.3638 9.03451 27.2745 9.29869 27.2745 9.63356C27.2745 10.0912 27.4438 10.4373 27.7824 10.6717C28.1247 10.9024 28.5582 11.0177 29.0828 11.0177ZM35.2152 12V3.42724H36.5323V12H35.2152ZM35.8849 1.99845C35.6282 1.99845 35.4068 1.91101 35.2207 1.73613C35.0384 1.56125 34.9473 1.35103 34.9473 1.10545C34.9473 0.85988 35.0384 0.649654 35.2207 0.474775C35.4068 0.299897 35.6282 0.212458 35.8849 0.212458C36.1416 0.212458 36.3612 0.299897 36.5435 0.474775C36.7295 0.649654 36.8225 0.85988 36.8225 1.10545C36.8225 1.35103 36.7295 1.56125 36.5435 1.73613C36.3612 1.91101 36.1416 1.99845 35.8849 1.99845ZM40.262 0.569656V12H38.9448V0.569656H40.262ZM48.7468 5.34718L47.5636 5.68206C47.4892 5.48485 47.3794 5.29323 47.2343 5.10719C47.0929 4.91743 46.8994 4.76115 46.6539 4.63837C46.4083 4.51558 46.0939 4.45419 45.7106 4.45419C45.186 4.45419 44.7488 4.57511 44.3991 4.81697C44.053 5.0551 43.88 5.35834 43.88 5.72671C43.88 6.05414 43.9991 6.31273 44.2372 6.5025C44.4753 6.69226 44.8474 6.85039 45.3534 6.9769L46.626 7.28945C47.3925 7.47549 47.9636 7.76013 48.3394 8.14338C48.7152 8.5229 48.9031 9.01219 48.9031 9.61124C48.9031 10.1024 48.7617 10.5414 48.4789 10.9284C48.1999 11.3154 47.8092 11.6205 47.3069 11.8437C46.8046 12.067 46.2204 12.1786 45.5544 12.1786C44.68 12.1786 43.9563 11.9888 43.3833 11.6093C42.8103 11.2298 42.4475 10.6754 42.2949 9.94611L43.5451 9.63356C43.6642 10.0949 43.8893 10.441 44.2205 10.6717C44.5553 10.9024 44.9925 11.0177 45.532 11.0177C46.146 11.0177 46.6334 10.8875 46.9943 10.627C47.359 10.3628 47.5413 10.0466 47.5413 9.67821C47.5413 9.38055 47.4371 9.13125 47.2287 8.93033C47.0204 8.72568 46.7004 8.57313 46.2688 8.47267L44.84 8.13779C44.0549 7.95175 43.4782 7.66339 43.1098 7.2727C42.7452 6.8783 42.5628 6.38529 42.5628 5.79368C42.5628 5.30997 42.6986 4.88208 42.9703 4.51C43.2456 4.13792 43.6195 3.84583 44.0921 3.63375C44.5684 3.42166 45.1079 3.31562 45.7106 3.31562C46.559 3.31562 47.225 3.50166 47.7087 3.87374C48.1962 4.24582 48.5422 4.73697 48.7468 5.34718Z" fill="#1A3C6C"/>
</svg>
