<svg width="166" height="32" viewBox="0 0 166 32" fill="none" xmlns="http://www.w3.org/2000/svg">
<rect width="165.355" height="31.9217" rx="6.38435" fill="#F1F8FF"/>
<path d="M16.1682 21.0225H12.81V10.1401H16.317C17.3727 10.1401 18.276 10.3579 19.027 10.7936C19.778 11.2258 20.3536 11.8475 20.7539 12.6587C21.1542 13.4664 21.3544 14.4335 21.3544 15.56C21.3544 16.6936 21.1525 17.6695 20.7486 18.4878C20.3448 19.3026 19.7567 19.9296 18.9845 20.3689C18.2122 20.8046 17.2735 21.0225 16.1682 21.0225ZM14.1278 19.8535H16.0832C16.983 19.8535 17.7287 19.6799 18.3203 19.3327C18.9118 18.9856 19.3529 18.4914 19.6434 17.8502C19.9338 17.209 20.0791 16.4456 20.0791 15.56C20.0791 14.6815 19.9356 13.9252 19.6487 13.2911C19.3617 12.6534 18.9331 12.1646 18.3628 11.8245C17.7924 11.4809 17.0822 11.3091 16.232 11.3091H14.1278V19.8535ZM28.5385 17.6855V12.8607H29.7925V21.0225H28.5385V19.6409H28.4534C28.2621 20.0554 27.9646 20.4078 27.5607 20.6983C27.1569 20.9853 26.6468 21.1287 26.0304 21.1287C25.5203 21.1287 25.0669 21.0171 24.6701 20.794C24.2733 20.5673 23.9616 20.2272 23.7349 19.7737C23.5082 19.3168 23.3948 18.7411 23.3948 18.0468V12.8607H24.6488V17.9618C24.6488 18.5569 24.8153 19.0316 25.1483 19.3858C25.4849 19.7401 25.9135 19.9172 26.4342 19.9172C26.746 19.9172 27.063 19.8375 27.3854 19.6781C27.7113 19.5187 27.9841 19.2743 28.2037 18.9448C28.4269 18.6154 28.5385 18.1956 28.5385 17.6855ZM32.0893 21.0225V12.8607H33.3008V14.0934H33.3859C33.5346 13.6896 33.8039 13.3619 34.1935 13.1104C34.5832 12.8589 35.0225 12.7331 35.5113 12.7331C35.6034 12.7331 35.7186 12.7349 35.8567 12.7384C35.9949 12.742 36.0994 12.7473 36.1702 12.7544V14.0297C36.1277 14.019 36.0303 14.0031 35.878 13.9818C35.7292 13.957 35.5716 13.9446 35.4051 13.9446C35.0083 13.9446 34.6541 14.0279 34.3423 14.1944C34.0341 14.3573 33.7897 14.5841 33.609 14.8745C33.4319 15.1615 33.3433 15.4892 33.3433 15.8576V21.0225H32.0893ZM40.0585 21.2138C39.5413 21.2138 39.0719 21.1163 38.6504 20.9215C38.2288 20.7231 37.8941 20.438 37.6461 20.066C37.3981 19.6905 37.2741 19.2371 37.2741 18.7057C37.2741 18.2381 37.3662 17.8591 37.5505 17.5686C37.7347 17.2745 37.9809 17.0443 38.2891 16.8778C38.5972 16.7113 38.9373 16.5873 39.3093 16.5058C39.6848 16.4208 40.062 16.3535 40.4411 16.3039C40.937 16.2402 41.3391 16.1923 41.6473 16.1604C41.959 16.125 42.1857 16.0666 42.3274 15.9851C42.4727 15.9036 42.5453 15.7619 42.5453 15.56V15.5175C42.5453 14.9932 42.4018 14.5858 42.1149 14.2953C41.8315 14.0049 41.4011 13.8596 40.8237 13.8596C40.225 13.8596 39.7556 13.9907 39.4156 14.2528C39.0755 14.515 38.8364 14.7948 38.6982 15.0924L37.5079 14.6673C37.7205 14.1714 38.0039 13.7852 38.3581 13.5089C38.7159 13.2291 39.1056 13.0342 39.5271 12.9244C39.9522 12.8111 40.3702 12.7544 40.7812 12.7544C41.0433 12.7544 41.3444 12.7863 41.6845 12.85C42.0281 12.9102 42.3593 13.036 42.6781 13.2273C43.0005 13.4186 43.268 13.7073 43.4805 14.0934C43.6931 14.4796 43.7993 14.9968 43.7993 15.645V21.0225H42.5453V19.9172H42.4815C42.3965 20.0943 42.2548 20.2839 42.0564 20.4858C41.8581 20.6877 41.5942 20.8595 41.2647 21.0012C40.9353 21.1429 40.5332 21.2138 40.0585 21.2138ZM40.2498 20.0873C40.7457 20.0873 41.1638 19.9898 41.5038 19.795C41.8474 19.6002 42.106 19.3487 42.2796 19.0405C42.4567 18.7323 42.5453 18.4081 42.5453 18.0681V16.9203C42.4922 16.9841 42.3753 17.0425 42.1946 17.0957C42.0175 17.1452 41.812 17.1895 41.5782 17.2285C41.348 17.2639 41.123 17.2958 40.9034 17.3241C40.6873 17.3489 40.5119 17.3702 40.3773 17.3879C40.0514 17.4304 39.7468 17.4995 39.4634 17.5951C39.1835 17.6872 38.9568 17.8272 38.7832 18.0149C38.6132 18.1991 38.5282 18.4506 38.5282 18.7695C38.5282 19.2052 38.6894 19.5346 39.0117 19.7578C39.3376 19.9774 39.7503 20.0873 40.2498 20.0873ZM49.6377 12.8607V13.9234H45.408V12.8607H49.6377ZM46.6408 10.9052H47.8948V18.6844C47.8948 19.0387 47.9462 19.3044 48.0489 19.4815C48.1552 19.6551 48.2898 19.772 48.4528 19.8322C48.6193 19.8889 48.7946 19.9172 48.9788 19.9172C49.117 19.9172 49.2304 19.9101 49.3189 19.896C49.4075 19.8782 49.4783 19.8641 49.5315 19.8535L49.7865 20.98C49.7015 21.0118 49.5828 21.0437 49.4305 21.0756C49.2782 21.111 49.0851 21.1287 48.8513 21.1287C48.4971 21.1287 48.1499 21.0526 47.8098 20.9002C47.4733 20.7479 47.1934 20.5159 46.9703 20.2042C46.7506 19.8924 46.6408 19.4992 46.6408 19.0245V10.9052ZM51.5241 21.0225V12.8607H52.7781V21.0225H51.5241ZM52.1617 11.5004C51.9173 11.5004 51.7065 11.4171 51.5294 11.2506C51.3558 11.0841 51.269 10.884 51.269 10.6502C51.269 10.4164 51.3558 10.2162 51.5294 10.0497C51.7065 9.88323 51.9173 9.79998 52.1617 9.79998C52.4062 9.79998 52.6152 9.88323 52.7887 10.0497C52.9659 10.2162 53.0544 10.4164 53.0544 10.6502C53.0544 10.884 52.9659 11.0841 52.7887 11.2506C52.6152 11.4171 52.4062 11.5004 52.1617 11.5004ZM58.3907 21.1925C57.6539 21.1925 57.0074 21.0171 56.4512 20.6664C55.8986 20.3157 55.4664 19.8251 55.1547 19.1946C54.8465 18.564 54.6924 17.8272 54.6924 16.9841C54.6924 16.1339 54.8465 15.3917 55.1547 14.7576C55.4664 14.1235 55.8986 13.6311 56.4512 13.2804C57.0074 12.9297 57.6539 12.7544 58.3907 12.7544C59.1275 12.7544 59.7722 12.9297 60.3249 13.2804C60.881 13.6311 61.3132 14.1235 61.6214 14.7576C61.9331 15.3917 62.089 16.1339 62.089 16.9841C62.089 17.8272 61.9331 18.564 61.6214 19.1946C61.3132 19.8251 60.881 20.3157 60.3249 20.6664C59.7722 21.0171 59.1275 21.1925 58.3907 21.1925ZM58.3907 20.066C58.9504 20.066 59.4109 19.9225 59.7722 19.6356C60.1336 19.3487 60.401 18.9714 60.5746 18.5038C60.7482 18.0362 60.835 17.5296 60.835 16.9841C60.835 16.4385 60.7482 15.9302 60.5746 15.459C60.401 14.9879 60.1336 14.6071 59.7722 14.3166C59.4109 14.0261 58.9504 13.8809 58.3907 13.8809C57.831 13.8809 57.3705 14.0261 57.0091 14.3166C56.6478 14.6071 56.3803 14.9879 56.2068 15.459C56.0332 15.9302 55.9464 16.4385 55.9464 16.9841C55.9464 17.5296 56.0332 18.0362 56.2068 18.5038C56.3803 18.9714 56.6478 19.3487 57.0091 19.6356C57.3705 19.9225 57.831 20.066 58.3907 20.066ZM65.2573 16.1126V21.0225H64.0033V12.8607H65.2148V14.1359H65.321C65.5123 13.7215 65.8028 13.3885 66.1925 13.137C66.5822 12.8819 67.0852 12.7544 67.7016 12.7544C68.2542 12.7544 68.7377 12.8677 69.1522 13.0945C69.5667 13.3176 69.889 13.6577 70.1193 14.1147C70.3496 14.5681 70.4647 15.142 70.4647 15.8363V21.0225H69.2107V15.9213C69.2107 15.2801 69.0442 14.7807 68.7112 14.4229C68.3782 14.0615 67.9212 13.8809 67.3402 13.8809C66.9399 13.8809 66.5822 13.9677 66.2669 14.1413C65.9551 14.3148 65.7089 14.5681 65.5283 14.9011C65.3476 15.2341 65.2573 15.6379 65.2573 16.1126Z" fill="#1A3C6C" fill-opacity="0.5"/>
<line x1="133.752" x2="133.752" y2="31.9217" stroke="#1A3C6C" stroke-opacity="0.5" stroke-width="0.638435"/>
<path d="M149.393 21.0679L144.97 13.4067H153.817L149.393 21.0679Z" fill="#1A3C6C" fill-opacity="0.5"/>
</svg>
