<svg width="166" height="33" viewBox="0 0 166 33" fill="none" xmlns="http://www.w3.org/2000/svg">
<rect y="0.647949" width="165.355" height="31.9217" rx="6.38435" fill="#F1F8FF"/>
<path d="M12.81 21.6709V10.7885H19.3777V11.9575H14.1278V15.6346H19.0376V16.8036H14.1278V20.5019H19.4627V21.6709H12.81ZM28.2568 13.5091L25.2387 21.6709H23.9634L20.9452 13.5091H22.3055L24.5585 20.013H24.6435L26.8965 13.5091H28.2568ZM33.0418 21.8409C32.2554 21.8409 31.577 21.6674 31.0067 21.3202C30.4399 20.9695 30.0024 20.4806 29.6942 19.8536C29.3895 19.2231 29.2372 18.4898 29.2372 17.6538C29.2372 16.8177 29.3895 16.0809 29.6942 15.4433C30.0024 14.8021 30.431 14.3026 30.9801 13.9448C31.5327 13.5835 32.1774 13.4028 32.9143 13.4028C33.3394 13.4028 33.7591 13.4737 34.1736 13.6154C34.5881 13.7571 34.9654 13.9873 35.3054 14.3061C35.6455 14.6214 35.9165 15.0394 36.1184 15.5602C36.3203 16.0809 36.4213 16.7221 36.4213 17.4837V18.0151H30.1299V16.9311H35.146C35.146 16.4706 35.0539 16.0597 34.8697 15.6983C34.689 15.337 34.4304 15.0518 34.0939 14.8428C33.7609 14.6338 33.3677 14.5293 32.9143 14.5293C32.4148 14.5293 31.9826 14.6533 31.6177 14.9013C31.2564 15.1457 30.9783 15.4645 30.7835 15.8577C30.5887 16.2509 30.4912 16.6725 30.4912 17.1224V17.8451C30.4912 18.4614 30.5975 18.9839 30.8101 19.4126C31.0261 19.8377 31.3255 20.1618 31.7081 20.385C32.0907 20.6046 32.5352 20.7144 33.0418 20.7144C33.3712 20.7144 33.6688 20.6684 33.9345 20.5763C34.2037 20.4806 34.4358 20.3389 34.6306 20.1512C34.8254 19.9599 34.976 19.7226 35.0823 19.4392L36.2938 19.7792C36.1662 20.1902 35.9519 20.5515 35.6508 20.8632C35.3497 21.1714 34.9777 21.4123 34.5349 21.5859C34.0921 21.7559 33.5944 21.8409 33.0418 21.8409ZM39.5829 16.7611V21.6709H38.3289V13.5091H39.5404V14.7844H39.6467C39.838 14.3699 40.1285 14.0369 40.5181 13.7854C40.9078 13.5303 41.4108 13.4028 42.0272 13.4028C42.5798 13.4028 43.0634 13.5162 43.4779 13.7429C43.8923 13.9661 44.2147 14.3061 44.4449 14.7631C44.6752 15.2166 44.7903 15.7904 44.7903 16.4848V21.6709H43.5363V16.5698C43.5363 15.9286 43.3698 15.4291 43.0368 15.0713C42.7038 14.71 42.2469 14.5293 41.6659 14.5293C41.2656 14.5293 40.9078 14.6161 40.5925 14.7897C40.2808 14.9633 40.0346 15.2166 39.8539 15.5495C39.6733 15.8825 39.5829 16.2864 39.5829 16.7611ZM50.6314 13.5091V14.5718H46.4017V13.5091H50.6314ZM47.6345 11.5537H48.8885V19.3329C48.8885 19.6871 48.9399 19.9528 49.0426 20.1299C49.1489 20.3035 49.2835 20.4204 49.4464 20.4806C49.6129 20.5373 49.7883 20.5657 49.9725 20.5657C50.1107 20.5657 50.224 20.5586 50.3126 20.5444C50.4011 20.5267 50.472 20.5125 50.5251 20.5019L50.7802 21.6284C50.6952 21.6603 50.5765 21.6922 50.4242 21.724C50.2718 21.7595 50.0788 21.7772 49.845 21.7772C49.4907 21.7772 49.1436 21.701 48.8035 21.5487C48.467 21.3964 48.1871 21.1643 47.9639 20.8526C47.7443 20.5409 47.6345 20.1476 47.6345 19.673V11.5537ZM64.3354 14.1892C64.2185 13.8315 64.0644 13.5109 63.8731 13.2275C63.6853 12.9405 63.4604 12.6961 63.1982 12.4942C62.9396 12.2923 62.6456 12.1382 62.3162 12.0319C61.9867 11.9256 61.6254 11.8725 61.2322 11.8725C60.5874 11.8725 60.0012 12.039 59.4733 12.372C58.9455 12.705 58.5257 13.1956 58.214 13.8439C57.9023 14.4921 57.7464 15.2874 57.7464 16.2297C57.7464 17.172 57.904 17.9673 58.2193 18.6155C58.5346 19.2638 58.9615 19.7544 59.4999 20.0874C60.0384 20.4204 60.6441 20.5869 61.3172 20.5869C61.9407 20.5869 62.4897 20.4541 62.9644 20.1884C63.4427 19.9192 63.8146 19.5401 64.0803 19.0513C64.3495 18.5589 64.4841 17.9797 64.4841 17.3137L64.888 17.3987H61.6148V16.2297H65.7594V17.3987C65.7594 18.2949 65.5681 19.0743 65.1855 19.7367C64.8065 20.3992 64.2822 20.9128 63.6127 21.2777C62.9467 21.639 62.1816 21.8197 61.3172 21.8197C60.3536 21.8197 59.507 21.593 58.7773 21.1395C58.0511 20.6861 57.4843 20.0414 57.0769 19.2054C56.673 18.3693 56.4711 17.3774 56.4711 16.2297C56.4711 15.3689 56.5862 14.5949 56.8165 13.9076C57.0503 13.2168 57.3798 12.6288 57.8049 12.1435C58.2299 11.6582 58.733 11.2862 59.3139 11.0276C59.8949 10.769 60.5343 10.6397 61.2322 10.6397C61.8061 10.6397 62.341 10.7265 62.8369 10.9001C63.3364 11.0701 63.781 11.3128 64.1706 11.6281C64.5638 11.9398 64.8915 12.3135 65.1537 12.7492C65.4158 13.1814 65.5965 13.6614 65.6957 14.1892H64.3354ZM71.2684 21.8409C70.482 21.8409 69.8036 21.6674 69.2332 21.3202C68.6665 20.9695 68.229 20.4806 67.9208 19.8536C67.6161 19.2231 67.4638 18.4898 67.4638 17.6538C67.4638 16.8177 67.6161 16.0809 67.9208 15.4433C68.229 14.8021 68.6576 14.3026 69.2067 13.9448C69.7593 13.5835 70.404 13.4028 71.1409 13.4028C71.5659 13.4028 71.9857 13.4737 72.4002 13.6154C72.8147 13.7571 73.1919 13.9873 73.532 14.3061C73.8721 14.6214 74.1431 15.0394 74.345 15.5602C74.5469 16.0809 74.6479 16.7221 74.6479 17.4837V18.0151H68.3565V16.9311H73.3726C73.3726 16.4706 73.2805 16.0597 73.0963 15.6983C72.9156 15.337 72.657 15.0518 72.3205 14.8428C71.9875 14.6338 71.5943 14.5293 71.1409 14.5293C70.6414 14.5293 70.2092 14.6533 69.8443 14.9013C69.483 15.1457 69.2049 15.4645 69.0101 15.8577C68.8152 16.2509 68.7178 16.6725 68.7178 17.1224V17.8451C68.7178 18.4614 68.8241 18.9839 69.0366 19.4126C69.2527 19.8377 69.5521 20.1618 69.9346 20.385C70.3172 20.6046 70.7618 20.7144 71.2684 20.7144C71.5978 20.7144 71.8954 20.6684 72.1611 20.5763C72.4303 20.4806 72.6623 20.3389 72.8572 20.1512C73.052 19.9599 73.2026 19.7226 73.3088 19.4392L74.5204 19.7792C74.3928 20.1902 74.1785 20.5515 73.8774 20.8632C73.5763 21.1714 73.2043 21.4123 72.7615 21.5859C72.3187 21.7559 71.821 21.8409 71.2684 21.8409ZM77.8095 16.7611V21.6709H76.5555V13.5091H77.767V14.7844H77.8733C78.0646 14.3699 78.3551 14.0369 78.7447 13.7854C79.1344 13.5303 79.6374 13.4028 80.2538 13.4028C80.8064 13.4028 81.29 13.5162 81.7044 13.7429C82.1189 13.9661 82.4413 14.3061 82.6715 14.7631C82.9018 15.2166 83.0169 15.7904 83.0169 16.4848V21.6709H81.7629V16.5698C81.7629 15.9286 81.5964 15.4291 81.2634 15.0713C80.9304 14.71 80.4734 14.5293 79.8925 14.5293C79.4922 14.5293 79.1344 14.6161 78.8191 14.7897C78.5074 14.9633 78.2612 15.2166 78.0805 15.5495C77.8998 15.8825 77.8095 16.2864 77.8095 16.7611ZM85.3084 21.6709V13.5091H86.52V14.7419H86.605C86.7538 14.338 87.023 14.0103 87.4127 13.7588C87.8023 13.5073 88.2416 13.3816 88.7304 13.3816C88.8225 13.3816 88.9377 13.3833 89.0758 13.3869C89.214 13.3904 89.3185 13.3957 89.3893 13.4028V14.6781C89.3468 14.6675 89.2494 14.6515 89.0971 14.6303C88.9483 14.6055 88.7907 14.5931 88.6242 14.5931C88.2274 14.5931 87.8732 14.6763 87.5614 14.8428C87.2532 15.0058 87.0088 15.2325 86.8281 15.523C86.651 15.8099 86.5625 16.1376 86.5625 16.506V21.6709H85.3084ZM94.0494 21.8409C93.263 21.8409 92.5846 21.6674 92.0143 21.3202C91.4475 20.9695 91.01 20.4806 90.7018 19.8536C90.3972 19.2231 90.2448 18.4898 90.2448 17.6538C90.2448 16.8177 90.3972 16.0809 90.7018 15.4433C91.01 14.8021 91.4387 14.3026 91.9877 13.9448C92.5404 13.5835 93.1851 13.4028 93.9219 13.4028C94.347 13.4028 94.7668 13.4737 95.1812 13.6154C95.5957 13.7571 95.973 13.9873 96.3131 14.3061C96.6531 14.6214 96.9241 15.0394 97.1261 15.5602C97.328 16.0809 97.4289 16.7221 97.4289 17.4837V18.0151H91.1375V16.9311H96.1537C96.1537 16.4706 96.0615 16.0597 95.8773 15.6983C95.6967 15.337 95.4381 15.0518 95.1015 14.8428C94.7686 14.6338 94.3753 14.5293 93.9219 14.5293C93.4224 14.5293 92.9902 14.6533 92.6254 14.9013C92.264 15.1457 91.986 15.4645 91.7911 15.8577C91.5963 16.2509 91.4989 16.6725 91.4989 17.1224V17.8451C91.4989 18.4614 91.6051 18.9839 91.8177 19.4126C92.0338 19.8377 92.3331 20.1618 92.7157 20.385C93.0983 20.6046 93.5429 20.7144 94.0494 20.7144C94.3789 20.7144 94.6765 20.6684 94.9421 20.5763C95.2114 20.4806 95.4434 20.3389 95.6382 20.1512C95.8331 19.9599 95.9836 19.7226 96.0899 19.4392L97.3014 19.7792C97.1739 20.1902 96.9596 20.5515 96.6585 20.8632C96.3573 21.1714 95.9854 21.4123 95.5426 21.5859C95.0998 21.7559 94.6021 21.8409 94.0494 21.8409Z" fill="#1A3C6C" fill-opacity="0.5"/>
<line x1="133.752" y1="0.647949" x2="133.752" y2="32.5697" stroke="#1A3C6C" stroke-opacity="0.5" stroke-width="0.638435"/>
<path d="M149.393 21.7163L144.97 14.0551H153.817L149.393 21.7163Z" fill="#1A3C6C" fill-opacity="0.5"/>
</svg>
