<svg width="115" height="29" viewBox="0 0 115 29" fill="none" xmlns="http://www.w3.org/2000/svg">
<path d="M16.52 23.4V28H0.76V0.8H16.12V5.4H5.56V11.92H14.92V16.52H5.56V23.4H16.52ZM37.1394 7.72L29.9394 28H25.7394L18.5394 7.72H23.1794L26.6594 17.84L27.9794 22.04L29.2594 17.84L32.5794 7.72H37.1394ZM55.9897 26.84C54.603 27.4 53.2964 27.8 52.0697 28.04C50.843 28.28 49.683 28.4 48.5897 28.4C45.5764 28.4 43.2964 27.5467 41.7497 25.84C40.203 24.1333 39.4297 21.8667 39.4297 19.04V16.64C39.4297 14.7467 39.7764 13.1067 40.4697 11.72C41.163 10.3333 42.1497 9.25333 43.4297 8.48C44.7097 7.70667 46.2164 7.32 47.9497 7.32C49.363 7.32 50.683 7.61333 51.9097 8.2C53.163 8.76 54.1764 9.65333 54.9497 10.88C55.7497 12.08 56.1497 13.6267 56.1497 15.52C56.1497 16.08 56.1097 16.68 56.0297 17.32C55.9497 17.9333 55.8164 18.5867 55.6297 19.28H43.8697C43.923 20.9333 44.3364 22.1733 45.1097 23C45.883 23.8267 47.123 24.24 48.8297 24.24C49.7364 24.24 50.6697 24.1333 51.6297 23.92C52.6164 23.7067 53.6297 23.3867 54.6697 22.96L55.9897 26.84ZM47.9497 11.2C46.723 11.2 45.763 11.6 45.0697 12.4C44.403 13.1733 44.0164 14.2933 43.9097 15.76H51.5897C51.6164 15.6267 51.6297 15.5067 51.6297 15.4C51.6297 15.2667 51.6297 15.1467 51.6297 15.04C51.6297 13.76 51.2697 12.8 50.5497 12.16C49.8297 11.52 48.963 11.2 47.9497 11.2ZM71.3691 11.6C70.7024 11.6 69.9424 11.76 69.0891 12.08C68.2357 12.4 67.2224 13.0267 66.0491 13.96V28H61.4491V7.72H65.8091V10.44C67.0624 9.34667 68.2491 8.56 69.3691 8.08C70.4891 7.57333 71.6224 7.32 72.7691 7.32C74.7157 7.32 76.1957 7.94667 77.2091 9.2C78.2224 10.4267 78.7291 12.16 78.7291 14.4V28H74.1291V14.96C74.1291 12.72 73.2091 11.6 71.3691 11.6ZM97.0084 27.32C96.3151 27.64 95.5151 27.8933 94.6084 28.08C93.7018 28.2933 92.7818 28.4 91.8484 28.4C90.3018 28.4 89.0618 28.08 88.1284 27.44C87.1951 26.8 86.5151 25.9067 86.0884 24.76C85.6884 23.6133 85.4884 22.3067 85.4884 20.84V11.72H82.2084V7.72H85.4884V2.44H90.0884V7.72H96.4084V11.72H90.0884V20.84C90.0884 22.0667 90.3151 22.92 90.7684 23.4C91.2484 23.8533 91.9284 24.08 92.8084 24.08C93.2351 24.08 93.6884 24.04 94.1684 23.96C94.6751 23.8533 95.2351 23.68 95.8484 23.44L97.0084 27.32ZM106.387 24.4C107.374 24.4 108.187 24.24 108.827 23.92C109.467 23.5733 109.787 23.0667 109.787 22.4C109.787 21.8133 109.574 21.36 109.147 21.04C108.747 20.6933 108.014 20.3867 106.947 20.12L104.667 19.52C102.907 19.0667 101.6 18.3067 100.747 17.24C99.9202 16.1733 99.5069 14.9067 99.5069 13.44C99.5069 11.7067 100.107 10.2533 101.307 9.08C102.507 7.90667 104.36 7.32 106.867 7.32C107.88 7.32 108.947 7.44 110.067 7.68C111.187 7.92 112.36 8.30667 113.587 8.84L112.267 12.76C111.147 12.2267 110.134 11.8533 109.227 11.64C108.32 11.4267 107.52 11.32 106.827 11.32C104.934 11.32 103.987 11.96 103.987 13.24C103.987 13.7467 104.147 14.1467 104.467 14.44C104.814 14.7333 105.44 15 106.347 15.24L108.627 15.84C110.574 16.3467 111.987 17.12 112.867 18.16C113.774 19.2 114.227 20.5067 114.227 22.08C114.227 23.9467 113.587 25.4667 112.307 26.64C111.054 27.8133 109.067 28.4 106.347 28.4C104.027 28.4 101.587 27.8667 99.0269 26.8L100.267 23C101.52 23.5067 102.654 23.8667 103.667 24.08C104.68 24.2933 105.587 24.4 106.387 24.4Z" fill="#D5EAFF"/>
</svg>
