<svg width="63" height="18" viewBox="0 0 63 18" fill="none" xmlns="http://www.w3.org/2000/svg">
<path d="M0.532666 17V1.46089H10.4874V3.82059H3.34761V8.03921H9.80454V10.3989H3.34761V17H0.532666ZM12.9306 17V5.34567H15.6772V17H12.9306ZM14.3115 3.6916C13.8765 3.6916 13.5022 3.54744 13.1885 3.25912C12.8749 2.96573 12.7181 2.61418 12.7181 2.20446C12.7181 1.78968 12.8749 1.43813 13.1885 1.1498C13.5022 0.856422 13.8765 0.709732 14.3115 0.709732C14.7516 0.709732 15.1259 0.856422 15.4344 1.1498C15.748 1.43813 15.9049 1.78968 15.9049 2.20446C15.9049 2.61418 15.748 2.96573 15.4344 3.25912C15.1259 3.54744 14.7516 3.6916 14.3115 3.6916ZM21.2483 1.46089V17H18.5017V1.46089H21.2483ZM29.8923 5.34567V7.47015H23.1926V5.34567H29.8923ZM24.8467 2.55348H27.5933V13.4946C27.5933 13.8639 27.649 14.1471 27.7603 14.3444C27.8766 14.5366 28.0283 14.6681 28.2155 14.7389C28.4027 14.8098 28.61 14.8452 28.8377 14.8452C29.0097 14.8452 29.1665 14.8325 29.3081 14.8072C29.4548 14.7819 29.5661 14.7592 29.6419 14.7389L30.1048 16.8862C29.9581 16.9368 29.7482 16.9924 29.475 17.0531C29.2069 17.1138 28.8781 17.1492 28.4886 17.1593C27.8007 17.1796 27.1811 17.0759 26.6297 16.8483C26.0784 16.6156 25.6408 16.2564 25.3171 15.7708C24.9984 15.2852 24.8416 14.6782 24.8467 13.9498V2.55348ZM37.2237 17.2276C36.0552 17.2276 35.0461 16.9848 34.1963 16.4992C33.3516 16.0086 32.7016 15.3156 32.2463 14.4203C31.7911 13.5199 31.5635 12.4602 31.5635 11.2411C31.5635 10.0423 31.7911 8.99018 32.2463 8.08474C32.7066 7.17424 33.349 6.46608 34.1735 5.96025C34.9981 5.44936 35.9667 5.19392 37.0795 5.19392C37.7978 5.19392 38.4756 5.31026 39.113 5.54294C39.7554 5.77056 40.3219 6.12465 40.8126 6.60519C41.3083 7.08572 41.6978 7.69778 41.981 8.44135C42.2643 9.17986 42.4059 10.06 42.4059 11.0818V11.924H32.8533V10.0727H39.7731C39.768 9.54659 39.6542 9.0787 39.4317 8.66897C39.2091 8.25419 38.898 7.92793 38.4984 7.69019C38.1039 7.45245 37.6435 7.33358 37.1175 7.33358C36.556 7.33358 36.0628 7.47016 35.6379 7.7433C35.213 8.01139 34.8817 8.36547 34.644 8.80555C34.4113 9.24056 34.2924 9.71857 34.2874 10.2396V11.8557C34.2874 12.5335 34.4113 13.1152 34.6591 13.6008C34.907 14.0814 35.2535 14.4506 35.6986 14.7086C36.1438 14.9615 36.6648 15.088 37.2616 15.088C37.6612 15.088 38.0229 15.0323 38.3467 14.921C38.6704 14.8047 38.9511 14.6352 39.1889 14.4127C39.4266 14.1901 39.6062 13.9144 39.7276 13.5856L42.2921 13.874C42.1303 14.5518 41.8217 15.1436 41.3665 15.6494C40.9163 16.1502 40.3396 16.5397 39.6365 16.8179C38.9334 17.091 38.1291 17.2276 37.2237 17.2276ZM44.7296 17V5.34567H47.3928V7.28806H47.5142C47.7266 6.6153 48.0908 6.09683 48.6068 5.73263C49.1278 5.36337 49.7221 5.17874 50.3898 5.17874C50.5416 5.17874 50.711 5.18633 50.8982 5.20151C51.0904 5.21162 51.2497 5.22933 51.3762 5.25462V7.78124C51.2599 7.74077 51.0752 7.70537 50.8223 7.67502C50.5745 7.63961 50.3342 7.6219 50.1015 7.6219C49.6007 7.6219 49.1506 7.73066 48.7509 7.94816C48.3564 8.16061 48.0453 8.45652 47.8177 8.8359C47.5901 9.21527 47.4763 9.65281 47.4763 10.1485V17H44.7296ZM62.4122 8.42617L59.9083 8.69932C59.8375 8.44641 59.7136 8.20867 59.5365 7.9861C59.3645 7.76354 59.1319 7.58397 58.8385 7.44739C58.5451 7.31082 58.1859 7.24253 57.7611 7.24253C57.1895 7.24253 56.7089 7.36646 56.3194 7.61432C55.935 7.86217 55.7453 8.18338 55.7504 8.57792C55.7453 8.91683 55.8692 9.19251 56.1222 9.40496C56.3801 9.61741 56.805 9.79192 57.3969 9.92849L59.3848 10.3534C60.4875 10.5911 61.3069 10.968 61.8431 11.4839C62.3843 11.9999 62.6575 12.6751 62.6625 13.5098C62.6575 14.2432 62.4425 14.8907 62.0176 15.4522C61.5978 16.0086 61.0135 16.4436 60.2649 16.7572C59.5163 17.0708 58.6564 17.2276 57.6852 17.2276C56.2587 17.2276 55.1105 16.9292 54.2405 16.3323C53.3704 15.7304 52.852 14.8932 52.685 13.8209L55.3634 13.5629C55.4848 14.0889 55.7428 14.486 56.1373 14.7541C56.5319 15.0222 57.0453 15.1562 57.6776 15.1562C58.3301 15.1562 58.8536 15.0222 59.2482 14.7541C59.6478 14.486 59.8476 14.1547 59.8476 13.7602C59.8476 13.4263 59.7186 13.1506 59.4606 12.9331C59.2077 12.7156 58.8132 12.5487 58.277 12.4324L56.2891 12.015C55.1712 11.7824 54.3442 11.3903 53.808 10.839C53.2718 10.2826 53.0062 9.57947 53.0113 8.72967C53.0062 8.01139 53.201 7.38922 53.5955 6.86316C53.9951 6.33204 54.549 5.92231 55.2572 5.63399C55.9704 5.34061 56.7924 5.19392 57.7231 5.19392C59.0889 5.19392 60.1637 5.48477 60.9478 6.06648C61.7369 6.64818 62.225 7.43475 62.4122 8.42617Z" fill="#1A3C6C"/>
</svg>
