<svg width="155" height="87" viewBox="0 0 155 87" fill="none" xmlns="http://www.w3.org/2000/svg">
<rect width="155" height="87" fill="#F1F8FF"/>
<path d="M31.7144 53H22.4024V51.416C22.4024 50.216 22.5464 49.208 22.8344 48.392C23.1384 47.576 23.5384 46.904 24.0344 46.376C24.5464 45.832 25.1144 45.4 25.7384 45.08L27.2984 44.288C28.0344 43.904 28.6184 43.504 29.0504 43.088C29.4984 42.672 29.7224 42.072 29.7224 41.288V40.88C29.7224 39.984 29.4664 39.336 28.9544 38.936C28.4584 38.536 27.7224 38.336 26.7464 38.336C26.2024 38.336 25.6264 38.408 25.0184 38.552C24.4104 38.68 23.7384 38.904 23.0024 39.224L22.3304 37.472C23.1304 37.104 23.8984 36.84 24.6344 36.68C25.3864 36.52 26.1064 36.44 26.7944 36.44C28.5704 36.44 29.8424 36.856 30.6104 37.688C31.3784 38.504 31.7624 39.568 31.7624 40.88V41.288C31.7624 42.152 31.5944 42.872 31.2584 43.448C30.9384 44.024 30.5064 44.512 29.9624 44.912C29.4344 45.296 28.8664 45.64 28.2584 45.944L26.6984 46.76C25.9464 47.16 25.3864 47.712 25.0184 48.416C24.6664 49.12 24.4744 50.016 24.4424 51.104H31.7144V53ZM45.9984 43.04V46.616C45.9984 48.792 45.5104 50.44 44.5344 51.56C43.5584 52.68 42.1984 53.24 40.4544 53.24C38.7104 53.24 37.3504 52.68 36.3744 51.56C35.4144 50.44 34.9344 48.792 34.9344 46.616V43.04C34.9344 40.88 35.4224 39.24 36.3984 38.12C37.3744 37 38.7264 36.44 40.4544 36.44C42.1984 36.44 43.5584 37 44.5344 38.12C45.5104 39.24 45.9984 40.88 45.9984 43.04ZM43.8864 43.04C43.8864 41.376 43.5824 40.176 42.9744 39.44C42.3824 38.704 41.5424 38.336 40.4544 38.336C39.3824 38.336 38.5424 38.704 37.9344 39.44C37.3424 40.176 37.0464 41.376 37.0464 43.04V46.616C37.0464 48.264 37.3424 49.472 37.9344 50.24C38.5424 50.992 39.3824 51.368 40.4544 51.368C41.5424 51.368 42.3824 50.992 42.9744 50.24C43.5824 49.472 43.8864 48.264 43.8864 46.616V43.04ZM58.2691 53H48.9571V51.416C48.9571 50.216 49.1011 49.208 49.3891 48.392C49.6931 47.576 50.0931 46.904 50.5891 46.376C51.1011 45.832 51.6691 45.4 52.2931 45.08L53.8531 44.288C54.5891 43.904 55.1731 43.504 55.6051 43.088C56.0531 42.672 56.2771 42.072 56.2771 41.288V40.88C56.2771 39.984 56.0211 39.336 55.5091 38.936C55.0131 38.536 54.2771 38.336 53.3011 38.336C52.7571 38.336 52.1811 38.408 51.5731 38.552C50.9651 38.68 50.2931 38.904 49.5571 39.224L48.8851 37.472C49.6851 37.104 50.4531 36.84 51.1891 36.68C51.9411 36.52 52.6611 36.44 53.3491 36.44C55.1251 36.44 56.3971 36.856 57.1651 37.688C57.9331 38.504 58.3171 39.568 58.3171 40.88V41.288C58.3171 42.152 58.1491 42.872 57.8131 43.448C57.4931 44.024 57.0611 44.512 56.5171 44.912C55.9891 45.296 55.4211 45.64 54.8131 45.944L53.2531 46.76C52.5011 47.16 51.9411 47.712 51.5731 48.416C51.2211 49.12 51.0291 50.016 50.9971 51.104H58.2691V53ZM70.105 53H60.793V51.416C60.793 50.216 60.937 49.208 61.225 48.392C61.529 47.576 61.929 46.904 62.425 46.376C62.937 45.832 63.505 45.4 64.129 45.08L65.689 44.288C66.425 43.904 67.009 43.504 67.441 43.088C67.889 42.672 68.113 42.072 68.113 41.288V40.88C68.113 39.984 67.857 39.336 67.345 38.936C66.849 38.536 66.113 38.336 65.137 38.336C64.593 38.336 64.017 38.408 63.409 38.552C62.801 38.68 62.129 38.904 61.393 39.224L60.721 37.472C61.521 37.104 62.289 36.84 63.025 36.68C63.777 36.52 64.497 36.44 65.185 36.44C66.961 36.44 68.233 36.856 69.001 37.688C69.769 38.504 70.153 39.568 70.153 40.88V41.288C70.153 42.152 69.985 42.872 69.649 43.448C69.329 44.024 68.897 44.512 68.353 44.912C67.825 45.296 67.257 45.64 66.649 45.944L65.089 46.76C64.337 47.16 63.777 47.712 63.409 48.416C63.057 49.12 62.865 50.016 62.833 51.104H70.105V53ZM72.5169 46.592V44.864H79.2369V46.592H72.5169ZM90.9175 53H81.6055V51.416C81.6055 50.216 81.7495 49.208 82.0375 48.392C82.3415 47.576 82.7415 46.904 83.2375 46.376C83.7495 45.832 84.3175 45.4 84.9415 45.08L86.5015 44.288C87.2375 43.904 87.8215 43.504 88.2535 43.088C88.7015 42.672 88.9255 42.072 88.9255 41.288V40.88C88.9255 39.984 88.6695 39.336 88.1575 38.936C87.6615 38.536 86.9255 38.336 85.9495 38.336C85.4055 38.336 84.8295 38.408 84.2215 38.552C83.6135 38.68 82.9415 38.904 82.2055 39.224L81.5335 37.472C82.3335 37.104 83.1015 36.84 83.8375 36.68C84.5895 36.52 85.3095 36.44 85.9975 36.44C87.7735 36.44 89.0455 36.856 89.8135 37.688C90.5815 38.504 90.9655 39.568 90.9655 40.88V41.288C90.9655 42.152 90.7975 42.872 90.4615 43.448C90.1415 44.024 89.7095 44.512 89.1655 44.912C88.6375 45.296 88.0695 45.64 87.4615 45.944L85.9015 46.76C85.1495 47.16 84.5895 47.712 84.2215 48.416C83.8695 49.12 83.6775 50.016 83.6455 51.104H90.9175V53ZM105.201 43.04V46.616C105.201 48.792 104.713 50.44 103.737 51.56C102.761 52.68 101.401 53.24 99.6575 53.24C97.9135 53.24 96.5535 52.68 95.5775 51.56C94.6175 50.44 94.1375 48.792 94.1375 46.616V43.04C94.1375 40.88 94.6255 39.24 95.6015 38.12C96.5775 37 97.9295 36.44 99.6575 36.44C101.401 36.44 102.761 37 103.737 38.12C104.713 39.24 105.201 40.88 105.201 43.04ZM103.089 43.04C103.089 41.376 102.785 40.176 102.177 39.44C101.585 38.704 100.745 38.336 99.6575 38.336C98.5855 38.336 97.7455 38.704 97.1375 39.44C96.5455 40.176 96.2495 41.376 96.2495 43.04V46.616C96.2495 48.264 96.5455 49.472 97.1375 50.24C97.7455 50.992 98.5855 51.368 99.6575 51.368C100.745 51.368 101.585 50.992 102.177 50.24C102.785 49.472 103.089 48.264 103.089 46.616V43.04ZM117.472 53H108.16V51.416C108.16 50.216 108.304 49.208 108.592 48.392C108.896 47.576 109.296 46.904 109.792 46.376C110.304 45.832 110.872 45.4 111.496 45.08L113.056 44.288C113.792 43.904 114.376 43.504 114.808 43.088C115.256 42.672 115.48 42.072 115.48 41.288V40.88C115.48 39.984 115.224 39.336 114.712 38.936C114.216 38.536 113.48 38.336 112.504 38.336C111.96 38.336 111.384 38.408 110.776 38.552C110.168 38.68 109.496 38.904 108.76 39.224L108.088 37.472C108.888 37.104 109.656 36.84 110.392 36.68C111.144 36.52 111.864 36.44 112.552 36.44C114.328 36.44 115.6 36.856 116.368 37.688C117.136 38.504 117.52 39.568 117.52 40.88V41.288C117.52 42.152 117.352 42.872 117.016 43.448C116.696 44.024 116.264 44.512 115.72 44.912C115.192 45.296 114.624 45.64 114.016 45.944L112.456 46.76C111.704 47.16 111.144 47.712 110.776 48.416C110.424 49.12 110.232 50.016 110.2 51.104H117.472V53ZM129.236 48.752C129.236 50.064 128.828 51.144 128.012 51.992C127.196 52.824 125.884 53.24 124.076 53.24C123.356 53.24 122.604 53.16 121.82 53C121.052 52.824 120.252 52.552 119.42 52.184L120.044 50.456C120.844 50.776 121.556 51.008 122.18 51.152C122.82 51.296 123.436 51.368 124.028 51.368C125.02 51.368 125.788 51.16 126.332 50.744C126.892 50.328 127.172 49.648 127.172 48.704V48.32C127.172 47.52 126.94 46.88 126.476 46.4C126.012 45.92 125.3 45.68 124.34 45.68H121.94V43.856H124.34C125.252 43.856 125.924 43.632 126.356 43.184C126.788 42.72 127.004 42.096 127.004 41.312V40.976C127.004 40.032 126.748 39.36 126.236 38.96C125.724 38.544 125.012 38.336 124.1 38.336C123.54 38.336 122.964 38.408 122.372 38.552C121.78 38.68 121.108 38.904 120.356 39.224L119.684 37.472C120.484 37.104 121.252 36.84 121.988 36.68C122.74 36.52 123.46 36.44 124.148 36.44C125.876 36.44 127.132 36.856 127.916 37.688C128.7 38.52 129.092 39.6 129.092 40.928V41.264C129.092 42.064 128.9 42.768 128.516 43.376C128.132 43.968 127.612 44.432 126.956 44.768C127.66 45.088 128.212 45.56 128.612 46.184C129.028 46.792 129.236 47.52 129.236 48.368V48.752Z" fill="black"/>
</svg>
