<svg width="153" height="87" viewBox="0 0 153 87" fill="none" xmlns="http://www.w3.org/2000/svg">
<rect width="153" height="87" fill="#F1F8FF"/>
<path d="M31.44 53H22.128V51.416C22.128 50.216 22.272 49.208 22.56 48.392C22.864 47.576 23.264 46.904 23.76 46.376C24.272 45.832 24.84 45.4 25.464 45.08L27.024 44.288C27.76 43.904 28.344 43.504 28.776 43.088C29.224 42.672 29.448 42.072 29.448 41.288V40.88C29.448 39.984 29.192 39.336 28.68 38.936C28.184 38.536 27.448 38.336 26.472 38.336C25.928 38.336 25.352 38.408 24.744 38.552C24.136 38.68 23.464 38.904 22.728 39.224L22.056 37.472C22.856 37.104 23.624 36.84 24.36 36.68C25.112 36.52 25.832 36.44 26.52 36.44C28.296 36.44 29.568 36.856 30.336 37.688C31.104 38.504 31.488 39.568 31.488 40.88V41.288C31.488 42.152 31.32 42.872 30.984 43.448C30.664 44.024 30.232 44.512 29.688 44.912C29.16 45.296 28.592 45.64 27.984 45.944L26.424 46.76C25.672 47.16 25.112 47.712 24.744 48.416C24.392 49.12 24.2 50.016 24.168 51.104H31.44V53ZM45.7239 43.04V46.616C45.7239 48.792 45.2359 50.44 44.2599 51.56C43.2839 52.68 41.9239 53.24 40.1799 53.24C38.4359 53.24 37.0759 52.68 36.0999 51.56C35.1399 50.44 34.6599 48.792 34.6599 46.616V43.04C34.6599 40.88 35.1479 39.24 36.1239 38.12C37.0999 37 38.4519 36.44 40.1799 36.44C41.9239 36.44 43.2839 37 44.2599 38.12C45.2359 39.24 45.7239 40.88 45.7239 43.04ZM43.6119 43.04C43.6119 41.376 43.3079 40.176 42.6999 39.44C42.1079 38.704 41.2679 38.336 40.1799 38.336C39.1079 38.336 38.2679 38.704 37.6599 39.44C37.0679 40.176 36.7719 41.376 36.7719 43.04V46.616C36.7719 48.264 37.0679 49.472 37.6599 50.24C38.2679 50.992 39.1079 51.368 40.1799 51.368C41.2679 51.368 42.1079 50.992 42.6999 50.24C43.3079 49.472 43.6119 48.264 43.6119 46.616V43.04ZM57.9947 53H48.6827V51.416C48.6827 50.216 48.8267 49.208 49.1147 48.392C49.4187 47.576 49.8187 46.904 50.3147 46.376C50.8267 45.832 51.3947 45.4 52.0187 45.08L53.5787 44.288C54.3147 43.904 54.8987 43.504 55.3307 43.088C55.7787 42.672 56.0027 42.072 56.0027 41.288V40.88C56.0027 39.984 55.7467 39.336 55.2347 38.936C54.7387 38.536 54.0027 38.336 53.0267 38.336C52.4827 38.336 51.9067 38.408 51.2987 38.552C50.6907 38.68 50.0187 38.904 49.2827 39.224L48.6107 37.472C49.4107 37.104 50.1787 36.84 50.9147 36.68C51.6667 36.52 52.3867 36.44 53.0747 36.44C54.8507 36.44 56.1227 36.856 56.8907 37.688C57.6587 38.504 58.0427 39.568 58.0427 40.88V41.288C58.0427 42.152 57.8747 42.872 57.5387 43.448C57.2187 44.024 56.7867 44.512 56.2427 44.912C55.7147 45.296 55.1467 45.64 54.5387 45.944L52.9787 46.76C52.2267 47.16 51.6667 47.712 51.2987 48.416C50.9467 49.12 50.7547 50.016 50.7227 51.104H57.9947V53ZM69.7586 48.752C69.7586 50.064 69.3506 51.144 68.5346 51.992C67.7186 52.824 66.4066 53.24 64.5986 53.24C63.8786 53.24 63.1266 53.16 62.3426 53C61.5746 52.824 60.7746 52.552 59.9426 52.184L60.5666 50.456C61.3666 50.776 62.0786 51.008 62.7026 51.152C63.3426 51.296 63.9586 51.368 64.5506 51.368C65.5426 51.368 66.3106 51.16 66.8546 50.744C67.4146 50.328 67.6946 49.648 67.6946 48.704V48.32C67.6946 47.52 67.4626 46.88 66.9986 46.4C66.5346 45.92 65.8226 45.68 64.8626 45.68H62.4626V43.856H64.8626C65.7746 43.856 66.4466 43.632 66.8786 43.184C67.3106 42.72 67.5266 42.096 67.5266 41.312V40.976C67.5266 40.032 67.2706 39.36 66.7586 38.96C66.2466 38.544 65.5346 38.336 64.6226 38.336C64.0626 38.336 63.4866 38.408 62.8946 38.552C62.3026 38.68 61.6306 38.904 60.8786 39.224L60.2066 37.472C61.0066 37.104 61.7746 36.84 62.5106 36.68C63.2626 36.52 63.9826 36.44 64.6706 36.44C66.3986 36.44 67.6546 36.856 68.4386 37.688C69.2226 38.52 69.6146 39.6 69.6146 40.928V41.264C69.6146 42.064 69.4226 42.768 69.0386 43.376C68.6546 43.968 68.1346 44.432 67.4786 44.768C68.1826 45.088 68.7346 45.56 69.1346 46.184C69.5506 46.792 69.7586 47.52 69.7586 48.368V48.752ZM72.6878 46.592V44.864H79.4078V46.592H72.6878ZM91.0884 53H81.7764V51.416C81.7764 50.216 81.9204 49.208 82.2084 48.392C82.5124 47.576 82.9124 46.904 83.4084 46.376C83.9204 45.832 84.4884 45.4 85.1124 45.08L86.6724 44.288C87.4084 43.904 87.9924 43.504 88.4244 43.088C88.8724 42.672 89.0964 42.072 89.0964 41.288V40.88C89.0964 39.984 88.8404 39.336 88.3284 38.936C87.8324 38.536 87.0964 38.336 86.1204 38.336C85.5764 38.336 85.0004 38.408 84.3924 38.552C83.7844 38.68 83.1124 38.904 82.3764 39.224L81.7044 37.472C82.5044 37.104 83.2724 36.84 84.0084 36.68C84.7604 36.52 85.4804 36.44 86.1684 36.44C87.9444 36.44 89.2164 36.856 89.9844 37.688C90.7524 38.504 91.1364 39.568 91.1364 40.88V41.288C91.1364 42.152 90.9684 42.872 90.6324 43.448C90.3124 44.024 89.8804 44.512 89.3364 44.912C88.8084 45.296 88.2404 45.64 87.6324 45.944L86.0724 46.76C85.3204 47.16 84.7604 47.712 84.3924 48.416C84.0404 49.12 83.8484 50.016 83.8164 51.104H91.0884V53ZM105.372 43.04V46.616C105.372 48.792 104.884 50.44 103.908 51.56C102.932 52.68 101.572 53.24 99.8284 53.24C98.0844 53.24 96.7244 52.68 95.7484 51.56C94.7884 50.44 94.3084 48.792 94.3084 46.616V43.04C94.3084 40.88 94.7964 39.24 95.7724 38.12C96.7484 37 98.1004 36.44 99.8284 36.44C101.572 36.44 102.932 37 103.908 38.12C104.884 39.24 105.372 40.88 105.372 43.04ZM103.26 43.04C103.26 41.376 102.956 40.176 102.348 39.44C101.756 38.704 100.916 38.336 99.8284 38.336C98.7564 38.336 97.9164 38.704 97.3084 39.44C96.7164 40.176 96.4204 41.376 96.4204 43.04V46.616C96.4204 48.264 96.7164 49.472 97.3084 50.24C97.9164 50.992 98.7564 51.368 99.8284 51.368C100.916 51.368 101.756 50.992 102.348 50.24C102.956 49.472 103.26 48.264 103.26 46.616V43.04ZM117.643 53H108.331V51.416C108.331 50.216 108.475 49.208 108.763 48.392C109.067 47.576 109.467 46.904 109.963 46.376C110.475 45.832 111.043 45.4 111.667 45.08L113.227 44.288C113.963 43.904 114.547 43.504 114.979 43.088C115.427 42.672 115.651 42.072 115.651 41.288V40.88C115.651 39.984 115.395 39.336 114.883 38.936C114.387 38.536 113.651 38.336 112.675 38.336C112.131 38.336 111.555 38.408 110.947 38.552C110.339 38.68 109.667 38.904 108.931 39.224L108.259 37.472C109.059 37.104 109.827 36.84 110.563 36.68C111.315 36.52 112.035 36.44 112.723 36.44C114.499 36.44 115.771 36.856 116.539 37.688C117.307 38.504 117.691 39.568 117.691 40.88V41.288C117.691 42.152 117.523 42.872 117.187 43.448C116.867 44.024 116.435 44.512 115.891 44.912C115.363 45.296 114.795 45.64 114.187 45.944L112.627 46.76C111.875 47.16 111.315 47.712 110.947 48.416C110.595 49.12 110.403 50.016 110.371 51.104H117.643V53ZM130.442 49.088H128.642V53H126.674V49.088H119.666V47.48C120.898 45.608 122.01 43.784 123.002 42.008C124.01 40.232 124.842 38.456 125.498 36.68H127.706C127.034 38.424 126.218 40.16 125.258 41.888C124.314 43.616 123.226 45.4 121.994 47.24H126.674V44.264H128.642V47.24H130.442V49.088Z" fill="black"/>
</svg>
