<svg width="169" height="23" viewBox="0 0 169 23" fill="none" xmlns="http://www.w3.org/2000/svg">
<path d="M7.55303 0.527266H9.59792V12.5987C9.59792 13.6761 9.40002 14.5914 9.00424 15.3445C8.60845 16.0976 8.05051 16.6693 7.3304 17.0595C6.61029 17.4498 5.761 17.645 4.78253 17.645C3.85903 17.645 3.03723 17.4773 2.31712 17.142C1.59701 16.8012 1.03082 16.3174 0.618539 15.6908C0.206263 15.0641 0.000124723 14.3193 0.000124723 13.4563H2.01203C2.01203 13.9345 2.13022 14.3523 2.36659 14.7096C2.60846 15.0614 2.93828 15.3362 3.35605 15.5341C3.77383 15.732 4.24932 15.831 4.78253 15.831C5.37071 15.831 5.87094 15.7073 6.28322 15.4599C6.69549 15.2125 7.00882 14.8497 7.22321 14.3715C7.44309 13.8878 7.55303 13.2968 7.55303 12.5987V0.527266ZM18.5773 17.678C17.4339 17.678 16.4307 17.4059 15.5677 16.8617C14.7101 16.3174 14.0395 15.5561 13.5558 14.5776C13.0775 13.5992 12.8384 12.4558 12.8384 11.1475C12.8384 9.82822 13.0775 8.67659 13.5558 7.69263C14.0395 6.70866 14.7101 5.94458 15.5677 5.40037C16.4307 4.85617 17.4339 4.58406 18.5773 4.58406C19.7207 4.58406 20.7211 4.85617 21.5787 5.40037C22.4417 5.94458 23.1123 6.70866 23.5906 7.69263C24.0743 8.67659 24.3162 9.82822 24.3162 11.1475C24.3162 12.4558 24.0743 13.5992 23.5906 14.5776C23.1123 15.5561 22.4417 16.3174 21.5787 16.8617C20.7211 17.4059 19.7207 17.678 18.5773 17.678ZM18.5773 15.9299C19.4458 15.9299 20.1604 15.7073 20.7211 15.262C21.2818 14.8168 21.6969 14.2313 21.9662 13.5057C22.2356 12.7801 22.3702 11.994 22.3702 11.1475C22.3702 10.301 22.2356 9.51214 21.9662 8.78104C21.6969 8.04993 21.2818 7.459 20.7211 7.00825C20.1604 6.55749 19.4458 6.33212 18.5773 6.33212C17.7088 6.33212 16.9942 6.55749 16.4335 7.00825C15.8728 7.459 15.4577 8.04993 15.1884 8.78104C14.919 9.51214 14.7844 10.301 14.7844 11.1475C14.7844 11.994 14.919 12.7801 15.1884 13.5057C15.4577 14.2313 15.8728 14.8168 16.4335 15.262C16.9942 15.7073 17.7088 15.9299 18.5773 15.9299ZM27.2866 17.4141V4.74897H29.2326V17.4141H27.2866ZM28.2761 2.63812C27.8968 2.63812 27.5697 2.50894 27.2949 2.25058C27.0255 1.99222 26.8908 1.68164 26.8908 1.31884C26.8908 0.956034 27.0255 0.645452 27.2949 0.387092C27.5697 0.128732 27.8968 -0.000447374 28.2761 -0.000447374C28.6554 -0.000447374 28.9797 0.128732 29.2491 0.387092C29.5239 0.645452 29.6613 0.956034 29.6613 1.31884C29.6613 1.68164 29.5239 1.99222 29.2491 2.25058C28.9797 2.50894 28.6554 2.63812 28.2761 2.63812ZM34.7426 9.79524V17.4141H32.7967V4.74897H34.6767V6.7279H34.8416C35.1384 6.08475 35.5892 5.56803 36.1939 5.17774C36.7985 4.78196 37.5791 4.58406 38.5356 4.58406C39.3931 4.58406 40.1435 4.75997 40.7866 5.11178C41.4298 5.45809 41.93 5.9858 42.2873 6.69492C42.6446 7.39854 42.8233 8.28905 42.8233 9.36647V17.4141H40.8773V9.4984C40.8773 8.50344 40.619 7.72836 40.1022 7.17316C39.5855 6.61246 38.8764 6.33212 37.9749 6.33212C37.3537 6.33212 36.7985 6.46679 36.3093 6.73615C35.8256 7.0055 35.4435 7.39854 35.1632 7.91526C34.8828 8.43198 34.7426 9.05864 34.7426 9.79524ZM51.8872 4.74897V6.39808H45.3237V4.74897H51.8872ZM47.2367 1.71462H49.1826V13.7861C49.1826 14.3358 49.2623 14.748 49.4217 15.0229C49.5867 15.2923 49.7955 15.4737 50.0484 15.5671C50.3068 15.6551 50.5789 15.699 50.8647 15.699C51.0791 15.699 51.255 15.688 51.3924 15.6661C51.5299 15.6386 51.6398 15.6166 51.7222 15.6001L52.118 17.3481C51.9861 17.3976 51.802 17.4471 51.5656 17.4966C51.3292 17.5515 51.0296 17.579 50.6668 17.579C50.1171 17.579 49.5784 17.4608 49.0507 17.2245C48.5285 16.9881 48.0942 16.628 47.7479 16.1443C47.4071 15.6606 47.2367 15.0504 47.2367 14.3138V1.71462ZM61.6169 9.26752V11.0815H54.2289V9.26752H61.6169ZM74.5397 4.74897C74.4407 3.91343 74.0395 3.26478 73.3358 2.80303C72.6322 2.34128 71.7692 2.11041 70.7467 2.11041C69.9991 2.11041 69.345 2.23134 68.7843 2.47321C68.2291 2.71508 67.7948 3.04765 67.4815 3.47092C67.1737 3.89419 67.0198 4.37518 67.0198 4.91388C67.0198 5.36464 67.127 5.75218 67.3413 6.0765C67.5612 6.39533 67.8416 6.66194 68.1824 6.87632C68.5232 7.08521 68.8805 7.25836 69.2543 7.39579C69.6281 7.52772 69.9717 7.63491 70.285 7.71736L72.0001 8.17911C72.4398 8.29455 72.9291 8.45396 73.4678 8.65735C74.012 8.86074 74.5314 9.13834 75.0262 9.49015C75.5264 9.83646 75.9387 10.2817 76.263 10.8259C76.5873 11.3701 76.7495 12.038 76.7495 12.8296C76.7495 13.7421 76.5104 14.5666 76.0321 15.3032C75.5594 16.0398 74.8668 16.6253 73.9542 17.0595C73.0472 17.4938 71.9451 17.7109 70.6478 17.7109C69.4384 17.7109 68.3913 17.5158 67.5062 17.1255C66.6267 16.7352 65.9341 16.191 65.4284 15.4929C64.9281 14.7948 64.645 13.984 64.5791 13.0605H66.6899C66.7449 13.6981 66.9593 14.2258 67.3331 14.6436C67.7124 15.0559 68.1906 15.3637 68.7678 15.5671C69.3505 15.765 69.9772 15.8639 70.6478 15.8639C71.4284 15.8639 72.1292 15.7375 72.7504 15.4846C73.3716 15.2263 73.8635 14.869 74.2263 14.4127C74.5892 13.951 74.7706 13.4123 74.7706 12.7966C74.7706 12.2359 74.6139 11.7797 74.3006 11.4279C73.9872 11.076 73.575 10.7902 73.0637 10.5703C72.5525 10.3504 72.0001 10.158 71.4064 9.99313L69.3285 9.39945C68.0092 9.02016 66.9648 8.4787 66.1952 7.77508C65.4256 7.07146 65.0408 6.15071 65.0408 5.01283C65.0408 4.06734 65.2964 3.24279 65.8077 2.53917C66.3244 1.83006 67.017 1.28036 67.8855 0.890069C68.7596 0.494284 69.7353 0.296391 70.8127 0.296391C71.9011 0.296391 72.8686 0.491535 73.7151 0.881823C74.5617 1.26661 75.2323 1.79433 75.727 2.46496C76.2273 3.1356 76.4911 3.89694 76.5186 4.74897H74.5397ZM85.1578 17.678C83.9375 17.678 82.8848 17.4086 81.9998 16.8699C81.1203 16.3257 80.4414 15.5671 79.9632 14.5941C79.4904 13.6157 79.2541 12.4778 79.2541 11.1805C79.2541 9.88319 79.4904 8.73981 79.9632 7.75035C80.4414 6.75539 81.1065 5.98031 81.9586 5.42511C82.8161 4.86441 83.8166 4.58406 84.96 4.58406C85.6196 4.58406 86.271 4.694 86.9141 4.91388C87.5573 5.13377 88.1427 5.49107 88.6704 5.9858C89.1982 6.47504 89.6187 7.12369 89.932 7.93175C90.2453 8.73981 90.402 9.73477 90.402 10.9166V11.7412H80.6393V10.0591H88.4231C88.4231 9.34448 88.2802 8.70683 87.9943 8.14613C87.714 7.58544 87.3127 7.14293 86.7905 6.8186C86.2737 6.49428 85.6636 6.33212 84.96 6.33212C84.1849 6.33212 83.5142 6.52451 82.948 6.9093C82.3874 7.2886 81.9558 7.78333 81.6535 8.3935C81.3512 9.00367 81.2 9.65781 81.2 10.3559V11.4773C81.2 12.4338 81.3649 13.2446 81.6947 13.9098C82.03 14.5694 82.4945 15.0724 83.0882 15.4187C83.6819 15.7595 84.3718 15.9299 85.1578 15.9299C85.6691 15.9299 86.1308 15.8584 86.5431 15.7155C86.9609 15.5671 87.3209 15.3472 87.6233 15.0559C87.9256 14.759 88.1592 14.3907 88.3241 13.951L90.2041 14.4787C90.0062 15.1163 89.6736 15.677 89.2064 16.1608C88.7392 16.639 88.162 17.0128 87.4748 17.2822C86.7877 17.546 86.0154 17.678 85.1578 17.678ZM98.5074 17.678C97.32 17.678 96.2976 17.3976 95.44 16.8369C94.5825 16.2762 93.9228 15.5039 93.4611 14.5199C92.9993 13.536 92.7685 12.4118 92.7685 11.1475C92.7685 9.8612 93.0048 8.72607 93.4776 7.7421C93.9558 6.75264 94.621 5.98031 95.473 5.42511C96.3305 4.86441 97.331 4.58406 98.4744 4.58406C99.3649 4.58406 100.167 4.74898 100.882 5.0788C101.597 5.40862 102.182 5.87037 102.638 6.46404C103.095 7.05772 103.378 7.75035 103.488 8.54192H101.542C101.393 7.96473 101.063 7.45351 100.552 7.00825C100.047 6.55749 99.3649 6.33212 98.5074 6.33212C97.7488 6.33212 97.0836 6.53001 96.5119 6.92579C95.9457 7.31608 95.5032 7.86853 95.1844 8.58314C94.8711 9.29226 94.7144 10.1251 94.7144 11.0815C94.7144 12.06 94.8683 12.912 95.1762 13.6377C95.4895 14.3633 95.9293 14.9267 96.4955 15.328C97.0671 15.7293 97.7378 15.9299 98.5074 15.9299C99.0131 15.9299 99.4721 15.842 99.8844 15.6661C100.297 15.4901 100.646 15.2373 100.932 14.9075C101.217 14.5776 101.421 14.1819 101.542 13.7201H103.488C103.378 14.4677 103.106 15.1411 102.671 15.7403C102.243 16.3339 101.674 16.8067 100.965 17.1585C100.261 17.5048 99.4419 17.678 98.5074 17.678ZM106.332 17.4141V4.74897H108.212V6.66194H108.344C108.575 6.03528 108.993 5.5268 109.598 5.13651C110.202 4.74623 110.884 4.55108 111.642 4.55108C111.785 4.55108 111.964 4.55383 112.178 4.55933C112.393 4.56482 112.555 4.57307 112.665 4.58406V6.56299C112.599 6.5465 112.448 6.52176 112.211 6.48878C111.981 6.4503 111.736 6.43106 111.478 6.43106C110.862 6.43106 110.312 6.56024 109.828 6.8186C109.35 7.07146 108.971 7.42327 108.691 7.87403C108.416 8.31929 108.278 8.82776 108.278 9.39945V17.4141H106.332ZM119.896 17.678C118.676 17.678 117.623 17.4086 116.738 16.8699C115.859 16.3257 115.18 15.5671 114.702 14.5941C114.229 13.6157 113.992 12.4778 113.992 11.1805C113.992 9.88319 114.229 8.73981 114.702 7.75035C115.18 6.75539 115.845 5.98031 116.697 5.42511C117.555 4.86441 118.555 4.58406 119.698 4.58406C120.358 4.58406 121.009 4.694 121.653 4.91388C122.296 5.13377 122.881 5.49107 123.409 5.9858C123.937 6.47504 124.357 7.12369 124.67 7.93175C124.984 8.73981 125.14 9.73477 125.14 10.9166V11.7412H115.378V10.0591H123.161C123.161 9.34448 123.019 8.70683 122.733 8.14613C122.452 7.58544 122.051 7.14293 121.529 6.8186C121.012 6.49428 120.402 6.33212 119.698 6.33212C118.923 6.33212 118.253 6.52451 117.686 6.9093C117.126 7.2886 116.694 7.78333 116.392 8.3935C116.09 9.00367 115.938 9.65781 115.938 10.3559V11.4773C115.938 12.4338 116.103 13.2446 116.433 13.9098C116.768 14.5694 117.233 15.0724 117.827 15.4187C118.42 15.7595 119.11 15.9299 119.896 15.9299C120.407 15.9299 120.869 15.8584 121.281 15.7155C121.699 15.5671 122.059 15.3472 122.362 15.0559C122.664 14.759 122.898 14.3907 123.063 13.951L124.943 14.4787C124.745 15.1163 124.412 15.677 123.945 16.1608C123.478 16.639 122.9 17.0128 122.213 17.2822C121.526 17.546 120.754 17.678 119.896 17.678ZM133.609 4.74897V6.39808H127.045V4.74897H133.609ZM128.958 1.71462H130.904V13.7861C130.904 14.3358 130.984 14.748 131.143 15.0229C131.308 15.2923 131.517 15.4737 131.77 15.5671C132.028 15.6551 132.3 15.699 132.586 15.699C132.801 15.699 132.976 15.688 133.114 15.6661C133.251 15.6386 133.361 15.6166 133.444 15.6001L133.839 17.3481C133.708 17.3976 133.523 17.4471 133.287 17.4966C133.051 17.5515 132.751 17.579 132.388 17.579C131.839 17.579 131.3 17.4608 130.772 17.2245C130.25 16.9881 129.816 16.628 129.469 16.1443C129.128 15.6606 128.958 15.0504 128.958 14.3138V1.71462ZM140.263 17.7109C139.46 17.7109 138.732 17.5598 138.078 17.2574C137.423 16.9496 136.904 16.5071 136.519 15.9299C136.134 15.3472 135.942 14.6436 135.942 13.8191C135.942 13.0934 136.085 12.5053 136.371 12.0545C136.657 11.5983 137.039 11.241 137.517 10.9826C137.995 10.7242 138.523 10.5318 139.1 10.4054C139.683 10.2735 140.268 10.169 140.856 10.0921C141.626 9.99313 142.25 9.91892 142.728 9.86945C143.212 9.81448 143.564 9.72378 143.784 9.59734C144.009 9.47091 144.122 9.25103 144.122 8.9377V8.87174C144.122 8.05818 143.899 7.42602 143.454 6.97527C143.014 6.52451 142.346 6.29913 141.45 6.29913C140.521 6.29913 139.793 6.50252 139.265 6.9093C138.737 7.31608 138.366 7.75035 138.152 8.2121L136.305 7.55245C136.635 6.78287 137.074 6.1837 137.624 5.75493C138.179 5.32066 138.784 5.01833 139.438 4.84792C140.098 4.67202 140.746 4.58406 141.384 4.58406C141.791 4.58406 142.258 4.63354 142.786 4.73248C143.319 4.82593 143.833 5.02108 144.328 5.31792C144.828 5.61476 145.243 6.06276 145.573 6.66194C145.903 7.26111 146.068 8.06368 146.068 9.06963V17.4141H144.122V15.699H144.023C143.891 15.9739 143.671 16.268 143.363 16.5813C143.055 16.8946 142.646 17.1612 142.134 17.3811C141.623 17.601 140.999 17.7109 140.263 17.7109ZM140.56 15.9629C141.329 15.9629 141.978 15.8117 142.505 15.5094C143.039 15.2071 143.44 14.8168 143.709 14.3385C143.984 13.8603 144.122 13.3573 144.122 12.8296V11.0486C144.039 11.1475 143.858 11.2382 143.577 11.3207C143.303 11.3976 142.984 11.4663 142.621 11.5268C142.264 11.5818 141.915 11.6312 141.574 11.6752C141.238 11.7137 140.966 11.7467 140.757 11.7742C140.252 11.8401 139.779 11.9473 139.339 12.0957C138.905 12.2387 138.553 12.4558 138.284 12.7471C138.02 13.033 137.888 13.4233 137.888 13.918C137.888 14.5941 138.138 15.1054 138.638 15.4517C139.144 15.7925 139.784 15.9629 140.56 15.9629ZM149.619 17.4141V4.74897H151.499V6.66194H151.631C151.862 6.03528 152.28 5.5268 152.885 5.13651C153.489 4.74623 154.171 4.55108 154.929 4.55108C155.072 4.55108 155.251 4.55383 155.465 4.55933C155.68 4.56482 155.842 4.57307 155.952 4.58406V6.56299C155.886 6.5465 155.735 6.52176 155.498 6.48878C155.267 6.4503 155.023 6.43106 154.765 6.43106C154.149 6.43106 153.599 6.56024 153.115 6.8186C152.637 7.07146 152.258 7.42327 151.978 7.87403C151.703 8.31929 151.565 8.82776 151.565 9.39945V17.4141H149.619ZM159.897 22.1635C159.568 22.1635 159.273 22.136 159.015 22.0811C158.757 22.0316 158.578 21.9821 158.479 21.9327L158.974 20.2176C159.447 20.3385 159.864 20.3825 160.227 20.3495C160.59 20.3165 160.912 20.1544 161.192 19.863C161.478 19.5772 161.739 19.1127 161.975 18.4695L162.338 17.4801L157.655 4.74897H159.765L163.262 14.8415H163.393L166.89 4.74897H169L163.624 19.2611C163.382 19.9152 163.083 20.4567 162.726 20.8855C162.368 21.3197 161.953 21.6413 161.48 21.8502C161.013 22.0591 160.486 22.1635 159.897 22.1635Z" fill="black"/>
</svg>
