<svg width="166" height="18" viewBox="0 0 166 18" fill="none" xmlns="http://www.w3.org/2000/svg">
<path d="M7.57699 0.528938H9.62836V12.6387C9.62836 13.7195 9.42984 14.6377 9.0328 15.3932C8.63576 16.1486 8.07604 16.7221 7.35365 17.1137C6.63126 17.5052 5.77927 17.7009 4.7977 17.7009C3.87127 17.7009 3.04686 17.5328 2.32447 17.1964C1.60207 16.8545 1.03409 16.3692 0.620501 15.7406C0.206917 15.1119 0.000125118 14.3647 0.000125118 13.4989H2.01842C2.01842 13.9787 2.13698 14.3978 2.3741 14.7562C2.61673 15.1092 2.9476 15.3849 3.3667 15.5834C3.7858 15.7819 4.2628 15.8812 4.7977 15.8812C5.38775 15.8812 5.88956 15.7571 6.30315 15.509C6.71673 15.2608 7.03105 14.8968 7.24612 14.4171C7.4667 13.9318 7.57699 13.339 7.57699 12.6387V0.528938ZM18.6362 17.734C17.4892 17.734 16.4828 17.4611 15.6171 16.9151C14.7568 16.3692 14.084 15.6055 13.5988 14.6239C13.119 13.6423 12.8791 12.4953 12.8791 11.1829C12.8791 9.8594 13.119 8.70412 13.5988 7.71703C14.084 6.72994 14.7568 5.96343 15.6171 5.4175C16.4828 4.87157 17.4892 4.59861 18.6362 4.59861C19.7832 4.59861 20.7869 4.87157 21.6471 5.4175C22.5129 5.96343 23.1856 6.72994 23.6654 7.71703C24.1507 8.70412 24.3933 9.8594 24.3933 11.1829C24.3933 12.4953 24.1507 13.6423 23.6654 14.6239C23.1856 15.6055 22.5129 16.3692 21.6471 16.9151C20.7869 17.4611 19.7832 17.734 18.6362 17.734ZM18.6362 15.9804C19.5075 15.9804 20.2244 15.7571 20.7869 15.3104C21.3493 14.8638 21.7657 14.2765 22.0359 13.5486C22.3061 12.8207 22.4412 12.0321 22.4412 11.1829C22.4412 10.3336 22.3061 9.54231 22.0359 8.80889C21.7657 8.07547 21.3493 7.48267 20.7869 7.03048C20.2244 6.57829 19.5075 6.3522 18.6362 6.3522C17.7649 6.3522 17.0481 6.57829 16.4856 7.03048C15.9231 7.48267 15.5068 8.07547 15.2366 8.80889C14.9664 9.54231 14.8313 10.3336 14.8313 11.1829C14.8313 12.0321 14.9664 12.8207 15.2366 13.5486C15.5068 14.2765 15.9231 14.8638 16.4856 15.3104C17.0481 15.7571 17.7649 15.9804 18.6362 15.9804ZM27.3732 17.4693V4.76404H29.3253V17.4693H27.3732ZM28.3658 2.64649C27.9853 2.64649 27.6572 2.5169 27.3815 2.25772C27.1113 1.99854 26.9761 1.68697 26.9761 1.32302C26.9761 0.959066 27.1113 0.647499 27.3815 0.38832C27.6572 0.129141 27.9853 -0.000448793 28.3658 -0.000448793C28.7463 -0.000448793 29.0716 0.129141 29.3418 0.38832C29.6176 0.647499 29.7554 0.959066 29.7554 1.32302C29.7554 1.68697 29.6176 1.99854 29.3418 2.25772C29.0716 2.5169 28.7463 2.64649 28.3658 2.64649ZM34.8529 9.82631V17.4693H32.9007V4.76404H34.7867V6.74924H34.9521C35.2499 6.10405 35.7021 5.58569 36.3087 5.19417C36.9153 4.79713 37.6983 4.59861 38.6578 4.59861C39.5181 4.59861 40.2708 4.77507 40.916 5.12799C41.5612 5.4754 42.063 6.00479 42.4214 6.71616C42.7799 7.42201 42.9591 8.31535 42.9591 9.39618V17.4693H41.007V9.52853C41.007 8.53041 40.7478 7.75287 40.2295 7.19591C39.7111 6.63344 38.9997 6.3522 38.0954 6.3522C37.4722 6.3522 36.9153 6.48731 36.4245 6.75751C35.9392 7.02772 35.5559 7.42201 35.2747 7.94036C34.9935 8.45872 34.8529 9.08737 34.8529 9.82631ZM52.0517 4.76404V6.41838H45.4675V4.76404H52.0517ZM47.3865 1.72006H49.3386V13.8298C49.3386 14.3812 49.4186 14.7948 49.5785 15.0706C49.744 15.3408 49.9535 15.5227 50.2072 15.6165C50.4663 15.7047 50.7393 15.7488 51.0261 15.7488C51.2411 15.7488 51.4176 15.7378 51.5554 15.7157C51.6933 15.6882 51.8036 15.6661 51.8863 15.6496L52.2834 17.4032C52.151 17.4528 51.9663 17.5024 51.7292 17.5521C51.492 17.6072 51.1915 17.6348 50.8275 17.6348C50.2761 17.6348 49.7357 17.5162 49.2063 17.2791C48.6824 17.042 48.2468 16.6808 47.8994 16.1955C47.5575 15.7102 47.3865 15.0981 47.3865 14.3592V1.72006ZM61.8123 9.29692V11.1167H54.4009V9.29692H61.8123ZM62.8566 2.34871V0.528938H75.5619V2.34871H70.235V17.4693H68.1836V2.34871H62.8566ZM77.1439 17.4693V4.76404H79.0298V6.68307H79.1622C79.3938 6.05442 79.8129 5.54433 80.4195 5.15281C81.0261 4.76128 81.7099 4.56552 82.4709 4.56552C82.6142 4.56552 82.7935 4.56828 83.0085 4.57379C83.2236 4.57931 83.3863 4.58758 83.4966 4.59861V6.58381C83.4304 6.56727 83.2787 6.54245 83.0416 6.50936C82.81 6.47076 82.5646 6.45146 82.3054 6.45146C81.6878 6.45146 81.1364 6.58105 80.6511 6.84023C80.1713 7.0939 79.7908 7.44682 79.5096 7.89901C79.2339 8.34568 79.096 8.85576 79.096 9.42927V17.4693H77.1439ZM90.7508 17.734C89.5266 17.734 88.4706 17.4638 87.5828 16.9234C86.7004 16.3775 86.0194 15.6165 85.5397 14.6404C85.0654 13.6589 84.8283 12.5174 84.8283 11.216C84.8283 9.91454 85.0654 8.76753 85.5397 7.77493C86.0194 6.77682 86.6867 5.99928 87.5414 5.44232C88.4017 4.87984 89.4053 4.59861 90.5523 4.59861C91.214 4.59861 91.8675 4.7089 92.5127 4.92947C93.1579 5.15005 93.7452 5.50849 94.2745 6.00479C94.8039 6.49558 95.2258 7.14628 95.5401 7.95691C95.8544 8.76753 96.0116 9.76565 96.0116 10.9513V11.7784H86.2179V10.091H94.0264C94.0264 9.37412 93.883 8.73445 93.5963 8.17197C93.315 7.6095 92.9125 7.16558 92.3886 6.84023C91.8702 6.51488 91.2581 6.3522 90.5523 6.3522C89.7748 6.3522 89.102 6.54521 88.534 6.93122C87.9715 7.31172 87.5386 7.80802 87.2353 8.42012C86.9321 9.03223 86.7804 9.68845 86.7804 10.3888V11.5137C86.7804 12.4732 86.9458 13.2866 87.2767 13.9539C87.6131 14.6156 88.0791 15.1202 88.6746 15.4676C89.2702 15.8095 89.9622 15.9804 90.7508 15.9804C91.2637 15.9804 91.7269 15.9088 92.1405 15.7654C92.5596 15.6165 92.9207 15.3959 93.224 15.1036C93.5273 14.8059 93.7617 14.4364 93.9271 13.9952L95.8131 14.5246C95.6146 15.1643 95.2809 15.7268 94.8122 16.212C94.3435 16.6918 93.7645 17.0668 93.0752 17.337C92.3858 17.6017 91.6111 17.734 90.7508 17.734ZM102.72 17.7671C101.915 17.7671 101.184 17.6155 100.528 17.3122C99.8717 17.0034 99.3506 16.5595 98.9646 15.9804C98.5786 15.3959 98.3856 14.6901 98.3856 13.8629C98.3856 13.135 98.529 12.5449 98.8157 12.0927C99.1025 11.635 99.4857 11.2766 99.9655 11.0174C100.445 10.7583 100.975 10.5652 101.554 10.4384C102.138 10.3061 102.725 10.2013 103.315 10.1241C104.088 10.0248 104.713 9.95038 105.193 9.90075C105.678 9.84561 106.031 9.75462 106.252 9.62779C106.478 9.50096 106.591 9.28038 106.591 8.96605V8.89988C106.591 8.08374 106.368 7.44958 105.921 6.99739C105.48 6.54521 104.81 6.31912 103.911 6.31912C102.979 6.31912 102.248 6.52315 101.719 6.93122C101.19 7.33929 100.817 7.77493 100.602 8.23815L98.7495 7.57641C99.0804 6.80439 99.5216 6.20331 100.073 5.77318C100.63 5.33754 101.237 5.03425 101.893 4.8633C102.555 4.68684 103.205 4.59861 103.845 4.59861C104.253 4.59861 104.722 4.64824 105.251 4.7475C105.786 4.84124 106.302 5.037 106.798 5.33478C107.3 5.63257 107.716 6.08199 108.047 6.68307C108.378 7.28415 108.543 8.08926 108.543 9.0984V17.4693H106.591V15.7488H106.492C106.359 16.0246 106.139 16.3196 105.83 16.6339C105.521 16.9482 105.11 17.2157 104.598 17.4363C104.085 17.6568 103.459 17.7671 102.72 17.7671ZM103.018 16.0135C103.79 16.0135 104.44 15.8619 104.97 15.5586C105.505 15.2553 105.907 14.8638 106.178 14.384C106.453 13.9042 106.591 13.3997 106.591 12.8703V11.0836C106.508 11.1829 106.326 11.2739 106.045 11.3566C105.769 11.4338 105.45 11.5027 105.086 11.5634C104.727 11.6185 104.377 11.6681 104.035 11.7123C103.699 11.7509 103.426 11.7839 103.216 11.8115C102.709 11.8777 102.235 11.9852 101.794 12.1341C101.358 12.2775 101.005 12.4953 100.735 12.7876C100.47 13.0743 100.338 13.4658 100.338 13.9621C100.338 14.6404 100.589 15.1533 101.09 15.5007C101.598 15.8426 102.24 16.0135 103.018 16.0135ZM121.106 7.6095L119.352 8.1058C119.242 7.81353 119.079 7.52954 118.864 7.25382C118.655 6.97258 118.368 6.74097 118.004 6.55899C117.64 6.37702 117.174 6.28603 116.606 6.28603C115.828 6.28603 115.181 6.46525 114.662 6.82369C114.149 7.17661 113.893 7.62604 113.893 8.17197C113.893 8.65724 114.069 9.0405 114.422 9.32174C114.775 9.60297 115.327 9.83734 116.077 10.0248L117.963 10.488C119.099 10.7638 119.945 11.1856 120.502 11.7536C121.059 12.3161 121.337 13.0412 121.337 13.9291C121.337 14.657 121.128 15.3077 120.709 15.8812C120.295 16.4547 119.716 16.9069 118.972 17.2377C118.227 17.5686 117.362 17.734 116.374 17.734C115.079 17.734 114.006 17.4528 113.157 16.8903C112.308 16.3279 111.77 15.5062 111.544 14.4254L113.397 13.9621C113.573 14.6459 113.907 15.1588 114.397 15.5007C114.894 15.8426 115.542 16.0135 116.341 16.0135C117.251 16.0135 117.974 15.8205 118.509 15.4345C119.049 15.043 119.319 14.5743 119.319 14.0283C119.319 13.5872 119.165 13.2177 118.856 12.9199C118.547 12.6166 118.073 12.3905 117.433 12.2416L115.316 11.7453C114.152 11.4696 113.297 11.0422 112.751 10.4632C112.211 9.8787 111.941 9.14803 111.941 8.27123C111.941 7.55435 112.142 6.92019 112.545 6.36875C112.953 5.8173 113.507 5.38442 114.207 5.07009C114.913 4.75577 115.713 4.59861 116.606 4.59861C117.863 4.59861 118.85 4.87433 119.567 5.42577C120.29 5.97722 120.803 6.70513 121.106 7.6095ZM132.283 12.2747V4.76404H134.235V17.4693H132.283V15.3187H132.151C131.853 15.9639 131.39 16.5126 130.761 16.9648C130.132 17.4114 129.338 17.6348 128.379 17.6348C127.585 17.6348 126.879 17.4611 126.261 17.1137C125.644 16.7607 125.158 16.2313 124.805 15.5255C124.452 14.8141 124.276 13.918 124.276 12.8372V4.76404H126.228V12.7049C126.228 13.6313 126.487 14.3702 127.006 14.9217C127.529 15.4731 128.197 15.7488 129.007 15.7488C129.493 15.7488 129.986 15.6248 130.488 15.3766C130.995 15.1285 131.42 14.748 131.762 14.2351C132.109 13.7223 132.283 13.0688 132.283 12.2747ZM137.81 17.4693V4.76404H139.696V6.68307H139.829C140.06 6.05442 140.479 5.54433 141.086 5.15281C141.693 4.76128 142.376 4.56552 143.137 4.56552C143.281 4.56552 143.46 4.56828 143.675 4.57379C143.89 4.57931 144.053 4.58758 144.163 4.59861V6.58381C144.097 6.56727 143.945 6.54245 143.708 6.50936C143.477 6.47076 143.231 6.45146 142.972 6.45146C142.354 6.45146 141.803 6.58105 141.318 6.84023C140.838 7.0939 140.457 7.44682 140.176 7.89901C139.9 8.34568 139.763 8.85576 139.763 9.42927V17.4693H137.81ZM151.417 17.734C150.193 17.734 149.137 17.4638 148.249 16.9234C147.367 16.3775 146.686 15.6165 146.206 14.6404C145.732 13.6589 145.495 12.5174 145.495 11.216C145.495 9.91454 145.732 8.76753 146.206 7.77493C146.686 6.77682 147.353 5.99928 148.208 5.44232C149.068 4.87984 150.072 4.59861 151.219 4.59861C151.881 4.59861 152.534 4.7089 153.179 4.92947C153.824 5.15005 154.412 5.50849 154.941 6.00479C155.471 6.49558 155.892 7.14628 156.207 7.95691C156.521 8.76753 156.678 9.76565 156.678 10.9513V11.7784H146.885V10.091H154.693C154.693 9.37412 154.55 8.73445 154.263 8.17197C153.982 7.6095 153.579 7.16558 153.055 6.84023C152.537 6.51488 151.925 6.3522 151.219 6.3522C150.441 6.3522 149.769 6.54521 149.201 6.93122C148.638 7.31172 148.205 7.80802 147.902 8.42012C147.599 9.03223 147.447 9.68845 147.447 10.3888V11.5137C147.447 12.4732 147.612 13.2866 147.943 13.9539C148.28 14.6156 148.746 15.1202 149.341 15.4676C149.937 15.8095 150.629 15.9804 151.417 15.9804C151.93 15.9804 152.393 15.9088 152.807 15.7654C153.226 15.6165 153.587 15.3959 153.891 15.1036C154.194 14.8059 154.428 14.4364 154.594 13.9952L156.48 14.5246C156.281 15.1643 155.948 15.7268 155.479 16.212C155.01 16.6918 154.431 17.0668 153.742 17.337C153.052 17.6017 152.278 17.734 151.417 17.734ZM159.648 17.4693V4.76404H161.534V6.68307H161.666C161.898 6.05442 162.317 5.54433 162.923 5.15281C163.53 4.76128 164.214 4.56552 164.975 4.56552C165.118 4.56552 165.297 4.56828 165.512 4.57379C165.727 4.57931 165.89 4.58758 166 4.59861V6.58381C165.934 6.56727 165.783 6.54245 165.545 6.50936C165.314 6.47076 165.068 6.45146 164.809 6.45146C164.192 6.45146 163.64 6.58105 163.155 6.84023C162.675 7.0939 162.295 7.44682 162.013 7.89901C161.738 8.34568 161.6 8.85576 161.6 9.42927V17.4693H159.648Z" fill="black"/>
</svg>
