<svg width="166" height="33" viewBox="0 0 166 33" fill="none" xmlns="http://www.w3.org/2000/svg">
<rect y="0.322754" width="165.355" height="31.9217" rx="6.38435" fill="#F1F8FF"/>
<path d="M12.81 21.3457V10.4633H14.1278V20.1767H19.1864V21.3457H12.81ZM24.3725 21.5157C23.6357 21.5157 22.9892 21.3404 22.433 20.9897C21.8804 20.639 21.4482 20.1484 21.1365 19.5178C20.8283 18.8872 20.6742 18.1504 20.6742 17.3073C20.6742 16.4571 20.8283 15.715 21.1365 15.0809C21.4482 14.4468 21.8804 13.9544 22.433 13.6037C22.9892 13.253 23.6357 13.0776 24.3725 13.0776C25.1094 13.0776 25.7541 13.253 26.3067 13.6037C26.8629 13.9544 27.2951 14.4468 27.6033 15.0809C27.915 15.715 28.0709 16.4571 28.0709 17.3073C28.0709 18.1504 27.915 18.8872 27.6033 19.5178C27.2951 20.1484 26.8629 20.639 26.3067 20.9897C25.7541 21.3404 25.1094 21.5157 24.3725 21.5157ZM24.3725 20.3892C24.9322 20.3892 25.3928 20.2458 25.7541 19.9588C26.1154 19.6719 26.3829 19.2946 26.5565 18.827C26.73 18.3594 26.8168 17.8528 26.8168 17.3073C26.8168 16.7618 26.73 16.2534 26.5565 15.7823C26.3829 15.3111 26.1154 14.9303 25.7541 14.6398C25.3928 14.3494 24.9322 14.2041 24.3725 14.2041C23.8128 14.2041 23.3523 14.3494 22.991 14.6398C22.6297 14.9303 22.3622 15.3111 22.1886 15.7823C22.015 16.2534 21.9282 16.7618 21.9282 17.3073C21.9282 17.8528 22.015 18.3594 22.1886 18.827C22.3622 19.2946 22.6297 19.6719 22.991 19.9588C23.3523 20.2458 23.8128 20.3892 24.3725 20.3892ZM33.3008 21.5157C32.5357 21.5157 31.8768 21.3351 31.3242 20.9737C30.7715 20.6124 30.3464 20.1147 30.0489 19.4806C29.7513 18.8465 29.6025 18.1221 29.6025 17.3073C29.6025 16.4784 29.7548 15.7469 30.0595 15.1128C30.3677 14.4751 30.7963 13.9774 31.3454 13.6196C31.898 13.2583 32.5428 13.0776 33.2796 13.0776C33.8535 13.0776 34.3707 13.1839 34.8312 13.3964C35.2917 13.609 35.669 13.9066 35.963 14.2891C36.257 14.6717 36.4395 15.1181 36.5103 15.6282H35.2563C35.1606 15.2562 34.9481 14.9268 34.6186 14.6398C34.2927 14.3494 33.8535 14.2041 33.3008 14.2041C32.812 14.2041 32.3833 14.3317 32.0149 14.5867C31.6501 14.8382 31.3649 15.1942 31.1594 15.6548C30.9575 16.1117 30.8565 16.6484 30.8565 17.2648C30.8565 17.8954 30.9557 18.4444 31.1541 18.912C31.356 19.3796 31.6394 19.7427 32.0043 20.0013C32.3727 20.2599 32.8049 20.3892 33.3008 20.3892C33.6267 20.3892 33.9225 20.3326 34.1882 20.2192C34.4539 20.1058 34.6789 19.9429 34.8631 19.7303C35.0473 19.5178 35.1783 19.2627 35.2563 18.9652H36.5103C36.4395 19.4469 36.2641 19.8809 35.9842 20.267C35.7079 20.6496 35.3413 20.9543 34.8843 21.181C34.4309 21.4042 33.9031 21.5157 33.3008 21.5157ZM40.7453 21.537C40.2281 21.537 39.7587 21.4396 39.3372 21.2447C38.9156 21.0464 38.5809 20.7612 38.3329 20.3892C38.0849 20.0137 37.9609 19.5603 37.9609 19.0289C37.9609 18.5613 38.053 18.1823 38.2372 17.8918C38.4215 17.5978 38.6677 17.3675 38.9758 17.201C39.284 17.0345 39.6241 16.9106 39.9961 16.8291C40.3716 16.7441 40.7488 16.6768 41.1279 16.6272C41.6238 16.5634 42.0259 16.5156 42.3341 16.4837C42.6458 16.4483 42.8725 16.3898 43.0142 16.3083C43.1595 16.2269 43.2321 16.0852 43.2321 15.8832V15.8407C43.2321 15.3165 43.0886 14.9091 42.8017 14.6186C42.5183 14.3281 42.0879 14.1829 41.5105 14.1829C40.9118 14.1829 40.4424 14.3139 40.1023 14.5761C39.7623 14.8382 39.5232 15.1181 39.385 15.4156L38.1947 14.9905C38.4073 14.4946 38.6907 14.1085 39.0449 13.8322C39.4027 13.5523 39.7924 13.3575 40.2139 13.2477C40.639 13.1343 41.057 13.0776 41.468 13.0776C41.7301 13.0776 42.0312 13.1095 42.3713 13.1733C42.7149 13.2335 43.0461 13.3592 43.3649 13.5505C43.6873 13.7418 43.9548 14.0305 44.1673 14.4167C44.3799 14.8028 44.4861 15.32 44.4861 15.9683V21.3457H43.2321V20.2405H43.1683C43.0833 20.4176 42.9416 20.6071 42.7432 20.809C42.5449 21.0109 42.281 21.1828 41.9515 21.3244C41.6221 21.4661 41.22 21.537 40.7453 21.537ZM40.9366 20.4105C41.4325 20.4105 41.8505 20.3131 42.1906 20.1182C42.5342 19.9234 42.7928 19.6719 42.9664 19.3637C43.1435 19.0555 43.2321 18.7314 43.2321 18.3913V17.2435C43.179 17.3073 43.0621 17.3658 42.8814 17.4189C42.7043 17.4685 42.4988 17.5128 42.265 17.5517C42.0348 17.5872 41.8098 17.619 41.5902 17.6474C41.3741 17.6722 41.1987 17.6934 41.0641 17.7111C40.7382 17.7537 40.4336 17.8227 40.1502 17.9184C39.8703 18.0105 39.6436 18.1504 39.47 18.3382C39.3 18.5224 39.215 18.7739 39.215 19.0927C39.215 19.5284 39.3761 19.8579 39.6985 20.081C40.0244 20.3007 40.4371 20.4105 40.9366 20.4105ZM50.3245 13.1839V14.2466H46.0948V13.1839H50.3245ZM47.3276 11.2285H48.5816V19.0077C48.5816 19.3619 48.633 19.6276 48.7357 19.8047C48.842 19.9783 48.9766 20.0952 49.1396 20.1554C49.3061 20.2121 49.4814 20.2405 49.6656 20.2405C49.8038 20.2405 49.9171 20.2334 50.0057 20.2192C50.0943 20.2015 50.1651 20.1873 50.2183 20.1767L50.4733 21.3032C50.3883 21.3351 50.2696 21.367 50.1173 21.3988C49.965 21.4343 49.7719 21.452 49.5381 21.452C49.1839 21.452 48.8367 21.3758 48.4966 21.2235C48.1601 21.0712 47.8802 20.8391 47.6571 20.5274C47.4374 20.2157 47.3276 19.8224 47.3276 19.3478V11.2285ZM52.2109 21.3457V13.1839H53.4649V21.3457H52.2109ZM52.8485 11.8236C52.6041 11.8236 52.3933 11.7403 52.2162 11.5739C52.0426 11.4074 51.9558 11.2072 51.9558 10.9734C51.9558 10.7396 52.0426 10.5395 52.2162 10.373C52.3933 10.2065 52.6041 10.1232 52.8485 10.1232C53.093 10.1232 53.302 10.2065 53.4755 10.373C53.6527 10.5395 53.7412 10.7396 53.7412 10.9734C53.7412 11.2072 53.6527 11.4074 53.4755 11.5739C53.302 11.7403 53.093 11.8236 52.8485 11.8236ZM59.0775 21.5157C58.3407 21.5157 57.6942 21.3404 57.138 20.9897C56.5854 20.639 56.1532 20.1484 55.8415 19.5178C55.5333 18.8872 55.3792 18.1504 55.3792 17.3073C55.3792 16.4571 55.5333 15.715 55.8415 15.0809C56.1532 14.4468 56.5854 13.9544 57.138 13.6037C57.6942 13.253 58.3407 13.0776 59.0775 13.0776C59.8143 13.0776 60.459 13.253 61.0117 13.6037C61.5678 13.9544 62 14.4468 62.3082 15.0809C62.6199 15.715 62.7758 16.4571 62.7758 17.3073C62.7758 18.1504 62.6199 18.8872 62.3082 19.5178C62 20.1484 61.5678 20.639 61.0117 20.9897C60.459 21.3404 59.8143 21.5157 59.0775 21.5157ZM59.0775 20.3892C59.6372 20.3892 60.0977 20.2458 60.459 19.9588C60.8204 19.6719 61.0878 19.2946 61.2614 18.827C61.435 18.3594 61.5218 17.8528 61.5218 17.3073C61.5218 16.7618 61.435 16.2534 61.2614 15.7823C61.0878 15.3111 60.8204 14.9303 60.459 14.6398C60.0977 14.3494 59.6372 14.2041 59.0775 14.2041C58.5178 14.2041 58.0573 14.3494 57.6959 14.6398C57.3346 14.9303 57.0671 15.3111 56.8936 15.7823C56.72 16.2534 56.6332 16.7618 56.6332 17.3073C56.6332 17.8528 56.72 18.3594 56.8936 18.827C57.0671 19.2946 57.3346 19.6719 57.6959 19.9588C58.0573 20.2458 58.5178 20.3892 59.0775 20.3892ZM65.9441 16.4359V21.3457H64.6901V13.1839H65.9016V14.4592H66.0078C66.1991 14.0447 66.4896 13.7117 66.8793 13.4602C67.269 13.2052 67.772 13.0776 68.3884 13.0776C68.941 13.0776 69.4245 13.191 69.839 13.4177C70.2535 13.6409 70.5758 13.9809 70.8061 14.4379C71.0364 14.8914 71.1515 15.4652 71.1515 16.1596V21.3457H69.8975V16.2446C69.8975 15.6034 69.731 15.1039 69.398 14.7461C69.065 14.3848 68.608 14.2041 68.027 14.2041C67.6267 14.2041 67.269 14.2909 66.9537 14.4645C66.6419 14.6381 66.3957 14.8914 66.2151 15.2243C66.0344 15.5573 65.9441 15.9612 65.9441 16.4359Z" fill="#1A3C6C" fill-opacity="0.5"/>
<line x1="133.752" y1="0.322754" x2="133.752" y2="32.2445" stroke="#1A3C6C" stroke-opacity="0.5" stroke-width="0.638435"/>
<path d="M149.393 21.3906L144.97 13.7294H153.817L149.393 21.3906Z" fill="#1A3C6C" fill-opacity="0.5"/>
</svg>
