<svg width="126" height="18" viewBox="0 0 126 18" fill="none" xmlns="http://www.w3.org/2000/svg">
<rect width="126" height="18" rx="4.11972" fill="#FFED66"/>
<path d="M7.07765 13.6484V5.24421H8.20233C8.95212 6.31534 9.64011 7.39471 10.2663 8.48231C10.9007 9.56168 11.494 10.6905 12.046 11.8687L11.9224 8.65534V5.24421H12.973V13.6484H11.8483C11.2715 12.4455 10.6742 11.2755 10.0562 10.1384C9.44649 8.99316 8.77909 7.87671 8.05402 6.78911L8.12818 10.2126V13.6484H7.07765ZM20.2331 10.2126V10.9541C20.2331 11.8275 20.0065 12.5155 19.5533 13.0181C19.1084 13.5207 18.4699 13.772 17.6377 13.772C16.8137 13.772 16.1752 13.5207 15.722 13.0181C15.2688 12.5155 15.0423 11.8275 15.0423 10.9541V10.2126C15.0423 9.35569 15.2647 8.67594 15.7096 8.17333C16.1628 7.66249 16.8055 7.40706 17.6377 7.40706C18.4699 7.40706 19.1084 7.66249 19.5533 8.17333C20.0065 8.67594 20.2331 9.35569 20.2331 10.2126ZM19.1826 10.2126C19.1826 9.62759 19.0507 9.1703 18.7871 8.84073C18.5234 8.50291 18.1403 8.334 17.6377 8.334C17.1433 8.334 16.7602 8.50291 16.4883 8.84073C16.2246 9.1703 16.0928 9.62759 16.0928 10.2126V10.9541C16.0928 11.5639 16.2246 12.0335 16.4883 12.3631C16.7602 12.6927 17.1433 12.8575 17.6377 12.8575C18.1403 12.8575 18.5234 12.6927 18.7871 12.3631C19.0507 12.0335 19.1826 11.5639 19.1826 10.9541V10.2126ZM25.0163 8.35872C24.7856 8.35872 24.5137 8.41639 24.2006 8.53175C23.8957 8.6471 23.5249 8.88192 23.0883 9.23622V13.6484H22.0748V7.53066H23.0388V8.38344C23.4755 8.01266 23.871 7.75724 24.2253 7.61717C24.5878 7.4771 24.9339 7.40706 25.2635 7.40706C25.832 7.40706 26.2646 7.58833 26.5612 7.95087C26.866 8.30516 27.0185 8.81189 27.0185 9.47104V13.6484H26.005V9.61935C26.005 8.77893 25.6754 8.35872 25.0163 8.35872ZM28.6555 10.3485V9.45868H32.116V10.3485H28.6555ZM31.9621 6.25766V5.24421H37.9316V6.25766H35.4845V13.6484H34.4092V6.25766H31.9621ZM42.7935 13.29C42.4227 13.4713 42.0519 13.5949 41.6812 13.6608C41.3104 13.735 40.9684 13.772 40.6553 13.772C39.7737 13.772 39.1146 13.5207 38.6779 13.0181C38.2494 12.5155 38.0352 11.8275 38.0352 10.9541V10.2126C38.0352 9.36393 38.2494 8.68418 38.6779 8.17333C39.1146 7.66249 39.7284 7.40706 40.5194 7.40706C40.9396 7.40706 41.3227 7.49358 41.6688 7.66661C42.0231 7.8314 42.3032 8.08682 42.5092 8.43287C42.7234 8.77069 42.8306 9.20738 42.8306 9.74294C42.8306 10.089 42.7811 10.4845 42.6823 10.9294H39.0363V10.9541C39.0363 11.5803 39.164 12.0541 39.4194 12.3754C39.6831 12.6968 40.1033 12.8575 40.6801 12.8575C40.9437 12.8575 41.2321 12.8245 41.5452 12.7586C41.8665 12.6927 42.1796 12.5897 42.4845 12.4496L42.7935 13.29ZM40.5194 8.29692C40.0415 8.29692 39.679 8.45347 39.4318 8.76657C39.1928 9.07143 39.061 9.504 39.0363 10.0643H41.8047C41.8295 9.91597 41.8418 9.7759 41.8418 9.64407C41.8418 9.18266 41.71 8.84485 41.4463 8.63062C41.1909 8.40816 40.8819 8.29692 40.5194 8.29692ZM45.3012 10.225V10.9541C45.3012 11.5803 45.4166 12.0541 45.6473 12.3754C45.878 12.6885 46.2446 12.8451 46.7473 12.8451C47.2416 12.8451 47.7731 12.7174 48.3416 12.462L48.6506 13.3147C47.9749 13.6196 47.3199 13.772 46.6855 13.772C45.8945 13.772 45.293 13.5207 44.881 13.0181C44.469 12.5155 44.2631 11.8275 44.2631 10.9541V10.225C44.2631 9.35157 44.469 8.66358 44.881 8.16097C45.293 7.65837 45.8945 7.40706 46.6855 7.40706C46.9821 7.40706 47.2869 7.44826 47.6 7.53066C47.9214 7.60481 48.2427 7.71192 48.564 7.85199L48.2551 8.71713C47.9832 8.60178 47.7195 8.51115 47.4641 8.44523C47.2169 8.37932 46.978 8.34636 46.7473 8.34636C46.2446 8.34636 45.878 8.50703 45.6473 8.82837C45.4166 9.14147 45.3012 9.60699 45.3012 10.225ZM53.0778 8.35872C52.8471 8.35872 52.5752 8.41639 52.2621 8.53175C51.9573 8.6471 51.5865 8.88192 51.1498 9.23622V13.6484H50.1364V4.50266H51.1498V8.34636C51.5783 7.98382 51.9655 7.73664 52.3116 7.60481C52.6576 7.47298 52.9954 7.40706 53.325 7.40706C53.8935 7.40706 54.3261 7.58833 54.6227 7.95087C54.9276 8.30516 55.08 8.81189 55.08 9.47104V13.6484H54.0666V9.61935C54.0666 8.77893 53.737 8.35872 53.0778 8.35872ZM60.1385 8.35872C59.9078 8.35872 59.6359 8.41639 59.3228 8.53175C59.0179 8.6471 58.6472 8.88192 58.2105 9.23622V13.6484H57.197V7.53066H58.161V8.38344C58.5977 8.01266 58.9932 7.75724 59.3475 7.61717C59.71 7.4771 60.0561 7.40706 60.3857 7.40706C60.9542 7.40706 61.3868 7.58833 61.6834 7.95087C61.9882 8.30516 62.1407 8.81189 62.1407 9.47104V13.6484H61.1272V9.61935C61.1272 8.77893 60.7976 8.35872 60.1385 8.35872ZM65.3329 6.0352H64.1959V4.89816H65.3329V6.0352ZM65.2711 13.6484H64.2577V7.53066H65.2711V13.6484ZM68.1729 10.225V10.9541C68.1729 11.5803 68.2883 12.0541 68.519 12.3754C68.7497 12.6885 69.1163 12.8451 69.6189 12.8451C70.1133 12.8451 70.6447 12.7174 71.2133 12.462L71.5222 13.3147C70.8466 13.6196 70.1916 13.772 69.5571 13.772C68.7661 13.772 68.1647 13.5207 67.7527 13.0181C67.3407 12.5155 67.1347 11.8275 67.1347 10.9541V10.225C67.1347 9.35157 67.3407 8.66358 67.7527 8.16097C68.1647 7.65837 68.7661 7.40706 69.5571 7.40706C69.8538 7.40706 70.1586 7.44826 70.4717 7.53066C70.7931 7.60481 71.1144 7.71192 71.4357 7.85199L71.1267 8.71713C70.8548 8.60178 70.5912 8.51115 70.3358 8.44523C70.0886 8.37932 69.8496 8.34636 69.6189 8.34636C69.1163 8.34636 68.7497 8.50703 68.519 8.82837C68.2883 9.14147 68.1729 9.60699 68.1729 10.225ZM77.4821 13.7102C77.103 13.7102 76.7982 13.6237 76.5675 13.4507C76.345 13.2777 76.1885 13.0634 76.0978 12.808C75.6941 13.1623 75.3274 13.4136 74.9979 13.5619C74.6683 13.702 74.3387 13.772 74.0091 13.772C73.4736 13.772 73.0781 13.599 72.8227 13.2529C72.5672 12.9069 72.4395 12.4826 72.4395 11.98C72.4395 11.6421 72.5013 11.3414 72.6249 11.0777C72.7485 10.8141 72.9586 10.6081 73.2552 10.4598C73.5518 10.3032 73.9515 10.225 74.4541 10.225C74.6765 10.225 74.9196 10.2414 75.1832 10.2744C75.4469 10.2991 75.7147 10.3321 75.9866 10.3733V9.5452C75.9866 9.08379 75.8836 8.77069 75.6776 8.6059C75.4799 8.43287 75.1874 8.34636 74.8001 8.34636C74.2728 8.34636 73.6837 8.49055 73.0328 8.77893L72.7114 7.93851C73.0904 7.76548 73.453 7.63365 73.799 7.54301C74.1451 7.45238 74.4953 7.40706 74.8496 7.40706C75.4263 7.40706 75.8671 7.50182 76.172 7.69132C76.4768 7.88083 76.6869 8.13213 76.8023 8.44523C76.9177 8.75833 76.9753 9.10027 76.9753 9.47104V12.1159C76.9753 12.3054 77.0124 12.4661 77.0866 12.5979C77.1607 12.7215 77.309 12.7833 77.5315 12.7833H77.6674V13.7102H77.4821ZM73.4406 11.9676C73.4406 12.2477 73.5065 12.4743 73.6384 12.6473C73.7702 12.8204 73.9597 12.9069 74.2069 12.9069C74.4211 12.9069 74.6683 12.8451 74.9484 12.7215C75.2286 12.5897 75.5746 12.3301 75.9866 11.9429V11.1642C75.4263 11.0736 74.9319 11.0283 74.5035 11.0283C74.1245 11.0283 73.8526 11.1066 73.6878 11.2631C73.523 11.4197 73.4406 11.6545 73.4406 11.9676ZM79.0908 12.1653V4.50266H80.1042V12.1159C80.1042 12.3384 80.1372 12.5073 80.2031 12.6226C80.2773 12.7297 80.4214 12.7833 80.6357 12.7833H80.8334V13.7102H80.5492C80.0053 13.7102 79.6263 13.566 79.4121 13.2777C79.1979 12.9893 79.0908 12.6185 79.0908 12.1653ZM87.9674 4.50266H88.9808V16.2809H87.9674V4.50266ZM101.123 10.1137H98.0706V13.6484H96.9953V5.24421H101.494V6.25766H98.0706V9.10027H101.123V10.1137ZM106.069 8.42051C105.698 8.42051 105.336 8.48643 104.982 8.61826C104.636 8.75009 104.265 9.0014 103.869 9.37217V13.6484H102.856V7.53066H103.82V8.51939C104.24 8.10742 104.623 7.81904 104.969 7.65425C105.324 7.48946 105.69 7.40706 106.069 7.40706V8.42051ZM111.831 13.29C111.46 13.4713 111.089 13.5949 110.719 13.6608C110.348 13.735 110.006 13.772 109.693 13.772C108.811 13.772 108.152 13.5207 107.715 13.0181C107.287 12.5155 107.073 11.8275 107.073 10.9541V10.2126C107.073 9.36393 107.287 8.68418 107.715 8.17333C108.152 7.66249 108.766 7.40706 109.557 7.40706C109.977 7.40706 110.36 7.49358 110.706 7.66661C111.061 7.8314 111.341 8.08682 111.547 8.43287C111.761 8.77069 111.868 9.20738 111.868 9.74294C111.868 10.089 111.819 10.4845 111.72 10.9294H108.074V10.9541C108.074 11.5803 108.201 12.0541 108.457 12.3754C108.721 12.6968 109.141 12.8575 109.718 12.8575C109.981 12.8575 110.27 12.8245 110.583 12.7586C110.904 12.6927 111.217 12.5897 111.522 12.4496L111.831 13.29ZM109.557 8.29692C109.079 8.29692 108.716 8.45347 108.469 8.76657C108.23 9.07143 108.098 9.504 108.074 10.0643H110.842C110.867 9.91597 110.879 9.7759 110.879 9.64407C110.879 9.18266 110.747 8.84485 110.484 8.63062C110.228 8.40816 109.919 8.29692 109.557 8.29692ZM118.059 13.29C117.688 13.4713 117.317 13.5949 116.946 13.6608C116.576 13.735 116.234 13.772 115.921 13.772C115.039 13.772 114.38 13.5207 113.943 13.0181C113.515 12.5155 113.301 11.8275 113.301 10.9541V10.2126C113.301 9.36393 113.515 8.68418 113.943 8.17333C114.38 7.66249 114.994 7.40706 115.785 7.40706C116.205 7.40706 116.588 7.49358 116.934 7.66661C117.288 7.8314 117.569 8.08682 117.775 8.43287C117.989 8.77069 118.096 9.20738 118.096 9.74294C118.096 10.089 118.046 10.4845 117.948 10.9294H114.302V10.9541C114.302 11.5803 114.429 12.0541 114.685 12.3754C114.948 12.6968 115.369 12.8575 115.945 12.8575C116.209 12.8575 116.497 12.8245 116.811 12.7586C117.132 12.6927 117.445 12.5897 117.75 12.4496L118.059 13.29ZM115.785 8.29692C115.307 8.29692 114.944 8.45347 114.697 8.76657C114.458 9.07143 114.326 9.504 114.302 10.0643H117.07C117.095 9.91597 117.107 9.7759 117.107 9.64407C117.107 9.18266 116.975 8.84485 116.712 8.63062C116.456 8.40816 116.147 8.29692 115.785 8.29692Z" fill="black"/>
</svg>
