<svg width="171" height="23" viewBox="0 0 171 23" fill="none" xmlns="http://www.w3.org/2000/svg">
<path d="M15.2547 9.57649C15.2547 11.3533 14.9339 12.8889 14.2923 14.1831C13.6507 15.4773 12.7705 16.4754 11.6517 17.1774C10.533 17.8794 9.25519 18.2303 7.81836 18.2303C6.38154 18.2303 5.10376 17.8794 3.98501 17.1774C2.86626 16.4754 1.98607 15.4773 1.34443 14.1831C0.7028 12.8889 0.381982 11.3533 0.381982 9.57649C0.381982 7.79965 0.7028 6.26412 1.34443 4.96988C1.98607 3.67564 2.86626 2.67754 3.98501 1.97558C5.10376 1.27363 6.38154 0.922645 7.81836 0.922645C9.25519 0.922645 10.533 1.27363 11.6517 1.97558C12.7705 2.67754 13.6507 3.67564 14.2923 4.96988C14.9339 6.26412 15.2547 7.79965 15.2547 9.57649ZM13.2805 9.57649C13.2805 8.11773 13.0364 6.88656 12.5484 5.88298C12.0658 4.87939 11.4104 4.11985 10.5823 3.60435C9.75972 3.08885 8.8384 2.8311 7.81836 2.8311C6.79833 2.8311 5.87427 3.08885 5.04617 3.60435C4.22356 4.11985 3.56822 4.87939 3.08014 5.88298C2.59754 6.88656 2.35624 8.11773 2.35624 9.57649C2.35624 11.0352 2.59754 12.2664 3.08014 13.27C3.56822 14.2736 4.22356 15.0331 5.04617 15.5486C5.87427 16.0641 6.79833 16.3219 7.81836 16.3219C8.8384 16.3219 9.75972 16.0641 10.5823 15.5486C11.4104 15.0331 12.0658 14.2736 12.5484 13.27C13.0364 12.2664 13.2805 11.0352 13.2805 9.57649ZM20.3631 10.3991V18H18.4218V5.36473H20.2973V7.33899H20.4619C20.758 6.69736 21.2077 6.18186 21.8109 5.79249C22.4142 5.39764 23.1929 5.20021 24.1471 5.20021C25.0027 5.20021 25.7512 5.3757 26.3929 5.72668C27.0345 6.07218 27.5336 6.59865 27.89 7.30609C28.2465 8.00805 28.4247 8.89646 28.4247 9.97134V18H26.4834V10.103C26.4834 9.11034 26.2256 8.33709 25.7101 7.7832C25.1946 7.22383 24.4872 6.94414 23.5878 6.94414C22.9681 6.94414 22.4142 7.0785 21.9261 7.34722C21.4435 7.61594 21.0624 8.00805 20.7827 8.52355C20.503 9.03905 20.3631 9.66423 20.3631 10.3991ZM37.0724 23.0015C36.1346 23.0015 35.3285 22.8808 34.6539 22.6395C33.9794 22.4037 33.4173 22.0911 32.9676 21.7017C32.5234 21.3179 32.1696 20.9066 31.9064 20.4678L33.4529 19.382C33.6284 19.6123 33.8505 19.8755 34.1192 20.1717C34.3879 20.4733 34.7554 20.7338 35.2215 20.9532C35.6931 21.178 36.3101 21.2904 37.0724 21.2904C38.0924 21.2904 38.9342 21.0437 39.5978 20.5501C40.2614 20.0565 40.5931 19.2833 40.5931 18.2303V15.6638H40.4286C40.286 15.8941 40.0831 16.1793 39.8199 16.5193C39.5621 16.8538 39.1892 17.1527 38.7011 17.4159C38.2185 17.6737 37.5659 17.8026 36.7433 17.8026C35.7233 17.8026 34.8075 17.5613 33.9958 17.0787C33.1897 16.5961 32.5508 15.8941 32.0791 14.9728C31.613 14.0515 31.3799 12.9327 31.3799 11.6166C31.3799 10.3223 31.6075 9.19535 32.0627 8.23564C32.5179 7.27044 33.1513 6.52461 33.9629 5.99814C34.7746 5.46619 35.7123 5.20021 36.7762 5.20021C37.5989 5.20021 38.2515 5.33731 38.7341 5.61152C39.2221 5.88023 39.595 6.18734 39.8528 6.53284C40.116 6.87285 40.3189 7.15253 40.4615 7.3719H40.659V5.36473H42.5345V18.3619C42.5345 19.4478 42.2877 20.3307 41.7942 21.0107C41.3061 21.6963 40.648 22.198 39.8199 22.5161C38.9973 22.8397 38.0814 23.0015 37.0724 23.0015ZM37.0066 16.0586C37.7853 16.0586 38.4434 15.8804 38.9808 15.5239C39.5183 15.1675 39.9268 14.6547 40.2065 13.9857C40.4862 13.3166 40.6261 12.5159 40.6261 11.5837C40.6261 10.6733 40.4889 9.86989 40.2147 9.17341C39.9405 8.47693 39.5347 7.93127 38.9973 7.53642C38.4598 7.14157 37.7963 6.94414 37.0066 6.94414C36.184 6.94414 35.4985 7.15253 34.9501 7.56932C34.4071 7.98611 33.9986 8.54549 33.7244 9.24744C33.4556 9.9494 33.3213 10.7281 33.3213 11.5837C33.3213 12.4611 33.4584 13.2371 33.7326 13.9116C34.0123 14.5807 34.4236 15.1072 34.9665 15.491C35.5149 15.8694 36.1949 16.0586 37.0066 16.0586ZM51.2212 18.2632C50.0806 18.2632 49.0797 17.9918 48.2187 17.4489C47.3632 16.9059 46.6942 16.1464 46.2116 15.1702C45.7344 14.1941 45.4959 13.0534 45.4959 11.7482C45.4959 10.432 45.7344 9.28309 46.2116 8.30144C46.6942 7.3198 47.3632 6.55751 48.2187 6.01459C49.0797 5.47167 50.0806 5.20021 51.2212 5.20021C52.3619 5.20021 53.36 5.47167 54.2155 6.01459C55.0765 6.55751 55.7456 7.3198 56.2227 8.30144C56.7053 9.28309 56.9466 10.432 56.9466 11.7482C56.9466 13.0534 56.7053 14.1941 56.2227 15.1702C55.7456 16.1464 55.0765 16.9059 54.2155 17.4489C53.36 17.9918 52.3619 18.2632 51.2212 18.2632ZM51.2212 16.5193C52.0877 16.5193 52.8007 16.2972 53.36 15.853C53.9194 15.4088 54.3335 14.8247 54.6022 14.1008C54.8709 13.3769 55.0052 12.5927 55.0052 11.7482C55.0052 10.9036 54.8709 10.1167 54.6022 9.38729C54.3335 8.65791 53.9194 8.06837 53.36 7.61868C52.8007 7.16899 52.0877 6.94414 51.2212 6.94414C50.3548 6.94414 49.6418 7.16899 49.0825 7.61868C48.5231 8.06837 48.109 8.65791 47.8403 9.38729C47.5716 10.1167 47.4372 10.9036 47.4372 11.7482C47.4372 12.5927 47.5716 13.3769 47.8403 14.1008C48.109 14.8247 48.5231 15.4088 49.0825 15.853C49.6418 16.2972 50.3548 16.5193 51.2212 16.5193ZM59.9101 18V5.36473H61.8514V18H59.9101ZM60.8972 3.25885C60.5188 3.25885 60.1925 3.12998 59.9183 2.87223C59.6496 2.61448 59.5152 2.30463 59.5152 1.94268C59.5152 1.58073 59.6496 1.27088 59.9183 1.01313C60.1925 0.755382 60.5188 0.626507 60.8972 0.626507C61.2756 0.626507 61.5991 0.755382 61.8679 1.01313C62.1421 1.27088 62.2792 1.58073 62.2792 1.94268C62.2792 2.30463 62.1421 2.61448 61.8679 2.87223C61.5991 3.12998 61.2756 3.25885 60.8972 3.25885ZM67.3485 10.3991V18H65.4071V5.36473H67.2827V7.33899H67.4472C67.7433 6.69736 68.193 6.18186 68.7963 5.79249C69.3995 5.39764 70.1783 5.20021 71.1325 5.20021C71.988 5.20021 72.7366 5.3757 73.3782 5.72668C74.0198 6.07218 74.5189 6.59865 74.8754 7.30609C75.2318 8.00805 75.4101 8.89646 75.4101 9.97134V18H73.4687V10.103C73.4687 9.11034 73.211 8.33709 72.6954 7.7832C72.1799 7.22383 71.4725 6.94414 70.5731 6.94414C69.9534 6.94414 69.3995 7.0785 68.9114 7.34722C68.4289 7.61594 68.0477 8.00805 67.768 8.52355C67.4883 9.03905 67.3485 9.66423 67.3485 10.3991ZM84.0577 23.0015C83.12 23.0015 82.3138 22.8808 81.6393 22.6395C80.9647 22.4037 80.4026 22.0911 79.9529 21.7017C79.5087 21.3179 79.155 20.9066 78.8917 20.4678L80.4382 19.382C80.6137 19.6123 80.8358 19.8755 81.1046 20.1717C81.3733 20.4733 81.7407 20.7338 82.2069 20.9532C82.6785 21.178 83.2954 21.2904 84.0577 21.2904C85.0778 21.2904 85.9196 21.0437 86.5831 20.5501C87.2467 20.0565 87.5785 19.2833 87.5785 18.2303V15.6638H87.414C87.2714 15.8941 87.0685 16.1793 86.8052 16.5193C86.5475 16.8538 86.1746 17.1527 85.6865 17.4159C85.2039 17.6737 84.5513 17.8026 83.7287 17.8026C82.7086 17.8026 81.7928 17.5613 80.9812 17.0787C80.175 16.5961 79.5361 15.8941 79.0645 14.9728C78.5983 14.0515 78.3653 12.9327 78.3653 11.6166C78.3653 10.3223 78.5929 9.19535 79.048 8.23564C79.5032 7.27044 80.1366 6.52461 80.9483 5.99814C81.7599 5.46619 82.6977 5.20021 83.7616 5.20021C84.5842 5.20021 85.2368 5.33731 85.7194 5.61152C86.2075 5.88023 86.5804 6.18734 86.8381 6.53284C87.1014 6.87285 87.3043 7.15253 87.4469 7.3719H87.6443V5.36473H89.5198V18.3619C89.5198 19.4478 89.2731 20.3307 88.7795 21.0107C88.2914 21.6963 87.6333 22.198 86.8052 22.5161C85.9826 22.8397 85.0668 23.0015 84.0577 23.0015ZM83.9919 16.0586C84.7707 16.0586 85.4287 15.8804 85.9662 15.5239C86.5036 15.1675 86.9122 14.6547 87.1919 13.9857C87.4716 13.3166 87.6114 12.5159 87.6114 11.5837C87.6114 10.6733 87.4743 9.86989 87.2001 9.17341C86.9259 8.47693 86.5201 7.93127 85.9826 7.53642C85.4452 7.14157 84.7816 6.94414 83.9919 6.94414C83.1693 6.94414 82.4838 7.15253 81.9354 7.56932C81.3925 7.98611 80.9839 8.54549 80.7097 9.24744C80.441 9.9494 80.3066 10.7281 80.3066 11.5837C80.3066 12.4611 80.4437 13.2371 80.7179 13.9116C80.9976 14.5807 81.4089 15.1072 81.9518 15.491C82.5003 15.8694 83.1803 16.0586 83.9919 16.0586ZM99.8518 18V1.15298H110.019V2.96271H101.892V8.65517H109.493V10.4649H101.892V16.1903H110.151V18H99.8518ZM123.765 5.36473L119.093 18H117.118L112.446 5.36473H114.552L118.04 15.4335H118.171L121.659 5.36473H123.765ZM131.173 18.2632C129.955 18.2632 128.905 17.9945 128.022 17.4571C127.145 16.9142 126.467 16.1574 125.99 15.1867C125.519 14.2105 125.283 13.0753 125.283 11.7811C125.283 10.4868 125.519 9.34616 125.99 8.35903C126.467 7.36641 127.131 6.59316 127.981 6.03927C128.836 5.4799 129.835 5.20021 130.975 5.20021C131.633 5.20021 132.283 5.30989 132.925 5.52925C133.566 5.74862 134.15 6.10508 134.677 6.59865C135.203 7.08673 135.623 7.73384 135.936 8.54C136.248 9.34616 136.404 10.3388 136.404 11.5178V12.3405H126.665V10.6623H134.43C134.43 9.9494 134.288 9.31325 134.002 8.75388C133.723 8.19451 133.322 7.75304 132.801 7.42948C132.286 7.10592 131.677 6.94414 130.975 6.94414C130.202 6.94414 129.533 7.13608 128.968 7.51997C128.409 7.89837 127.978 8.39193 127.677 9.00066C127.375 9.60939 127.224 10.262 127.224 10.9585V12.0772C127.224 13.0314 127.389 13.8403 127.718 14.5039C128.052 15.162 128.516 15.6638 129.108 16.0093C129.7 16.3493 130.388 16.5193 131.173 16.5193C131.683 16.5193 132.143 16.448 132.555 16.3054C132.971 16.1574 133.331 15.938 133.632 15.6473C133.934 15.3512 134.167 14.9838 134.331 14.545L136.207 15.0715C136.01 15.7077 135.678 16.267 135.212 16.7496C134.745 17.2267 134.17 17.5997 133.484 17.8684C132.799 18.1316 132.028 18.2632 131.173 18.2632ZM141.299 10.3991V18H139.358V5.36473H141.233V7.33899H141.398C141.694 6.69736 142.143 6.18186 142.747 5.79249C143.35 5.39764 144.129 5.20021 145.083 5.20021C145.938 5.20021 146.687 5.3757 147.329 5.72668C147.97 6.07218 148.469 6.59865 148.826 7.30609C149.182 8.00805 149.361 8.89646 149.361 9.97134V18H147.419V10.103C147.419 9.11034 147.161 8.33709 146.646 7.7832C146.13 7.22383 145.423 6.94414 144.524 6.94414C143.904 6.94414 143.35 7.0785 142.862 7.34722C142.379 7.61594 141.998 8.00805 141.718 8.52355C141.439 9.03905 141.299 9.66423 141.299 10.3991ZM158.403 5.36473V7.00995H151.855V5.36473H158.403ZM153.764 2.33753H155.705V14.3805C155.705 14.9289 155.784 15.3402 155.943 15.6144C156.108 15.8832 156.316 16.0641 156.569 16.1574C156.826 16.2451 157.098 16.289 157.383 16.289C157.597 16.289 157.772 16.278 157.909 16.2561C158.047 16.2286 158.156 16.2067 158.239 16.1903L158.633 17.9342C158.502 17.9835 158.318 18.0329 158.082 18.0823C157.846 18.1371 157.548 18.1645 157.186 18.1645C156.637 18.1645 156.1 18.0466 155.573 17.8108C155.052 17.575 154.619 17.2158 154.274 16.7332C153.934 16.2506 153.764 15.6419 153.764 14.907V2.33753ZM170.047 8.19451L168.303 8.68807C168.193 8.39742 168.032 8.11499 167.818 7.84078C167.609 7.5611 167.324 7.33077 166.962 7.14979C166.6 6.96882 166.137 6.87833 165.572 6.87833C164.799 6.87833 164.154 7.05656 163.639 7.41303C163.129 7.76401 162.874 8.21096 162.874 8.75388C162.874 9.23648 163.049 9.61762 163.4 9.89731C163.751 10.177 164.3 10.4101 165.046 10.5965L166.921 11.0572C168.051 11.3314 168.893 11.7509 169.447 12.3158C170 12.8751 170.277 13.5963 170.277 14.4792C170.277 15.2031 170.069 15.8502 169.652 16.4206C169.241 16.9909 168.665 17.4406 167.925 17.7697C167.184 18.0987 166.323 18.2632 165.342 18.2632C164.053 18.2632 162.986 17.9835 162.142 17.4242C161.297 16.8648 160.763 16.0477 160.538 14.9728L162.38 14.5121C162.556 15.1922 162.888 15.7022 163.376 16.0422C163.869 16.3822 164.514 16.5522 165.309 16.5522C166.214 16.5522 166.932 16.3603 167.464 15.9764C168.001 15.587 168.27 15.1209 168.27 14.5779C168.27 14.1392 168.117 13.7718 167.81 13.4757C167.502 13.174 167.031 12.9492 166.395 12.8011L164.289 12.3075C163.132 12.0333 162.282 11.6083 161.739 11.0325C161.201 10.4512 160.933 9.72456 160.933 8.85259C160.933 8.13966 161.133 7.509 161.533 6.96059C161.939 6.41219 162.49 5.98169 163.186 5.6691C163.888 5.35651 164.684 5.20021 165.572 5.20021C166.822 5.20021 167.804 5.47441 168.517 6.02282C169.235 6.57122 169.745 7.29512 170.047 8.19451Z" fill="black"/>
</svg>
