<svg width="116" height="38" viewBox="0 0 116 38" fill="none" xmlns="http://www.w3.org/2000/svg">
<rect width="115.378" height="37.7471" rx="10.2263" fill="#1A3C6C"/>
<path d="M16.8108 24.2588V12.6824H21.1519C22.0412 12.6824 22.7873 12.8482 23.3903 13.1799C23.997 13.5115 24.4548 13.9674 24.7638 14.5478C25.0766 15.1243 25.233 15.78 25.233 16.5148C25.233 17.2572 25.0766 17.9167 24.7638 18.4932C24.4511 19.0698 23.9895 19.5239 23.379 19.8555C22.7685 20.1833 22.0167 20.3472 21.1236 20.3472H18.2465V18.6232H20.841C21.361 18.6232 21.7869 18.5328 22.1185 18.3519C22.4501 18.171 22.695 17.9223 22.8533 17.6058C23.0153 17.2892 23.0964 16.9256 23.0964 16.5148C23.0964 16.1041 23.0153 15.7423 22.8533 15.4296C22.695 15.1168 22.4482 14.8737 22.1128 14.7004C21.7812 14.5233 21.3535 14.4347 20.8297 14.4347H18.9078V24.2588H16.8108ZM29.3071 24.434C28.7569 24.434 28.2613 24.336 27.8204 24.1401C27.3833 23.9404 27.0366 23.6464 26.7804 23.2583C26.5279 22.8702 26.4017 22.3916 26.4017 21.8226C26.4017 21.3327 26.4921 20.9276 26.673 20.6073C26.8539 20.287 27.1007 20.0307 27.4135 19.8385C27.7262 19.6463 28.0786 19.5013 28.4705 19.4033C28.8662 19.3015 29.275 19.228 29.6971 19.1828C30.2058 19.1301 30.6184 19.083 30.935 19.0415C31.2515 18.9963 31.4814 18.9285 31.6246 18.838C31.7716 18.7438 31.845 18.5987 31.845 18.4028V18.3689C31.845 17.943 31.7188 17.6133 31.4663 17.3797C31.2138 17.146 30.8502 17.0292 30.3754 17.0292C29.8742 17.0292 29.4766 17.1385 29.1827 17.3571C28.8925 17.5756 28.6966 17.8338 28.5948 18.1315L26.6843 17.8601C26.835 17.3326 27.0837 16.8917 27.4304 16.5374C27.7771 16.1795 28.201 15.9119 28.7022 15.7348C29.2034 15.5539 29.7574 15.4635 30.3641 15.4635C30.7824 15.4635 31.1988 15.5125 31.6133 15.6104C32.0278 15.7084 32.4065 15.8705 32.7494 16.0966C33.0924 16.3189 33.3674 16.6222 33.5747 17.0066C33.7857 17.391 33.8912 17.8714 33.8912 18.448V24.2588H31.9242V23.0661H31.8563C31.732 23.3073 31.5568 23.5334 31.3307 23.7444C31.1083 23.9517 30.8276 24.1194 30.4884 24.2475C30.1531 24.3718 29.7593 24.434 29.3071 24.434ZM29.8384 22.9304C30.2491 22.9304 30.6053 22.8494 30.9067 22.6874C31.2082 22.5216 31.4399 22.303 31.602 22.0317C31.7678 21.7604 31.8507 21.4646 31.8507 21.1443V20.1211C31.7866 20.1739 31.6773 20.2229 31.5228 20.2681C31.3721 20.3133 31.2025 20.3529 31.0141 20.3868C30.8257 20.4207 30.6392 20.4509 30.4545 20.4773C30.2699 20.5036 30.1097 20.5262 29.9741 20.5451C29.6688 20.5865 29.3956 20.6544 29.1544 20.7486C28.9133 20.8428 28.723 20.9747 28.5835 21.1443C28.4441 21.3101 28.3744 21.5249 28.3744 21.7886C28.3744 22.1655 28.5119 22.45 28.787 22.6422C29.0621 22.8344 29.4126 22.9304 29.8384 22.9304ZM35.9488 24.2588V15.5765H37.9328V17.0236H38.0232C38.1815 16.5224 38.4528 16.1361 38.8372 15.8648C39.2253 15.5897 39.6681 15.4522 40.1655 15.4522C40.2786 15.4522 40.4048 15.4578 40.5443 15.4691C40.6875 15.4767 40.8062 15.4898 40.9004 15.5087V17.391C40.8137 17.3608 40.6762 17.3345 40.4877 17.3118C40.3031 17.2855 40.1241 17.2723 39.9507 17.2723C39.5777 17.2723 39.2423 17.3533 38.9446 17.5153C38.6507 17.6736 38.4189 17.8941 38.2493 18.1767C38.0798 18.4593 37.995 18.7853 37.995 19.1546V24.2588H35.9488ZM47.0616 15.5765V17.1592H42.0704V15.5765H47.0616ZM43.3027 13.4964H45.3489V21.6473C45.3489 21.9224 45.3904 22.1334 45.4733 22.2804C45.5599 22.4236 45.673 22.5216 45.8124 22.5743C45.9518 22.6271 46.1063 22.6535 46.2759 22.6535C46.404 22.6535 46.5209 22.6441 46.6264 22.6252C46.7357 22.6064 46.8186 22.5894 46.8751 22.5743L47.2199 24.174C47.1106 24.2117 46.9542 24.2531 46.7507 24.2984C46.551 24.3436 46.3061 24.37 46.0159 24.3775C45.5034 24.3926 45.0418 24.3153 44.631 24.1457C44.2203 23.9724 43.8943 23.7048 43.6531 23.3431C43.4157 22.9813 43.2989 22.5291 43.3027 21.9865V13.4964ZM48.7729 24.2588V15.5765H50.8191V24.2588H48.7729ZM49.8017 14.3443C49.4776 14.3443 49.1987 14.2369 48.9651 14.0221C48.7315 13.8035 48.6146 13.5416 48.6146 13.2364C48.6146 12.9274 48.7315 12.6655 48.9651 12.4507C49.1987 12.2321 49.4776 12.1228 49.8017 12.1228C50.1295 12.1228 50.4084 12.2321 50.6382 12.4507C50.8719 12.6655 50.9887 12.9274 50.9887 13.2364C50.9887 13.5416 50.8719 13.8035 50.6382 14.0221C50.4084 14.2369 50.1295 14.3443 49.8017 14.3443ZM56.7105 24.4284C55.8437 24.4284 55.0995 24.2381 54.4777 23.8575C53.8597 23.4769 53.383 22.9512 53.0476 22.2804C52.716 21.6059 52.5502 20.8296 52.5502 19.9516C52.5502 19.0698 52.7198 18.2916 53.0589 17.6171C53.3981 16.9388 53.8767 16.4112 54.4947 16.0344C55.1165 15.6538 55.8513 15.4635 56.6992 15.4635C57.4038 15.4635 58.0275 15.5935 58.5701 15.8535C59.1165 16.1097 59.5518 16.4734 59.8759 16.9444C60.1999 17.4117 60.3846 17.9581 60.4298 18.5837H58.474C58.3949 18.1654 58.2065 17.8168 57.9088 17.5379C57.6149 17.2553 57.2211 17.114 56.7274 17.114C56.3091 17.114 55.9417 17.2271 55.6252 17.4532C55.3086 17.6755 55.0618 17.9958 54.8847 18.4141C54.7114 18.8324 54.6247 19.3336 54.6247 19.9177C54.6247 20.5093 54.7114 21.018 54.8847 21.4438C55.058 21.8659 55.3011 22.1919 55.6139 22.4217C55.9304 22.6478 56.3016 22.7609 56.7274 22.7609C57.0289 22.7609 57.2983 22.7043 57.5357 22.5913C57.7769 22.4745 57.9785 22.3068 58.1405 22.0882C58.3026 21.8697 58.4138 21.604 58.474 21.2912H60.4298C60.3808 21.9055 60.1999 22.45 59.8872 22.9248C59.5744 23.3958 59.1486 23.7651 58.6097 24.0327C58.0708 24.2965 57.4378 24.4284 56.7105 24.4284ZM62.11 24.2588V15.5765H64.1562V24.2588H62.11ZM63.1388 14.3443C62.8147 14.3443 62.5359 14.2369 62.3022 14.0221C62.0686 13.8035 61.9518 13.5416 61.9518 13.2364C61.9518 12.9274 62.0686 12.6655 62.3022 12.4507C62.5359 12.2321 62.8147 12.1228 63.1388 12.1228C63.4666 12.1228 63.7455 12.2321 63.9754 12.4507C64.209 12.6655 64.3258 12.9274 64.3258 13.2364C64.3258 13.5416 64.209 13.8035 63.9754 14.0221C63.7455 14.2369 63.4666 14.3443 63.1388 14.3443ZM66.2604 27.5146V15.5765H68.2727V17.0123H68.3914C68.4969 16.8012 68.6458 16.577 68.8379 16.3396C69.0301 16.0984 69.2901 15.8931 69.618 15.7235C69.9458 15.5501 70.3641 15.4635 70.8728 15.4635C71.5436 15.4635 72.1484 15.6349 72.6873 15.9779C73.2299 16.317 73.6595 16.8201 73.9761 17.4871C74.2964 18.1503 74.4565 18.9643 74.4565 19.929C74.4565 20.8824 74.3002 21.6925 73.9874 22.3595C73.6746 23.0265 73.2488 23.5353 72.7099 23.8857C72.171 24.2362 71.5606 24.4114 70.8785 24.4114C70.3811 24.4114 69.9684 24.3285 69.6406 24.1627C69.3128 23.9969 69.049 23.7972 68.8492 23.5635C68.6533 23.3261 68.5007 23.1019 68.3914 22.8909H68.3066V27.5146H66.2604ZM68.267 19.9177C68.267 20.4791 68.3462 20.9709 68.5044 21.393C68.6665 21.815 68.8982 22.1447 69.1997 22.3822C69.5049 22.6158 69.8742 22.7326 70.3076 22.7326C70.7598 22.7326 71.1385 22.612 71.4437 22.3708C71.749 22.1259 71.9789 21.7924 72.1334 21.3704C72.2916 20.9445 72.3708 20.4603 72.3708 19.9177C72.3708 19.3788 72.2935 18.9002 72.139 18.4819C71.9845 18.0636 71.7546 17.7358 71.4494 17.4984C71.1442 17.261 70.7636 17.1423 70.3076 17.1423C69.8705 17.1423 69.4993 17.2572 69.194 17.4871C68.8888 17.7169 68.6571 18.0391 68.4988 18.4537C68.3443 18.8682 68.267 19.3562 68.267 19.9177ZM78.7072 24.434C78.1571 24.434 77.6615 24.336 77.2206 24.1401C76.7835 23.9404 76.4368 23.6464 76.1806 23.2583C75.9281 22.8702 75.8018 22.3916 75.8018 21.8226C75.8018 21.3327 75.8923 20.9276 76.0732 20.6073C76.254 20.287 76.5009 20.0307 76.8136 19.8385C77.1264 19.6463 77.4788 19.5013 77.8707 19.4033C78.2663 19.3015 78.6752 19.228 79.0973 19.1828C79.606 19.1301 80.0186 19.083 80.3352 19.0415C80.6517 18.9963 80.8816 18.9285 81.0248 18.838C81.1717 18.7438 81.2452 18.5987 81.2452 18.4028V18.3689C81.2452 17.943 81.119 17.6133 80.8665 17.3797C80.614 17.146 80.2504 17.0292 79.7756 17.0292C79.2744 17.0292 78.8768 17.1385 78.5829 17.3571C78.2927 17.5756 78.0968 17.8338 77.995 18.1315L76.0845 17.8601C76.2352 17.3326 76.4839 16.8917 76.8306 16.5374C77.1773 16.1795 77.6012 15.9119 78.1024 15.7348C78.6036 15.5539 79.1575 15.4635 79.7643 15.4635C80.1825 15.4635 80.5989 15.5125 81.0135 15.6104C81.428 15.7084 81.8067 15.8705 82.1496 16.0966C82.4925 16.3189 82.7676 16.6222 82.9749 17.0066C83.1859 17.391 83.2914 17.8714 83.2914 18.448V24.2588H81.3243V23.0661H81.2565C81.1322 23.3073 80.9569 23.5334 80.7308 23.7444C80.5085 23.9517 80.2278 24.1194 79.8886 24.2475C79.5532 24.3718 79.1594 24.434 78.7072 24.434ZM79.2386 22.9304C79.6493 22.9304 80.0054 22.8494 80.3069 22.6874C80.6084 22.5216 80.8401 22.303 81.0022 22.0317C81.168 21.7604 81.2509 21.4646 81.2509 21.1443V20.1211C81.1868 20.1739 81.0775 20.2229 80.923 20.2681C80.7723 20.3133 80.6027 20.3529 80.4143 20.3868C80.2259 20.4207 80.0393 20.4509 79.8547 20.4773C79.67 20.5036 79.5099 20.5262 79.3742 20.5451C79.069 20.5865 78.7958 20.6544 78.5546 20.7486C78.3134 20.8428 78.1231 20.9747 77.9837 21.1443C77.8443 21.3101 77.7746 21.5249 77.7746 21.7886C77.7746 22.1655 77.9121 22.45 78.1872 22.6422C78.4623 22.8344 78.8127 22.9304 79.2386 22.9304ZM89.6844 15.5765V17.1592H84.6933V15.5765H89.6844ZM85.9255 13.4964H87.9717V21.6473C87.9717 21.9224 88.0132 22.1334 88.0961 22.2804C88.1827 22.4236 88.2958 22.5216 88.4352 22.5743C88.5746 22.6271 88.7292 22.6535 88.8987 22.6535C89.0268 22.6535 89.1437 22.6441 89.2492 22.6252C89.3585 22.6064 89.4414 22.5894 89.4979 22.5743L89.8427 24.174C89.7334 24.2117 89.577 24.2531 89.3735 24.2984C89.1738 24.3436 88.9289 24.37 88.6387 24.3775C88.1262 24.3926 87.6646 24.3153 87.2538 24.1457C86.8431 23.9724 86.5171 23.7048 86.276 23.3431C86.0386 22.9813 85.9217 22.5291 85.9255 21.9865V13.4964ZM95.1462 24.4284C94.2757 24.4284 93.5239 24.2475 92.8908 23.8857C92.2615 23.5202 91.7773 23.0039 91.4381 22.3369C91.099 21.6662 90.9294 20.8767 90.9294 19.9685C90.9294 19.0754 91.099 18.2916 91.4381 17.6171C91.781 16.9388 92.2596 16.4112 92.8739 16.0344C93.4881 15.6538 94.2097 15.4635 95.0388 15.4635C95.5739 15.4635 96.0788 15.5501 96.5536 15.7235C97.0322 15.8931 97.4543 16.1568 97.8198 16.5148C98.1891 16.8728 98.4793 17.3288 98.6903 17.8827C98.9013 18.4329 99.0068 19.0886 99.0068 19.8498V20.4773H91.8903V19.098H97.0454C97.0416 18.7061 96.9569 18.3576 96.791 18.0523C96.6252 17.7433 96.3935 17.5003 96.0958 17.3232C95.8019 17.146 95.4589 17.0575 95.067 17.0575C94.6487 17.0575 94.2813 17.1592 93.9648 17.3627C93.6482 17.5624 93.4014 17.8262 93.2243 18.1541C93.051 18.4781 92.9624 18.8343 92.9586 19.2224V20.4264C92.9586 20.9313 93.051 21.3647 93.2356 21.7265C93.4203 22.0845 93.6784 22.3595 94.01 22.5517C94.3416 22.7401 94.7298 22.8344 95.1744 22.8344C95.4721 22.8344 95.7416 22.7929 95.9827 22.71C96.2239 22.6233 96.4331 22.4971 96.6102 22.3313C96.7873 22.1655 96.9211 21.9601 97.0115 21.7152L98.922 21.93C98.8015 22.4349 98.5716 22.8758 98.2324 23.2526C97.8971 23.6257 97.4675 23.9159 96.9437 24.1231C96.4199 24.3266 95.8207 24.4284 95.1462 24.4284Z" fill="white"/>
</svg>
