<svg width="126" height="18" viewBox="0 0 126 18" fill="none" xmlns="http://www.w3.org/2000/svg">
<path d="M0.0400694 17V0.152976H5.73252C7.05418 0.152976 8.13454 0.391532 8.9736 0.868645C9.81814 1.34027 10.4433 1.97917 10.8491 2.78532C11.255 3.59148 11.4579 4.49087 11.4579 5.48348C11.4579 6.47609 11.255 7.37822 10.8491 8.18986C10.4488 9.0015 9.82911 9.64862 8.99005 10.1312C8.15099 10.6083 7.07611 10.8469 5.76543 10.8469H1.68529V9.03715H5.69962C6.60449 9.03715 7.33112 8.88085 7.87953 8.56826C8.42793 8.25567 8.82553 7.8334 9.07231 7.30144C9.32458 6.76401 9.45071 6.15802 9.45071 5.48348C9.45071 4.80894 9.32458 4.20569 9.07231 3.67374C8.82553 3.14179 8.42519 2.725 7.8713 2.42338C7.31741 2.11627 6.58255 1.96271 5.66671 1.96271H2.08014V17H0.0400694ZM18.1992 17.2961C17.3985 17.2961 16.6718 17.1453 16.0192 16.8437C15.3666 16.5366 14.8484 16.0951 14.4645 15.5193C14.0806 14.938 13.8887 14.236 13.8887 13.4134C13.8887 12.6895 14.0313 12.1027 14.3164 11.653C14.6016 11.1979 14.9828 10.8414 15.4599 10.5837C15.937 10.3259 16.4634 10.134 17.0393 10.0078C17.6206 9.87621 18.2046 9.77201 18.7914 9.69524C19.5592 9.59652 20.1816 9.52249 20.6588 9.47313C21.1414 9.41829 21.4923 9.3278 21.7117 9.20167C21.9365 9.07554 22.049 8.85617 22.049 8.54358V8.47777C22.049 7.66613 21.8269 7.03547 21.3826 6.58578C20.9439 6.13608 20.2776 5.91124 19.3837 5.91124C18.4569 5.91124 17.7303 6.11415 17.2038 6.51997C16.6773 6.92579 16.3072 7.35903 16.0933 7.81969L14.2506 7.1616C14.5797 6.39383 15.0184 5.79607 15.5668 5.36831C16.1207 4.93507 16.7239 4.63345 17.3765 4.46345C18.0346 4.28796 18.6818 4.20021 19.3179 4.20021C19.7237 4.20021 20.1899 4.24957 20.7163 4.34828C21.2483 4.44151 21.761 4.63619 22.2546 4.93233C22.7537 5.22847 23.1677 5.67542 23.4968 6.27318C23.8258 6.87095 23.9903 7.67162 23.9903 8.6752V17H22.049V15.289H21.9502C21.8186 15.5632 21.5993 15.8566 21.2922 16.1692C20.9851 16.4818 20.5765 16.7477 20.0665 16.9671C19.5565 17.1865 18.934 17.2961 18.1992 17.2961ZM18.4953 15.5522C19.2631 15.5522 19.9102 15.4014 20.4366 15.0998C20.9686 14.7982 21.3689 14.4088 21.6377 13.9317C21.9119 13.4546 22.049 12.9528 22.049 12.4263V10.6495C21.9667 10.7482 21.7857 10.8387 21.506 10.9209C21.2318 10.9977 20.9138 11.0662 20.5518 11.1266C20.1954 11.1814 19.8471 11.2308 19.5071 11.2746C19.1726 11.313 18.9011 11.3459 18.6927 11.3734C18.1882 11.4392 17.7166 11.5461 17.2778 11.6942C16.8446 11.8368 16.4936 12.0534 16.2249 12.344C15.9617 12.6292 15.83 13.0186 15.83 13.5121C15.83 14.1867 16.0796 14.6967 16.5786 15.0422C17.0831 15.3822 17.722 15.5522 18.4953 15.5522ZM36.4837 7.19451L34.7398 7.68807C34.6301 7.39742 34.4683 7.11499 34.2544 6.84078C34.046 6.5611 33.7609 6.33077 33.3989 6.14979C33.037 5.96882 32.5736 5.87833 32.0087 5.87833C31.2354 5.87833 30.5911 6.05656 30.0756 6.41303C29.5655 6.76401 29.3105 7.21096 29.3105 7.75388C29.3105 8.23648 29.486 8.61762 29.837 8.89731C30.188 9.17699 30.7364 9.41006 31.4822 9.59652L33.3578 10.0572C34.4875 10.3314 35.3293 10.7509 35.8832 11.3158C36.4371 11.8751 36.714 12.5963 36.714 13.4792C36.714 14.2031 36.5056 14.8502 36.0888 15.4206C35.6775 15.9909 35.1017 16.4406 34.3614 16.7697C33.621 17.0987 32.76 17.2632 31.7784 17.2632C30.4896 17.2632 29.423 16.9835 28.5784 16.4242C27.7339 15.8648 27.1992 15.0477 26.9743 13.9728L28.817 13.5121C28.9925 14.1922 29.3242 14.7022 29.8123 15.0422C30.3059 15.3822 30.9503 15.5522 31.7455 15.5522C32.6503 15.5522 33.3687 15.3603 33.9007 14.9764C34.4381 14.587 34.7069 14.1209 34.7069 13.5779C34.7069 13.1392 34.5533 12.7718 34.2462 12.4757C33.9391 12.174 33.4675 11.9492 32.8313 11.8011L30.7254 11.3075C29.5683 11.0333 28.7183 10.6083 28.1753 10.0325C27.6379 9.4512 27.3692 8.72456 27.3692 7.85259C27.3692 7.13966 27.5694 6.509 27.9697 5.96059C28.3755 5.41219 28.9267 4.98169 29.6231 4.6691C30.3251 4.35651 31.1203 4.20021 32.0087 4.20021C33.2591 4.20021 34.2407 4.47441 34.9536 5.02282C35.672 5.57122 36.1821 6.29512 36.4837 7.19451ZM45.1314 4.36473V6.00995H38.5834V4.36473H45.1314ZM40.4918 1.33753H42.4332V13.3805C42.4332 13.9289 42.5127 14.3402 42.6718 14.6144C42.8363 14.8832 43.0447 15.0641 43.2969 15.1574C43.5547 15.2451 43.8262 15.289 44.1113 15.289C44.3252 15.289 44.5007 15.278 44.6378 15.2561C44.7749 15.2286 44.8846 15.2067 44.9668 15.1903L45.3617 16.9342C45.2301 16.9835 45.0464 17.0329 44.8105 17.0823C44.5747 17.1371 44.2758 17.1645 43.9139 17.1645C43.3655 17.1645 42.8281 17.0466 42.3016 16.8108C41.7806 16.575 41.3474 16.2158 41.0019 15.7332C40.6619 15.2506 40.4918 14.6419 40.4918 13.907V1.33753ZM54.8299 17V0.152976H64.9974V1.96271H56.87V7.65517H64.4709V9.46491H56.87V15.1903H65.129V17H54.8299ZM78.7431 4.36473L74.0707 17H72.0965L67.4241 4.36473H69.5299L73.0178 14.4335H73.1494L76.6373 4.36473H78.7431ZM86.1507 17.2632C84.9333 17.2632 83.8831 16.9945 83.0001 16.4571C82.1227 15.9142 81.4454 15.1574 80.9683 14.1867C80.4967 13.2105 80.2609 12.0753 80.2609 10.7811C80.2609 9.48684 80.4967 8.34616 80.9683 7.35903C81.4454 6.36641 82.109 5.59316 82.959 5.03927C83.8145 4.4799 84.8126 4.20021 85.9533 4.20021C86.6114 4.20021 87.2613 4.30989 87.9029 4.52925C88.5445 4.74862 89.1286 5.10508 89.655 5.59865C90.1815 6.08673 90.601 6.73384 90.9136 7.54C91.2262 8.34616 91.3825 9.33877 91.3825 10.5178V11.3405H81.6428V9.66233H89.4083C89.4083 8.9494 89.2657 8.31325 88.9805 7.75388C88.7008 7.19451 88.3005 6.75304 87.7795 6.42948C87.264 6.10592 86.6553 5.94414 85.9533 5.94414C85.1801 5.94414 84.511 6.13608 83.9461 6.51997C83.3868 6.89837 82.9563 7.39193 82.6546 8.00066C82.353 8.60939 82.2022 9.262 82.2022 9.95847V11.0772C82.2022 12.0314 82.3667 12.8403 82.6958 13.5039C83.0303 14.162 83.4937 14.6638 84.086 15.0093C84.6783 15.3493 85.3665 15.5193 86.1507 15.5193C86.6608 15.5193 87.1214 15.448 87.5327 15.3054C87.9495 15.1574 88.3087 14.938 88.6103 14.6473C88.912 14.3512 89.145 13.9838 89.3096 13.545L91.1851 14.0715C90.9877 14.7077 90.6559 15.267 90.1897 15.7496C89.7236 16.2267 89.1478 16.5997 88.4623 16.8684C87.7768 17.1316 87.0062 17.2632 86.1507 17.2632ZM96.277 9.3991V17H94.3357V4.36473H96.2112V6.33899H96.3758C96.6719 5.69736 97.1216 5.18186 97.7248 4.79249C98.3281 4.39764 99.1068 4.20021 100.061 4.20021C100.917 4.20021 101.665 4.3757 102.307 4.72668C102.948 5.07218 103.447 5.59865 103.804 6.30609C104.16 7.00805 104.339 7.89646 104.339 8.97134V17H102.397V9.10296C102.397 8.11034 102.14 7.33709 101.624 6.7832C101.108 6.22383 100.401 5.94414 99.5017 5.94414C98.882 5.94414 98.3281 6.0785 97.84 6.34722C97.3574 6.61594 96.9763 7.00805 96.6966 7.52355C96.4169 8.03905 96.277 8.66423 96.277 9.3991ZM113.381 4.36473V6.00995H106.833V4.36473H113.381ZM108.742 1.33753H110.683V13.3805C110.683 13.9289 110.762 14.3402 110.922 14.6144C111.086 14.8832 111.294 15.0641 111.547 15.1574C111.804 15.2451 112.076 15.289 112.361 15.289C112.575 15.289 112.75 15.278 112.888 15.2561C113.025 15.2286 113.134 15.2067 113.217 15.1903L113.611 16.9342C113.48 16.9835 113.296 17.0329 113.06 17.0823C112.825 17.1371 112.526 17.1645 112.164 17.1645C111.615 17.1645 111.078 17.0466 110.551 16.8108C110.03 16.575 109.597 16.2158 109.252 15.7332C108.912 15.2506 108.742 14.6419 108.742 13.907V1.33753ZM125.025 7.19451L123.281 7.68807C123.172 7.39742 123.01 7.11499 122.796 6.84078C122.588 6.5611 122.302 6.33077 121.94 6.14979C121.578 5.96882 121.115 5.87833 120.55 5.87833C119.777 5.87833 119.133 6.05656 118.617 6.41303C118.107 6.76401 117.852 7.21096 117.852 7.75388C117.852 8.23648 118.028 8.61762 118.378 8.89731C118.729 9.17699 119.278 9.41006 120.024 9.59652L121.899 10.0572C123.029 10.3314 123.871 10.7509 124.425 11.3158C124.979 11.8751 125.255 12.5963 125.255 13.4792C125.255 14.2031 125.047 14.8502 124.63 15.4206C124.219 15.9909 123.643 16.4406 122.903 16.7697C122.162 17.0987 121.301 17.2632 120.32 17.2632C119.031 17.2632 117.964 16.9835 117.12 16.4242C116.275 15.8648 115.741 15.0477 115.516 13.9728L117.358 13.5121C117.534 14.1922 117.866 14.7022 118.354 15.0422C118.847 15.3822 119.492 15.5522 120.287 15.5522C121.192 15.5522 121.91 15.3603 122.442 14.9764C122.98 14.587 123.248 14.1209 123.248 13.5779C123.248 13.1392 123.095 12.7718 122.788 12.4757C122.481 12.174 122.009 11.9492 121.373 11.8011L119.267 11.3075C118.11 11.0333 117.26 10.6083 116.717 10.0325C116.179 9.4512 115.911 8.72456 115.911 7.85259C115.911 7.13966 116.111 6.509 116.511 5.96059C116.917 5.41219 117.468 4.98169 118.165 4.6691C118.867 4.35651 119.662 4.20021 120.55 4.20021C121.801 4.20021 122.782 4.47441 123.495 5.02282C124.214 5.57122 124.724 6.29512 125.025 7.19451Z" fill="black"/>
</svg>
