<svg width="101" height="18" viewBox="0 0 101 18" fill="none" xmlns="http://www.w3.org/2000/svg">
<path d="M3.03687e-05 17.3897V0.526527H5.69794C7.02086 0.526527 8.10225 0.765312 8.94212 1.24288C9.78747 1.71496 10.4133 2.35447 10.8195 3.1614C11.2257 3.96833 11.4288 4.86857 11.4288 5.86214C11.4288 6.8557 11.2257 7.7587 10.8195 8.57111C10.4187 9.38353 9.79845 10.0313 8.95859 10.5143C8.11872 10.9919 7.04282 11.2307 5.73087 11.2307H1.64682V9.41921H5.665C6.57074 9.41921 7.29807 9.26277 7.847 8.94988C8.39593 8.63698 8.79391 8.21431 9.04093 7.68184C9.29344 7.14389 9.41969 6.53732 9.41969 5.86214C9.41969 5.18695 9.29344 4.58313 9.04093 4.05066C8.79391 3.5182 8.39319 3.10101 7.83877 2.7991C7.28435 2.4917 6.54878 2.338 5.63206 2.338H2.04205V17.3897H3.03687e-05ZM14.4548 17.3897V4.74232H16.3321V6.6526H16.4638C16.6944 6.02682 17.1116 5.51906 17.7154 5.12931C18.3192 4.73957 18.9999 4.5447 19.7574 4.5447C19.9002 4.5447 20.0786 4.54745 20.2926 4.55294C20.5067 4.55843 20.6687 4.56666 20.7784 4.57764V6.55379C20.7126 6.53732 20.5616 6.51262 20.3256 6.47969C20.095 6.44126 19.8508 6.42205 19.5928 6.42205C18.978 6.42205 18.429 6.55105 17.946 6.80904C17.4684 7.06155 17.0896 7.41287 16.8097 7.86299C16.5352 8.30763 16.398 8.81539 16.398 9.38628V17.3897H14.4548ZM27.9996 17.6532C26.781 17.6532 25.7298 17.3842 24.846 16.8463C23.9677 16.3028 23.2898 15.5453 22.8122 14.5737C22.3402 13.5966 22.1041 12.4603 22.1041 11.1648C22.1041 9.86934 22.3402 8.72756 22.8122 7.73948C23.2898 6.74592 23.954 5.97192 24.8049 5.4175C25.6612 4.85759 26.6602 4.57764 27.802 4.57764C28.4607 4.57764 29.1112 4.68743 29.7535 4.907C30.3957 5.12657 30.9803 5.48338 31.5073 5.97741C32.0343 6.46596 32.4542 7.1137 32.7671 7.92063C33.08 8.72756 33.2364 9.72112 33.2364 10.9013V11.7247H23.4874V10.045H31.2603C31.2603 9.33138 31.1176 8.69462 30.8321 8.13471C30.5522 7.5748 30.1514 7.13291 29.63 6.80904C29.114 6.48517 28.5047 6.32324 27.802 6.32324C27.028 6.32324 26.3583 6.51537 25.7929 6.89962C25.233 7.27838 24.8021 7.77242 24.5002 8.38173C24.1983 8.99105 24.0473 9.64427 24.0473 10.3414V11.4612C24.0473 12.4164 24.212 13.226 24.5414 13.8903C24.8762 14.549 25.3401 15.0512 25.9329 15.3971C26.5258 15.7374 27.2147 15.9076 27.9996 15.9076C28.5101 15.9076 28.9712 15.8362 29.3829 15.6935C29.8001 15.5453 30.1597 15.3257 30.4616 15.0348C30.7635 14.7384 30.9968 14.3706 31.1615 13.9314L33.0388 14.4584C32.8412 15.0952 32.5091 15.6551 32.0425 16.1381C31.5759 16.6157 30.9995 16.989 30.3134 17.2579C29.6272 17.5214 28.856 17.6532 27.9996 17.6532ZM45.151 7.5748L43.4054 8.06884C43.2956 7.77791 43.1337 7.49521 42.9196 7.22074C42.711 6.94079 42.4255 6.71024 42.0633 6.52909C41.701 6.34794 41.2371 6.25737 40.6717 6.25737C39.8977 6.25737 39.2527 6.43577 38.7367 6.79258C38.2262 7.14389 37.971 7.59127 37.971 8.13471C37.971 8.61777 38.1466 8.99928 38.4979 9.27923C38.8493 9.55919 39.3982 9.79248 40.1447 9.97912L42.0221 10.4402C43.1529 10.7147 43.9955 11.1346 44.5499 11.7C45.1043 12.2599 45.3815 12.9818 45.3815 13.8656C45.3815 14.5901 45.1729 15.2379 44.7558 15.8088C44.3441 16.3797 43.7677 16.8298 43.0266 17.1591C42.2856 17.4885 41.4237 17.6532 40.4412 17.6532C39.1512 17.6532 38.0835 17.3732 37.2381 16.8133C36.3928 16.2534 35.8576 15.4355 35.6325 14.3596L37.4769 13.8985C37.6526 14.5792 37.9847 15.0897 38.4732 15.43C38.9673 15.7703 39.6123 15.9405 40.4082 15.9405C41.314 15.9405 42.0331 15.7484 42.5655 15.3641C43.1035 14.9744 43.3725 14.5078 43.3725 13.9644C43.3725 13.5252 43.2188 13.1574 42.9114 12.861C42.6039 12.5591 42.1319 12.334 41.4951 12.1858L39.3872 11.6918C38.229 11.4173 37.3781 10.9919 36.8347 10.4155C36.2967 9.83365 36.0278 9.10632 36.0278 8.23352C36.0278 7.51991 36.2281 6.88864 36.6288 6.33971C37.035 5.79078 37.5867 5.35987 38.2839 5.04697C38.9865 4.73408 39.7824 4.57764 40.6717 4.57764C41.9233 4.57764 42.9059 4.8521 43.6195 5.40103C44.3386 5.94997 44.8491 6.67456 45.151 7.5748ZM48.3067 17.3897V4.74232H50.2499V17.3897H48.3067ZM49.2947 2.63442C48.916 2.63442 48.5894 2.50542 48.3149 2.24743C48.0459 1.98943 47.9114 1.67928 47.9114 1.31699C47.9114 0.954694 48.0459 0.644547 48.3149 0.386549C48.5894 0.128552 48.916 -0.000446747 49.2947 -0.000446747C49.6735 -0.000446747 49.9974 0.128552 50.2663 0.386549C50.5408 0.644547 50.678 0.954694 50.678 1.31699C50.678 1.67928 50.5408 1.98943 50.2663 2.24743C49.9974 2.50542 49.6735 2.63442 49.2947 2.63442ZM58.5847 17.6532C57.5308 17.6532 56.6003 17.3869 55.7934 16.8545C54.9865 16.3165 54.3552 15.559 53.8996 14.5819C53.444 13.5993 53.2162 12.4383 53.2162 11.0989C53.2162 9.77053 53.444 8.61777 53.8996 7.64067C54.3552 6.66358 54.9892 5.9088 55.8016 5.37633C56.614 4.84387 57.5527 4.57764 58.6176 4.57764C59.441 4.57764 60.0915 4.71487 60.5691 4.98934C61.0522 5.25831 61.4199 5.56572 61.6724 5.91154C61.9304 6.25188 62.1308 6.53183 62.2735 6.75141H62.4382V0.526527H64.3814V17.3897H62.5041V15.4465H62.2735C62.1308 15.677 61.9277 15.968 61.6642 16.3193C61.4007 16.6651 61.0247 16.9752 60.5362 17.2497C60.0476 17.5187 59.3971 17.6532 58.5847 17.6532ZM58.8482 15.9076C59.6277 15.9076 60.2864 15.7045 60.8243 15.2983C61.3623 14.8866 61.7713 14.3184 62.0512 13.5938C62.3312 12.8638 62.4711 12.0211 62.4711 11.066C62.4711 10.1218 62.3339 9.2957 62.0594 8.58758C61.785 7.87397 61.3788 7.31955 60.8408 6.92432C60.3029 6.5236 59.6387 6.32324 58.8482 6.32324C58.0248 6.32324 57.3386 6.53458 56.7897 6.95726C56.2463 7.37444 55.8373 7.94259 55.5628 8.66169C55.2939 9.3753 55.1594 10.1767 55.1594 11.066C55.1594 11.9663 55.2966 12.7842 55.5711 13.5197C55.851 14.2498 56.2627 14.8317 56.8062 15.2653C57.3551 15.6935 58.0358 15.9076 58.8482 15.9076ZM73.5129 17.6532C72.2943 17.6532 71.2431 17.3842 70.3593 16.8463C69.481 16.3028 68.8031 15.5453 68.3255 14.5737C67.8534 13.5966 67.6174 12.4603 67.6174 11.1648C67.6174 9.86934 67.8534 8.72756 68.3255 7.73948C68.8031 6.74592 69.4673 5.97192 70.3181 5.4175C71.1744 4.85759 72.1735 4.57764 73.3153 4.57764C73.974 4.57764 74.6245 4.68743 75.2667 4.907C75.909 5.12657 76.4936 5.48338 77.0206 5.97741C77.5475 6.46596 77.9675 7.1137 78.2804 7.92063C78.5932 8.72756 78.7497 9.72112 78.7497 10.9013V11.7247H69.0007V10.045H76.7735C76.7735 9.33138 76.6308 8.69462 76.3454 8.13471C76.0654 7.5748 75.6647 7.13291 75.1432 6.80904C74.6272 6.48517 74.0179 6.32324 73.3153 6.32324C72.5413 6.32324 71.8716 6.51537 71.3062 6.89962C70.7463 7.27838 70.3154 7.77242 70.0135 8.38173C69.7115 8.99105 69.5606 9.64427 69.5606 10.3414V11.4612C69.5606 12.4164 69.7253 13.226 70.0546 13.8903C70.3895 14.549 70.8533 15.0512 71.4462 15.3971C72.039 15.7374 72.7279 15.9076 73.5129 15.9076C74.0234 15.9076 74.4845 15.8362 74.8962 15.6935C75.3134 15.5453 75.6729 15.3257 75.9748 15.0348C76.2768 14.7384 76.5101 14.3706 76.6747 13.9314L78.5521 14.4584C78.3545 15.0952 78.0224 15.6551 77.5558 16.1381C77.0892 16.6157 76.5128 16.989 75.8266 17.2579C75.1405 17.5214 74.3692 17.6532 73.5129 17.6532ZM83.6489 9.78151V17.3897H81.7057V4.74232H83.583V6.71847H83.7477C84.0441 6.07622 84.4943 5.56023 85.0981 5.17049C85.7019 4.77525 86.4814 4.57764 87.4365 4.57764C88.2929 4.57764 89.0422 4.7533 89.6844 5.10461C90.3267 5.45044 90.8262 5.97741 91.183 6.68553C91.5398 7.38817 91.7182 8.27744 91.7182 9.35334V17.3897H89.775V9.48508C89.775 8.49152 89.517 7.71753 89.001 7.1631C88.485 6.60319 87.7769 6.32324 86.8766 6.32324C86.2563 6.32324 85.7019 6.45773 85.2134 6.7267C84.7303 6.99568 84.3488 7.38817 84.0688 7.90416C83.7889 8.42016 83.6489 9.04594 83.6489 9.78151ZM100.769 4.74232V6.38911H94.2151V4.74232H100.769ZM96.1254 1.71222H98.0686V13.7667C98.0686 14.3157 98.1482 14.7274 98.3074 15.0018C98.4721 15.2708 98.6807 15.452 98.9332 15.5453C99.1912 15.6331 99.4629 15.677 99.7484 15.677C99.9625 15.677 100.138 15.666 100.275 15.6441C100.413 15.6166 100.522 15.5947 100.605 15.5782L101 17.3238C100.868 17.3732 100.684 17.4226 100.448 17.472C100.212 17.5269 99.913 17.5544 99.5508 17.5544C99.0018 17.5544 98.4639 17.4364 97.9369 17.2003C97.4154 16.9643 96.9818 16.6047 96.6359 16.1217C96.2956 15.6386 96.1254 15.0293 96.1254 14.2937V1.71222Z" fill="black"/>
</svg>
