<svg width="90" height="29" viewBox="0 0 90 29" fill="none" xmlns="http://www.w3.org/2000/svg">
<rect x="0.678478" y="0.678478" width="88.643" height="27.1391" rx="6.32152" fill="#1A3C6C" stroke="#1A3C6C" stroke-width="1.35696"/>
<path d="M15.3841 20V8.56966H19.2463C20.1393 8.56966 20.8723 8.72221 21.4454 9.02732C22.0184 9.3287 22.4425 9.74357 22.7179 10.2719C22.9932 10.8003 23.1309 11.4012 23.1309 12.0747C23.1309 12.7481 22.9932 13.3453 22.7179 13.8662C22.4425 14.3872 22.0202 14.7964 21.4509 15.0941C20.8816 15.388 20.1542 15.535 19.2687 15.535H16.1432V14.2848H19.224C19.8342 14.2848 20.3254 14.1955 20.6975 14.0169C21.0733 13.8383 21.3449 13.5853 21.5123 13.2579C21.6835 12.9267 21.7691 12.5323 21.7691 12.0747C21.7691 11.617 21.6835 11.217 21.5123 10.8747C21.3412 10.5324 21.0677 10.2682 20.6919 10.0822C20.3161 9.89241 19.8194 9.79752 19.2017 9.79752H16.7683V20H15.3841ZM20.7644 14.8653L23.5774 20H21.97L19.2017 14.8653H20.7644ZM28.7609 20.1786C27.9349 20.1786 27.2224 19.9963 26.6233 19.6316C26.028 19.2633 25.5685 18.7498 25.2448 18.0912C24.9248 17.4289 24.7648 16.6587 24.7648 15.7806C24.7648 14.9025 24.9248 14.1286 25.2448 13.4588C25.5685 12.7853 26.0187 12.2607 26.5954 11.8849C27.1759 11.5054 27.8531 11.3156 28.627 11.3156C29.0735 11.3156 29.5144 11.39 29.9497 11.5389C30.3851 11.6877 30.7813 11.9296 31.1385 12.2644C31.4957 12.5956 31.7804 13.0346 31.9925 13.5816C32.2046 14.1286 32.3106 14.802 32.3106 15.602V16.1601H25.7024V15.0215H30.9711C30.9711 14.5378 30.8744 14.1062 30.6809 13.7267C30.4911 13.3472 30.2195 13.0477 29.866 12.8281C29.5163 12.6086 29.1033 12.4988 28.627 12.4988C28.1024 12.4988 27.6484 12.6291 27.2652 12.8895C26.8856 13.1463 26.5936 13.4811 26.3889 13.8941C26.1843 14.3072 26.082 14.7499 26.082 15.2225V15.9815C26.082 16.6289 26.1936 17.1778 26.4168 17.628C26.6438 18.0745 26.9582 18.4149 27.3601 18.6493C27.7619 18.88 28.2289 18.9954 28.7609 18.9954C29.107 18.9954 29.4195 18.947 29.6986 18.8503C29.9814 18.7498 30.2251 18.601 30.4297 18.4038C30.6344 18.2028 30.7925 17.9536 30.9041 17.6559L32.1766 18.0131C32.0427 18.4447 31.8176 18.8242 31.5013 19.1517C31.185 19.4754 30.7944 19.7284 30.3293 19.9107C29.8642 20.0893 29.3414 20.1786 28.7609 20.1786ZM37.7746 23.3934C37.1384 23.3934 36.5914 23.3115 36.1337 23.1478C35.6761 22.9878 35.2947 22.7757 34.9896 22.5116C34.6882 22.2511 34.4482 21.972 34.2696 21.6744L35.3189 20.9376C35.4379 21.0939 35.5886 21.2725 35.771 21.4734C35.9533 21.6781 36.2026 21.8548 36.5188 22.0037C36.8388 22.1562 37.2574 22.2325 37.7746 22.2325C38.4667 22.2325 39.0378 22.0651 39.488 21.7302C39.9383 21.3953 40.1634 20.8707 40.1634 20.1563V18.4149H40.0518C39.955 18.5712 39.8173 18.7647 39.6387 18.9954C39.4639 19.2223 39.2108 19.4251 38.8797 19.6037C38.5523 19.7786 38.1095 19.8661 37.5514 19.8661C36.8593 19.8661 36.2379 19.7023 35.6872 19.3749C35.1403 19.0475 34.7068 18.5712 34.3868 17.9461C34.0705 17.321 33.9124 16.562 33.9124 15.669C33.9124 14.7909 34.0668 14.0262 34.3756 13.3751C34.6845 12.7202 35.1142 12.2142 35.6649 11.857C36.2156 11.4961 36.8519 11.3156 37.5737 11.3156C38.1318 11.3156 38.5746 11.4086 38.902 11.5947C39.2332 11.777 39.4862 11.9854 39.6611 12.2198C39.8397 12.4505 39.9773 12.6402 40.0741 12.7891H40.208V11.4272H41.4805V20.2456C41.4805 20.9823 41.3131 21.5813 40.9782 22.0427C40.6471 22.5078 40.2006 22.8483 39.6387 23.0641C39.0806 23.2836 38.4592 23.3934 37.7746 23.3934ZM37.73 18.6828C38.2583 18.6828 38.7048 18.5619 39.0695 18.3201C39.4341 18.0782 39.7113 17.7303 39.9011 17.2764C40.0908 16.8224 40.1857 16.2792 40.1857 15.6466C40.1857 15.029 40.0927 14.4839 39.9066 14.0113C39.7206 13.5388 39.4453 13.1686 39.0806 12.9007C38.716 12.6328 38.2658 12.4988 37.73 12.4988C37.1718 12.4988 36.7067 12.6402 36.3347 12.923C35.9663 13.2058 35.6891 13.5853 35.5031 14.0616C35.3207 14.5378 35.2296 15.0662 35.2296 15.6466C35.2296 16.242 35.3226 16.7685 35.5086 17.2261C35.6984 17.6801 35.9775 18.0373 36.3458 18.2977C36.7179 18.5545 37.1793 18.6828 37.73 18.6828ZM43.8916 20V11.4272H45.2088V20H43.8916ZM44.5614 9.99845C44.3046 9.99845 44.0833 9.91101 43.8972 9.73613C43.7149 9.56125 43.6237 9.35103 43.6237 9.10545C43.6237 8.85988 43.7149 8.64965 43.8972 8.47478C44.0833 8.2999 44.3046 8.21246 44.5614 8.21246C44.8181 8.21246 45.0376 8.2999 45.22 8.47478C45.406 8.64965 45.499 8.85988 45.499 9.10545C45.499 9.35103 45.406 9.56125 45.22 9.73613C45.0376 9.91101 44.8181 9.99845 44.5614 9.99845ZM53.6937 13.3472L52.5104 13.6821C52.436 13.4849 52.3263 13.2932 52.1811 13.1072C52.0398 12.9174 51.8463 12.7612 51.6007 12.6384C51.3551 12.5156 51.0407 12.4542 50.6575 12.4542C50.1328 12.4542 49.6956 12.5751 49.3459 12.817C48.9998 13.0551 48.8268 13.3583 48.8268 13.7267C48.8268 14.0541 48.9459 14.3127 49.184 14.5025C49.4222 14.6923 49.7942 14.8504 50.3003 14.9769L51.5728 15.2894C52.3393 15.4755 52.9104 15.7601 53.2862 16.1434C53.662 16.5229 53.8499 17.0122 53.8499 17.6112C53.8499 18.1024 53.7085 18.5414 53.4258 18.9284C53.1467 19.3154 52.756 19.6205 52.2537 19.8437C51.7514 20.067 51.1672 20.1786 50.5012 20.1786C49.6268 20.1786 48.9031 19.9888 48.3301 19.6093C47.7571 19.2298 47.3943 18.6754 47.2418 17.9461L48.492 17.6336C48.611 18.0949 48.8361 18.441 49.1673 18.6717C49.5022 18.9024 49.9394 19.0177 50.4789 19.0177C51.0928 19.0177 51.5802 18.8875 51.9412 18.627C52.3058 18.3628 52.4881 18.0466 52.4881 17.6782C52.4881 17.3805 52.3839 17.1313 52.1756 16.9303C51.9672 16.7257 51.6472 16.5731 51.2156 16.4727L49.7868 16.1378C49.0017 15.9518 48.425 15.6634 48.0566 15.2727C47.692 14.8783 47.5097 14.3853 47.5097 13.7937C47.5097 13.31 47.6455 12.8821 47.9171 12.51C48.1924 12.1379 48.5664 11.8458 49.0389 11.6337C49.5152 11.4217 50.0547 11.3156 50.6575 11.3156C51.5058 11.3156 52.1718 11.5017 52.6555 11.8737C53.143 12.2458 53.489 12.737 53.6937 13.3472ZM59.5609 11.4272V12.5435H55.1183V11.4272H59.5609ZM56.4131 9.37335H57.7303V17.5443C57.7303 17.9163 57.7842 18.1954 57.8921 18.3814C58.0038 18.5638 58.1451 18.6866 58.3163 18.7498C58.4912 18.8093 58.6754 18.8391 58.8688 18.8391C59.014 18.8391 59.133 18.8317 59.226 18.8168C59.3191 18.7982 59.3935 18.7833 59.4493 18.7721L59.7172 19.9554C59.6279 19.9888 59.5032 20.0223 59.3432 20.0558C59.1833 20.093 58.9805 20.1116 58.7349 20.1116C58.3628 20.1116 57.9982 20.0316 57.641 19.8716C57.2875 19.7116 56.9936 19.4679 56.7591 19.1405C56.5284 18.8131 56.4131 18.4 56.4131 17.9015V9.37335ZM65.0445 20.1786C64.2184 20.1786 63.5059 19.9963 62.9069 19.6316C62.3115 19.2633 61.852 18.7498 61.5283 18.0912C61.2083 17.4289 61.0483 16.6587 61.0483 15.7806C61.0483 14.9025 61.2083 14.1286 61.5283 13.4588C61.852 12.7853 62.3022 12.2607 62.879 11.8849C63.4594 11.5054 64.1366 11.3156 64.9105 11.3156C65.357 11.3156 65.7979 11.39 66.2333 11.5389C66.6686 11.6877 67.0649 11.9296 67.4221 12.2644C67.7793 12.5956 68.0639 13.0346 68.276 13.5816C68.4881 14.1286 68.5941 14.802 68.5941 15.602V16.1601H61.986V15.0215H67.2546C67.2546 14.5378 67.1579 14.1062 66.9644 13.7267C66.7746 13.3472 66.503 13.0477 66.1495 12.8281C65.7998 12.6086 65.3868 12.4988 64.9105 12.4988C64.3859 12.4988 63.9319 12.6291 63.5487 12.8895C63.1692 13.1463 62.8771 13.4811 62.6724 13.8941C62.4678 14.3072 62.3655 14.7499 62.3655 15.2225V15.9815C62.3655 16.6289 62.4771 17.1778 62.7004 17.628C62.9273 18.0745 63.2417 18.4149 63.6436 18.6493C64.0454 18.88 64.5124 18.9954 65.0445 18.9954C65.3905 18.9954 65.703 18.947 65.9821 18.8503C66.2649 18.7498 66.5086 18.601 66.7133 18.4038C66.9179 18.2028 67.076 17.9536 67.1877 17.6559L68.4602 18.0131C68.3262 18.4447 68.1011 18.8242 67.7848 19.1517C67.4686 19.4754 67.0779 19.7284 66.6128 19.9107C66.1477 20.0893 65.6249 20.1786 65.0445 20.1786ZM70.5978 20V11.4272H71.8703V12.7221H71.9596C72.1159 12.2979 72.3987 11.9537 72.8079 11.6896C73.2172 11.4254 73.6786 11.2933 74.1921 11.2933C74.2888 11.2933 74.4098 11.2952 74.5549 11.2989C74.7 11.3026 74.8097 11.3082 74.8842 11.3156V12.6551C74.8395 12.6439 74.7372 12.6272 74.5772 12.6049C74.4209 12.5788 74.2553 12.5658 74.0805 12.5658C73.6637 12.5658 73.2917 12.6533 72.9642 12.8281C72.6405 12.9993 72.3838 13.2374 72.194 13.5425C72.008 13.8439 71.915 14.1881 71.915 14.5751V20H70.5978Z" fill="white"/>
</svg>
