<svg width="105" height="22" viewBox="0 0 105 22" fill="none" xmlns="http://www.w3.org/2000/svg">
<path d="M10.0156 4.47707C9.9161 3.63689 9.51259 2.98464 8.80507 2.52033C8.09755 2.05602 7.22973 1.82387 6.20162 1.82387C5.44988 1.82387 4.79211 1.94547 4.2283 2.18868C3.67002 2.43189 3.23335 2.7663 2.91828 3.19192C2.60874 3.61754 2.45397 4.1012 2.45397 4.64289C2.45397 5.09614 2.56176 5.48583 2.77733 5.81196C2.99843 6.13255 3.28034 6.40063 3.62304 6.61621C3.96575 6.82625 4.32503 7.00037 4.7009 7.13856C5.07677 7.27122 5.42224 7.379 5.73731 7.46191L7.46189 7.92622C7.90409 8.0423 8.39604 8.2026 8.93773 8.40712C9.48495 8.61163 10.0073 8.89077 10.5048 9.24453C11.0078 9.59276 11.4223 10.0405 11.7485 10.5877C12.0746 11.1349 12.2376 11.8065 12.2376 12.6025C12.2376 13.5201 11.9972 14.3492 11.5163 15.0899C11.0409 15.8305 10.3445 16.4192 9.42691 16.8559C8.51488 17.2926 7.40661 17.5109 6.10212 17.5109C4.88607 17.5109 3.83309 17.3147 2.94316 16.9222C2.05876 16.5298 1.36229 15.9826 0.853764 15.2806C0.350762 14.5786 0.0660956 13.7633 -0.000234325 12.8346H2.12232C2.1776 13.4758 2.39317 14.0065 2.76904 14.4266C3.15044 14.8411 3.63133 15.1507 4.21172 15.3552C4.79763 15.5542 5.42777 15.6537 6.10212 15.6537C6.88703 15.6537 7.59178 15.5265 8.21639 15.2723C8.841 15.0125 9.33571 14.6532 9.70052 14.1944C10.0653 13.7301 10.2477 13.1884 10.2477 12.5693C10.2477 12.0055 10.0902 11.5467 9.77515 11.193C9.46008 10.8392 9.04552 10.5518 8.53146 10.3307C8.0174 10.1096 7.46189 9.91612 6.86492 9.7503L4.77552 9.15333C3.44892 8.77193 2.3987 8.22747 1.62485 7.51995C0.851 6.81243 0.464075 5.88658 0.464075 4.74239C0.464075 3.79166 0.721104 2.96253 1.23516 2.25501C1.75475 1.54196 2.45121 0.989214 3.32456 0.596762C4.20343 0.198782 5.18456 -0.00020793 6.26795 -0.00020793C7.36239 -0.00020793 8.33523 0.196018 9.18647 0.58847C10.0377 0.975395 10.7121 1.50603 11.2095 2.18039C11.7125 2.85474 11.9779 3.6203 12.0055 4.47707H10.0156ZM20.6926 17.4777C19.4655 17.4777 18.407 17.2069 17.5171 16.6652C16.6327 16.118 15.9501 15.3552 15.4692 14.3768C14.9938 13.3929 14.7561 12.2487 14.7561 10.9442C14.7561 9.63975 14.9938 8.49003 15.4692 7.49508C15.9501 6.4946 16.6189 5.71523 17.4756 5.15695C18.3379 4.59314 19.3439 4.31124 20.4937 4.31124C21.157 4.31124 21.812 4.42179 22.4587 4.64289C23.1054 4.86399 23.6941 5.22328 24.2247 5.72075C24.7554 6.2127 25.1782 6.86494 25.4933 7.67749C25.8083 8.49003 25.9659 9.49051 25.9659 10.6789V11.508H16.149V9.81663H23.976C23.976 9.09805 23.8323 8.45686 23.5448 7.89306C23.2629 7.32925 22.8594 6.88429 22.3343 6.55817C21.8147 6.23205 21.2012 6.06898 20.4937 6.06898C19.7143 6.06898 19.0399 6.26245 18.4706 6.64937C17.9068 7.03077 17.4729 7.52824 17.1689 8.1418C16.8649 8.75535 16.7128 9.41312 16.7128 10.1151V11.2427C16.7128 12.2045 16.8787 13.0198 17.2103 13.6886C17.5475 14.3519 18.0146 14.8577 18.6115 15.2059C19.2085 15.5486 19.9022 15.72 20.6926 15.72C21.2067 15.72 21.671 15.6481 22.0856 15.5044C22.5057 15.3552 22.8677 15.1341 23.1717 14.8411C23.4757 14.5426 23.7107 14.1723 23.8765 13.7301L25.7669 14.2607C25.5679 14.9019 25.2335 15.4657 24.7636 15.9522C24.2938 16.433 23.7134 16.8089 23.0225 17.0798C22.3315 17.3451 21.5549 17.4777 20.6926 17.4777ZM34.1162 17.4777C32.9222 17.4777 31.8941 17.1958 31.0318 16.632C30.1695 16.0682 29.5062 15.2916 29.0419 14.3022C28.5776 13.3128 28.3455 12.1824 28.3455 10.9111C28.3455 9.61764 28.5831 8.47621 29.0585 7.48679C29.5394 6.49184 30.2082 5.71523 31.065 5.15695C31.9273 4.59314 32.9333 4.31124 34.083 4.31124C34.9785 4.31124 35.7855 4.47707 36.5041 4.80872C37.2226 5.14037 37.8113 5.60468 38.2701 6.20164C38.7289 6.79861 39.0135 7.49508 39.1241 8.29104H37.1674C37.0181 7.71065 36.6865 7.19659 36.1724 6.74887C35.6639 6.29561 34.9785 6.06898 34.1162 6.06898C33.3534 6.06898 32.6846 6.26797 32.1097 6.66595C31.5404 7.05841 31.0954 7.61392 30.7748 8.3325C30.4597 9.04554 30.3022 9.88296 30.3022 10.8447C30.3022 11.8286 30.457 12.6854 30.7665 13.415C31.0816 14.1447 31.5238 14.7112 32.0931 15.1147C32.668 15.5182 33.3423 15.72 34.1162 15.72C34.6247 15.72 35.0862 15.6316 35.5008 15.4547C35.9154 15.2778 36.2664 15.0235 36.5538 14.6919C36.8412 14.3602 37.0457 13.9623 37.1674 13.4979H39.1241C39.0135 14.2497 38.7399 14.9268 38.3033 15.5293C37.8721 16.1263 37.3 16.6016 36.587 16.9554C35.8794 17.3036 35.0558 17.4777 34.1162 17.4777ZM41.9846 17.2124V4.47707H43.875V6.40064H44.0076C44.2398 5.7705 44.6599 5.25921 45.2679 4.86675C45.8759 4.4743 46.5613 4.27808 47.3241 4.27808C47.4678 4.27808 47.6475 4.28084 47.8631 4.28637C48.0786 4.29189 48.2417 4.30019 48.3522 4.31124V6.30114C48.2859 6.28456 48.1339 6.25968 47.8962 6.22652C47.6641 6.18783 47.4181 6.16848 47.1583 6.16848C46.5392 6.16848 45.9865 6.29838 45.5001 6.55817C45.0192 6.81243 44.6378 7.16619 44.3559 7.61945C44.0795 8.06718 43.9413 8.57847 43.9413 9.15333V17.2124H41.9846ZM55.6237 17.4777C54.3966 17.4777 53.338 17.2069 52.4481 16.6652C51.5637 16.118 50.8811 15.3552 50.4002 14.3768C49.9248 13.3929 49.6871 12.2487 49.6871 10.9442C49.6871 9.63975 49.9248 8.49003 50.4002 7.49508C50.8811 6.4946 51.5499 5.71523 52.4067 5.15695C53.269 4.59314 54.275 4.31124 55.4247 4.31124C56.088 4.31124 56.743 4.42179 57.3897 4.64289C58.0364 4.86399 58.6251 5.22328 59.1557 5.72075C59.6864 6.2127 60.1092 6.86494 60.4243 7.67749C60.7394 8.49003 60.8969 9.49051 60.8969 10.6789V11.508H51.0801V9.81663H58.907C58.907 9.09805 58.7633 8.45686 58.4759 7.89306C58.194 7.32925 57.7904 6.88429 57.2653 6.55817C56.7458 6.23205 56.1322 6.06898 55.4247 6.06898C54.6453 6.06898 53.9709 6.26245 53.4016 6.64937C52.8378 7.03077 52.4039 7.52824 52.0999 8.1418C51.7959 8.75535 51.6439 9.41312 51.6439 10.1151V11.2427C51.6439 12.2045 51.8097 13.0198 52.1413 13.6886C52.4785 14.3519 52.9456 14.8577 53.5426 15.2059C54.1395 15.5486 54.8332 15.72 55.6237 15.72C56.1377 15.72 56.602 15.6481 57.0166 15.5044C57.4367 15.3552 57.7987 15.1341 58.1028 14.8411C58.4068 14.5426 58.6417 14.1723 58.8075 13.7301L60.6979 14.2607C60.4989 14.9019 60.1645 15.4657 59.6947 15.9522C59.2248 16.433 58.6444 16.8089 57.9535 17.0798C57.2626 17.3451 56.486 17.4777 55.6237 17.4777ZM69.412 4.47707V6.13531H62.8122V4.47707H69.412ZM64.7357 1.42589H66.6925V13.5643C66.6925 14.117 66.7726 14.5316 66.9329 14.808C67.0988 15.0788 67.3088 15.2612 67.5631 15.3552C67.8229 15.4436 68.0965 15.4878 68.3839 15.4878C68.5995 15.4878 68.7763 15.4768 68.9145 15.4547C69.0527 15.427 69.1633 15.4049 69.2462 15.3883L69.6442 17.1461C69.5115 17.1958 69.3263 17.2456 69.0887 17.2953C68.851 17.3506 68.5497 17.3782 68.1849 17.3782C67.6322 17.3782 67.0905 17.2594 66.5598 17.0217C66.0347 16.784 65.598 16.422 65.2498 15.9356C64.9071 15.4491 64.7357 14.8356 64.7357 14.0949V1.42589ZM76.103 17.5109C75.296 17.5109 74.5636 17.3589 73.9059 17.0549C73.2481 16.7453 72.7257 16.3004 72.3388 15.72C71.9519 15.1341 71.7584 14.4266 71.7584 13.5974C71.7584 12.8678 71.9021 12.2764 72.1896 11.8231C72.477 11.3643 72.8612 11.005 73.3421 10.7452C73.823 10.4855 74.3536 10.292 74.934 10.1649C75.5199 10.0322 76.1086 9.92718 76.7 9.84979C77.4739 9.7503 78.1012 9.67568 78.5821 9.62593C79.0685 9.57065 79.4223 9.47945 79.6434 9.35232C79.87 9.22519 79.9833 9.00409 79.9833 8.68902V8.62269C79.9833 7.80462 79.7595 7.16896 79.3118 6.7157C78.8696 6.26245 78.198 6.03582 77.297 6.03582C76.3628 6.03582 75.6304 6.24034 75.0998 6.64937C74.5692 7.05841 74.1961 7.49508 73.9805 7.95939L72.1232 7.29609C72.4549 6.52224 72.8971 5.91974 73.4498 5.4886C74.0081 5.05193 74.6161 4.74791 75.2739 4.57656C75.9372 4.39968 76.5895 4.31124 77.2307 4.31124C77.6397 4.31124 78.1095 4.36099 78.6402 4.46048C79.1763 4.55445 79.6932 4.75068 80.1906 5.04916C80.6936 5.34765 81.111 5.79814 81.4426 6.40064C81.7743 7.00313 81.9401 7.81015 81.9401 8.82168V17.2124H79.9833V15.4878H79.8839C79.7512 15.7642 79.5301 16.0599 79.2206 16.375C78.911 16.6901 78.4992 16.9582 77.9852 17.1793C77.4711 17.4004 76.8437 17.5109 76.103 17.5109ZM76.4015 15.7532C77.1754 15.7532 77.8276 15.6012 78.3583 15.2971C78.8944 14.9931 79.2979 14.6007 79.5688 14.1198C79.8452 13.6389 79.9833 13.1331 79.9833 12.6025V10.8116C79.9004 10.9111 79.718 11.0023 79.4361 11.0852C79.1598 11.1626 78.8392 11.2317 78.4743 11.2925C78.1151 11.3477 77.7641 11.3975 77.4214 11.4417C77.0842 11.4804 76.8106 11.5136 76.6005 11.5412C76.092 11.6075 75.6166 11.7153 75.1744 11.8646C74.7378 12.0083 74.384 12.2266 74.1131 12.5196C73.8478 12.807 73.7152 13.1995 73.7152 13.6969C73.7152 14.3768 73.9667 14.8909 74.4697 15.2391C74.9782 15.5818 75.6222 15.7532 76.4015 15.7532ZM85.5115 17.2124V4.47707H87.4019V6.40064H87.5346C87.7668 5.7705 88.1868 5.25921 88.7949 4.86675C89.4029 4.4743 90.0883 4.27808 90.8511 4.27808C90.9948 4.27808 91.1745 4.28084 91.39 4.28637C91.6056 4.29189 91.7687 4.30019 91.8792 4.31124V6.30114C91.8129 6.28456 91.6609 6.25968 91.4232 6.22652C91.191 6.18783 90.9451 6.16848 90.6853 6.16848C90.0662 6.16848 89.5134 6.29838 89.027 6.55817C88.5461 6.81243 88.1647 7.16619 87.8828 7.61945C87.6065 8.06718 87.4683 8.57847 87.4683 9.15333V17.2124H85.5115ZM95.8466 21.9882C95.5149 21.9882 95.2192 21.9605 94.9594 21.9053C94.6996 21.8555 94.52 21.8058 94.4205 21.756L94.918 20.0314C95.3933 20.153 95.8134 20.1973 96.1782 20.1641C96.543 20.1309 96.8664 19.9679 97.1483 19.6749C97.4357 19.3875 97.6983 18.9204 97.936 18.2737L98.3008 17.2788L93.5914 4.47707H95.7139L99.2294 14.6256H99.3621L102.878 4.47707H105L99.5942 19.0697C99.351 19.7274 99.0498 20.2719 98.6905 20.703C98.3312 21.1397 97.9139 21.4631 97.4385 21.6731C96.9687 21.8832 96.438 21.9882 95.8466 21.9882Z" fill="black"/>
</svg>
