<svg width="194" height="18" viewBox="0 0 194 18" fill="none" xmlns="http://www.w3.org/2000/svg">
<path d="M9.94564 4.74196C9.84684 3.90764 9.44615 3.25996 8.74357 2.79889C8.041 2.33782 7.17924 2.10729 6.1583 2.10729C5.41182 2.10729 4.75864 2.22804 4.19877 2.46955C3.64439 2.71107 3.21077 3.04314 2.8979 3.46579C2.59052 3.88843 2.43684 4.36871 2.43684 4.90662C2.43684 5.35671 2.54387 5.74368 2.75794 6.06752C2.97749 6.38588 3.25742 6.65209 3.59774 6.86616C3.93805 7.07474 4.29483 7.24764 4.66807 7.38486C5.04132 7.51659 5.38437 7.62362 5.69724 7.70596L7.40977 8.16703C7.84888 8.28229 8.3374 8.44147 8.87531 8.64456C9.41871 8.84765 9.93741 9.12484 10.4314 9.47613C10.9309 9.82193 11.3426 10.2665 11.6664 10.8099C11.9903 11.3533 12.1522 12.0202 12.1522 12.8106C12.1522 13.7218 11.9134 14.5451 11.4359 15.2806C10.9638 16.0161 10.2722 16.6007 9.36107 17.0343C8.45541 17.468 7.35488 17.6848 6.0595 17.6848C4.85195 17.6848 3.80631 17.4899 2.9226 17.1002C2.04438 16.7105 1.35278 16.1671 0.847801 15.47C0.348312 14.7729 0.065634 13.9633 -0.000232689 13.0412H2.1075C2.16239 13.6779 2.37646 14.2048 2.7497 14.622C3.12844 15.0336 3.60597 15.341 4.1823 15.5441C4.76413 15.7417 5.38986 15.8405 6.0595 15.8405C6.83893 15.8405 7.53876 15.7143 8.15901 15.4618C8.77925 15.2038 9.27051 14.847 9.63277 14.3914C9.99504 13.9304 10.1762 13.3925 10.1762 12.7777C10.1762 12.2178 10.0197 11.7622 9.70687 11.411C9.39401 11.0597 8.98234 10.7742 8.47187 10.5547C7.96141 10.3351 7.40977 10.143 6.81697 9.97836L4.74217 9.38556C3.42484 9.00683 2.38195 8.46617 1.6135 7.76359C0.845057 7.06101 0.460834 6.14162 0.460834 5.00542C0.460834 4.06133 0.716068 3.238 1.22653 2.53542C1.74249 1.82735 2.43409 1.27846 3.30134 0.888753C4.17407 0.493553 5.14835 0.295953 6.22417 0.295953C7.31097 0.295953 8.27702 0.490808 9.12231 0.88052C9.9676 1.26474 10.6372 1.79168 11.1312 2.46132C11.6307 3.13097 11.8942 3.89118 11.9216 4.74196H9.94564ZM20.3835 17.6518C19.2418 17.6518 18.24 17.3801 17.3783 16.8367C16.522 16.2933 15.8524 15.5331 15.3694 14.5561C14.8918 13.5791 14.6531 12.4374 14.6531 11.131C14.6531 9.81369 14.8918 8.66377 15.3694 7.68126C15.8524 6.69875 16.522 5.93579 17.3783 5.39239C18.24 4.84899 19.2418 4.57729 20.3835 4.57729C21.5251 4.57729 22.5241 4.84899 23.3804 5.39239C24.2421 5.93579 24.9118 6.69875 25.3893 7.68126C25.8723 8.66377 26.1139 9.81369 26.1139 11.131C26.1139 12.4374 25.8723 13.5791 25.3893 14.5561C24.9118 15.5331 24.2421 16.2933 23.3804 16.8367C22.5241 17.3801 21.5251 17.6518 20.3835 17.6518ZM20.3835 15.9064C21.2507 15.9064 21.9643 15.6841 22.5241 15.2395C23.084 14.7949 23.4984 14.2103 23.7674 13.4858C24.0363 12.7612 24.1708 11.9763 24.1708 11.131C24.1708 10.2857 24.0363 9.49808 23.7674 8.76806C23.4984 8.03804 23.084 7.44798 22.5241 6.99789C21.9643 6.5478 21.2507 6.32276 20.3835 6.32276C19.5162 6.32276 18.8027 6.5478 18.2428 6.99789C17.6829 7.44798 17.2685 8.03804 16.9996 8.76806C16.7306 9.49808 16.5961 10.2857 16.5961 11.131C16.5961 11.9763 16.7306 12.7612 16.9996 13.4858C17.2685 14.2103 17.6829 14.7949 18.2428 15.2395C18.8027 15.6841 19.5162 15.9064 20.3835 15.9064ZM34.2175 17.6518C33.0319 17.6518 32.011 17.3719 31.1547 16.812C30.2985 16.2522 29.6398 15.481 29.1787 14.4985C28.7177 13.516 28.4871 12.3935 28.4871 11.131C28.4871 9.84663 28.7231 8.71317 29.1952 7.73066C29.6727 6.74266 30.3369 5.97147 31.1877 5.41709C32.0439 4.85722 33.0429 4.57729 34.1846 4.57729C35.0738 4.57729 35.8752 4.74196 36.5887 5.07129C37.3023 5.40062 37.8868 5.86169 38.3424 6.45449C38.798 7.04729 39.0807 7.73889 39.1905 8.52929H37.2474C37.0992 7.95296 36.7699 7.44249 36.2594 6.99789C35.7544 6.5478 35.0738 6.32276 34.2175 6.32276C33.4601 6.32276 32.7959 6.52036 32.2251 6.91556C31.6597 7.30527 31.2178 7.8569 30.8995 8.57046C30.5866 9.27853 30.4302 10.1101 30.4302 11.0652C30.4302 12.0422 30.5839 12.893 30.8913 13.6175C31.2041 14.342 31.6432 14.9046 32.2086 15.3053C32.7794 15.706 33.4491 15.9064 34.2175 15.9064C34.7225 15.9064 35.1808 15.8185 35.5925 15.6429C36.0042 15.4673 36.3527 15.2148 36.6381 14.8854C36.9235 14.5561 37.1266 14.1609 37.2474 13.6998H39.1905C39.0807 14.4463 38.809 15.1187 38.3754 15.717C37.9472 16.3098 37.3791 16.7818 36.6711 17.1331C35.9685 17.4789 35.1506 17.6518 34.2175 17.6518ZM42.031 17.3884V4.74196H43.974V17.3884H42.031ZM43.019 2.63422C42.6402 2.63422 42.3136 2.50523 42.0392 2.24725C41.7702 1.98928 41.6358 1.67915 41.6358 1.31689C41.6358 0.954621 41.7702 0.644498 42.0392 0.38652C42.3136 0.128542 42.6402 -0.000446713 43.019 -0.000446713C43.3977 -0.000446713 43.7215 0.128542 43.9905 0.38652C44.2649 0.644498 44.4022 0.954621 44.4022 1.31689C44.4022 1.67915 44.2649 1.98928 43.9905 2.24725C43.7215 2.50523 43.3977 2.63422 43.019 2.63422ZM51.2544 17.6848C50.453 17.6848 49.7257 17.5338 49.0725 17.2319C48.4193 16.9246 47.9006 16.4827 47.5164 15.9064C47.1322 15.3245 46.9401 14.622 46.9401 13.7986C46.9401 13.0741 47.0828 12.4868 47.3682 12.0367C47.6536 11.5811 48.0351 11.2243 48.5127 10.9664C48.9902 10.7084 49.5171 10.5163 50.0935 10.39C50.6753 10.2583 51.2598 10.154 51.8472 10.0772C52.6156 9.97836 53.2386 9.90426 53.7161 9.85486C54.1992 9.79997 54.5504 9.7094 54.77 9.58316C54.995 9.45691 55.1076 9.23736 55.1076 8.92449V8.85863C55.1076 8.04627 54.8853 7.41505 54.4407 6.96496C54.0016 6.51487 53.3347 6.28982 52.44 6.28982C51.5123 6.28982 50.7851 6.49291 50.2581 6.89909C49.7312 7.30527 49.3607 7.73889 49.1466 8.19996L47.3024 7.54129C47.6317 6.77285 48.0708 6.17456 48.6197 5.74642C49.1741 5.3128 49.7778 5.01091 50.431 4.84076C51.0897 4.66511 51.7374 4.57729 52.3741 4.57729C52.7803 4.57729 53.2468 4.62669 53.7738 4.72549C54.3062 4.8188 54.8194 5.01366 55.3134 5.31006C55.8129 5.60646 56.2273 6.0538 56.5566 6.65209C56.886 7.25038 57.0506 8.05176 57.0506 9.05623V17.3884H55.1076V15.6758H55.0088C54.877 15.9503 54.6575 16.2439 54.3501 16.5568C54.0427 16.8697 53.6338 17.1359 53.1233 17.3554C52.6129 17.575 51.9899 17.6848 51.2544 17.6848ZM51.5508 15.9393C52.3192 15.9393 52.9669 15.7884 53.4938 15.4865C54.0263 15.1846 54.4269 14.7949 54.6959 14.3173C54.9703 13.8398 55.1076 13.3376 55.1076 12.8106V11.0322C55.0252 11.131 54.8441 11.2216 54.5642 11.3039C54.2897 11.3808 53.9714 11.4494 53.6091 11.5098C53.2523 11.5646 52.9038 11.614 52.5635 11.658C52.2286 11.6964 51.9569 11.7293 51.7484 11.7568C51.2434 11.8226 50.7713 11.9297 50.3322 12.0779C49.8986 12.2206 49.5473 12.4374 49.2784 12.7283C49.0149 13.0137 48.8832 13.4034 48.8832 13.8974C48.8832 14.5726 49.1329 15.083 49.6324 15.4288C50.1374 15.7691 50.7768 15.9393 51.5508 15.9393ZM62.5402 0.526486V17.3884H60.5971V0.526486H62.5402ZM66.3625 0.526486H68.7996L74.53 14.5232H74.7276L80.458 0.526486H82.8951V17.3884H80.9849V4.57729H80.8203L75.5509 17.3884H73.7067L68.4373 4.57729H68.2727V17.3884H66.3625V0.526486ZM92.0279 17.6518C90.8094 17.6518 89.7583 17.3829 88.8745 16.845C87.9963 16.3016 87.3184 15.5441 86.8409 14.5726C86.3689 13.5955 86.1328 12.4593 86.1328 11.164C86.1328 9.86858 86.3689 8.72689 86.8409 7.73889C87.3184 6.7454 87.9826 5.97147 88.8334 5.41709C89.6896 4.85722 90.6886 4.57729 91.8303 4.57729C92.489 4.57729 93.1394 4.68707 93.7816 4.90662C94.4238 5.12618 95.0084 5.48296 95.5353 5.97696C96.0622 6.46547 96.4821 7.11316 96.795 7.92002C97.1079 8.72689 97.2643 9.72038 97.2643 10.9005V11.7238H87.516V10.0442H95.2883C95.2883 9.33067 95.1456 8.69396 94.8602 8.13409C94.5802 7.57422 94.1796 7.13237 93.6581 6.80852C93.1422 6.48468 92.5329 6.32276 91.8303 6.32276C91.0564 6.32276 90.3867 6.51487 89.8214 6.89909C89.2615 7.27782 88.8306 7.77182 88.5287 8.38109C88.2269 8.99036 88.0759 9.64354 88.0759 10.3406V11.4604C88.0759 12.4154 88.2406 13.225 88.5699 13.8892C88.9047 14.5479 89.3685 15.0501 89.9613 15.3959C90.5541 15.7362 91.243 15.9064 92.0279 15.9064C92.5384 15.9064 92.9994 15.835 93.4111 15.6923C93.8283 15.5441 94.1878 15.3245 94.4897 15.0336C94.7916 14.7372 95.0248 14.3695 95.1895 13.9304L97.0667 14.4573C96.8691 15.094 96.537 15.6539 96.0705 16.1369C95.6039 16.6144 95.0276 16.9877 94.3415 17.2566C93.6554 17.5201 92.8842 17.6518 92.0279 17.6518ZM104.995 17.6518C103.942 17.6518 103.011 17.3856 102.204 16.8532C101.397 16.3153 100.766 15.5578 100.311 14.5808C99.8551 13.5983 99.6273 12.4374 99.6273 11.0981C99.6273 9.76978 99.8551 8.61711 100.311 7.64009C100.766 6.66307 101.4 5.90835 102.213 5.37592C103.025 4.8435 103.964 4.57729 105.028 4.57729C105.852 4.57729 106.502 4.71451 106.98 4.98896C107.463 5.25791 107.83 5.56529 108.083 5.91109C108.341 6.2514 108.541 6.53133 108.684 6.75089H108.849V0.526486H110.792V17.3884H108.914V15.4453H108.684C108.541 15.6758 108.338 15.9667 108.075 16.318C107.811 16.6638 107.435 16.974 106.947 17.2484C106.458 17.5174 105.808 17.6518 104.995 17.6518ZM105.259 15.9064C106.038 15.9064 106.697 15.7033 107.235 15.2971C107.773 14.8854 108.182 14.3173 108.462 13.5928C108.742 12.8628 108.882 12.0202 108.882 11.0652C108.882 10.1211 108.744 9.29499 108.47 8.58693C108.195 7.87337 107.789 7.31899 107.251 6.92379C106.713 6.5231 106.049 6.32276 105.259 6.32276C104.436 6.32276 103.749 6.53408 103.201 6.95672C102.657 7.37388 102.248 7.94198 101.974 8.66103C101.705 9.37458 101.57 10.176 101.57 11.0652C101.57 11.9653 101.708 12.7832 101.982 13.5187C102.262 14.2487 102.674 14.8305 103.217 15.2642C103.766 15.6923 104.447 15.9064 105.259 15.9064ZM114.62 17.3884V4.74196H116.563V17.3884H114.62ZM115.608 2.63422C115.229 2.63422 114.903 2.50523 114.628 2.24725C114.359 1.98928 114.225 1.67915 114.225 1.31689C114.225 0.954621 114.359 0.644498 114.628 0.38652C114.903 0.128542 115.229 -0.000446713 115.608 -0.000446713C115.987 -0.000446713 116.311 0.128542 116.58 0.38652C116.854 0.644498 116.991 0.954621 116.991 1.31689C116.991 1.67915 116.854 1.98928 116.58 2.24725C116.311 2.50523 115.987 2.63422 115.608 2.63422ZM123.844 17.6848C123.042 17.6848 122.315 17.5338 121.662 17.2319C121.009 16.9246 120.49 16.4827 120.106 15.9064C119.721 15.3245 119.529 14.622 119.529 13.7986C119.529 13.0741 119.672 12.4868 119.957 12.0367C120.243 11.5811 120.624 11.2243 121.102 10.9664C121.579 10.7084 122.106 10.5163 122.683 10.39C123.265 10.2583 123.849 10.154 124.436 10.0772C125.205 9.97836 125.828 9.90426 126.305 9.85486C126.788 9.79997 127.14 9.7094 127.359 9.58316C127.584 9.45691 127.697 9.23736 127.697 8.92449V8.85863C127.697 8.04627 127.474 7.41505 127.03 6.96496C126.591 6.51487 125.924 6.28982 125.029 6.28982C124.102 6.28982 123.374 6.49291 122.847 6.89909C122.32 7.30527 121.95 7.73889 121.736 8.19996L119.892 7.54129C120.221 6.77285 120.66 6.17456 121.209 5.74642C121.763 5.3128 122.367 5.01091 123.02 4.84076C123.679 4.66511 124.327 4.57729 124.963 4.57729C125.37 4.57729 125.836 4.62669 126.363 4.72549C126.895 4.8188 127.409 5.01366 127.903 5.31006C128.402 5.60646 128.817 6.0538 129.146 6.65209C129.475 7.25038 129.64 8.05176 129.64 9.05623V17.3884H127.697V15.6758H127.598C127.466 15.9503 127.247 16.2439 126.939 16.5568C126.632 16.8697 126.223 17.1359 125.713 17.3554C125.202 17.575 124.579 17.6848 123.844 17.6848ZM124.14 15.9393C124.908 15.9393 125.556 15.7884 126.083 15.4865C126.615 15.1846 127.016 14.7949 127.285 14.3173C127.56 13.8398 127.697 13.3376 127.697 12.8106V11.0322C127.614 11.131 127.433 11.2216 127.153 11.3039C126.879 11.3808 126.561 11.4494 126.198 11.5098C125.842 11.5646 125.493 11.614 125.153 11.658C124.818 11.6964 124.546 11.7293 124.338 11.7568C123.833 11.8226 123.361 11.9297 122.921 12.0779C122.488 12.2206 122.137 12.4374 121.868 12.7283C121.604 13.0137 121.472 13.4034 121.472 13.8974C121.472 14.5726 121.722 15.083 122.222 15.4288C122.727 15.7691 123.366 15.9393 124.14 15.9393ZM139.971 17.3884V0.526486H142.013V8.03529H151.003V0.526486H153.045V17.3884H151.003V9.84663H142.013V17.3884H139.971ZM162.172 17.6518C160.953 17.6518 159.902 17.3829 159.018 16.845C158.14 16.3016 157.462 15.5441 156.985 14.5726C156.513 13.5955 156.277 12.4593 156.277 11.164C156.277 9.86858 156.513 8.72689 156.985 7.73889C157.462 6.7454 158.127 5.97147 158.977 5.41709C159.834 4.85722 160.833 4.57729 161.974 4.57729C162.633 4.57729 163.283 4.68707 163.926 4.90662C164.568 5.12618 165.152 5.48296 165.679 5.97696C166.206 6.46547 166.626 7.11316 166.939 7.92002C167.252 8.72689 167.408 9.72038 167.408 10.9005V11.7238H157.66V10.0442H165.432C165.432 9.33067 165.29 8.69396 165.004 8.13409C164.724 7.57422 164.323 7.13237 163.802 6.80852C163.286 6.48468 162.677 6.32276 161.974 6.32276C161.2 6.32276 160.531 6.51487 159.965 6.89909C159.405 7.27782 158.975 7.77182 158.673 8.38109C158.371 8.99036 158.22 9.64354 158.22 10.3406V11.4604C158.22 12.4154 158.385 13.225 158.714 13.8892C159.049 14.5479 159.512 15.0501 160.105 15.3959C160.698 15.7362 161.387 15.9064 162.172 15.9064C162.682 15.9064 163.143 15.835 163.555 15.6923C163.972 15.5441 164.332 15.3245 164.634 15.0336C164.935 14.7372 165.169 14.3695 165.333 13.9304L167.211 14.4573C167.013 15.094 166.681 15.6539 166.214 16.1369C165.748 16.6144 165.172 16.9877 164.485 17.2566C163.799 17.5201 163.028 17.6518 162.172 17.6518ZM174.085 17.6848C173.284 17.6848 172.557 17.5338 171.904 17.2319C171.25 16.9246 170.732 16.4827 170.348 15.9064C169.963 15.3245 169.771 14.622 169.771 13.7986C169.771 13.0741 169.914 12.4868 170.199 12.0367C170.485 11.5811 170.866 11.2243 171.344 10.9664C171.821 10.7084 172.348 10.5163 172.925 10.39C173.506 10.2583 174.091 10.154 174.678 10.0772C175.447 9.97836 176.07 9.90426 176.547 9.85486C177.03 9.79997 177.382 9.7094 177.601 9.58316C177.826 9.45691 177.939 9.23736 177.939 8.92449V8.85863C177.939 8.04627 177.716 7.41505 177.272 6.96496C176.833 6.51487 176.166 6.28982 175.271 6.28982C174.343 6.28982 173.616 6.49291 173.089 6.89909C172.562 7.30527 172.192 7.73889 171.978 8.19996L170.133 7.54129C170.463 6.77285 170.902 6.17456 171.451 5.74642C172.005 5.3128 172.609 5.01091 173.262 4.84076C173.921 4.66511 174.569 4.57729 175.205 4.57729C175.611 4.57729 176.078 4.62669 176.605 4.72549C177.137 4.8188 177.651 5.01366 178.145 5.31006C178.644 5.60646 179.058 6.0538 179.388 6.65209C179.717 7.25038 179.882 8.05176 179.882 9.05623V17.3884H177.939V15.6758H177.84C177.708 15.9503 177.489 16.2439 177.181 16.5568C176.874 16.8697 176.465 17.1359 175.954 17.3554C175.444 17.575 174.821 17.6848 174.085 17.6848ZM174.382 15.9393C175.15 15.9393 175.798 15.7884 176.325 15.4865C176.857 15.1846 177.258 14.7949 177.527 14.3173C177.801 13.8398 177.939 13.3376 177.939 12.8106V11.0322C177.856 11.131 177.675 11.2216 177.395 11.3039C177.121 11.3808 176.802 11.4494 176.44 11.5098C176.083 11.5646 175.735 11.614 175.395 11.658C175.06 11.6964 174.788 11.7293 174.579 11.7568C174.075 11.8226 173.602 11.9297 173.163 12.0779C172.73 12.2206 172.378 12.4374 172.109 12.7283C171.846 13.0137 171.714 13.4034 171.714 13.8974C171.714 14.5726 171.964 15.083 172.464 15.4288C172.968 15.7691 173.608 15.9393 174.382 15.9393ZM188.204 17.6518C187.15 17.6518 186.219 17.3856 185.412 16.8532C184.606 16.3153 183.974 15.5578 183.519 14.5808C183.063 13.5983 182.835 12.4374 182.835 11.0981C182.835 9.76978 183.063 8.61711 183.519 7.64009C183.974 6.66307 184.608 5.90835 185.421 5.37592C186.233 4.8435 187.172 4.57729 188.237 4.57729C189.06 4.57729 189.71 4.71451 190.188 4.98896C190.671 5.25791 191.039 5.56529 191.291 5.91109C191.549 6.2514 191.749 6.53133 191.892 6.75089H192.057V0.526486H194V17.3884H192.123V15.4453H191.892C191.749 15.6758 191.546 15.9667 191.283 16.318C191.019 16.6638 190.643 16.974 190.155 17.2484C189.666 17.5174 189.016 17.6518 188.204 17.6518ZM188.467 15.9064C189.246 15.9064 189.905 15.7033 190.443 15.2971C190.981 14.8854 191.39 14.3173 191.67 13.5928C191.95 12.8628 192.09 12.0202 192.09 11.0652C192.09 10.1211 191.953 9.29499 191.678 8.58693C191.404 7.87337 190.997 7.31899 190.46 6.92379C189.922 6.5231 189.257 6.32276 188.467 6.32276C187.644 6.32276 186.958 6.53408 186.409 6.95672C185.865 7.37388 185.456 7.94198 185.182 8.66103C184.913 9.37458 184.779 10.176 184.779 11.0652C184.779 11.9653 184.916 12.7832 185.19 13.5187C185.47 14.2487 185.882 14.8305 186.425 15.2642C186.974 15.6923 187.655 15.9064 188.467 15.9064Z" fill="black"/>
</svg>
