<svg width="166" height="33" viewBox="0 0 166 33" fill="none" xmlns="http://www.w3.org/2000/svg">
<rect y="0.873047" width="165.355" height="31.9217" rx="6.38435" fill="#F1F8FF"/>
<path d="M12.2148 12.1821V11.0131H20.3767V12.1821H16.9546V21.8955H15.6369V12.1821H12.2148ZM23.5316 22.0868C23.0145 22.0868 22.5451 21.9894 22.1235 21.7945C21.702 21.5962 21.3672 21.311 21.1192 20.939C20.8713 20.5635 20.7473 20.1101 20.7473 19.5787C20.7473 19.1111 20.8394 18.7321 21.0236 18.4416C21.2078 18.1476 21.454 17.9173 21.7622 17.7508C22.0704 17.5843 22.4105 17.4604 22.7824 17.3789C23.1579 17.2939 23.5352 17.2266 23.9142 17.177C24.4102 17.1132 24.8122 17.0654 25.1204 17.0335C25.4322 16.9981 25.6589 16.9396 25.8006 16.8581C25.9458 16.7767 26.0184 16.635 26.0184 16.433V16.3905C26.0184 15.8663 25.875 15.4589 25.588 15.1684C25.3046 14.8779 24.8742 14.7327 24.2968 14.7327C23.6981 14.7327 23.2288 14.8637 22.8887 15.1259C22.5486 15.388 22.3095 15.6679 22.1713 15.9654L20.9811 15.5404C21.1936 15.0444 21.477 14.6583 21.8313 14.382C22.1891 14.1021 22.5787 13.9073 23.0003 13.7975C23.4254 13.6841 23.8434 13.6274 24.2543 13.6274C24.5164 13.6274 24.8176 13.6593 25.1576 13.7231C25.5013 13.7833 25.8325 13.9091 26.1513 14.1003C26.4737 14.2916 26.7411 14.5803 26.9537 14.9665C27.1662 15.3526 27.2725 15.8698 27.2725 16.5181V21.8955H26.0184V20.7903H25.9547C25.8697 20.9674 25.728 21.1569 25.5296 21.3588C25.3312 21.5607 25.0673 21.7326 24.7379 21.8743C24.4084 22.016 24.0063 22.0868 23.5316 22.0868ZM23.7229 20.9603C24.2189 20.9603 24.6369 20.8629 24.977 20.668C25.3206 20.4732 25.5792 20.2217 25.7528 19.9135C25.9299 19.6053 26.0184 19.2812 26.0184 18.9411V17.7933C25.9653 17.8571 25.8484 17.9156 25.6677 17.9687C25.4906 18.0183 25.2852 18.0626 25.0514 18.1015C24.8211 18.137 24.5962 18.1689 24.3765 18.1972C24.1604 18.222 23.9851 18.2432 23.8505 18.261C23.5246 18.3035 23.2199 18.3725 22.9365 18.4682C22.6567 18.5603 22.4299 18.7002 22.2564 18.888C22.0863 19.0722 22.0013 19.3237 22.0013 19.6425C22.0013 20.0782 22.1625 20.4077 22.4849 20.6309C22.8108 20.8505 23.2235 20.9603 23.7229 20.9603ZM29.5613 21.8955V13.7337H30.7729V14.9665H30.8579C31.0067 14.5626 31.2759 14.235 31.6656 13.9834C32.0552 13.7319 32.4945 13.6062 32.9833 13.6062C33.0755 13.6062 33.1906 13.6079 33.3287 13.6115C33.4669 13.615 33.5714 13.6203 33.6422 13.6274V14.9027C33.5997 14.8921 33.5023 14.8761 33.35 14.8549C33.2012 14.8301 33.0436 14.8177 32.8771 14.8177C32.4803 14.8177 32.1261 14.9009 31.8143 15.0674C31.5061 15.2304 31.2617 15.4571 31.0811 15.7476C30.9039 16.0345 30.8154 16.3622 30.8154 16.7306V21.8955H29.5613ZM38.1748 25.1262C37.5691 25.1262 37.0483 25.0483 36.6126 24.8924C36.1769 24.7401 35.8138 24.5382 35.5233 24.2867C35.2363 24.0387 35.0079 23.773 34.8378 23.4896L35.8368 22.7882C35.9502 22.937 36.0936 23.107 36.2672 23.2983C36.4408 23.4932 36.6781 23.6614 36.9792 23.8031C37.2839 23.9484 37.6824 24.021 38.1748 24.021C38.8337 24.021 39.3775 23.8616 39.8061 23.5427C40.2347 23.2239 40.4491 22.7244 40.4491 22.0443V20.3864H40.3428C40.2507 20.5352 40.1196 20.7194 39.9496 20.939C39.7831 21.1551 39.5422 21.3482 39.2269 21.5182C38.9152 21.6847 38.4936 21.768 37.9623 21.768C37.3034 21.768 36.7118 21.6121 36.1875 21.3004C35.6668 20.9886 35.2541 20.5352 34.9494 19.9401C34.6483 19.3449 34.4977 18.6223 34.4977 17.7721C34.4977 16.9361 34.6448 16.2081 34.9388 15.5882C35.2328 14.9647 35.642 14.4829 36.1662 14.1429C36.6905 13.7992 37.2963 13.6274 37.9835 13.6274C38.5149 13.6274 38.9364 13.716 39.2482 13.8931C39.5634 14.0667 39.8043 14.2651 39.9708 14.4882C40.1409 14.7079 40.2719 14.8885 40.364 15.0302H40.4916V13.7337H41.7031V22.1293C41.7031 22.8307 41.5437 23.401 41.2249 23.8403C40.9096 24.2831 40.4845 24.6073 39.9496 24.8127C39.4182 25.0217 38.8266 25.1262 38.1748 25.1262ZM38.1323 20.6415C38.6353 20.6415 39.0604 20.5264 39.4076 20.2961C39.7547 20.0658 40.0187 19.7346 40.1993 19.3024C40.38 18.8703 40.4703 18.3531 40.4703 17.7508C40.4703 17.1628 40.3818 16.6438 40.2046 16.1939C40.0275 15.744 39.7654 15.3916 39.4182 15.1365C39.071 14.8815 38.6424 14.7539 38.1323 14.7539C37.6009 14.7539 37.1581 14.8885 36.8039 15.1578C36.4532 15.427 36.1893 15.7883 36.0121 16.2418C35.8386 16.6952 35.7518 17.1982 35.7518 17.7508C35.7518 18.3176 35.8403 18.8189 36.0175 19.2546C36.1981 19.6868 36.4638 20.0269 36.8145 20.2748C37.1688 20.5193 37.608 20.6415 38.1323 20.6415ZM47.4206 22.0655C46.6342 22.0655 45.9558 21.892 45.3855 21.5448C44.8187 21.1941 44.3812 20.7052 44.073 20.0782C43.7683 19.4477 43.616 18.7144 43.616 17.8784C43.616 17.0424 43.7683 16.3055 44.073 15.6679C44.3812 15.0267 44.8098 14.5272 45.3589 14.1694C45.9115 13.8081 46.5562 13.6274 47.2931 13.6274C47.7182 13.6274 48.138 13.6983 48.5524 13.84C48.9669 13.9817 49.3442 14.2119 49.6842 14.5308C50.0243 14.846 50.2953 15.264 50.4972 15.7848C50.6991 16.3055 50.8001 16.9467 50.8001 17.7083V18.2397H44.5087V17.1557H49.5248C49.5248 16.6952 49.4327 16.2843 49.2485 15.9229C49.0678 15.5616 48.8092 15.2764 48.4727 15.0674C48.1397 14.8584 47.7465 14.7539 47.2931 14.7539C46.7936 14.7539 46.3614 14.8779 45.9965 15.1259C45.6352 15.3703 45.3571 15.6891 45.1623 16.0823C44.9675 16.4756 44.87 16.8971 44.87 17.347V18.0697C44.87 18.686 44.9763 19.2086 45.1889 19.6372C45.405 20.0623 45.7043 20.3864 46.0869 20.6096C46.4695 20.8292 46.914 20.939 47.4206 20.939C47.7501 20.939 48.0476 20.893 48.3133 20.8009C48.5825 20.7052 48.8146 20.5635 49.0094 20.3758C49.2042 20.1845 49.3548 19.9472 49.4611 19.6638L50.6726 20.0038C50.545 20.4148 50.3307 20.7761 50.0296 21.0878C49.7285 21.396 49.3566 21.6369 48.9137 21.8105C48.4709 21.9805 47.9732 22.0655 47.4206 22.0655ZM56.2572 13.7337V14.7964H52.0276V13.7337H56.2572ZM53.2603 11.7783H54.5144V19.5575C54.5144 19.9117 54.5657 20.1774 54.6685 20.3545C54.7747 20.5281 54.9093 20.645 55.0723 20.7052C55.2388 20.7619 55.4141 20.7903 55.5984 20.7903C55.7365 20.7903 55.8499 20.7832 55.9384 20.769C56.027 20.7513 56.0978 20.7371 56.151 20.7265L56.406 21.853C56.321 21.8849 56.2023 21.9168 56.05 21.9486C55.8977 21.9841 55.7046 22.0018 55.4708 22.0018C55.1166 22.0018 54.7694 21.9256 54.4293 21.7733C54.0928 21.621 53.813 21.3889 53.5898 21.0772C53.3702 20.7655 53.2603 20.3723 53.2603 19.8976V11.7783ZM62.9684 21.8955H61.5869L65.5827 11.0131H66.9431L70.9389 21.8955H69.5574L66.3054 12.7347H66.2204L62.9684 21.8955ZM63.4785 17.6446H69.0473V18.8136H63.4785V17.6446ZM77.6076 18.5585V13.7337H78.8616V21.8955H77.6076V20.514H77.5226C77.3313 20.9284 77.0337 21.2809 76.6299 21.5714C76.226 21.8583 75.7159 22.0018 75.0995 22.0018C74.5894 22.0018 74.136 21.8902 73.7392 21.667C73.3425 21.4403 73.0308 21.1002 72.804 20.6468C72.5773 20.1898 72.464 19.6142 72.464 18.9198V13.7337H73.718V18.8348C73.718 19.43 73.8845 19.9047 74.2175 20.2589C74.554 20.6131 74.9826 20.7903 75.5034 20.7903C75.8151 20.7903 76.1322 20.7106 76.4545 20.5511C76.7804 20.3917 77.0532 20.1473 77.2728 19.8179C77.496 19.4884 77.6076 19.0686 77.6076 18.5585ZM84.2404 22.0655C83.5602 22.0655 82.9598 21.8937 82.4391 21.5501C81.9183 21.203 81.5109 20.7141 81.2169 20.0835C80.9229 19.4494 80.7759 18.7002 80.7759 17.8359C80.7759 16.9786 80.9229 16.2347 81.2169 15.6041C81.5109 14.9736 81.9201 14.4865 82.4444 14.1429C82.9687 13.7992 83.5744 13.6274 84.2616 13.6274C84.793 13.6274 85.2128 13.716 85.521 13.8931C85.8327 14.0667 86.0701 14.2651 86.233 14.4882C86.3995 14.7079 86.5288 14.8885 86.6209 15.0302H86.7272V11.0131H87.9812V21.8955H86.7697V20.6415H86.6209C86.5288 20.7903 86.3977 20.978 86.2277 21.2047C86.0577 21.4279 85.815 21.6281 85.4997 21.8052C85.1845 21.9788 84.7647 22.0655 84.2404 22.0655ZM84.4104 20.939C84.9135 20.939 85.3385 20.808 85.6857 20.5458C86.0329 20.2802 86.2968 19.9135 86.4774 19.4459C86.6581 18.9748 86.7484 18.431 86.7484 17.8146C86.7484 17.2053 86.6599 16.6722 86.4828 16.2152C86.3056 15.7547 86.0435 15.3969 85.6963 15.1418C85.3492 14.8832 84.9205 14.7539 84.4104 14.7539C83.8791 14.7539 83.4363 14.8903 83.082 15.1631C82.7313 15.4323 82.4674 15.799 82.2903 16.263C82.1167 16.7235 82.0299 17.2407 82.0299 17.8146C82.0299 18.3956 82.1185 18.9234 82.2956 19.3981C82.4762 19.8692 82.7419 20.2447 83.0926 20.5246C83.4469 20.8009 83.8861 20.939 84.4104 20.939ZM90.4521 21.8955V13.7337H91.7061V21.8955H90.4521ZM91.0897 12.3734C90.8453 12.3734 90.6345 12.2902 90.4574 12.1237C90.2838 11.9572 90.197 11.757 90.197 11.5232C90.197 11.2894 90.2838 11.0893 90.4574 10.9228C90.6345 10.7563 90.8453 10.673 91.0897 10.673C91.3341 10.673 91.5431 10.7563 91.7167 10.9228C91.8939 11.0893 91.9824 11.2894 91.9824 11.5232C91.9824 11.757 91.8939 11.9572 91.7167 12.1237C91.5431 12.2902 91.3341 12.3734 91.0897 12.3734ZM97.4249 22.0655C96.6385 22.0655 95.9601 21.892 95.3898 21.5448C94.823 21.1941 94.3855 20.7052 94.0773 20.0782C93.7727 19.4477 93.6204 18.7144 93.6204 17.8784C93.6204 17.0424 93.7727 16.3055 94.0773 15.6679C94.3855 15.0267 94.8142 14.5272 95.3632 14.1694C95.9159 13.8081 96.5606 13.6274 97.2974 13.6274C97.7225 13.6274 98.1423 13.6983 98.5568 13.84C98.9712 13.9817 99.3485 14.2119 99.6886 14.5308C100.029 14.846 100.3 15.264 100.502 15.7848C100.703 16.3055 100.804 16.9467 100.804 17.7083V18.2397H94.5131V17.1557H99.5292C99.5292 16.6952 99.4371 16.2843 99.2529 15.9229C99.0722 15.5616 98.8136 15.2764 98.4771 15.0674C98.1441 14.8584 97.7509 14.7539 97.2974 14.7539C96.7979 14.7539 96.3658 14.8779 96.0009 15.1259C95.6396 15.3703 95.3615 15.6891 95.1666 16.0823C94.9718 16.4756 94.8744 16.8971 94.8744 17.347V18.0697C94.8744 18.686 94.9807 19.2086 95.1932 19.6372C95.4093 20.0623 95.7086 20.3864 96.0912 20.6096C96.4738 20.8292 96.9184 20.939 97.4249 20.939C97.7544 20.939 98.052 20.893 98.3176 20.8009C98.5869 20.7052 98.8189 20.5635 99.0137 20.3758C99.2086 20.1845 99.3591 19.9472 99.4654 19.6638L100.677 20.0038C100.549 20.4148 100.335 20.7761 100.034 21.0878C99.7329 21.396 99.3609 21.6369 98.9181 21.8105C98.4753 21.9805 97.9776 22.0655 97.4249 22.0655ZM103.966 16.9857V21.8955H102.712V13.7337H103.924V15.009H104.03C104.221 14.5945 104.512 14.2615 104.901 14.01C105.291 13.755 105.794 13.6274 106.41 13.6274C106.963 13.6274 107.447 13.7408 107.861 13.9675C108.275 14.1907 108.598 14.5308 108.828 14.9877C109.058 15.4412 109.173 16.015 109.173 16.7094V21.8955H107.919V16.7944C107.919 16.1532 107.753 15.6537 107.42 15.2959C107.087 14.9346 106.63 14.7539 106.049 14.7539C105.649 14.7539 105.291 14.8407 104.976 15.0143C104.664 15.1879 104.418 15.4412 104.237 15.7742C104.056 16.1071 103.966 16.511 103.966 16.9857ZM114.781 22.0655C114.016 22.0655 113.357 21.8849 112.804 21.5236C112.251 21.1622 111.826 20.6645 111.529 20.0304C111.231 19.3963 111.082 18.6719 111.082 17.8571C111.082 17.0282 111.235 16.2967 111.539 15.6626C111.848 15.0249 112.276 14.5272 112.825 14.1694C113.378 13.8081 114.023 13.6274 114.759 13.6274C115.333 13.6274 115.851 13.7337 116.311 13.9462C116.772 14.1588 117.149 14.4564 117.443 14.8389C117.737 15.2215 117.919 15.6679 117.99 16.178H116.736C116.641 15.806 116.428 15.4766 116.099 15.1896C115.773 14.8992 115.333 14.7539 114.781 14.7539C114.292 14.7539 113.863 14.8815 113.495 15.1365C113.13 15.388 112.845 15.744 112.639 16.2046C112.437 16.6615 112.336 17.1982 112.336 17.8146C112.336 18.4452 112.436 18.9942 112.634 19.4618C112.836 19.9294 113.119 20.2925 113.484 20.5511C113.853 20.8097 114.285 20.939 114.781 20.939C115.107 20.939 115.402 20.8824 115.668 20.769C115.934 20.6557 116.159 20.4927 116.343 20.2802C116.527 20.0676 116.658 19.8125 116.736 19.515H117.99C117.919 19.9968 117.744 20.4307 117.464 20.8168C117.188 21.1994 116.821 21.5041 116.364 21.7308C115.911 21.954 115.383 22.0655 114.781 22.0655ZM123.245 22.0655C122.459 22.0655 121.781 21.892 121.21 21.5448C120.643 21.1941 120.206 20.7052 119.898 20.0782C119.593 19.4477 119.441 18.7144 119.441 17.8784C119.441 17.0424 119.593 16.3055 119.898 15.6679C120.206 15.0267 120.635 14.5272 121.184 14.1694C121.736 13.8081 122.381 13.6274 123.118 13.6274C123.543 13.6274 123.963 13.6983 124.377 13.84C124.792 13.9817 125.169 14.2119 125.509 14.5308C125.849 14.846 126.12 15.264 126.322 15.7848C126.524 16.3055 126.625 16.9467 126.625 17.7083V18.2397H120.334V17.1557H125.35C125.35 16.6952 125.258 16.2843 125.073 15.9229C124.893 15.5616 124.634 15.2764 124.298 15.0674C123.965 14.8584 123.571 14.7539 123.118 14.7539C122.618 14.7539 122.186 14.8779 121.821 15.1259C121.46 15.3703 121.182 15.6891 120.987 16.0823C120.792 16.4756 120.695 16.8971 120.695 17.347V18.0697C120.695 18.686 120.801 19.2086 121.014 19.6372C121.23 20.0623 121.529 20.3864 121.912 20.6096C122.294 20.8292 122.739 20.939 123.245 20.939C123.575 20.939 123.872 20.893 124.138 20.8009C124.407 20.7052 124.639 20.5635 124.834 20.3758C125.029 20.1845 125.18 19.9472 125.286 19.6638L126.497 20.0038C126.37 20.4148 126.156 20.7761 125.854 21.0878C125.553 21.396 125.181 21.6369 124.739 21.8105C124.296 21.9805 123.798 22.0655 123.245 22.0655Z" fill="#1A3C6C" fill-opacity="0.5"/>
<line x1="133.752" y1="0.873047" x2="133.752" y2="32.7948" stroke="#1A3C6C" stroke-opacity="0.5" stroke-width="0.638435"/>
<path d="M149.393 21.9414L144.97 14.2802H153.817L149.393 21.9414Z" fill="#1A3C6C" fill-opacity="0.5"/>
</svg>
