<svg width="102" height="19" viewBox="0 0 102 19" fill="none" xmlns="http://www.w3.org/2000/svg">
<rect width="101.345" height="18.1268" rx="4.11972" fill="#70FF66"/>
<path d="M5.92825 6.25766V5.24421H11.8977V6.25766H9.45061V13.6484H8.37536V6.25766H5.92825ZM16.7596 13.29C16.3888 13.4713 16.018 13.5949 15.6473 13.6608C15.2765 13.735 14.9346 13.772 14.6215 13.772C13.7398 13.772 13.0807 13.5207 12.644 13.0181C12.2155 12.5155 12.0013 11.8275 12.0013 10.9541V10.2126C12.0013 9.36393 12.2155 8.68418 12.644 8.17333C13.0807 7.66249 13.6945 7.40706 14.4855 7.40706C14.9057 7.40706 15.2889 7.49358 15.6349 7.66661C15.9892 7.8314 16.2694 8.08682 16.4753 8.43287C16.6896 8.77069 16.7967 9.20738 16.7967 9.74294C16.7967 10.089 16.7472 10.4845 16.6484 10.9294H13.0024V10.9541C13.0024 11.5803 13.1301 12.0541 13.3855 12.3754C13.6492 12.6968 14.0694 12.8575 14.6462 12.8575C14.9098 12.8575 15.1982 12.8245 15.5113 12.7586C15.8327 12.6927 16.1458 12.5897 16.4506 12.4496L16.7596 13.29ZM14.4855 8.29692C14.0076 8.29692 13.6451 8.45347 13.3979 8.76657C13.159 9.07143 13.0271 9.504 13.0024 10.0643H15.7709C15.7956 9.91597 15.8079 9.7759 15.8079 9.64407C15.8079 9.18266 15.6761 8.84485 15.4125 8.63062C15.157 8.40816 14.848 8.29692 14.4855 8.29692ZM19.2673 10.225V10.9541C19.2673 11.5803 19.3827 12.0541 19.6134 12.3754C19.8441 12.6885 20.2108 12.8451 20.7134 12.8451C21.2077 12.8451 21.7392 12.7174 22.3077 12.462L22.6167 13.3147C21.941 13.6196 21.286 13.772 20.6516 13.772C19.8606 13.772 19.2591 13.5207 18.8471 13.0181C18.4352 12.5155 18.2292 11.8275 18.2292 10.9541V10.225C18.2292 9.35157 18.4352 8.66358 18.8471 8.16097C19.2591 7.65837 19.8606 7.40706 20.6516 7.40706C20.9482 7.40706 21.2531 7.44826 21.5662 7.53066C21.8875 7.60481 22.2088 7.71192 22.5302 7.85199L22.2212 8.71713C21.9493 8.60178 21.6856 8.51115 21.4302 8.44523C21.183 8.37932 20.9441 8.34636 20.7134 8.34636C20.2108 8.34636 19.8441 8.50703 19.6134 8.82837C19.3827 9.14147 19.2673 9.60699 19.2673 10.225ZM27.044 8.35872C26.8133 8.35872 26.5414 8.41639 26.2283 8.53175C25.9234 8.6471 25.5526 8.88192 25.1159 9.23622V13.6484H24.1025V4.50266H25.1159V8.34636C25.5444 7.98382 25.9316 7.73664 26.2777 7.60481C26.6237 7.47298 26.9616 7.40706 27.2911 7.40706C27.8597 7.40706 28.2922 7.58833 28.5889 7.95087C28.8937 8.30516 29.0461 8.81189 29.0461 9.47104V13.6484H28.0327V9.61935C28.0327 8.77893 27.7031 8.35872 27.044 8.35872ZM34.1046 8.35872C33.8739 8.35872 33.602 8.41639 33.2889 8.53175C32.984 8.6471 32.6133 8.88192 32.1766 9.23622V13.6484H31.1631V7.53066H32.1271V8.38344C32.5638 8.01266 32.9593 7.75724 33.3136 7.61717C33.6762 7.4771 34.0222 7.40706 34.3518 7.40706C34.9203 7.40706 35.3529 7.58833 35.6495 7.95087C35.9544 8.30516 36.1068 8.81189 36.1068 9.47104V13.6484H35.0933V9.61935C35.0933 8.77893 34.7638 8.35872 34.1046 8.35872ZM39.299 6.0352H38.162V4.89816H39.299V6.0352ZM39.2372 13.6484H38.2238V7.53066H39.2372V13.6484ZM42.139 10.225V10.9541C42.139 11.5803 42.2544 12.0541 42.4851 12.3754C42.7158 12.6885 43.0824 12.8451 43.585 12.8451C44.0794 12.8451 44.6109 12.7174 45.1794 12.462L45.4884 13.3147C44.8127 13.6196 44.1577 13.772 43.5232 13.772C42.7323 13.772 42.1308 13.5207 41.7188 13.0181C41.3068 12.5155 41.1009 11.8275 41.1009 10.9541V10.225C41.1009 9.35157 41.3068 8.66358 41.7188 8.16097C42.1308 7.65837 42.7323 7.40706 43.5232 7.40706C43.8199 7.40706 44.1247 7.44826 44.4378 7.53066C44.7592 7.60481 45.0805 7.71192 45.4018 7.85199L45.0929 8.71713C44.821 8.60178 44.5573 8.51115 44.3019 8.44523C44.0547 8.37932 43.8157 8.34636 43.585 8.34636C43.0824 8.34636 42.7158 8.50703 42.4851 8.82837C42.2544 9.14147 42.139 9.60699 42.139 10.225ZM51.4482 13.7102C51.0692 13.7102 50.7643 13.6237 50.5336 13.4507C50.3111 13.2777 50.1546 13.0634 50.0639 12.808C49.6602 13.1623 49.2936 13.4136 48.964 13.5619C48.6344 13.702 48.3048 13.772 47.9752 13.772C47.4397 13.772 47.0442 13.599 46.7888 13.2529C46.5333 12.9069 46.4056 12.4826 46.4056 11.98C46.4056 11.6421 46.4674 11.3414 46.591 11.0777C46.7146 10.8141 46.9247 10.6081 47.2213 10.4598C47.518 10.3032 47.9176 10.225 48.4202 10.225C48.6426 10.225 48.8857 10.2414 49.1494 10.2744C49.413 10.2991 49.6808 10.3321 49.9527 10.3733V9.5452C49.9527 9.08379 49.8497 8.77069 49.6437 8.6059C49.446 8.43287 49.1535 8.34636 48.7662 8.34636C48.2389 8.34636 47.6498 8.49055 46.9989 8.77893L46.6775 7.93851C47.0566 7.76548 47.4191 7.63365 47.7651 7.54301C48.1112 7.45238 48.4614 7.40706 48.8157 7.40706C49.3924 7.40706 49.8332 7.50182 50.1381 7.69132C50.443 7.88083 50.6531 8.13213 50.7684 8.44523C50.8838 8.75833 50.9414 9.10027 50.9414 9.47104V12.1159C50.9414 12.3054 50.9785 12.4661 51.0527 12.5979C51.1268 12.7215 51.2751 12.7833 51.4976 12.7833H51.6336V13.7102H51.4482ZM47.4067 11.9676C47.4067 12.2477 47.4726 12.4743 47.6045 12.6473C47.7363 12.8204 47.9258 12.9069 48.173 12.9069C48.3872 12.9069 48.6344 12.8451 48.9145 12.7215C49.1947 12.5897 49.5407 12.3301 49.9527 11.9429V11.1642C49.3924 11.0736 48.8981 11.0283 48.4696 11.0283C48.0906 11.0283 47.8187 11.1066 47.6539 11.2631C47.4891 11.4197 47.4067 11.6545 47.4067 11.9676ZM53.0569 12.1653V4.50266H54.0703V12.1159C54.0703 12.3384 54.1033 12.5073 54.1692 12.6226C54.2434 12.7297 54.3876 12.7833 54.6018 12.7833H54.7995V13.7102H54.5153C53.9715 13.7102 53.5925 13.566 53.3782 13.2777C53.164 12.9893 53.0569 12.6185 53.0569 12.1653ZM61.9335 4.50266H62.9469V16.2809H61.9335V4.50266ZM75.0894 10.1137H72.0367V13.6484H70.9614V5.24421H75.4602V6.25766H72.0367V9.10027H75.0894V10.1137ZM80.0354 8.42051C79.6646 8.42051 79.3021 8.48643 78.9478 8.61826C78.6017 8.75009 78.2309 9.0014 77.8354 9.37217V13.6484H76.822V7.53066H77.786V8.51939C78.2062 8.10742 78.5894 7.81904 78.9354 7.65425C79.2897 7.48946 79.6564 7.40706 80.0354 7.40706V8.42051ZM85.7971 13.29C85.4263 13.4713 85.0555 13.5949 84.6847 13.6608C84.314 13.735 83.972 13.772 83.6589 13.772C82.7773 13.772 82.1182 13.5207 81.6815 13.0181C81.253 12.5155 81.0388 11.8275 81.0388 10.9541V10.2126C81.0388 9.36393 81.253 8.68418 81.6815 8.17333C82.1182 7.66249 82.732 7.40706 83.523 7.40706C83.9432 7.40706 84.3263 7.49358 84.6724 7.66661C85.0267 7.8314 85.3068 8.08682 85.5128 8.43287C85.727 8.77069 85.8341 9.20738 85.8341 9.74294C85.8341 10.089 85.7847 10.4845 85.6858 10.9294H82.0399V10.9541C82.0399 11.5803 82.1676 12.0541 82.423 12.3754C82.6867 12.6968 83.1069 12.8575 83.6836 12.8575C83.9473 12.8575 84.2357 12.8245 84.5488 12.7586C84.8701 12.6927 85.1832 12.5897 85.4881 12.4496L85.7971 13.29ZM83.523 8.29692C83.0451 8.29692 82.6826 8.45347 82.4354 8.76657C82.1964 9.07143 82.0646 9.504 82.0399 10.0643H84.8083C84.8331 9.91597 84.8454 9.7759 84.8454 9.64407C84.8454 9.18266 84.7136 8.84485 84.4499 8.63062C84.1945 8.40816 83.8855 8.29692 83.523 8.29692ZM92.0249 13.29C91.6541 13.4713 91.2834 13.5949 90.9126 13.6608C90.5418 13.735 90.1999 13.772 89.8868 13.772C89.0052 13.772 88.346 13.5207 87.9093 13.0181C87.4809 12.5155 87.2666 11.8275 87.2666 10.9541V10.2126C87.2666 9.36393 87.4809 8.68418 87.9093 8.17333C88.346 7.66249 88.9598 7.40706 89.7508 7.40706C90.171 7.40706 90.5542 7.49358 90.9002 7.66661C91.2545 7.8314 91.5347 8.08682 91.7407 8.43287C91.9549 8.77069 92.062 9.20738 92.062 9.74294C92.062 10.089 92.0126 10.4845 91.9137 10.9294H88.2677V10.9541C88.2677 11.5803 88.3954 12.0541 88.6509 12.3754C88.9145 12.6968 89.3347 12.8575 89.9115 12.8575C90.1752 12.8575 90.4635 12.8245 90.7766 12.7586C91.098 12.6927 91.4111 12.5897 91.7159 12.4496L92.0249 13.29ZM89.7508 8.29692C89.2729 8.29692 88.9104 8.45347 88.6632 8.76657C88.4243 9.07143 88.2925 9.504 88.2677 10.0643H91.0362C91.0609 9.91597 91.0733 9.7759 91.0733 9.64407C91.0733 9.18266 90.9414 8.84485 90.6778 8.63062C90.4223 8.40816 90.1134 8.29692 89.7508 8.29692Z" fill="black"/>
</svg>
