<svg width="103" height="18" viewBox="0 0 103 18" fill="none" xmlns="http://www.w3.org/2000/svg">
<path d="M-0.000394529 1.81689V-0.000345945H12.6872V1.81689H7.36766V16.9164H5.31914V1.81689H-0.000394529ZM14.267 16.9164V4.22885H16.1503V6.14521H16.2824C16.5137 5.51744 16.9322 5.00806 17.538 4.61708C18.1437 4.2261 18.8266 4.03061 19.5865 4.03061C19.7297 4.03061 19.9086 4.03336 20.1234 4.03887C20.3382 4.04438 20.5006 4.05264 20.6108 4.06365V6.04609C20.5447 6.02957 20.3932 6.00479 20.1564 5.97174C19.9252 5.9332 19.6801 5.91392 19.4213 5.91392C18.8045 5.91392 18.2539 6.04333 17.7693 6.30215C17.2902 6.55546 16.9102 6.9079 16.6294 7.35945C16.354 7.8055 16.2164 8.31488 16.2164 8.88758V16.9164H14.267ZM27.8549 17.1808C26.6324 17.1808 25.5779 16.9109 24.6913 16.3713C23.8102 15.8261 23.1301 15.0662 22.651 14.0915C22.1774 13.1113 21.9406 11.9714 21.9406 10.6718C21.9406 9.37217 22.1774 8.22677 22.651 7.23555C23.1301 6.23882 23.7964 5.46237 24.65 4.90619C25.509 4.3445 26.5113 4.06365 27.6567 4.06365C28.3175 4.06365 28.97 4.17379 29.6143 4.39406C30.2586 4.61433 30.8451 4.97227 31.3737 5.46788C31.9024 5.95798 32.3237 6.60778 32.6375 7.41727C32.9514 8.22677 33.1084 9.22349 33.1084 10.4074V11.2335H23.3283V9.54839H31.1259C31.1259 8.83251 30.9828 8.19373 30.6964 7.63204C30.4156 7.07035 30.0136 6.62705 29.4904 6.30215C28.9728 5.97725 28.3615 5.8148 27.6567 5.8148C26.8802 5.8148 26.2084 6.00754 25.6412 6.39301C25.0795 6.77298 24.6472 7.26859 24.3443 7.87984C24.0415 8.49109 23.89 9.1464 23.89 9.84576V10.9691C23.89 11.9273 24.0552 12.7396 24.3856 13.4059C24.7216 14.0667 25.1869 14.5706 25.7816 14.9175C26.3763 15.2589 27.0674 15.4296 27.8549 15.4296C28.367 15.4296 28.8296 15.358 29.2426 15.2149C29.6611 15.0662 30.0218 14.8459 30.3247 14.554C30.6276 14.2567 30.8616 13.8877 31.0268 13.4472L32.9101 13.9758C32.7119 14.6146 32.3787 15.1763 31.9106 15.6609C31.4426 16.14 30.8644 16.5145 30.176 16.7843C29.4877 17.0486 28.714 17.1808 27.8549 17.1808ZM39.8074 17.2138C39.0034 17.2138 38.2737 17.0624 37.6184 16.7595C36.9631 16.4511 36.4427 16.0078 36.0572 15.4296C35.6718 14.8459 35.479 14.141 35.479 13.315C35.479 12.5881 35.6222 11.9989 35.9086 11.5473C36.1949 11.0903 36.5776 10.7323 37.0567 10.4735C37.5358 10.2147 38.0645 10.022 38.6427 9.89532C39.2264 9.76316 39.8129 9.65853 40.4021 9.58143C41.173 9.48231 41.798 9.40797 42.2771 9.35841C42.7617 9.30334 43.1142 9.21248 43.3344 9.08582C43.5602 8.95917 43.6731 8.7389 43.6731 8.42501V8.35893C43.6731 7.54393 43.4501 6.91065 43.004 6.45909C42.5635 6.00754 41.8944 5.78176 40.9968 5.78176C40.0662 5.78176 39.3365 5.98551 38.8079 6.39301C38.2792 6.80051 37.9075 7.23555 37.6928 7.69812L35.8425 7.0373C36.1729 6.26636 36.6134 5.66612 37.1641 5.23659C37.7203 4.80156 38.326 4.49868 38.9813 4.32797C39.6421 4.15176 40.2919 4.06365 40.9307 4.06365C41.3382 4.06365 41.8063 4.11321 42.335 4.21233C42.8691 4.30595 43.384 4.50144 43.8796 4.7988C44.3807 5.09617 44.7965 5.54497 45.1269 6.14521C45.4573 6.74545 45.6225 7.54943 45.6225 8.55717V16.9164H43.6731V15.1983H43.574C43.4418 15.4737 43.2215 15.7683 42.9132 16.0822C42.6048 16.3961 42.1945 16.6631 41.6824 16.8834C41.1703 17.1037 40.5453 17.2138 39.8074 17.2138ZM40.1047 15.4627C40.8757 15.4627 41.5255 15.3112 42.0541 15.0084C42.5883 14.7055 42.9903 14.3145 43.2601 13.8354C43.5354 13.3563 43.6731 12.8525 43.6731 12.3238V10.5396C43.5905 10.6387 43.4088 10.7296 43.1279 10.8122C42.8526 10.8893 42.5332 10.9581 42.1698 11.0187C41.8118 11.0738 41.4621 11.1233 41.1207 11.1674C40.7848 11.2059 40.5122 11.239 40.303 11.2665C39.7963 11.3326 39.3228 11.44 38.8822 11.5886C38.4472 11.7318 38.0947 11.9493 37.8249 12.2412C37.5606 12.5276 37.4284 12.9185 37.4284 13.4141C37.4284 14.0915 37.679 14.6036 38.1801 14.9505C38.6867 15.292 39.3283 15.4627 40.1047 15.4627ZM58.1676 7.07035L56.4165 7.56595C56.3063 7.2741 56.1439 6.9905 55.9291 6.71516C55.7198 6.43431 55.4335 6.20303 55.0701 6.02131C54.7066 5.83958 54.2413 5.74872 53.6741 5.74872C52.8976 5.74872 52.2506 5.92769 51.7329 6.28563C51.2208 6.63806 50.9648 7.08687 50.9648 7.63204C50.9648 8.11663 51.141 8.49935 51.4934 8.7802C51.8458 9.06104 52.3965 9.29508 53.1454 9.48231L55.0287 9.94488C56.1631 10.2202 57.0084 10.6415 57.5646 11.2087C58.1208 11.7704 58.3989 12.4945 58.3989 13.3811C58.3989 14.108 58.1896 14.7578 57.7711 15.3305C57.3581 15.9032 56.7799 16.3548 56.0365 16.6852C55.2931 17.0156 54.4285 17.1808 53.4428 17.1808C52.1487 17.1808 51.0776 16.8999 50.2296 16.3382C49.3816 15.7765 48.8446 14.956 48.6189 13.8767L50.4691 13.4141C50.6454 14.097 50.9785 14.6091 51.4686 14.9505C51.9642 15.292 52.6113 15.4627 53.4098 15.4627C54.3184 15.4627 55.0398 15.2699 55.5739 14.8845C56.1136 14.4935 56.3834 14.0254 56.3834 13.4802C56.3834 13.0397 56.2292 12.6707 55.9208 12.3734C55.6125 12.0705 55.1389 11.8447 54.5001 11.696L52.3855 11.2004C51.2236 10.9251 50.37 10.4983 49.8249 9.9201C49.2852 9.33638 49.0154 8.60673 49.0154 7.73116C49.0154 7.01528 49.2164 6.382 49.6183 5.83132C50.0258 5.28065 50.5793 4.84836 51.2786 4.53448C51.9835 4.22059 52.782 4.06365 53.6741 4.06365C54.9296 4.06365 55.9153 4.33899 56.6312 4.88966C57.3526 5.44034 57.8647 6.16724 58.1676 7.07035ZM69.3291 11.7291V4.22885H71.2785V16.9164H69.3291V14.7688H69.197C68.8996 15.4131 68.437 15.961 67.8093 16.4126C67.1815 16.8586 66.3885 17.0817 65.4303 17.0817C64.6374 17.0817 63.9325 16.9082 63.3157 16.5613C62.699 16.2088 62.2144 15.6802 61.862 14.9753C61.5095 14.2649 61.3333 13.3701 61.3333 12.2908V4.22885H63.2827V12.1586C63.2827 13.0837 63.5415 13.8216 64.0592 14.3723C64.5823 14.923 65.2486 15.1983 66.0581 15.1983C66.5427 15.1983 67.0356 15.0744 67.5367 14.8266C68.0433 14.5788 68.4673 14.1989 68.8087 13.6867C69.1557 13.1746 69.3291 12.522 69.3291 11.7291ZM74.849 16.9164V4.22885H76.7323V6.14521H76.8645C77.0957 5.51744 77.5143 5.00806 78.12 4.61708C78.7258 4.2261 79.4086 4.03061 80.1685 4.03061C80.3117 4.03061 80.4907 4.03336 80.7054 4.03887C80.9202 4.04438 81.0826 4.05264 81.1928 4.06365V6.04609C81.1267 6.02957 80.9753 6.00479 80.7385 5.97174C80.5072 5.9332 80.2621 5.91392 80.0033 5.91392C79.3866 5.91392 78.8359 6.04333 78.3513 6.30215C77.8722 6.55546 77.4922 6.9079 77.2114 7.35945C76.9361 7.8055 76.7984 8.31488 76.7984 8.88758V16.9164H74.849ZM88.4369 17.1808C87.2144 17.1808 86.1599 16.9109 85.2733 16.3713C84.3922 15.8261 83.7121 15.0662 83.233 14.0915C82.7595 13.1113 82.5227 11.9714 82.5227 10.6718C82.5227 9.37217 82.7595 8.22677 83.233 7.23555C83.7121 6.23882 84.3785 5.46237 85.232 4.90619C86.0911 4.3445 87.0933 4.06365 88.2387 4.06365C88.8995 4.06365 89.5521 4.17379 90.1964 4.39406C90.8406 4.61433 91.4271 4.97227 91.9558 5.46788C92.4844 5.95798 92.9057 6.60778 93.2196 7.41727C93.5335 8.22677 93.6904 9.22349 93.6904 10.4074V11.2335H83.9104V9.54839H91.708C91.708 8.83251 91.5648 8.19373 91.2784 7.63204C90.9976 7.07035 90.5956 6.62705 90.0725 6.30215C89.5548 5.97725 88.9436 5.8148 88.2387 5.8148C87.4622 5.8148 86.7904 6.00754 86.2232 6.39301C85.6615 6.77298 85.2292 7.26859 84.9264 7.87984C84.6235 8.49109 84.4721 9.1464 84.4721 9.84576V10.9691C84.4721 11.9273 84.6373 12.7396 84.9677 13.4059C85.3036 14.0667 85.7689 14.5706 86.3636 14.9175C86.9584 15.2589 87.6495 15.4296 88.4369 15.4296C88.9491 15.4296 89.4116 15.358 89.8246 15.2149C90.2432 15.0662 90.6039 14.8459 90.9067 14.554C91.2096 14.2567 91.4436 13.8877 91.6088 13.4472L93.4922 13.9758C93.2939 14.6146 92.9608 15.1763 92.4927 15.6609C92.0246 16.14 91.4464 16.5145 90.758 16.7843C90.0697 17.0486 89.296 17.1808 88.4369 17.1808ZM96.6558 16.9164V4.22885H98.5391V6.14521H98.6713C98.9026 5.51744 99.3211 5.00806 99.9268 4.61708C100.533 4.2261 101.215 4.03061 101.975 4.03061C102.119 4.03061 102.297 4.03336 102.512 4.03887C102.727 4.04438 102.889 4.05264 103 4.06365V6.04609C102.934 6.02957 102.782 6.00479 102.545 5.97174C102.314 5.9332 102.069 5.91392 101.81 5.91392C101.193 5.91392 100.643 6.04333 100.158 6.30215C99.679 6.55546 99.299 6.9079 99.0182 7.35945C98.7429 7.8055 98.6052 8.31488 98.6052 8.88758V16.9164H96.6558Z" fill="black"/>
</svg>
