<svg width="189" height="23" viewBox="0 0 189 23" fill="none" xmlns="http://www.w3.org/2000/svg">
<path d="M11.0959 1.15298H13.136V12.3075C13.136 13.4592 12.8645 14.4875 12.3216 15.3923C11.7842 16.2917 11.0246 17.0019 10.043 17.5229C9.06134 18.0384 7.90969 18.2961 6.58803 18.2961C5.26638 18.2961 4.11472 18.0384 3.13308 17.5229C2.15143 17.0019 1.38915 16.2917 0.846226 15.3923C0.308788 14.4875 0.0400694 13.4592 0.0400694 12.3075V1.15298H2.08014V12.143C2.08014 12.9656 2.26111 13.6978 2.62306 14.3394C2.98501 14.9755 3.50051 15.4773 4.16956 15.8448C4.8441 16.2067 5.65026 16.3877 6.58803 16.3877C7.52581 16.3877 8.33196 16.2067 9.0065 15.8448C9.68104 15.4773 10.1965 14.9755 10.553 14.3394C10.915 13.6978 11.0959 12.9656 11.0959 12.143V1.15298ZM16.9467 22.7382V5.36473H18.8223V7.3719H19.0526C19.1952 7.15253 19.3926 6.87285 19.6449 6.53284C19.9026 6.18734 20.2701 5.88023 20.7472 5.61152C21.2298 5.33731 21.8824 5.20021 22.705 5.20021C23.7689 5.20021 24.7067 5.46619 25.5183 5.99814C26.33 6.53009 26.9634 7.28415 27.4185 8.26031C27.8737 9.23648 28.1013 10.3881 28.1013 11.7153C28.1013 13.0534 27.8737 14.2133 27.4185 15.1949C26.9634 16.1711 26.3327 16.9279 25.5265 17.4653C24.7204 17.9973 23.7908 18.2632 22.7379 18.2632C21.9263 18.2632 21.2764 18.1289 20.7883 17.8602C20.3002 17.586 19.9246 17.2761 19.6613 16.9306C19.3981 16.5796 19.1952 16.289 19.0526 16.0586H18.8881V22.7382H16.9467ZM18.8552 11.6824C18.8552 12.6366 18.995 13.4784 19.2747 14.2078C19.5544 14.9317 19.963 15.4993 20.5004 15.9106C21.0378 16.3164 21.6959 16.5193 22.4747 16.5193C23.2863 16.5193 23.9636 16.3054 24.5065 15.8777C25.0549 15.4444 25.4662 14.8631 25.7404 14.1337C26.0201 13.3989 26.1599 12.5818 26.1599 11.6824C26.1599 10.7939 26.0228 9.99328 25.7486 9.28035C25.4799 8.56194 25.0714 7.99434 24.523 7.57755C23.98 7.15528 23.2973 6.94414 22.4747 6.94414C21.685 6.94414 21.0214 7.14431 20.4839 7.54464C19.9465 7.9395 19.5407 8.49339 19.2665 9.20631C18.9923 9.91376 18.8552 10.7391 18.8552 11.6824ZM36.1958 18.2632C35.0112 18.2632 33.9912 17.9835 33.1357 17.4242C32.2802 16.8648 31.6221 16.0943 31.1614 15.1126C30.7007 14.131 30.4704 13.0095 30.4704 11.7482C30.4704 10.4649 30.7062 9.33245 31.1779 8.3508C31.655 7.36367 32.3185 6.59316 33.1686 6.03927C34.0241 5.4799 35.0222 5.20021 36.1629 5.20021C37.0513 5.20021 37.852 5.36473 38.5649 5.69378C39.2778 6.02282 39.8619 6.48348 40.317 7.07576C40.7722 7.66804 41.0546 8.35903 41.1643 9.14873H39.223C39.0749 8.57291 38.7459 8.06289 38.2358 7.61868C37.7313 7.16899 37.0513 6.94414 36.1958 6.94414C35.439 6.94414 34.7754 7.14157 34.2051 7.53642C33.6402 7.92579 33.1987 8.47693 32.8807 9.18986C32.5681 9.89731 32.4118 10.7281 32.4118 11.6824C32.4118 12.6585 32.5653 13.5086 32.8724 14.2325C33.185 14.9563 33.6237 15.5185 34.1886 15.9188C34.7589 16.3191 35.428 16.5193 36.1958 16.5193C36.7003 16.5193 37.1582 16.4316 37.5695 16.2561C37.9808 16.0806 38.3291 15.8283 38.6142 15.4993C38.8994 15.1702 39.1023 14.7754 39.223 14.3147H41.1643C41.0546 15.0605 40.7832 15.7323 40.3499 16.3301C39.9222 16.9224 39.3546 17.394 38.6471 17.745C37.9452 18.0905 37.1281 18.2632 36.1958 18.2632ZM49.1354 18.2632C47.9947 18.2632 46.9939 17.9918 46.1329 17.4489C45.2774 16.9059 44.6083 16.1464 44.1257 15.1702C43.6486 14.1941 43.4101 13.0534 43.4101 11.7482C43.4101 10.432 43.6486 9.28309 44.1257 8.30144C44.6083 7.3198 45.2774 6.55751 46.1329 6.01459C46.9939 5.47167 47.9947 5.20021 49.1354 5.20021C50.2761 5.20021 51.2742 5.47167 52.1297 6.01459C52.9907 6.55751 53.6598 7.3198 54.1369 8.30144C54.6195 9.28309 54.8608 10.432 54.8608 11.7482C54.8608 13.0534 54.6195 14.1941 54.1369 15.1702C53.6598 16.1464 52.9907 16.9059 52.1297 17.4489C51.2742 17.9918 50.2761 18.2632 49.1354 18.2632ZM49.1354 16.5193C50.0019 16.5193 50.7148 16.2972 51.2742 15.853C51.8336 15.4088 52.2476 14.8247 52.5163 14.1008C52.785 13.3769 52.9194 12.5927 52.9194 11.7482C52.9194 10.9036 52.785 10.1167 52.5163 9.38729C52.2476 8.65791 51.8336 8.06837 51.2742 7.61868C50.7148 7.16899 50.0019 6.94414 49.1354 6.94414C48.2689 6.94414 47.556 7.16899 46.9966 7.61868C46.4373 8.06837 46.0232 8.65791 45.7545 9.38729C45.4858 10.1167 45.3514 10.9036 45.3514 11.7482C45.3514 12.5927 45.4858 13.3769 45.7545 14.1008C46.0232 14.8247 46.4373 15.4088 46.9966 15.853C47.556 16.2972 48.2689 16.5193 49.1354 16.5193ZM57.8242 18V5.36473H59.6998V7.33899H59.8643C60.1275 6.66445 60.5525 6.14073 61.1393 5.76781C61.7261 5.38941 62.4308 5.20021 63.2534 5.20021C64.087 5.20021 64.7807 5.38941 65.3346 5.76781C65.894 6.14073 66.33 6.66445 66.6426 7.33899H66.7742C67.0978 6.68639 67.5831 6.16815 68.2302 5.78426C68.8773 5.39489 69.6533 5.20021 70.5582 5.20021C71.6879 5.20021 72.612 5.55393 73.3304 6.26137C74.0488 6.96333 74.408 8.0574 74.408 9.54358V18H72.4666V9.54358C72.4666 8.61129 72.2116 7.94498 71.7016 7.54464C71.1916 7.14431 70.5911 6.94414 69.9001 6.94414C69.0117 6.94414 68.3234 7.21286 67.8354 7.7503C67.3473 8.28225 67.1032 8.95679 67.1032 9.77391V18H65.129V9.34616C65.129 8.62775 64.8959 8.04918 64.4298 7.61045C63.9636 7.16624 63.3631 6.94414 62.6282 6.94414C62.1237 6.94414 61.6521 7.0785 61.2134 7.34722C60.7801 7.61594 60.4291 7.98885 60.1604 8.46597C59.8972 8.9376 59.7656 9.48326 59.7656 10.103V18H57.8242ZM77.9576 18V5.36473H79.8989V18H77.9576ZM78.9447 3.25885C78.5663 3.25885 78.24 3.12998 77.9658 2.87223C77.6971 2.61448 77.5627 2.30463 77.5627 1.94268C77.5627 1.58073 77.6971 1.27088 77.9658 1.01313C78.24 0.755382 78.5663 0.626507 78.9447 0.626507C79.3231 0.626507 79.6466 0.755382 79.9154 1.01313C80.1896 1.27088 80.3267 1.58073 80.3267 1.94268C80.3267 2.30463 80.1896 2.61448 79.9154 2.87223C79.6466 3.12998 79.3231 3.25885 78.9447 3.25885ZM85.396 10.3991V18H83.4546V5.36473H85.3302V7.33899H85.4947C85.7908 6.69736 86.2405 6.18186 86.8438 5.79249C87.447 5.39764 88.2258 5.20021 89.18 5.20021C90.0355 5.20021 90.7841 5.3757 91.4257 5.72668C92.0673 6.07218 92.5664 6.59865 92.9229 7.30609C93.2793 8.00805 93.4576 8.89646 93.4576 9.97134V18H91.5162V10.103C91.5162 9.11034 91.2585 8.33709 90.743 7.7832C90.2274 7.22383 89.52 6.94414 88.6206 6.94414C88.0009 6.94414 87.447 7.0785 86.959 7.34722C86.4764 7.61594 86.0952 8.00805 85.8155 8.52355C85.5358 9.03905 85.396 9.66423 85.396 10.3991ZM102.105 23.0015C101.167 23.0015 100.361 22.8808 99.6868 22.6395C99.0122 22.4037 98.4501 22.0911 98.0004 21.7017C97.5562 21.3179 97.2025 20.9066 96.9392 20.4678L98.4857 19.382C98.6612 19.6123 98.8833 19.8755 99.1521 20.1717C99.4208 20.4733 99.7882 20.7338 100.254 20.9532C100.726 21.178 101.343 21.2904 102.105 21.2904C103.125 21.2904 103.967 21.0437 104.631 20.5501C105.294 20.0565 105.626 19.2833 105.626 18.2303V15.6638H105.461C105.319 15.8941 105.116 16.1793 104.853 16.5193C104.595 16.8538 104.222 17.1527 103.734 17.4159C103.251 17.6737 102.599 17.8026 101.776 17.8026C100.756 17.8026 99.8403 17.5613 99.0287 17.0787C98.2225 16.5961 97.5836 15.8941 97.112 14.9728C96.6458 14.0515 96.4128 12.9327 96.4128 11.6166C96.4128 10.3223 96.6404 9.19535 97.0955 8.23564C97.5507 7.27044 98.1841 6.52461 98.9958 5.99814C99.8074 5.46619 100.745 5.20021 101.809 5.20021C102.632 5.20021 103.284 5.33731 103.767 5.61152C104.255 5.88023 104.628 6.18734 104.886 6.53284C105.149 6.87285 105.352 7.15253 105.494 7.3719H105.692V5.36473H107.567V18.3619C107.567 19.4478 107.321 20.3307 106.827 21.0107C106.339 21.6963 105.681 22.198 104.853 22.5161C104.03 22.8397 103.114 23.0015 102.105 23.0015ZM102.039 16.0586C102.818 16.0586 103.476 15.8804 104.014 15.5239C104.551 15.1675 104.96 14.6547 105.239 13.9857C105.519 13.3166 105.659 12.5159 105.659 11.5837C105.659 10.6733 105.522 9.86989 105.248 9.17341C104.973 8.47693 104.568 7.93127 104.03 7.53642C103.493 7.14157 102.829 6.94414 102.039 6.94414C101.217 6.94414 100.531 7.15253 99.9829 7.56932C99.44 7.98611 99.0314 8.54549 98.7572 9.24744C98.4885 9.9494 98.3541 10.7281 98.3541 11.5837C98.3541 12.4611 98.4912 13.2371 98.7654 13.9116C99.0451 14.5807 99.4564 15.1072 99.9993 15.491C100.548 15.8694 101.228 16.0586 102.039 16.0586ZM117.899 18V1.15298H128.067V2.96271H119.939V8.65517H127.54V10.4649H119.939V16.1903H128.198V18H117.899ZM141.813 5.36473L137.14 18H135.166L130.493 5.36473H132.599L136.087 15.4335H136.219L139.707 5.36473H141.813ZM149.22 18.2632C148.003 18.2632 146.952 17.9945 146.07 17.4571C145.192 16.9142 144.515 16.1574 144.038 15.1867C143.566 14.2105 143.33 13.0753 143.33 11.7811C143.33 10.4868 143.566 9.34616 144.038 8.35903C144.515 7.36641 145.178 6.59316 146.028 6.03927C146.884 5.4799 147.882 5.20021 149.023 5.20021C149.681 5.20021 150.331 5.30989 150.972 5.52925C151.614 5.74862 152.198 6.10508 152.724 6.59865C153.251 7.08673 153.67 7.73384 153.983 8.54C154.296 9.34616 154.452 10.3388 154.452 11.5178V12.3405H144.712V10.6623H152.478C152.478 9.9494 152.335 9.31325 152.05 8.75388C151.77 8.19451 151.37 7.75304 150.849 7.42948C150.333 7.10592 149.725 6.94414 149.023 6.94414C148.249 6.94414 147.58 7.13608 147.016 7.51997C146.456 7.89837 146.026 8.39193 145.724 9.00066C145.422 9.60939 145.272 10.262 145.272 10.9585V12.0772C145.272 13.0314 145.436 13.8403 145.765 14.5039C146.1 15.162 146.563 15.6638 147.155 16.0093C147.748 16.3493 148.436 16.5193 149.22 16.5193C149.73 16.5193 150.191 16.448 150.602 16.3054C151.019 16.1574 151.378 15.938 151.68 15.6473C151.981 15.3512 152.214 14.9838 152.379 14.545L154.255 15.0715C154.057 15.7077 153.725 16.267 153.259 16.7496C152.793 17.2267 152.217 17.5997 151.532 17.8684C150.846 18.1316 150.076 18.2632 149.22 18.2632ZM159.346 10.3991V18H157.405V5.36473H159.281V7.33899H159.445C159.741 6.69736 160.191 6.18186 160.794 5.79249C161.397 5.39764 162.176 5.20021 163.13 5.20021C163.986 5.20021 164.735 5.3757 165.376 5.72668C166.018 6.07218 166.517 6.59865 166.873 7.30609C167.23 8.00805 167.408 8.89646 167.408 9.97134V18H165.467V10.103C165.467 9.11034 165.209 8.33709 164.693 7.7832C164.178 7.22383 163.47 6.94414 162.571 6.94414C161.951 6.94414 161.397 7.0785 160.909 7.34722C160.427 7.61594 160.046 8.00805 159.766 8.52355C159.486 9.03905 159.346 9.66423 159.346 10.3991ZM176.451 5.36473V7.00995H169.903V5.36473H176.451ZM171.811 2.33753H173.752V14.3805C173.752 14.9289 173.832 15.3402 173.991 15.6144C174.155 15.8832 174.364 16.0641 174.616 16.1574C174.874 16.2451 175.145 16.289 175.431 16.289C175.644 16.289 175.82 16.278 175.957 16.2561C176.094 16.2286 176.204 16.2067 176.286 16.1903L176.681 17.9342C176.549 17.9835 176.366 18.0329 176.13 18.0823C175.894 18.1371 175.595 18.1645 175.233 18.1645C174.685 18.1645 174.147 18.0466 173.621 17.8108C173.1 17.575 172.667 17.2158 172.321 16.7332C171.981 16.2506 171.811 15.6419 171.811 14.907V2.33753ZM188.095 8.19451L186.351 8.68807C186.241 8.39742 186.079 8.11499 185.865 7.84078C185.657 7.5611 185.372 7.33077 185.01 7.14979C184.648 6.96882 184.184 6.87833 183.62 6.87833C182.846 6.87833 182.202 7.05656 181.686 7.41303C181.176 7.76401 180.921 8.21096 180.921 8.75388C180.921 9.23648 181.097 9.61762 181.448 9.89731C181.799 10.177 182.347 10.4101 183.093 10.5965L184.969 11.0572C186.098 11.3314 186.94 11.7509 187.494 12.3158C188.048 12.8751 188.325 13.5963 188.325 14.4792C188.325 15.2031 188.116 15.8502 187.7 16.4206C187.288 16.9909 186.713 17.4406 185.972 17.7697C185.232 18.0987 184.371 18.2632 183.389 18.2632C182.1 18.2632 181.034 17.9835 180.189 17.4242C179.345 16.8648 178.81 16.0477 178.585 14.9728L180.428 14.5121C180.603 15.1922 180.935 15.7022 181.423 16.0422C181.917 16.3822 182.561 16.5522 183.356 16.5522C184.261 16.5522 184.98 16.3603 185.512 15.9764C186.049 15.587 186.318 15.1209 186.318 14.5779C186.318 14.1392 186.164 13.7718 185.857 13.4757C185.55 13.174 185.078 12.9492 184.442 12.8011L182.336 12.3075C181.179 12.0333 180.329 11.6083 179.786 11.0325C179.249 10.4512 178.98 9.72456 178.98 8.85259C178.98 8.13966 179.18 7.509 179.581 6.96059C179.986 6.41219 180.538 5.98169 181.234 5.6691C181.936 5.35651 182.731 5.20021 183.62 5.20021C184.87 5.20021 185.852 5.47441 186.565 6.02282C187.283 6.57122 187.793 7.29512 188.095 8.19451Z" fill="black"/>
</svg>
