<svg width="157" height="18" viewBox="0 0 157 18" fill="none" xmlns="http://www.w3.org/2000/svg">
<path d="M2.14692 0.527904L7.16627 14.7604H7.3644L12.3837 0.527904H14.5302L8.32204 17.4352H6.20863L0.000483063 0.527904H2.14692ZM16.8995 17.4352V4.75473H18.8478V17.4352H16.8995ZM17.8902 2.64132C17.5104 2.64132 17.183 2.51198 16.9078 2.25331C16.6381 1.99463 16.5032 1.68368 16.5032 1.32043C16.5032 0.957191 16.6381 0.646234 16.9078 0.38756C17.183 0.128888 17.5104 -0.000447916 17.8902 -0.000447916C18.2699 -0.000447916 18.5946 0.128888 18.8643 0.38756C19.1395 0.646234 19.2771 0.957191 19.2771 1.32043C19.2771 1.68368 19.1395 1.99463 18.8643 2.25331C18.5946 2.51198 18.2699 2.64132 17.8902 2.64132ZM27.5677 17.6994C26.3789 17.6994 25.3552 17.4187 24.4966 16.8573C23.6381 16.2959 22.9776 15.5227 22.5153 14.5375C22.053 13.5523 21.8219 12.4268 21.8219 11.161C21.8219 9.87314 22.0585 8.73663 22.5318 7.75148C23.0107 6.76081 23.6766 5.98755 24.5297 5.43168C25.3882 4.8703 26.3899 4.58962 27.5347 4.58962C28.4263 4.58962 29.2298 4.75473 29.9453 5.08495C30.6608 5.41517 31.2469 5.87747 31.7037 6.47187C32.1605 7.06627 32.4439 7.75973 32.554 8.55226H30.6057C30.4571 7.97437 30.1269 7.46253 29.6151 7.01673C29.1087 6.56543 28.4263 6.33978 27.5677 6.33978C26.8082 6.33978 26.1422 6.53792 25.5699 6.93418C25.003 7.32494 24.5599 7.87806 24.2407 8.59354C23.927 9.30351 23.7702 10.1373 23.7702 11.095C23.7702 12.0746 23.9243 12.9277 24.2325 13.6542C24.5462 14.3806 24.9865 14.9448 25.5533 15.3465C26.1257 15.7483 26.7972 15.9492 27.5677 15.9492C28.074 15.9492 28.5336 15.8611 28.9464 15.685C29.3591 15.5089 29.7086 15.2557 29.9948 14.9255C30.281 14.5953 30.4846 14.199 30.6057 13.7367H32.554C32.4439 14.4852 32.1715 15.1594 31.7367 15.7593C31.3074 16.3537 30.7378 16.827 30.0278 17.1793C29.3234 17.526 28.5033 17.6994 27.5677 17.6994ZM40.7187 17.6994C39.4969 17.6994 38.443 17.4297 37.5569 16.8903C36.6763 16.3455 35.9966 15.586 35.5178 14.6118C35.0444 13.6322 34.8078 12.4929 34.8078 11.194C34.8078 9.89516 35.0444 8.75039 35.5178 7.75973C35.9966 6.76357 36.6625 5.98755 37.5156 5.43168C38.3742 4.8703 39.3758 4.58962 40.5206 4.58962C41.181 4.58962 41.8332 4.69969 42.4771 4.91983C43.1211 5.13998 43.7072 5.49772 44.2356 5.99305C44.7639 6.48288 45.185 7.13231 45.4987 7.94135C45.8124 8.75039 45.9692 9.74656 45.9692 10.9298V11.7554H36.1947V10.0713H43.9879C43.9879 9.3558 43.8448 8.71737 43.5586 8.156C43.2779 7.59462 42.8762 7.15157 42.3533 6.82686C41.836 6.50214 41.2251 6.33978 40.5206 6.33978C39.7446 6.33978 39.0731 6.53241 38.5062 6.91767C37.9449 7.29742 37.5128 7.79275 37.2101 8.40366C36.9074 9.01457 36.7561 9.66951 36.7561 10.3685V11.4912C36.7561 12.4489 36.9212 13.2607 37.2514 13.9266C37.5871 14.587 38.0522 15.0906 38.6466 15.4374C39.241 15.7786 39.9317 15.9492 40.7187 15.9492C41.2306 15.9492 41.6929 15.8776 42.1056 15.7346C42.5239 15.586 42.8844 15.3658 43.1871 15.0741C43.4898 14.7769 43.7237 14.4082 43.8888 13.9679L45.7711 14.4962C45.573 15.1347 45.24 15.696 44.7722 16.1804C44.3044 16.6592 43.7265 17.0334 43.0385 17.3031C42.3506 17.5673 41.5773 17.6994 40.7187 17.6994ZM55.7355 17.4352V0.527904H61.4483C62.7747 0.527904 63.8589 0.767314 64.701 1.24613C65.5485 1.71945 66.176 2.36063 66.5832 3.16967C66.9905 3.97871 67.1941 4.88131 67.1941 5.87747C67.1941 6.87364 66.9905 7.77899 66.5832 8.59354C66.1815 9.40808 65.5595 10.0575 64.7175 10.5418C63.8754 11.0207 62.7967 11.2601 61.4813 11.2601H57.3866V9.44386H61.4153C62.3234 9.44386 63.0526 9.287 63.603 8.97329C64.1534 8.65958 64.5524 8.2358 64.8 7.70194C65.0532 7.16258 65.1798 6.55443 65.1798 5.87747C65.1798 5.20052 65.0532 4.59512 64.8 4.06126C64.5524 3.52741 64.1506 3.10913 63.5947 2.80643C63.0389 2.49822 62.3014 2.34412 61.3823 2.34412H57.7829V17.4352H55.7355ZM70.228 17.4352V4.75473H72.1103V6.67H72.2424C72.4735 6.04259 72.8918 5.5335 73.4972 5.14273C74.1026 4.75197 74.7851 4.55659 75.5446 4.55659C75.6877 4.55659 75.8666 4.55934 76.0812 4.56485C76.2958 4.57035 76.4582 4.57861 76.5683 4.58962V6.57094C76.5022 6.55443 76.3509 6.52966 76.1142 6.49664C75.8831 6.45811 75.6382 6.43885 75.3795 6.43885C74.7631 6.43885 74.2127 6.56819 73.7284 6.82686C73.2496 7.08003 72.8698 7.43226 72.5891 7.88356C72.3139 8.32936 72.1763 8.83845 72.1763 9.41083V17.4352H70.228ZM83.8084 17.6994C82.5865 17.6994 81.5326 17.4297 80.6465 16.8903C79.7659 16.3455 79.0862 15.586 78.6074 14.6118C78.1341 13.6322 77.8974 12.4929 77.8974 11.194C77.8974 9.89516 78.1341 8.75039 78.6074 7.75973C79.0862 6.76357 79.7521 5.98755 80.6052 5.43168C81.4638 4.8703 82.4655 4.58962 83.6102 4.58962C84.2707 4.58962 84.9228 4.69969 85.5668 4.91983C86.2107 5.13998 86.7968 5.49772 87.3252 5.99305C87.8535 6.48288 88.2746 7.13231 88.5883 7.94135C88.902 8.75039 89.0589 9.74656 89.0589 10.9298V11.7554H79.2843V10.0713H87.0775C87.0775 9.3558 86.9344 8.71737 86.6482 8.156C86.3676 7.59462 85.9658 7.15157 85.4429 6.82686C84.9256 6.50214 84.3147 6.33978 83.6102 6.33978C82.8342 6.33978 82.1628 6.53241 81.5959 6.91767C81.0345 7.29742 80.6025 7.79275 80.2998 8.40366C79.9971 9.01457 79.8457 9.66951 79.8457 10.3685V11.4912C79.8457 12.4489 80.0108 13.2607 80.341 13.9266C80.6768 14.587 81.1418 15.0906 81.7362 15.4374C82.3306 15.7786 83.0213 15.9492 83.8084 15.9492C84.3202 15.9492 84.7825 15.8776 85.1953 15.7346C85.6136 15.586 85.974 15.3658 86.2767 15.0741C86.5794 14.7769 86.8134 14.4082 86.9785 13.9679L88.8607 14.4962C88.6626 15.1347 88.3296 15.696 87.8618 16.1804C87.394 16.6592 86.8161 17.0334 86.1281 17.3031C85.4402 17.5673 84.6669 17.6994 83.8084 17.6994ZM101.005 7.59462L99.2544 8.08995C99.1443 7.79826 98.982 7.51482 98.7673 7.23963C98.5582 6.95895 98.272 6.72779 97.9088 6.54617C97.5455 6.36455 97.0805 6.27374 96.5136 6.27374C95.7376 6.27374 95.0909 6.45261 94.5735 6.81035C94.0617 7.16258 93.8058 7.61113 93.8058 8.156C93.8058 8.64032 93.9819 9.02282 94.3341 9.30351C94.6864 9.5842 95.2367 9.8181 95.9852 10.0052L97.8675 10.4675C99.0012 10.7427 99.8461 11.1638 100.402 11.7306C100.958 12.292 101.236 13.0157 101.236 13.9018C101.236 14.6283 101.027 15.2777 100.608 15.8501C100.196 16.4225 99.6177 16.8738 98.8747 17.204C98.1317 17.5343 97.2676 17.6994 96.2824 17.6994C94.9891 17.6994 93.9186 17.4187 93.071 16.8573C92.2235 16.2959 91.6869 15.4759 91.4612 14.3972L93.3104 13.9349C93.4866 14.6173 93.8195 15.1291 94.3094 15.4704C94.8047 15.8116 95.4514 15.9822 96.2494 15.9822C97.1575 15.9822 97.8785 15.7896 98.4124 15.4043C98.9517 15.0136 99.2214 14.5458 99.2214 14.0009C99.2214 13.5606 99.0673 13.1919 98.7591 12.8947C98.4509 12.592 97.9776 12.3663 97.3391 12.2177L95.2257 11.7224C94.0644 11.4472 93.2114 11.0207 92.6665 10.4428C92.1272 9.85938 91.8575 9.13015 91.8575 8.25506C91.8575 7.53958 92.0584 6.90666 92.4601 6.35629C92.8674 5.80593 93.4205 5.37389 94.1195 5.06018C94.824 4.74647 95.622 4.58962 96.5136 4.58962C97.7684 4.58962 98.7536 4.8648 99.4691 5.41517C100.19 5.96553 100.702 6.69202 101.005 7.59462ZM104.169 17.4352V4.75473H106.117V17.4352H104.169ZM105.159 2.64132C104.779 2.64132 104.452 2.51198 104.177 2.25331C103.907 1.99463 103.772 1.68368 103.772 1.32043C103.772 0.957191 103.907 0.646234 104.177 0.38756C104.452 0.128888 104.779 -0.000447916 105.159 -0.000447916C105.539 -0.000447916 105.864 0.128888 106.133 0.38756C106.409 0.646234 106.546 0.957191 106.546 1.32043C106.546 1.68368 106.409 1.99463 106.133 2.25331C105.864 2.51198 105.539 2.64132 105.159 2.64132ZM114.473 17.6994C113.417 17.6994 112.484 17.4324 111.675 16.8986C110.866 16.3592 110.233 15.5997 109.776 14.6201C109.319 13.6349 109.091 12.4709 109.091 11.128C109.091 9.79609 109.319 8.64032 109.776 7.66066C110.233 6.68101 110.869 5.92426 111.683 5.3904C112.498 4.85654 113.439 4.58962 114.506 4.58962C115.332 4.58962 115.984 4.72721 116.463 5.00239C116.947 5.27207 117.316 5.58028 117.569 5.92701C117.828 6.26824 118.029 6.54892 118.172 6.76907H118.337V0.527904H120.285V17.4352H118.403V15.4869H118.172C118.029 15.718 117.825 16.0097 117.561 16.362C117.297 16.7087 116.92 17.0197 116.43 17.2948C115.94 17.5645 115.288 17.6994 114.473 17.6994ZM114.738 15.9492C115.519 15.9492 116.18 15.7456 116.719 15.3383C117.258 14.9255 117.668 14.3559 117.949 13.6294C118.23 12.8974 118.37 12.0526 118.37 11.095C118.37 10.1483 118.232 9.32002 117.957 8.61005C117.682 7.89457 117.275 7.3387 116.735 6.94244C116.196 6.54067 115.53 6.33978 114.738 6.33978C113.912 6.33978 113.224 6.55167 112.674 6.97546C112.129 7.39374 111.719 7.96337 111.444 8.68435C111.174 9.39983 111.039 10.2034 111.039 11.095C111.039 11.9976 111.177 12.8176 111.452 13.5551C111.733 14.2871 112.145 14.8705 112.69 15.3053C113.241 15.7346 113.923 15.9492 114.738 15.9492ZM129.441 17.6994C128.219 17.6994 127.165 17.4297 126.279 16.8903C125.398 16.3455 124.719 15.586 124.24 14.6118C123.766 13.6322 123.53 12.4929 123.53 11.194C123.53 9.89516 123.766 8.75039 124.24 7.75973C124.719 6.76357 125.384 5.98755 126.238 5.43168C127.096 4.8703 128.098 4.58962 129.243 4.58962C129.903 4.58962 130.555 4.69969 131.199 4.91983C131.843 5.13998 132.429 5.49772 132.958 5.99305C133.486 6.48288 133.907 7.13231 134.221 7.94135C134.534 8.75039 134.691 9.74656 134.691 10.9298V11.7554H124.917V10.0713H132.71C132.71 9.3558 132.567 8.71737 132.281 8.156C132 7.59462 131.598 7.15157 131.075 6.82686C130.558 6.50214 129.947 6.33978 129.243 6.33978C128.467 6.33978 127.795 6.53241 127.228 6.91767C126.667 7.29742 126.235 7.79275 125.932 8.40366C125.629 9.01457 125.478 9.66951 125.478 10.3685V11.4912C125.478 12.4489 125.643 13.2607 125.973 13.9266C126.309 14.587 126.774 15.0906 127.369 15.4374C127.963 15.7786 128.654 15.9492 129.441 15.9492C129.953 15.9492 130.415 15.8776 130.828 15.7346C131.246 15.586 131.606 15.3658 131.909 15.0741C132.212 14.7769 132.446 14.4082 132.611 13.9679L134.493 14.4962C134.295 15.1347 133.962 15.696 133.494 16.1804C133.026 16.6592 132.448 17.0334 131.76 17.3031C131.073 17.5673 130.299 17.6994 129.441 17.6994ZM139.603 9.8071V17.4352H137.655V4.75473H139.537V6.73605H139.702C139.999 6.09212 140.451 5.57477 141.056 5.18401C141.662 4.78775 142.443 4.58962 143.401 4.58962C144.259 4.58962 145.011 4.76573 145.654 5.11797C146.298 5.4647 146.799 5.99305 147.157 6.70303C147.515 7.4075 147.694 8.29909 147.694 9.37781V17.4352H145.745V9.5099C145.745 8.51373 145.487 7.73772 144.969 7.18184C144.452 6.62047 143.742 6.33978 142.839 6.33978C142.217 6.33978 141.662 6.47462 141.172 6.7443C140.687 7.01398 140.305 7.4075 140.024 7.92484C139.744 8.44219 139.603 9.0696 139.603 9.8071ZM156.768 4.75473V6.40583H150.197V4.75473H156.768ZM152.112 1.7167H154.061V13.8028C154.061 14.3531 154.14 14.7659 154.3 15.0411C154.465 15.3108 154.674 15.4924 154.928 15.586C155.186 15.674 155.459 15.718 155.745 15.718C155.959 15.718 156.136 15.707 156.273 15.685C156.411 15.6575 156.521 15.6355 156.603 15.619L157 17.3691C156.868 17.4187 156.683 17.4682 156.447 17.5177C156.21 17.5728 155.91 17.6003 155.547 17.6003C154.996 17.6003 154.457 17.482 153.929 17.2453C153.406 17.0087 152.971 16.6482 152.624 16.1638C152.283 15.6795 152.112 15.0686 152.112 14.3311V1.7167Z" fill="black"/>
</svg>
