<svg width="121" height="39" viewBox="0 0 121 39" fill="none" xmlns="http://www.w3.org/2000/svg">
<path d="M19.76 28.24C19.0933 28.64 17.9867 29.1067 16.44 29.64C14.92 30.1467 13.1333 30.4 11.08 30.4C8.76 30.4 6.81333 29.92 5.24 28.96C3.69333 28 2.52 26.68 1.72 25C0.92 23.32 0.52 21.4 0.52 19.24V13.52C0.52 11.3067 0.92 9.37333 1.72 7.72C2.52 6.04 3.70667 4.73333 5.28 3.8C6.88 2.86666 8.88 2.4 11.28 2.4C12.4533 2.4 13.6667 2.53333 14.92 2.8C16.1733 3.04 17.5467 3.49333 19.04 4.16L17.56 8.36C16.2533 7.85333 15.12 7.49333 14.16 7.28C13.2267 7.04 12.2933 6.92 11.36 6.92C9.28 6.92 7.77333 7.52 6.84 8.72C5.90667 9.89333 5.44 11.4933 5.44 13.52V19.24C5.44 21.16 5.90667 22.7333 6.84 23.96C7.8 25.1867 9.29333 25.8 11.32 25.8C11.9333 25.8 12.6 25.7467 13.32 25.64C14.04 25.5333 14.7333 25.3867 15.4 25.2V19.24H11V15.04H19.76V28.24ZM40.6216 30.2C39.2616 30.2 38.1682 29.92 37.3416 29.36C36.5416 28.8 35.9549 28.1067 35.5816 27.28C34.4349 28.3467 33.3282 29.1333 32.2616 29.64C31.1949 30.1467 30.0482 30.4 28.8216 30.4C27.0349 30.4 25.7149 29.8267 24.8616 28.68C24.0349 27.5333 23.6216 26.08 23.6216 24.32C23.6216 23.1467 23.8349 22.12 24.2616 21.24C24.7149 20.3333 25.4482 19.6267 26.4616 19.12C27.4749 18.6133 28.8616 18.36 30.6216 18.36C31.3149 18.36 32.0349 18.4133 32.7816 18.52C33.5282 18.6 34.2749 18.7067 35.0216 18.84V16.48C35.0216 15.36 34.7149 14.6 34.1016 14.2C33.4882 13.7733 32.6616 13.56 31.6216 13.56C30.8216 13.56 29.9416 13.6667 28.9816 13.88C28.0482 14.0933 27.0349 14.4267 25.9416 14.88L24.6216 10.96C27.3149 9.86667 29.7549 9.32 31.9416 9.32C33.9149 9.32 35.4349 9.65333 36.5016 10.32C37.5949 10.9867 38.3549 11.8667 38.7816 12.96C39.2082 14.0533 39.4216 15.2267 39.4216 16.48V24.28C39.4216 24.68 39.5282 25.0667 39.7416 25.44C39.9816 25.7867 40.4349 25.96 41.1016 25.96H41.5416V30.2H40.6216ZM28.0616 24.24C28.0616 24.96 28.2216 25.5333 28.5416 25.96C28.8616 26.36 29.3282 26.56 29.9416 26.56C30.5549 26.56 31.2482 26.4 32.0216 26.08C32.7949 25.76 33.7949 25.0133 35.0216 23.84V22.12C33.6349 21.88 32.2749 21.76 30.9416 21.76C29.9016 21.76 29.1549 21.9733 28.7016 22.4C28.2749 22.8267 28.0616 23.44 28.0616 24.24ZM45.415 24.28V0.4H50.015V24.28C50.015 24.68 50.1083 25.0667 50.295 25.44C50.5083 25.7867 50.9083 25.96 51.495 25.96H52.135V30.2H51.015C49.495 30.2 48.335 29.9067 47.535 29.32C46.735 28.7333 46.175 27.9867 45.855 27.08C45.5617 26.1733 45.415 25.24 45.415 24.28ZM56.4697 24.28V0.4H61.0697V24.28C61.0697 24.68 61.163 25.0667 61.3497 25.44C61.563 25.7867 61.963 25.96 62.5497 25.96H63.1897V30.2H62.0697C60.5497 30.2 59.3897 29.9067 58.5897 29.32C57.7897 28.7333 57.2297 27.9867 56.9097 27.08C56.6164 26.1733 56.4697 25.24 56.4697 24.28ZM83.0444 28.84C81.6577 29.4 80.351 29.8 79.1244 30.04C77.8977 30.28 76.7377 30.4 75.6444 30.4C72.631 30.4 70.351 29.5467 68.8044 27.84C67.2577 26.1333 66.4844 23.8667 66.4844 21.04V18.64C66.4844 16.7467 66.831 15.1067 67.5244 13.72C68.2177 12.3333 69.2044 11.2533 70.4844 10.48C71.7644 9.70667 73.271 9.32 75.0044 9.32C76.4177 9.32 77.7377 9.61333 78.9644 10.2C80.2177 10.76 81.231 11.6533 82.0044 12.88C82.8044 14.08 83.2044 15.6267 83.2044 17.52C83.2044 18.08 83.1644 18.68 83.0844 19.32C83.0044 19.9333 82.871 20.5867 82.6844 21.28H70.9244C70.9777 22.9333 71.391 24.1733 72.1644 25C72.9377 25.8267 74.1777 26.24 75.8844 26.24C76.791 26.24 77.7244 26.1333 78.6844 25.92C79.671 25.7067 80.6844 25.3867 81.7244 24.96L83.0444 28.84ZM75.0044 13.2C73.7777 13.2 72.8177 13.6 72.1244 14.4C71.4577 15.1733 71.071 16.2933 70.9644 17.76H78.6444C78.671 17.6267 78.6844 17.5067 78.6844 17.4C78.6844 17.2667 78.6844 17.1467 78.6844 17.04C78.6844 15.76 78.3244 14.8 77.6044 14.16C76.8844 13.52 76.0177 13.2 75.0044 13.2ZM99.9438 13.92C98.6904 13.92 97.4904 14.12 96.3438 14.52C95.2238 14.8933 94.1438 15.5067 93.1038 16.36V30H88.5038V9.72H92.8638V12.84C94.2238 11.56 95.4371 10.6533 96.5038 10.12C97.5704 9.58667 98.7171 9.32 99.9438 9.32V13.92ZM112.173 32C111.293 34.4533 110.173 36.2133 108.813 37.28C107.453 38.3733 105.586 38.92 103.213 38.92V34.32C104.626 34.2667 105.733 33.9467 106.533 33.36C107.359 32.8 107.973 32.0133 108.373 31L108.733 30.08L101.493 9.72H106.053L109.533 19.84L110.893 24.12L112.213 19.84L115.533 9.72H120.093L112.173 32Z" fill="#D5EAFF"/>
</svg>
